<?xml version="1.0" encoding="UTF-8"?>
<svg id="Ebene_1" data-name="Ebene 1" xmlns="http://www.w3.org/2000/svg" viewBox="0 0 100.08 23.04">
  <defs>
    <style>
      .cls-1 {
        fill: #271713;
      }
    </style>
  </defs>
  <path class="cls-1" d="M16.15,2.19v.45c0,.21-.21,1.05-.48,1.83l-6.27,17.31c-.24,.63-.78,.96-1.47,.96h-3.81c-.93,0-1.26-.9-.96-1.47L11.14,6.18H4.66c-1.77,0-1.83,2.61-3.3,2.61H.85C.28,8.79-.05,8.4,0,7.86L.61,2.43c.09-.69,.39-.99,1.11-.99H15.31c.51,0,.84,.33,.84,.75Z"/>
  <g>
    <path class="cls-1" d="M33.67,21.99v.12c0,.39-.3,.63-.75,.63h-4.77c-.48,0-.84-.3-.87-.78-.84,.69-2.04,1.08-3.39,1.08-3.6,0-7.11-2.46-7.11-7.5,0-4.5,3.42-7.5,7.11-7.5,1.14,0,2.04,.21,2.76,.63v-3.39c0-1.47-1.68-1.71-1.68-2.64v-.09c0-.39,.3-.75,.75-.87L31,.12c.96-.27,1.44-.09,1.44,.78V19.14c0,1.47,1.23,1.92,1.23,2.85Zm-7.02-2.52v-6.18c0-1.92-1.14-3.66-2.25-3.66-1.17,0-1.71,1.05-1.8,3.12-.12,1.92,.6,8.58,2.64,8.7,.84,.03,1.41-.75,1.41-1.98Z"/>
    <path class="cls-1" d="M48.31,11.19c0,1.68-.6,3.18-2.58,3.18-3.06,0-1.71-3-3.12-3-.63,0-.72,.93-.72,1.86v5.91c0,1.47,1.68,1.92,1.68,2.85v.12c0,.39-.3,.63-.75,.63h-7.17c-.45,0-.75-.24-.75-.63v-.12c0-.93,1.23-1.38,1.23-2.85v-5.13c0-1.47-1.53-1.62-1.53-2.55v-.12c0-.39,.27-.69,.75-.93l4.77-2.25c.84-.39,1.14,.09,1.14,.72v2.19c.63-1.95,2.04-3.03,4.23-3.03,1.77,0,2.82,1.35,2.82,3.15Z"/>
    <path class="cls-1" d="M65.95,21.84c0,.87-1.32,1.08-3.42,1.08-1.95,0-2.79-.42-3-1.56-.75,1.08-2.1,1.68-4.11,1.68-2.94,0-5.61-2.04-5.61-5.67v-4.92c0-1.47-1.23-1.92-1.23-2.73v-.12c0-.36,.3-.69,.75-.75l4.98-.66c.99-.12,1.59,.09,1.59,.69l-.12,9.12c-.03,2.19,.45,2.85,1.5,2.85,.84,0,1.5-1.02,1.5-2.58v-5.82c0-1.47-1.23-1.92-1.23-2.73v-.12c0-.36,.3-.69,.75-.75l4.98-.66c.99-.12,1.47,.09,1.47,.69v10.35c0,2.52,1.2,1.29,1.2,2.61Z"/>
    <path class="cls-1" d="M66.34,15.54c0-4.74,3.57-7.47,7.62-7.5,3.6-.03,6.54,1.68,6.54,4.65,0,.96-.63,1.98-2.46,1.89-3.39-.21-3.06-4.98-4.95-4.92-.96,.03-1.56,1.29-1.56,2.85,0,3.81,1.83,6.36,4.68,6.36,1.59,0,2.52-.78,3.12-1.47,.42-.48,1.2-.3,1.2,.39,0,2.7-2.07,5.25-6.36,5.25-4.86,0-7.83-3.69-7.83-7.5Z"/>
    <path class="cls-1" d="M100.08,21.99v.12c0,.39-.3,.63-.75,.63h-6.9c-.45,0-.75-.27-.75-.66v-.12c0-.9,1.11-1.17,.63-1.95l-2.25-3.63c-.36,.06-.78,.09-1.17,.09v2.67c0,1.47,1.38,1.92,1.38,2.85v.12c0,.39-.3,.63-.75,.63h-7.23c-.45,0-.75-.24-.75-.63v-.12c0-.93,1.23-1.38,1.23-2.85V6.27c0-1.47-1.53-1.92-1.53-2.73v-.12c0-.36,.3-.54,.75-.75L87.42,.15c.9-.42,1.47,.09,1.47,.69V14.1c4.53-.54,2.49-6.03,6.45-6.03,1.8,0,2.61,1.11,2.61,2.49s-1.14,3.06-3.18,4.26l3.54,5.19c.45,.66,1.77,1.05,1.77,1.98Z"/>
  </g>
</svg>