<?xml version="1.0" encoding="utf-8"?>
<!-- Generator: Adobe Illustrator 24.3.0, SVG Export Plug-In . SVG Version: 6.00 Build 0)  -->
<svg version="1.1" id="Layer_1" xmlns="http://www.w3.org/2000/svg" xmlns:xlink="http://www.w3.org/1999/xlink" x="0px" y="0px"
	 viewBox="0 0 1402.4 1402.4" style="enable-background:new 0 0 1402.4 1402.4;" xml:space="preserve">
<style type="text/css">
	.st0{fill:none;stroke:#FFFFFF;stroke-width:5.6693;stroke-miterlimit:10;}
	.st1{fill:#FFFFFF;}
	.st2{fill:none;stroke:#000000;stroke-width:5.6693;stroke-miterlimit:10;}
</style>
<g>
	<g>
		<g id="XMLID_00000003796829895414062090000013371331364334996627_">
			<path id="XMLID_00000090287066215711931430000006110581162638504344_" d="M558.3,678c0,0.1,0.4-0.1,1-0.4
				C558.9,677.7,558.4,677.9,558.3,678z"/>
			<path id="XMLID_00000005243207895500393240000003646529836848706472_" d="M561.4,676.7c-0.1,0.1,0.4,0,1-0.1
				C562,676.6,561.6,676.6,561.4,676.7z"/>
			<path id="XMLID_00000070101350127407365670000016846338576377878932_" d="M566.4,676.6c-0.3-0.2-0.6-0.3-0.6-0.3
				c0,0,0.1,0.1,0.4,0.2C566.3,676.6,566.3,676.6,566.4,676.6z"/>
			<path id="XMLID_00000121968924133154037830000015297916907468401809_" d="M566.5,676.6L566.5,676.6
				C566.5,676.6,566.5,676.6,566.5,676.6C566.5,676.6,566.5,676.6,566.5,676.6z"/>
			<path id="XMLID_00000016759155072999265690000000203355860497067944_" d="M400.2,509c-0.4,0.3-1.1,1.2-1.5,1.7
				c0,0-0.1,0.1-0.1,0.1C399.1,510.3,399.6,509.7,400.2,509z"/>
			<path id="XMLID_00000098202729599613674580000001626067626814246039_" d="M422.2,486.4c-0.3,0.2-0.7,0.4-0.9,0.6c0,0,0,0,0,0
				C421.5,486.9,421.8,486.7,422.2,486.4z"/>
			<path id="XMLID_00000060744139934461578900000014982897047176245155_" d="M410.1,694.5c0,0-0.1,0-0.1-0.1c2.2,2,2.1,1.9,1.5,1.3
				C411,695.3,410.5,694.9,410.1,694.5z"/>
			<path id="XMLID_00000047040525830060666470000006180068372476698028_" d="M451.9,680.8c0.1,0.2,0.2,0.3,0.4,0.5
				c1.1,1.2-1.5-2-1.4-1.9C451.2,679.8,451.6,680.3,451.9,680.8z"/>
			<path id="XMLID_00000104694422669185296640000002128962329996916646_" d="M566.3,676.6c0.1,0,0.2,0.1,0.3,0.1
				c-0.1,0-0.1-0.1-0.2-0.1C566.4,676.6,566.3,676.6,566.3,676.6z"/>
			<path id="XMLID_00000083062028071064549950000011159971579619243152_" d="M566.5,676c-0.1,0,0.2,0.5,0.7,0.9
				C566.9,676.5,566.6,676,566.5,676z"/>
			<path id="XMLID_00000087379702138101151520000011252987455912571834_" d="M568.7,679.8c-0.1-0.2,0.2,1.5,0.4,2.4
				C569.1,681.3,569,680.5,568.7,679.8z"/>
			<path id="XMLID_00000150103917867421345920000015812387940781449384_" d="M799.3,755.6c0.2-0.3,0.4-0.5,0.6-0.8
				c-0.3,0.3-0.6,0.8-0.9,1.1C799.2,755.8,799.3,755.7,799.3,755.6z"/>
			<path id="XMLID_00000086685477294013277540000003642164650515433131_" d="M880.1,798.2c-0.3,0.1-0.6,0.2-0.7,0.3
				C879.9,798.4,880.1,798.3,880.1,798.2z"/>
			<path id="XMLID_00000036965104460823755480000006215716650697716898_" d="M873.5,798.5c-0.3-0.1-0.6-0.2-0.8-0.4
				C872.4,798.2,872.9,798.4,873.5,798.5z"/>
			<path id="XMLID_00000025440154622336077460000005909012021675463813_" d="M841,755.4c0.1,0.3,0.2,0.6,0.3,0.9
				c0.1,0.1,0.1,0.3,0.2,0.4c-0.7-1.8-1-2.5-1.1-2.7C840.6,754.4,840.8,754.9,841,755.4z"/>
			<path id="XMLID_00000093140482492271447980000016565048103714868356_" d="M1105.8,668.2c0,0-1.1,0.5-1.9,0.8
				C1105.1,668.6,1105.9,668.3,1105.8,668.2z"/>
			<path id="XMLID_00000180340640665463194520000004428482962646954404_" d="M607.4,796.1c0.1-0.1-0.6,0.2-1.3,0.5
				C606.5,796.5,607.1,796.4,607.4,796.1z"/>
			<path id="XMLID_00000136410564354717484250000017739817386927111076_" d="M683.5,473.7c-0.1-0.2-0.3-0.4-0.3-0.4
				C683.2,473.3,683.2,473.5,683.5,473.7C683.4,473.6,683.5,473.7,683.5,473.7z"/>
			<path id="XMLID_00000173840504072741024670000012079138345489178790_" d="M685,476.1c-0.3,0.4-0.6,0.7-0.8,1
				C684.2,477.3,684.6,476.8,685,476.1C685,476.1,685,476.1,685,476.1z"/>
			<path id="XMLID_00000056408237811090651020000004403323565606189487_" d="M683.3,473.6c-0.4-0.4-0.7-0.7-0.9-0.7
				C682.1,472.9,682.7,473.2,683.3,473.6z"/>
			<path id="XMLID_00000076600518565273201130000010324513086345748106_" d="M798.9,756.3c0-0.1,0.1-0.1,0.1-0.2c0,0,0,0,0,0
				C798.6,756.6,798.3,757,798.9,756.3z"/>
			<path id="XMLID_00000179630646543921247440000017161362537386744255_" d="M1154.6,680.4c7.5-7.2,7.8-20.9,0-28
				c-8.1-7.4-20-7.6-28,0c-2.9,2.8-5.9,5.5-9,8.1c-0.2,0.2-0.5,0.4-0.7,0.6c-0.2,0.2-0.4,0.3-0.6,0.5c-0.1,0.1-0.2,0.1-0.3,0.2
				c0.3-0.2,0.6-0.4,0.9-0.7c0.9-0.8,1.5-1.7-1.1,0.8c0.1,0,0.1-0.1,0.2-0.1c-0.2,0.2-0.4,0.3-0.5,0.5c0.1-0.1,0.3-0.2,0.4-0.4
				c-1.4,1-2.9,2-4.4,3c-1.5,0.9-3,1.8-4.6,2.7c-0.8,0.4-1.6,0.8-2.3,1.2c-0.3,0.2-0.6,0.3-0.8,0.4c-2,0.6-4.8,1.2-6.7,1.6
				c-1.9,0.1-3.8,0.1-5.7,0c-1.6-0.3-3.2-0.7-4.8-1.2c-0.2-0.1-0.4-0.1-0.6-0.2c-8.1-6.4-17.2-11.5-27.2-15.3
				c-35.9-13.4-79.8-1.6-104.1,27.9c-10.8,13-17.9,27.7-21.1,43.8c0,0,0,0,0,0.1c-0.2,0.5-0.4,1-0.6,1.4c-0.2,0.5-0.5,1.1-0.7,1.6
				c-1.9,4.3-4,8.5-6.2,12.7c-5.6,10.9-11.9,21.5-19,31.4c-0.8,1.2-1.7,2.3-2.6,3.5c-0.2,0.3-0.4,0.6-0.7,0.8
				c-2,2.5-4.1,4.9-6.3,7.3c-2.1,2.3-4.3,4.4-6.6,6.5c-0.8,0.7-1.7,1.4-2.5,2.1c-0.4,0.2-0.7,0.5-1.1,0.8c-2,1.4-4.2,2.6-6.4,3.7
				c-0.6,0.2-1.3,0.4-1.9,0.6c0.5-0.1,0.8-0.1,1-0.1c-0.4,0.2-0.5,0.3-0.4,0.3c-0.3,0.1-0.7,0.2-1.2,0.2c-0.3,0-0.6,0-0.8,0
				c-0.1,0-0.3,0.1-0.4,0.1c-0.2,0-0.4,0.1-0.6,0.1c0.3,0.1,0.6,0.1,0.9,0.2c-0.3-0.1-0.7-0.1-1-0.2c-0.3,0.1-0.6,0.1-0.9,0.2
				c0.3-0.1,0.5-0.1,0.8-0.2c-0.2,0-0.4-0.1-0.5-0.1c-0.1,0-0.3-0.1-0.4-0.1h0.3c-0.5-0.1-0.9-0.2-1.3-0.3c0.3,0.1,0.6,0.2,1,0.3
				c-0.2,0-0.5,0-0.7,0h-0.2c-0.1,0-0.1-0.1-0.2-0.1c-0.2-0.1-0.3-0.2-0.5-0.3c0.2,0,0.4,0.1,0.6,0.1c-0.4-0.1-0.7-0.2-1.1-0.3
				c-0.2-0.1-0.5-0.2-0.7-0.4c-0.9-0.5-1.7-1-2.5-1.6c-0.4-0.4-0.9-0.8-1.3-1.2c-1.3-1.3-2.6-2.6-3.7-3.9c-3.8-4.3-7.2-9.1-11-13.4
				c-0.1-0.1-0.2-0.3-0.3-0.4c-0.9-1.2-1.8-2.4-2.6-3.7c-1.7-2.5-3.3-5-4.8-7.6c-0.9-1.6-1.8-3.1-2.6-4.7
				c17.2-26.2,30.2-55.2,39.7-85.1c13-41.1,19.4-85.3,17-128.5c-1-18.3-3.6-36.7-8.2-54.5c-2.5-9.9-5.8-19.4-10-28.7
				c-4-8.9-9.9-17.4-18.2-22.7c-10.1-6.4-23.3-6.1-33.5-0.1c-8.6,5.1-15.1,13.6-19.8,22.3c-8.7,15.7-14.2,33.4-19.3,50.6
				c-13,43.6-16.1,90.7-13,135.9c1.6,23.9,5,47.8,10.5,71.1c2.5,10.4,5.4,20.7,8.9,30.9c0.4,1.2,0.8,2.4,1.3,3.6
				c-0.6,0.8-1.2,1.5-1.8,2.3c-1.5,1.9-3,3.7-4.6,5.5c-3,3.4-6.1,6.8-9.2,10c-3.4,3.4-6.8,6.7-10.5,9.9c-1.1,0.9-2.2,1.9-3.3,2.8
				c-0.2,0.2-0.9,0.7-1.5,1.2c-0.7,0.5-1.6,1.2-1.9,1.4c-1.2,0.8-2.4,1.6-3.6,2.4c-2.3,1.5-4.5,2.8-6.9,4.1
				c-0.8,0.4-1.6,0.8-2.5,1.2c-0.7,0.2-1.6,0.7-2.2,0.9c-2.4,0.9-4.9,1.6-7.4,2.1c-1.4,0-2.8,0.3-4.2,0.3c-1,0-2.1-0.1-3.1-0.1
				c-0.1,0-0.1,0-0.2,0c-2.1-0.4-4.1-1.1-6.1-1.8c-0.9-0.5-1.9-1-2.8-1.5c-0.9-0.5-1.7-1-2.6-1.6c-0.6-0.4-1.1-0.8-1.7-1.1
				c-2.4-1.6,1.6,1.2,1.6,1.3c-0.8,0.6-9.2-8.9-9.9-9.8c-0.1-0.1-0.2-0.2-0.3-0.4c0.1,0.2,0.3,0.4,0.4,0.6c-0.6-0.9-1.3-1.7-1.9-2.6
				c-1.5-2.1-2.8-4.2-4.1-6.3c-2.5-4.2-4.8-8.5-6.9-12.8c-1-2.1-2-4.2-2.9-6.3c0-0.1,0-0.1-0.1-0.2c3.7-7,6.9-14.3,9.9-21.7
				c17-41,23.3-86.3,27.2-130.2c2.3-26.2,3.4-52.6,0.8-78.7c-1.5-14.7-3.7-29.4-7.5-43.7c-3.5-13-7.8-26.4-17.2-36.4
				c-11.3-12.1-29.4-15-44-7.2c-12.1,6.4-19.1,18.8-24.1,31.1c-4,10-5.9,21-7.8,31.5c-2.4,12.6-4.1,25.4-5.5,38.2
				c-5.2,48.9-2.6,98.7,6.5,147.1c4.2,22.5,10.1,44.7,17.9,66.2c-0.6,0.9-1.2,1.7-1.8,2.6c-0.3,0.3-1.5,1.7-1.8,2.3
				c-1.7,2.1-3.5,4.2-5.3,6.2c-3.5,4-7.1,7.8-10.9,11.5c-3.5,3.4-7.2,6.7-11,9.8c0,0,0,0,0,0.1c-0.7,0.5-1.4,1-2.1,1.5
				c-1.9,1.4-3.9,2.6-5.8,3.9c-3.5,2.1-7.1,3.9-10.8,5.7c-0.9,0.3-1.7,0.6-2.6,0.9c-2.1,0.7-4.1,1.3-6.3,1.9
				c-1.9,0.5-3.9,0.8-5.8,1.2c-0.9,0.1-1.9,0.2-2.8,0.2c-4.4,0.3-8.8,0.2-13.1-0.2c-0.3,0-0.9-0.1-1.5-0.2c-0.4-0.1-0.7-0.1-0.9-0.1
				c-2.5-0.4-4.9-0.9-7.3-1.5c-2.3-0.6-4.7-1.2-7-1.9c-1.1-0.4-2.2-0.7-3.3-1.1c-0.3-0.1-0.6-0.2-0.8-0.3c-2.8-1.4-5.5-2.9-8.2-4.7
				c-0.3-0.3-0.6-0.6-1-0.9c-1.3-1.2-2.6-2.5-3.8-3.8c-0.3-0.3-0.6-0.7-0.9-1c-0.9-1.3-1.8-2.6-2.5-3.9c-0.8-1.4-1.6-2.9-2.4-4.4
				c-0.2-0.4-0.4-0.9-0.6-1.4c-1.2-3.3-2.2-6.6-2.9-10c-0.2-0.7-0.3-1.5-0.5-2.2c18.8-2.9,36.6-11.4,50.9-23.9
				c19-16.8,29.9-43,24.9-68.1c-3.1-15.5-14.9-28.3-30-32.6c-13.8-4-30.2-0.9-41.9,7.3c-18,12.6-29.7,32.7-36.6,53.3
				c-2.2,6.4-3.9,13.1-5.2,19.8c0,0,0,0-0.1,0c-4.4-2.3-8.6-5.1-12.6-7.9c-0.9-0.8-1.9-1.5-2.8-2.3c-2-1.8-4-3.6-5.9-5.4
				c-5.7-5.4-10.9-11.3-15.9-17.4c-2-2.7-4-5.4-6.2-8c-0.3-0.4-0.6-0.7-0.9-1.1c-0.5-0.6-1-1.2-1.6-1.8c-0.4-0.4-0.8-0.8-1.1-1.1
				c-5.6-5.9-12.1-11-18.8-15.5c-7-4.7-18.3-3.1-24,3.1c-6,6.5-7.7,16.2-3.1,24c3.9,6.7,9.8,11.2,16.2,15.4c0.7,0.5,1.5,1,2.2,1.4
				c0.6,0.7,1.3,1.4,1.9,2.1c0.9,1.1,1.7,2.2,2.6,3.3c-0.2-0.3-0.4-0.6-0.6-1.1c0,0,0.1,0.1,0.1,0.1c0.3,0.4,0.6,0.8,0.9,1.2
				c0.1,0.2,0.3,0.5,0.4,0.6c-0.2-0.3-0.5-0.6-0.7-0.9c0.9,1.5,1,1.5,0.7,0.9c0.1,0.1,0.2,0.3,0.3,0.4c0.2,0.2,0.4,0.5,0.6,0.7
				c0.8,1.2,1.6,2.4,2.3,3.6c2.1,3.3,4.3,7,5.7,10.7c0.3,0.9,0.7,1.7,1,2.6c0.7,2,1.4,4,2,6c0.9,3,1.4,6,2,9
				c-0.1-0.6,0.4,1.1,0.5,2.2c0,0.2,0,0.3,0,0.5c-0.2-0.9-0.4-1.8-0.6-2.7c0,0.3,0.2,1.1,0.6,2.8v0c0,0,0,0,0,0.1
				c0.1,0.9,0.2,1.7,0.2,2.6c0.1,1.8,0.2,3.5,0.2,5.3c0,2.1,0,4.2-0.1,6.3c-0.1,1.1-0.1,2.1-0.2,3.1c0,0.2,0,0.4-0.1,0.6
				c-0.7,3.7-1.4,7.4-2.5,11c-0.4,1.3-0.9,2.5-1.5,3.8l0,0c0-0.3-0.3,0.1-0.8,2.2c0,0,0,0,0-0.1c0.2-0.7,0.4-1.4,0.7-2.2
				c0,0.3-0.1,0.9-0.5,1.7c-0.1,0.2-0.2,0.3-0.2,0.5c-0.1,0.2-0.1,0.3-0.1,0.5c0-0.2,0.1-0.3,0.1-0.5c-0.5,1-1,2-1.5,3
				c-1,1.9-2.2,3.8-3.4,5.6c-0.7,0.6-1.5,1.8-2.1,2.4c-1.2,1.3-2.5,2.5-3.8,3.7c-1.3,0.8-2.5,1.6-3.8,2.4c-0.2,0.1-0.4,0.2-0.6,0.3
				l0,0c-0.1-0.1-1,0-2.2,1c0,0,0.1,0,0.1-0.1c0.6-0.4,1.4-0.6,2-0.9c0.1,0.1-0.2,0.3-0.9,0.6c-0.4,0.1-0.7,0.2-1.1,0.4
				c-0.2,0.1-0.3,0.2-0.5,0.3c0.1-0.1,0.2-0.2,0.3-0.3c-1.8,0.6-3.5,1.1-5.3,1.5c-0.9,0.2-1.8,0.2-2.7,0.5c-2.3,0.2-4.6,0.2-7,0.1
				c-1.1,0-2.3-0.1-3.4-0.2c-2.1-0.6-4.4-0.7-6.5-1.2c-1.9-0.5-3.9-1-5.8-1.6c-1.1-0.4-2.3-0.7-3.4-1.1l-1.3-0.5
				c-3.3-2-7.2-3.4-10.6-5.4c-3.7-2.2-7.2-4.5-10.6-7.1c-0.8-0.6-1.5-1.3-2.3-1.9c-1.7-1.4-3.3-2.9-4.9-4.4c-3.2-3-6.2-6.2-9-9.6
				c-0.7-0.8-1.3-1.6-2-2.4c-1-1.4-2-2.7-2.9-4.1c-2.7-3.9-5.1-8-7.4-12.2c-0.9-1.6-1.7-3.3-2.5-4.9c-0.4-0.8-0.8-1.7-1.2-2.5
				c-1.5-4-3-8.1-4.1-12.2c-1.1-4.1-2.1-8.2-2.8-12.3c-0.1-0.4-0.1-0.7-0.2-1.1c0-0.3-0.1-0.5-0.1-0.7c0-0.3-0.1-0.6-0.2-0.9
				c0,0.2,0.1,0.4,0.1,0.6c-0.3-2.5-0.4-4.9-0.5-7.4c-0.1-2.4-0.1-4.8-0.1-7.3c24.7-20.3,49.1-40.9,73.2-61.9
				c26-22.6,51.7-45.7,75.7-70.5c15.2-15.7,30.1-31.9,38.1-52.6c8.2-21.2,4.8-50.1-13.3-65.3c-18.8-15.9-45.9-18.1-68.5-9.2
				c-20.1,7.9-36.8,21.5-50.6,38c-27.7,33.2-48.2,72.2-64.7,112c-8.4,20.2-16.3,41-22.1,62.1c-2.5,9.1-4.4,18.2-5.7,27.4
				c-22.3,18.3-44.7,36.4-67,54.7c-5.3,4.3-10.6,8.6-15.8,12.9c-3.7,3-5.8,9.4-5.8,14c0,4.8,2.2,10.6,5.8,14c8.6,7.8,19.4,7,28,0
				c18.6-15.2,37.2-30.4,55.8-45.5c7.4,38.4,32.6,73.5,65.9,93.6c20.5,12.4,44.2,18.6,68.1,15.1c23.1-3.4,42.6-20,52-41
				c6-13.6,9-27.8,9.3-42.1c4.2,2,8.6,3.7,13.1,5.1c1.3,14.1,4.9,28.1,11.9,40.3c10.6,18.5,28.1,30.1,48.4,35.7
				c20.9,5.8,44.1,6.4,64.6-1.4c21.8-8.3,40.1-22.8,55.7-39.9c0.4-0.4,0.8-0.9,1.2-1.3c4.7,8.3,10.2,16.1,16.8,23.1
				c18.5,19.7,46.4,28.3,72.3,18.8c21.9-8,40.2-23.6,55.7-40.8c5.8,8.4,12.5,16.3,19.2,24c6.4,7.4,14.3,12.7,23.3,16.4
				c14.6,5.9,31.7,2.3,44.7-5.8c13.9-8.7,24.6-21.1,34.2-34.2c1.3-1.7,2.5-3.5,3.8-5.3c0.6,1.1,1.3,2.2,1.9,3.3
				c9.5,15.7,23.9,29.3,40.7,36.9c19.5,8.8,40.2,11.4,61.2,7.2c36.9-7.3,68.1-39.3,73.9-76.6c0.8-5.2,1.4-10.5,1.5-15.7
				c0-0.3,0-0.7,0-1c0-0.3,0-0.7,0-1c-0.2-12.4-2.7-24.9-7.6-36.4c2.4-0.8,4.9-1.7,7.3-2.8C1134.3,698.6,1144.9,689.6,1154.6,680.4z
				 M569.1,682.2c-0.2-1-0.5-2.6-0.4-2.4C569,680.5,569.1,681.3,569.1,682.2z M567.2,676.9c-0.4-0.5-0.8-0.9-0.7-0.9
				C566.6,676,566.9,676.5,567.2,676.9z M566.6,676.7c-0.1,0-0.2-0.1-0.3-0.1c0,0,0.1,0,0.1,0C566.5,676.7,566.5,676.7,566.6,676.7z
				 M566.5,676.6C566.5,676.6,566.5,676.6,566.5,676.6C566.5,676.6,566.5,676.6,566.5,676.6L566.5,676.6z M566.4,676.6
				c-0.1,0-0.1,0-0.2,0c-0.3-0.1-0.5-0.2-0.4-0.2C565.8,676.3,566,676.4,566.4,676.6z M562.4,676.6c-0.6,0.1-1.1,0.2-1,0.1
				C561.6,676.6,562,676.6,562.4,676.6z M559.3,677.6c-0.5,0.3-1,0.5-1,0.4C558.4,677.9,558.9,677.7,559.3,677.6z M533.5,721.3
				c1.4-5.8,3.3-11.5,5.4-17.1c0.1-0.3,0.3-0.6,0.4-0.9c0.6-1.2,1.2-2.4,1.8-3.6c2.3-4.2,4.8-8.4,7.6-12.3c0.1-0.1,0.2-0.3,0.4-0.6
				c0.3-0.3,1.7-2.1,2.1-2.5c0.8-0.9,1.6-1.8,2.5-2.6c0.5-0.4,0.9-0.8,1.4-1.3c1.6-0.9,3.2-2,4.8-2.9c1.1-0.4,2.3-0.6,3.4-0.9h0.2
				c0.2,0,1.3,0,2.1,0c0.4,0.1,0.8,0.2,1.1,0.3c0.3,0.3,0.6,0.5,0.8,0.7c0,0,0,0.1,0.1,0.1c0.1,0.2,0.2,0.4,0.3,0.6
				c0.2,0.8,0.5,1.6,0.7,2.4c0.1,0.5,0.2,1.1,0.3,1.6c0,0.1,0.1,0.2,0.1,0.3c0,1.5-0.2,3.1-0.3,4.4c-0.2,0.9-0.4,1.9-0.6,2.8
				c-0.3,1.1-0.6,2.3-1,3.4c-0.2,0.6-1.2,2.4-1.3,3.4c-0.4,0.8-0.8,1.6-1.2,2.3c-1,1.8-2.2,3.6-3.4,5.3c-0.6,0.8-1.3,1.5-2,2.2
				c-1.6,1.7-3.3,3.4-5,4.9c-0.6,0.5-1.1,1-1.7,1.5c0,0-0.1,0.1-0.2,0.1c-1.9,1.4-3.9,2.7-6,3.9c-1.9,1.1-3.9,2.1-5.9,3.1
				c-0.1,0-0.1,0.1-0.2,0.1c-1,0.4-2.4,1-2.7,1c-1.5,0.5-2.9,1-4.4,1.4C533.3,722.1,533.4,721.7,533.5,721.3z M410,694.4
				c0,0,0.1,0.1,0.1,0.1c0.5,0.4,0.9,0.8,1.4,1.2C412.1,696.3,412.2,696.4,410,694.4z M422.2,486.4c-0.3,0.2-0.6,0.5-1,0.7
				c0,0,0,0,0,0C421.5,486.9,421.8,486.6,422.2,486.4z M400.2,509c-0.5,0.6-1.1,1.2-1.6,1.8c0,0,0.1-0.1,0.1-0.1
				C399,510.2,399.8,509.4,400.2,509z M341,618c1.8-4.7,3.6-9.3,5.5-13.9c0.7-1.7,1.4-3.3,2-4.9c-0.6,1.4-1.5,3.8,0,0
				c0.1-0.2,0.2-0.4,0.3-0.7c0,0.1-0.1,0.1-0.1,0.2c0.6-1.5,1.3-2.9,1.9-4.4c3.9-8.8,8-17.5,12.4-26c9-17.3,19.1-34.1,30.2-50.1
				c1.1-1.6,2.2-3.1,3.3-4.7c0.6-0.9,1.3-1.7,1.9-2.6c-0.1,0.1-0.1,0.1-0.1,0.1c0,0,0.1-0.1,0.1-0.2c0,0,0,0,0,0
				c1.9-2,2.1-2.2,1.7-1.9l0,0c2.4-2.8,4.6-5.8,7.1-8.6c3.1-3.4,6.3-6.6,9.7-9.7c1.3-1.2,2.7-2.4,4.1-3.5c-0.1,0.1-0.2,0.1-0.3,0.2
				c0.1-0.1,0.3-0.2,0.4-0.3c0,0-0.1,0-0.1,0.1c3.1-1.8,2.4-1.6,1.3-0.9c0.7-0.5,1.3-1.1,2-1.5c3.3-2.3,6.8-4.3,10.4-6.1
				c0.4-0.2,0.9-0.4,1.4-0.6c0.3-0.1,0.5-0.3,0.8-0.4c0.2-0.1,0.5-0.2,0.8-0.4c-0.2,0.1-0.4,0.2-0.6,0.3c2-0.7,4-1.4,6-1.9
				c1.1-0.3,2.3-0.5,3.5-0.7c-0.6,0.2-0.4,0.3,2.2-0.4c0,0-0.1,0-0.1,0h0c0.3-0.1,0.6-0.1,0.9-0.2c-0.3,0.1-0.5,0.1-0.8,0.2
				c1.1-0.1,2.2-0.1,3.3-0.2c1.7,0,3.5,0.1,5.2,0.2c1.5,0.4,2.9,0.6,4.4,1.1c0.6,0.2,1.3,0.5,2,0.8c0.2,0.1,0.4,0.2,0.6,0.3
				c0.7,0.4,1.3,0.8,1.9,1.1c0.7,0.6,1.3,1.3,2,1.9c0.4,0.6,0.9,1.3,1.2,2c0.3,0.5,0.6,1.1,0.8,1.6c0.3,1.1,0.6,2.4,0.8,3.4v-1
				c0,1,0.2,2.1,0.3,3.2c0.1,1.7,0,3.4-0.1,5.1c0.1-0.2,0.1-0.4,0.2-0.7c-0.1,0.3-0.1,0.5-0.2,0.8c0-0.1,0-0.1,0-0.2
				c-0.9,2.8-0.6,2.9-0.4,2c0.1-0.6,0.2-1.2,0.3-1.8v0.1c0,0.6-0.2,1.3-0.3,1.7c-0.1,0.5-0.2,1.1-0.3,1.6c-0.5,2-1.1,3.9-1.8,5.7
				c-0.4,0.8-0.8,1.7-1.3,2.5c-1.1,2.2-2.4,4.3-3.7,6.4c-0.7,1-1.4,2.1-2.1,3.1c-0.4,0.6-1.6,2.1-2.1,2.7
				c-5.2,6.1-10.4,12.1-16,17.9c-21.8,22.9-45.3,44.2-69,65.2c-13.4,11.8-26.8,23.4-40.4,34.9C336.4,630,338.7,624,341,618z
				 M452.3,681.3c-0.1-0.2-0.3-0.3-0.4-0.5c-0.4-0.5-0.7-0.9-1.1-1.4C450.8,679.3,453.4,682.5,452.3,681.3z M606,796.7
				c0.8-0.3,1.5-0.6,1.3-0.5C607.1,796.4,606.5,796.5,606,796.7z M685,476.1C685,476.1,685,476.1,685,476.1c-0.4,0.7-0.8,1.2-0.8,1
				C684.4,476.8,684.7,476.4,685,476.1z M683.5,473.7C683.5,473.7,683.4,473.6,683.5,473.7c-0.2-0.2-0.3-0.4-0.3-0.4
				C683.2,473.3,683.3,473.5,683.5,473.7z M683.3,473.6c-0.6-0.4-1.2-0.7-0.9-0.7C682.6,472.9,682.9,473.2,683.3,473.6z
				 M697.5,591.5c-0.7,10.2-1.6,20.3-2.7,30.5c-0.3,2.3-0.5,4.6-0.8,6.9c-0.2,1.3-0.3,2.5-0.5,3.8c-0.1,0.5-0.2,1.3-0.3,2.1
				c-0.6,4.3-1.2,8.7-1.9,13c-2.8,17.1-6.4,34.1-11.3,50.8c-0.5-2.1-1-4.2-1.5-6.3c-2.4-10.8-4.4-21.6-6.1-32.5
				c-0.2-1.4-0.4-2.8-0.6-4.2c-0.2-2.8-0.7-5.6-1-8.4c-0.7-5.8-1.2-11.5-1.6-17.3c-1.8-22.2-2-44.5-0.8-66.7
				c0.6-10.8,1.6-21.6,3-32.4c0-0.1,0-0.1,0-0.2c0.2-1.2,0.3-2.3,0.5-3.5c0.4-2.7,0.8-5.4,1.3-8.2c0.9-5.2,1.9-10.3,3-15.5
				c1.1-5.1,2.2-10.2,3.6-15.3c0.5-1.9,1.2-3.8,1.9-5.7c0.5-1.1,1-2.1,1.6-3.1c0.5-0.9,1-1.7,1.5-2.6c0.1-0.1,0.2-0.3,0.3-0.5
				c0.3,0.6,0.7,1.2,1,1.8c0.1,0.3,0.4,0.9,0.7,1.5c0.1,0.4,0.3,0.7,0.4,0.9c0.5,1.3,0.9,2.6,1.3,3.9c1.9,5.9,3.5,11.9,4.8,17.9
				c1.4,6.1,2.1,12.4,3.3,18.5c0,0.2,0,0.3,0.1,0.5c0.2,1.6,0.4,3.2,0.5,4.8c0.3,3.2,0.6,6.4,0.8,9.6c0.4,6.2,0.7,12.4,0.7,18.6
				C698.9,566.6,698.4,579.1,697.5,591.5z M798.9,756.3c-0.5,0.7-0.3,0.4,0.1-0.2c0,0,0,0,0,0C798.9,756.1,798.9,756.2,798.9,756.3z
				 M799.3,755.6c-0.1,0.1-0.2,0.2-0.3,0.4c0.3-0.4,0.6-0.8,0.9-1.1C799.7,755.1,799.5,755.3,799.3,755.6z M841.3,756.2
				c-0.1-0.3-0.2-0.6-0.3-0.9c-0.2-0.5-0.4-0.9-0.6-1.4c0.1,0.1,0.4,0.9,1.1,2.7C841.4,756.5,841.3,756.3,841.3,756.2z M838.9,683.8
				c-0.8,2.2-1.7,4.4-2.6,6.6c-0.5,1.2-1,2.3-1.4,3.5c-1.9,4.4-3.9,8.8-6,13.2c-0.6,1.3-1.3,2.5-1.9,3.8c-2.2-9.3-4-18.7-5.5-28.1
				c-0.4-2.4-0.7-4.9-1.1-7.3c0-0.1,0-0.1,0-0.2c-0.2-1.6-0.4-3.1-0.6-4.7c-0.6-5.3-1.1-10.6-1.5-15.9c-1.7-21.2-1.8-42.6-0.3-63.8
				c0.4-5.2,0.8-10.4,1.4-15.5c0.2-1.6,0.4-3.1,0.6-4.7c-0.1,0.8-0.1,0.9,0.2-1.6c0,0,0,0.1,0,0.1c0-0.1,0-0.1,0-0.2
				c0-0.3,0.1-0.5,0.1-0.7c0.2-1.3,0.4-2.6,0.6-3.9c1.6-9.9,3.5-19.8,6-29.5c2-7.8,4.4-15.4,6.9-23c1.2-3.6,2.4-7.2,3.6-10.8
				c0.6-1.8,1.3-3.7,2-5.5c0.3-0.8,0.6-1.7,1-2.5c1.6-3.5,3.2-6.9,5.1-10.2c0.3-0.6,0.7-1.1,1-1.7c0.4,0.7,0.7,1.4,1.1,2.1
				c0.1,0.2,0.3,0.6,0.5,1c0,0.1,0,0.1,0.1,0.2c0.8,1.9,1.5,3.9,2.1,5.9c1.3,3.8,2.4,7.7,3.5,11.6c1.8,6.7,3.2,13.5,4.4,20.4
				c0.3,1.8,0.6,3.5,0.9,5.3c0.1,0.9,0.2,1.8,0.4,2.7v0c0.5,4.5,1,9.1,1.3,13.7c1.3,19,0.7,38.2-1.3,57.1c-0.2,2-0.1,4.7-0.8,6.7
				c0.2-1.1,0.6-4.5,0.2-1.7c-0.1,0.5-0.1,1.1-0.2,1.6c-0.2,1.3-0.4,2.5-0.6,3.8c-0.8,5-1.7,10.1-2.7,15.1c-1.9,9.7-4.3,19.4-7,28.9
				C845.4,665.1,842.4,674.5,838.9,683.8z M872.7,798.2c0.3,0.1,0.6,0.3,0.8,0.4C872.9,798.4,872.4,798.2,872.7,798.2z M879.5,798.5
				c0.1,0,0.3-0.1,0.7-0.3C880.1,798.3,879.9,798.4,879.5,798.5z M1082.3,751.7c-0.6,3.3-1.3,6.5-2.3,9.7c-0.5,1.5-1.1,3.1-1.6,4.6
				c-0.4,0.7-0.7,1.5-1.1,2.2c-1.7,3.4-3.7,6.7-5.9,9.8c0,0.1-0.1,0.1-0.1,0.2c-0.3,0.4-0.6,0.8-1,1.2c-1.3,1.5-2.6,2.9-4,4.3
				c-1.3,1.3-2.6,2.5-4,3.7c-0.5,0.4-0.9,0.8-1.4,1.1c-3.1,2.1-6.3,4.2-9.7,5.9c-0.8,0.4-1.6,0.8-2.4,1.2c-1.6,0.6-3.2,1.2-4.9,1.7
				c-3.2,1-6.4,1.7-9.7,2.3c-5,0.5-10.1,0.5-15.1,0c-3.3-0.6-6.5-1.3-9.7-2.3c-1.6-0.5-3.1-1-4.6-1.6c-0.7-0.4-1.5-0.7-2.2-1.1
				c-3.4-1.7-6.7-3.7-9.8-5.9c-0.1,0-0.1-0.1-0.2-0.1c-0.4-0.3-0.8-0.6-1.2-1c-1.5-1.3-2.9-2.6-4.3-4c-1.3-1.3-2.5-2.6-3.7-4
				c-0.4-0.5-0.8-0.9-1.1-1.4c-2.1-3.1-4.2-6.3-5.9-9.7c-0.4-0.8-0.8-1.6-1.1-2.4c-0.6-1.6-1.2-3.2-1.7-4.8c-1-3.2-1.7-6.4-2.3-9.7
				c-0.5-4.9-0.5-9.9,0-14.9c0.1-0.1,0.1-0.3,0.2-0.4c0.6-1.5,0.8-3.1,0.9-4.8c0.4-1.6,0.8-3.2,1.3-4.8c0.5-1.6,1-3.1,1.6-4.6
				c0.4-0.7,0.7-1.5,1.1-2.2c1.7-3.4,3.7-6.7,5.9-9.8c0.1-0.1,0.1-0.1,0.1-0.2c0.3-0.4,0.6-0.8,1-1.2c1.3-1.5,2.6-2.9,4-4.3
				c1.3-1.3,2.6-2.5,4-3.7c0.5-0.4,0.9-0.8,1.4-1.1c3.1-2.1,6.3-4.2,9.7-5.9c0.8-0.4,1.6-0.8,2.4-1.2c1.6-0.6,3.2-1.2,4.9-1.7
				c3.2-1,6.4-1.7,9.7-2.3c5-0.5,10.1-0.5,15.1,0c3.3,0.6,6.5,1.3,9.7,2.3c1.6,0.5,3.1,1,4.6,1.6c0.7,0.4,1.5,0.7,2.2,1.1
				c3.4,1.7,6.7,3.7,9.8,5.9c0.1,0.1,0.1,0.1,0.2,0.1c0.4,0.3,0.8,0.6,1.2,1c1.5,1.3,2.9,2.6,4.3,4c1.3,1.3,2.5,2.6,3.7,4
				c0.4,0.5,0.8,0.9,1.2,1.4c2.1,3.2,4.2,6.3,5.9,9.7c0.4,0.8,0.8,1.6,1.2,2.4c0.6,1.6,1.2,3.2,1.7,4.9c1,3.2,1.7,6.4,2.3,9.7
				c0.2,2.5,0.4,5,0.4,7.5C1082.7,746.7,1082.5,749.2,1082.3,751.7z M1103.9,669c0.8-0.4,1.9-0.8,1.9-0.8
				C1105.9,668.3,1105.1,668.6,1103.9,669z"/>
			<path id="XMLID_00000062189525602461972700000003885344929583093162_" d="M348.5,599c0-0.1,0.1-0.3,0.2-0.4c0,0,0,0,0,0
				C348.6,598.8,348.6,598.9,348.5,599z"/>
			<path id="XMLID_00000134227754919098945710000016840643824298419617_" d="M876.3,798.9c0,0,0.1,0,0.1,0
				C876.4,798.9,876.4,798.9,876.3,798.9c0.3-0.1,0.6-0.2,0.8-0.2c-0.5,0-1,0-1.5,0C875.8,798.7,876.1,798.8,876.3,798.9
				C876.3,798.9,876.2,798.9,876.3,798.9C876.2,798.9,876.3,798.9,876.3,798.9z"/>
			<path id="XMLID_00000178171460671591005790000013854378868714226327_" d="M878.8,798.3c-0.4,0.1-1,0.2-1.7,0.4c0.1,0,0.2,0,0.3,0
				C877.9,798.5,878.4,798.4,878.8,798.3z"/>
			<path id="XMLID_00000183210537516003660800000005148868823733979312_" d="M714.4,785C712,781.4,713.4,783.7,714.4,785L714.4,785z
				"/>
			<path id="XMLID_00000078737499008436889290000006713263397470938795_" d="M320.4,715.3c0.3,1.6,0.8,3.4-0.1-1c0,0.1,0,0.2,0,0.3
				C320.3,714.8,320.4,715,320.4,715.3z"/>
			<path id="XMLID_00000044168513857618727450000005726166079938760353_" d="M471.1,487C471.1,486.9,471.1,486.9,471.1,487
				C471.1,491,471.5,488.8,471.1,487z"/>
			<path id="XMLID_00000117653414544911602010000005566854340403787648_" d="M437,477.7C437,477.7,437,477.7,437,477.7
				c-0.3,0.2-0.6,0.3-0.9,0.4c-1.3,0.7-2.3,1.4,1-0.4C437.1,477.6,437,477.7,437,477.7z"/>
			<g id="XMLID_00000150078014280999504490000006015102760548752305_">
				<path id="XMLID_00000016777590560695336410000014045561838929743755_" d="M1195,640.4c0,9.6-7.5,17.1-17.3,17.1
					c-9.7,0-17.4-7.5-17.4-17.1c0-9.4,7.7-16.9,17.4-16.9C1187.5,623.5,1195,631,1195,640.4z M1164.6,640.4
					c0,7.5,5.6,13.5,13.2,13.5c7.4,0,12.9-6,12.9-13.4c0-7.5-5.4-13.6-13-13.6C1170.2,626.9,1164.6,633,1164.6,640.4z M1175,649.2
					h-3.9v-16.9c1.5-0.3,3.7-0.5,6.5-0.5c3.2,0,4.6,0.5,5.9,1.2c0.9,0.7,1.6,2.1,1.6,3.7c0,1.9-1.4,3.3-3.5,3.9v0.2
					c1.6,0.6,2.6,1.9,3.1,4.1c0.5,2.6,0.8,3.6,1.2,4.2h-4.2c-0.5-0.6-0.8-2.2-1.3-4.1c-0.3-1.9-1.3-2.7-3.5-2.7h-1.9V649.2z
					 M1175.1,639.7h1.9c2.2,0,3.9-0.7,3.9-2.5c0-1.5-1.1-2.6-3.6-2.6c-1,0-1.8,0.1-2.2,0.2V639.7z"/>
			</g>
		</g>
		<g>
			<path d="M446.9,977.2c-4.7,0-8.8-2.1-11.4-4.9h-0.1v3.9h-11.9v-58.3h12v26.8c2.8-2.8,6.7-4.3,11.4-4.3c10.2,0,17.3,8.3,17.3,18.4
				S457.1,977.2,446.9,977.2z M443.3,950.6c-4.5,0-8.1,3.4-8.1,8.2c0,4.7,3.4,8.1,8.1,8.1c4.9,0,8.1-3.4,8.1-8.1
				C451.5,954,447.9,950.6,443.3,950.6z"/>
			<path d="M479.8,960.4c0,5.4,4.5,7.2,7.5,7.2c3.9,0,5.6-0.7,8.5-3.9l8.7,4.3c-3.9,6.6-10.3,9.1-18,9.1c-10.5,0-19.1-8.3-19.1-18.4
				c0-10.2,8.6-18.4,19.1-18.4c10.6,0,18.6,6.2,18.6,18.4c0,0.5,0,1.2-0.1,1.6H479.8z M493.3,953.8c-0.5-3.7-3-5.6-6.6-5.6
				c-4.1,0-6.4,2.4-6.6,5.6H493.3z"/>
			<path d="M510.6,917.9h12v58.3h-12V917.9z"/>
			<path d="M530.7,917.9h12v58.3h-12V917.9z"/>
			<path d="M569.2,940.4c11.5,0,20.7,7.6,20.7,18.4c0,10.7-8.7,18.4-20.7,18.4c-12.5,0-20.9-7.7-20.9-18.4
				C548.3,948,557.5,940.4,569.2,940.4z M569.2,966.9c4.7,0,8.1-3.4,8.1-8.1c0-4.8-3.6-8.2-8.1-8.2c-4.5,0-8.1,3.4-8.1,8.2
				C561,963.6,564.3,966.9,569.2,966.9z"/>
			<path d="M605.8,958.7c0,4.8,3.7,8.6,8.3,8.6c3.6,0,5.8-1.6,5.8-1.6l4.1,8.3c0,0-3.9,3.1-11.7,3.1c-10,0-19.2-8.1-19.2-18.3
				c0-10.2,9.1-18.5,19.2-18.5c7.7,0,11.7,3.3,11.7,3.3l-4.1,8.2c0,0-2.2-1.6-5.8-1.6C609.6,950.2,605.8,954,605.8,958.7z"/>
			<path d="M668.7,941.4l-27.3,52.4h-13.8l12-23l-16.5-29.3H637l9.7,17.8l8.3-17.8H668.7z"/>
			<path d="M681.5,958.7c0,4.8,3.7,8.6,8.3,8.6c3.6,0,5.8-1.6,5.8-1.6l4.1,8.3c0,0-3.9,3.1-11.7,3.1c-10,0-19.2-8.1-19.2-18.3
				c0-10.2,9.1-18.5,19.2-18.5c7.7,0,11.7,3.3,11.7,3.3l-4.1,8.2c0,0-2.2-1.6-5.8-1.6C685.2,950.2,681.5,954,681.5,958.7z"/>
			<path d="M704.4,917.9h12v58.3h-12V917.9z"/>
			<path d="M737.8,927c0,3.9-3.2,7.1-7.1,7.1s-7.1-3.2-7.1-7.1c0-3.9,3.2-7.1,7.1-7.1S737.8,923.1,737.8,927z M724.5,976.2h12v-34.8
				h-12V976.2z"/>
			<path d="M771.7,943.1l-3.9,7.9c0,0-4.1-2.2-7.7-2.2c-2.6,0-3.7,0.5-3.7,2.1c0,1.8,2.4,2.4,5.4,3.3c4.6,1.4,10.6,4,10.6,11.1
				c0,10.2-9.4,11.9-16.5,11.9c-8.4,0-13.4-4.7-13.4-4.7l4.9-8.2c0,0,4.7,4,8.6,4c1.7,0,3.7-0.2,3.7-2.5c0-2.5-3.8-2.7-7.7-4.7
				c-3.5-1.8-7-4.3-7-9.5c0-7.1,6-11.2,15.2-11.2C766.8,940.4,771.7,943.1,771.7,943.1z"/>
			<path d="M779.7,928.5h12v12.9h7.3v9.1h-7.3v11c0,3.3,0.8,4.8,2.7,4.8c1.6,0,3-1.1,3-1.1l3,9.7c0,0-3.9,2.2-8.8,2.2
				c-9.6,0-11.9-7.1-11.9-13.3v-13.3h-5v-9.1h5V928.5z"/>
			<path d="M820,969.5c0,4.3-3.5,7.7-7.8,7.7c-4.3,0-7.7-3.5-7.7-7.7c0-4.3,3.5-7.8,7.7-7.8C816.5,961.7,820,965.1,820,969.5z"/>
			<path d="M838.4,958.7c0,4.8,3.7,8.6,8.3,8.6c3.6,0,5.8-1.6,5.8-1.6l4.1,8.3c0,0-3.9,3.1-11.7,3.1c-10,0-19.2-8.1-19.2-18.3
				c0-10.2,9.1-18.5,19.2-18.5c7.7,0,11.7,3.3,11.7,3.3l-4.1,8.2c0,0-2.2-1.6-5.8-1.6C842.1,950.2,838.4,954,838.4,958.7z"/>
			<path d="M879.8,940.4c11.5,0,20.7,7.6,20.7,18.4c0,10.7-8.7,18.4-20.7,18.4c-12.5,0-20.9-7.7-20.9-18.4
				C858.9,948,868.1,940.4,879.8,940.4z M879.8,966.9c4.7,0,8.1-3.4,8.1-8.1c0-4.8-3.6-8.2-8.1-8.2c-4.5,0-8.1,3.4-8.1,8.2
				C871.6,963.6,874.9,966.9,879.8,966.9z"/>
			<path d="M906.1,941.4h12v3.7h0.1c2.7-2.7,6.2-4.7,10-4.7c4.6,0,9.7,1.7,12.1,6.4c3.7-4.4,7.7-6.4,11.5-6.4
				c6.4,0,13.6,3.2,13.6,12.9v22.9h-12v-19.7c0-3.5-1.8-6.5-6.1-6.5c-3.8,0-5.4,2.8-5.6,5.4v20.7h-12v-19.7c0-3.5-1.8-6.5-6.1-6.5
				c-4,0-5.6,3-5.6,5.8v20.3h-12V941.4z"/>
		</g>
	</g>
	<circle class="st2" cx="701.2" cy="701.2" r="656.2"/>
</g>
</svg>
