<?xml version="1.0" encoding="UTF-8"?>
<svg xmlns="http://www.w3.org/2000/svg" xmlns:xlink="http://www.w3.org/1999/xlink" width="161.47" height="55.27" viewBox="0 0 161.47 55.27">
<defs>
<clipPath id="clip-0">
<path clip-rule="nonzero" d="M 90 49 L 94 49 L 94 55.269531 L 90 55.269531 Z M 90 49 "/>
</clipPath>
<clipPath id="clip-1">
<path clip-rule="nonzero" d="M 109 49 L 113 49 L 113 55.269531 L 109 55.269531 Z M 109 49 "/>
</clipPath>
<clipPath id="clip-2">
<path clip-rule="nonzero" d="M 114 49 L 118 49 L 118 55.269531 L 114 55.269531 Z M 114 49 "/>
</clipPath>
<clipPath id="clip-3">
<path clip-rule="nonzero" d="M 158 49 L 161.46875 49 L 161.46875 54 L 158 54 Z M 158 49 "/>
</clipPath>
</defs>
<path fill-rule="nonzero" fill="rgb(41.184998%, 49.021912%, 56.834412%)" fill-opacity="1" d="M 18.558594 -0.00390625 C 26.316406 -0.00390625 32.605469 6.28125 32.605469 14.042969 C 32.605469 19.25 30.191406 23.773438 26.28125 26.222656 C 26.207031 26.273438 26.152344 26.34375 26.152344 26.441406 C 26.152344 26.613281 26.285156 26.65625 26.296875 26.660156 C 31.363281 28.621094 34.542969 33.796875 34.542969 39.808594 C 34.542969 47.566406 28.253906 53.855469 20.496094 53.855469 L 1.949219 53.851562 C 0.875 53.851562 0 52.976562 0 51.902344 L 0 1.945312 C 0 0.867188 0.875 -0.00390625 1.949219 -0.00390625 L 18.558594 -0.00390625 "/>
<path fill-rule="nonzero" fill="rgb(98.046875%, 76.5625%, 0%)" fill-opacity="1" d="M 11.769531 44.320312 C 11.523438 44.320312 11.308594 44.109375 11.308594 43.859375 L 11.308594 32.597656 C 11.308594 32.351562 11.523438 32.140625 11.769531 32.140625 L 12.476562 32.140625 C 12.726562 32.140625 12.9375 32.351562 12.9375 32.597656 L 12.9375 37.585938 L 17.320312 37.585938 L 17.320312 32.597656 C 17.320312 32.351562 17.535156 32.140625 17.78125 32.140625 L 18.488281 32.140625 C 18.734375 32.140625 18.949219 32.351562 18.949219 32.597656 L 18.949219 43.859375 C 18.949219 44.109375 18.734375 44.320312 18.488281 44.320312 L 17.78125 44.320312 C 17.535156 44.320312 17.320312 44.109375 17.320312 43.859375 L 17.320312 39.019531 L 12.9375 39.019531 L 12.9375 43.859375 C 12.9375 44.109375 12.726562 44.320312 12.476562 44.320312 L 11.769531 44.320312 "/>
<path fill-rule="nonzero" fill="rgb(98.046875%, 76.5625%, 0%)" fill-opacity="1" d="M 11.722656 21.675781 C 11.476562 21.675781 11.261719 21.460938 11.261719 21.214844 L 11.261719 9.949219 C 11.261719 9.703125 11.476562 9.492188 11.722656 9.492188 L 18.496094 9.492188 C 18.746094 9.492188 18.957031 9.703125 18.957031 9.949219 L 18.957031 10.425781 C 18.957031 10.675781 18.746094 10.886719 18.496094 10.886719 L 12.890625 10.886719 L 12.890625 14.800781 L 17.667969 14.800781 C 17.914062 14.800781 18.125 15.015625 18.125 15.261719 L 18.125 15.738281 C 18.125 15.988281 17.914062 16.199219 17.667969 16.199219 L 12.890625 16.199219 L 12.890625 21.214844 C 12.890625 21.460938 12.679688 21.675781 12.429688 21.675781 L 11.722656 21.675781 "/>
<path fill-rule="nonzero" fill="rgb(41.184998%, 49.021912%, 56.834412%)" fill-opacity="1" d="M 43 35.175781 L 43.839844 35.175781 C 44.558594 35.175781 44.816406 34.898438 44.816406 34.269531 C 44.816406 33.644531 44.582031 33.359375 43.871094 33.359375 L 43 33.359375 Z M 42.992188 32.773438 L 43.847656 32.773438 C 44.457031 32.773438 44.589844 32.519531 44.589844 31.976562 C 44.589844 31.4375 44.417969 31.160156 43.808594 31.160156 L 42.992188 31.160156 Z M 42.503906 35.753906 C 42.398438 35.753906 42.308594 35.664062 42.308594 35.558594 L 42.308594 30.777344 C 42.308594 30.671875 42.398438 30.582031 42.503906 30.582031 L 43.832031 30.582031 C 44.921875 30.582031 45.320312 31.152344 45.320312 31.964844 C 45.320312 32.503906 45.183594 32.796875 44.6875 33.007812 C 45.191406 33.148438 45.550781 33.539062 45.550781 34.304688 C 45.550781 35.332031 44.875 35.753906 43.914062 35.753906 L 42.503906 35.753906 "/>
<path fill-rule="nonzero" fill="rgb(41.184998%, 49.021912%, 56.834412%)" fill-opacity="1" d="M 48.078125 32.40625 C 47.640625 32.40625 47.371094 32.632812 47.320312 33.53125 L 48.8125 33.53125 C 48.8125 32.667969 48.617188 32.40625 48.078125 32.40625 Z M 48.160156 35.851562 C 47.175781 35.851562 46.621094 35.28125 46.621094 33.871094 C 46.621094 32.445312 47.207031 31.894531 48.09375 31.894531 C 48.984375 31.894531 49.496094 32.40625 49.496094 33.765625 L 49.496094 33.898438 C 49.496094 33.96875 49.441406 34.019531 49.375 34.019531 L 47.3125 34.019531 C 47.328125 35.046875 47.550781 35.304688 48.175781 35.304688 C 48.496094 35.304688 48.707031 35.207031 48.902344 35.070312 C 48.992188 35.003906 49.121094 35.027344 49.179688 35.109375 L 49.300781 35.265625 C 49.359375 35.347656 49.34375 35.476562 49.253906 35.535156 C 48.949219 35.753906 48.632812 35.851562 48.160156 35.851562 "/>
<path fill-rule="nonzero" fill="rgb(41.184998%, 49.021912%, 56.834412%)" fill-opacity="1" d="M 51 35.753906 C 50.894531 35.753906 50.804688 35.664062 50.804688 35.558594 L 50.804688 32.1875 C 50.804688 32.082031 50.894531 31.992188 51 31.992188 L 51.109375 31.992188 C 51.222656 31.992188 51.320312 32.074219 51.34375 32.1875 L 51.410156 32.527344 C 51.6875 32.179688 52.035156 31.925781 52.46875 31.925781 C 52.492188 31.925781 52.523438 31.925781 52.542969 31.933594 C 52.574219 31.941406 52.605469 31.96875 52.597656 32 L 52.542969 32.527344 C 52.539062 32.578125 52.484375 32.625 52.425781 32.617188 C 52.386719 32.609375 52.34375 32.609375 52.304688 32.609375 C 51.960938 32.609375 51.726562 32.738281 51.449219 32.992188 L 51.449219 35.558594 C 51.449219 35.664062 51.359375 35.753906 51.253906 35.753906 L 51 35.753906 "/>
<path fill-rule="nonzero" fill="rgb(41.184998%, 49.021912%, 56.834412%)" fill-opacity="1" d="M 53.949219 35.753906 C 53.84375 35.753906 53.753906 35.664062 53.753906 35.558594 L 53.753906 32.1875 C 53.753906 32.082031 53.84375 31.992188 53.949219 31.992188 L 54.0625 31.992188 C 54.175781 31.992188 54.273438 32.074219 54.296875 32.179688 L 54.355469 32.457031 C 54.683594 32.128906 55.0625 31.894531 55.503906 31.894531 C 56.042969 31.894531 56.414062 32.171875 56.414062 32.8125 L 56.414062 35.558594 C 56.414062 35.664062 56.324219 35.753906 56.21875 35.753906 L 55.960938 35.753906 C 55.855469 35.753906 55.765625 35.664062 55.765625 35.558594 L 55.765625 33.015625 C 55.765625 32.585938 55.648438 32.464844 55.308594 32.464844 C 55.007812 32.464844 54.671875 32.675781 54.402344 32.917969 L 54.402344 35.558594 C 54.402344 35.664062 54.308594 35.753906 54.207031 35.753906 L 53.949219 35.753906 "/>
<path fill-rule="nonzero" fill="rgb(41.184998%, 49.021912%, 56.834412%)" fill-opacity="1" d="M 59.175781 32.40625 C 58.738281 32.40625 58.46875 32.632812 58.417969 33.53125 L 59.910156 33.53125 C 59.910156 32.667969 59.714844 32.40625 59.175781 32.40625 Z M 59.257812 35.851562 C 58.273438 35.851562 57.71875 35.28125 57.71875 33.871094 C 57.71875 32.445312 58.304688 31.894531 59.191406 31.894531 C 60.085938 31.894531 60.59375 32.40625 60.59375 33.765625 L 60.59375 33.898438 C 60.59375 33.96875 60.542969 34.019531 60.472656 34.019531 L 58.410156 34.019531 C 58.425781 35.046875 58.652344 35.304688 59.273438 35.304688 C 59.597656 35.304688 59.804688 35.207031 60 35.070312 C 60.09375 35.003906 60.21875 35.027344 60.28125 35.109375 L 60.398438 35.265625 C 60.460938 35.347656 60.445312 35.476562 60.355469 35.535156 C 60.046875 35.753906 59.730469 35.851562 59.257812 35.851562 "/>
<path fill-rule="nonzero" fill="rgb(41.184998%, 49.021912%, 56.834412%)" fill-opacity="1" d="M 62.097656 35.753906 C 61.992188 35.753906 61.902344 35.664062 61.902344 35.558594 L 61.902344 32.1875 C 61.902344 32.082031 61.992188 31.992188 62.097656 31.992188 L 62.210938 31.992188 C 62.324219 31.992188 62.421875 32.074219 62.441406 32.1875 L 62.511719 32.527344 C 62.789062 32.179688 63.132812 31.925781 63.570312 31.925781 C 63.589844 31.925781 63.621094 31.925781 63.644531 31.933594 C 63.671875 31.941406 63.703125 31.96875 63.695312 32 L 63.644531 32.527344 C 63.636719 32.578125 63.585938 32.625 63.523438 32.617188 C 63.484375 32.609375 63.441406 32.609375 63.402344 32.609375 C 63.058594 32.609375 62.824219 32.738281 62.546875 32.992188 L 62.546875 35.558594 C 62.546875 35.664062 62.457031 35.753906 62.351562 35.753906 L 62.097656 35.753906 "/>
<path fill-rule="nonzero" fill="rgb(41.184998%, 49.021912%, 56.834412%)" fill-opacity="1" d="M 66.972656 35.753906 C 66.867188 35.753906 66.777344 35.664062 66.777344 35.558594 L 66.777344 30.777344 C 66.777344 30.671875 66.867188 30.582031 66.972656 30.582031 L 69.15625 30.582031 C 69.261719 30.582031 69.351562 30.671875 69.351562 30.777344 L 69.351562 30.980469 C 69.351562 31.085938 69.261719 31.175781 69.15625 31.175781 L 67.46875 31.175781 L 67.46875 32.742188 L 68.804688 32.742188 C 68.910156 32.742188 69 32.835938 69 32.9375 L 69 33.140625 C 69 33.246094 68.910156 33.335938 68.804688 33.335938 L 67.46875 33.335938 L 67.46875 35.558594 C 67.46875 35.664062 67.378906 35.753906 67.273438 35.753906 L 66.972656 35.753906 "/>
<path fill-rule="nonzero" fill="rgb(41.184998%, 49.021912%, 56.834412%)" fill-opacity="1" d="M 71.367188 35.339844 C 71.734375 35.339844 72.015625 35.09375 72.195312 34.890625 L 72.195312 33.890625 L 71.96875 33.890625 C 71.023438 33.890625 70.84375 34.132812 70.84375 34.679688 C 70.84375 35.175781 71 35.339844 71.367188 35.339844 Z M 71.285156 35.851562 C 70.566406 35.851562 70.152344 35.453125 70.152344 34.679688 C 70.152344 33.824219 70.65625 33.425781 71.886719 33.425781 L 72.195312 33.425781 L 72.195312 33.132812 C 72.195312 32.714844 72.140625 32.457031 71.652344 32.457031 C 71.332031 32.457031 71.015625 32.570312 70.730469 32.714844 C 70.632812 32.757812 70.511719 32.722656 70.46875 32.625 L 70.394531 32.480469 C 70.347656 32.382812 70.386719 32.261719 70.480469 32.210938 C 70.820312 32.03125 71.210938 31.894531 71.722656 31.894531 C 72.457031 31.894531 72.839844 32.226562 72.839844 33.027344 L 72.839844 35.558594 C 72.839844 35.664062 72.75 35.753906 72.644531 35.753906 L 72.53125 35.753906 C 72.417969 35.753906 72.316406 35.679688 72.285156 35.566406 L 72.230469 35.378906 C 72.015625 35.621094 71.699219 35.851562 71.285156 35.851562 "/>
<path fill-rule="nonzero" fill="rgb(41.184998%, 49.021912%, 56.834412%)" fill-opacity="1" d="M 75.640625 35.851562 C 74.679688 35.851562 74.148438 35.222656 74.148438 33.871094 C 74.148438 32.4375 74.71875 31.894531 75.648438 31.894531 C 76.007812 31.894531 76.292969 31.976562 76.566406 32.195312 C 76.65625 32.261719 76.660156 32.382812 76.59375 32.464844 L 76.472656 32.617188 C 76.398438 32.699219 76.28125 32.707031 76.195312 32.640625 C 76.03125 32.511719 75.875 32.445312 75.625 32.445312 C 75.054688 32.445312 74.839844 32.691406 74.839844 33.871094 C 74.839844 35.027344 75.078125 35.304688 75.679688 35.304688 C 75.910156 35.304688 76.070312 35.214844 76.226562 35.085938 C 76.308594 35.019531 76.4375 35.027344 76.503906 35.109375 L 76.640625 35.25 C 76.714844 35.328125 76.707031 35.453125 76.625 35.523438 C 76.378906 35.738281 76.070312 35.851562 75.640625 35.851562 "/>
<path fill-rule="nonzero" fill="rgb(41.184998%, 49.021912%, 56.834412%)" fill-opacity="1" d="M 78.121094 35.753906 C 78.015625 35.753906 77.925781 35.664062 77.925781 35.558594 L 77.925781 30.515625 C 77.925781 30.410156 78.015625 30.320312 78.121094 30.320312 L 78.375 30.320312 C 78.480469 30.320312 78.570312 30.410156 78.570312 30.515625 L 78.570312 32.414062 C 78.902344 32.105469 79.238281 31.894531 79.675781 31.894531 C 80.214844 31.894531 80.582031 32.171875 80.582031 32.8125 L 80.582031 35.558594 C 80.582031 35.664062 80.492188 35.753906 80.386719 35.753906 L 80.132812 35.753906 C 80.027344 35.753906 79.9375 35.664062 79.9375 35.558594 L 79.9375 33.015625 C 79.9375 32.585938 79.816406 32.464844 79.480469 32.464844 C 79.179688 32.464844 78.839844 32.675781 78.570312 32.917969 L 78.570312 35.558594 C 78.570312 35.664062 78.480469 35.753906 78.375 35.753906 L 78.121094 35.753906 "/>
<path fill-rule="nonzero" fill="rgb(41.184998%, 49.021912%, 56.834412%)" fill-opacity="1" d="M 82.28125 35.753906 C 82.175781 35.753906 82.085938 35.664062 82.085938 35.558594 L 82.085938 30.515625 C 82.085938 30.410156 82.175781 30.320312 82.28125 30.320312 L 82.535156 30.320312 C 82.640625 30.320312 82.730469 30.410156 82.730469 30.515625 L 82.730469 32.414062 C 83.0625 32.105469 83.398438 31.894531 83.835938 31.894531 C 84.375 31.894531 84.742188 32.171875 84.742188 32.8125 L 84.742188 35.558594 C 84.742188 35.664062 84.652344 35.753906 84.546875 35.753906 L 84.292969 35.753906 C 84.1875 35.753906 84.097656 35.664062 84.097656 35.558594 L 84.097656 33.015625 C 84.097656 32.585938 83.976562 32.464844 83.640625 32.464844 C 83.339844 32.464844 83 32.675781 82.730469 32.917969 L 82.730469 35.558594 C 82.730469 35.664062 82.640625 35.753906 82.535156 35.753906 L 82.28125 35.753906 "/>
<path fill-rule="nonzero" fill="rgb(41.184998%, 49.021912%, 56.834412%)" fill-opacity="1" d="M 87.59375 35.339844 C 88.164062 35.339844 88.433594 35.035156 88.433594 33.878906 C 88.433594 32.714844 88.15625 32.40625 87.585938 32.40625 C 87.015625 32.40625 86.746094 32.707031 86.746094 33.871094 C 86.746094 35.027344 87.023438 35.339844 87.59375 35.339844 Z M 87.59375 35.851562 C 86.675781 35.851562 86.054688 35.28125 86.054688 33.871094 C 86.054688 32.457031 86.664062 31.894531 87.578125 31.894531 C 88.492188 31.894531 89.125 32.457031 89.125 33.871094 C 89.125 35.28125 88.507812 35.851562 87.59375 35.851562 "/>
<path fill-rule="nonzero" fill="rgb(41.184998%, 49.021912%, 56.834412%)" fill-opacity="1" d="M 91.753906 35.851562 C 90.792969 35.851562 90.261719 35.222656 90.261719 33.871094 C 90.261719 32.4375 90.832031 31.894531 91.761719 31.894531 C 92.121094 31.894531 92.40625 31.976562 92.675781 32.195312 C 92.769531 32.261719 92.777344 32.382812 92.707031 32.464844 L 92.589844 32.617188 C 92.511719 32.699219 92.394531 32.707031 92.308594 32.640625 C 92.144531 32.511719 91.988281 32.445312 91.738281 32.445312 C 91.167969 32.445312 90.953125 32.691406 90.953125 33.871094 C 90.953125 35.027344 91.191406 35.304688 91.792969 35.304688 C 92.023438 35.304688 92.183594 35.214844 92.339844 35.085938 C 92.421875 35.019531 92.550781 35.027344 92.617188 35.109375 L 92.753906 35.25 C 92.828125 35.328125 92.820312 35.453125 92.738281 35.523438 C 92.488281 35.738281 92.183594 35.851562 91.753906 35.851562 "/>
<path fill-rule="nonzero" fill="rgb(41.184998%, 49.021912%, 56.834412%)" fill-opacity="1" d="M 94.234375 35.753906 C 94.128906 35.753906 94.039062 35.664062 94.039062 35.558594 L 94.039062 30.515625 C 94.039062 30.410156 94.128906 30.320312 94.234375 30.320312 L 94.488281 30.320312 C 94.59375 30.320312 94.683594 30.410156 94.683594 30.515625 L 94.683594 32.414062 C 95.015625 32.105469 95.351562 31.894531 95.785156 31.894531 C 96.328125 31.894531 96.695312 32.171875 96.695312 32.8125 L 96.695312 35.558594 C 96.695312 35.664062 96.605469 35.753906 96.5 35.753906 L 96.246094 35.753906 C 96.140625 35.753906 96.050781 35.664062 96.050781 35.558594 L 96.050781 33.015625 C 96.050781 32.585938 95.929688 32.464844 95.59375 32.464844 C 95.292969 32.464844 94.953125 32.675781 94.683594 32.917969 L 94.683594 35.558594 C 94.683594 35.664062 94.59375 35.753906 94.488281 35.753906 L 94.234375 35.753906 "/>
<path fill-rule="nonzero" fill="rgb(41.184998%, 49.021912%, 56.834412%)" fill-opacity="1" d="M 99.089844 35.851562 C 98.675781 35.851562 98.277344 35.71875 98 35.558594 C 97.910156 35.5 97.882812 35.378906 97.933594 35.289062 L 98.015625 35.144531 C 98.070312 35.046875 98.1875 35.019531 98.277344 35.070312 C 98.542969 35.222656 98.8125 35.3125 99.121094 35.3125 C 99.628906 35.3125 99.789062 35.109375 99.789062 34.757812 C 99.789062 34.335938 99.59375 34.253906 98.992188 34.085938 C 98.464844 33.945312 98.03125 33.667969 98.03125 32.925781 C 98.03125 32.375 98.382812 31.894531 99.210938 31.894531 C 99.570312 31.894531 99.839844 31.957031 100.082031 32.054688 C 100.179688 32.097656 100.222656 32.21875 100.179688 32.316406 L 100.109375 32.464844 C 100.066406 32.5625 99.953125 32.617188 99.847656 32.570312 C 99.628906 32.472656 99.457031 32.445312 99.230469 32.445312 C 98.828125 32.445312 98.640625 32.585938 98.640625 32.910156 C 98.640625 33.261719 98.796875 33.351562 99.316406 33.496094 C 99.894531 33.652344 100.417969 33.878906 100.417969 34.726562 C 100.417969 35.507812 99.976562 35.851562 99.089844 35.851562 "/>
<path fill-rule="nonzero" fill="rgb(41.184998%, 49.021912%, 56.834412%)" fill-opacity="1" d="M 103.011719 35.851562 C 102.050781 35.851562 101.515625 35.222656 101.515625 33.871094 C 101.515625 32.4375 102.085938 31.894531 103.019531 31.894531 C 103.378906 31.894531 103.664062 31.976562 103.933594 32.195312 C 104.023438 32.261719 104.03125 32.382812 103.964844 32.464844 L 103.84375 32.617188 C 103.769531 32.699219 103.648438 32.707031 103.566406 32.640625 C 103.402344 32.511719 103.242188 32.445312 102.996094 32.445312 C 102.425781 32.445312 102.207031 32.691406 102.207031 33.871094 C 102.207031 35.027344 102.449219 35.304688 103.046875 35.304688 C 103.28125 35.304688 103.4375 35.214844 103.597656 35.085938 C 103.679688 35.019531 103.808594 35.027344 103.875 35.109375 L 104.007812 35.25 C 104.085938 35.328125 104.078125 35.453125 103.992188 35.523438 C 103.746094 35.738281 103.4375 35.851562 103.011719 35.851562 "/>
<path fill-rule="nonzero" fill="rgb(41.184998%, 49.021912%, 56.834412%)" fill-opacity="1" d="M 105.488281 35.753906 C 105.386719 35.753906 105.296875 35.664062 105.296875 35.558594 L 105.296875 30.515625 C 105.296875 30.410156 105.386719 30.320312 105.488281 30.320312 L 105.746094 30.320312 C 105.851562 30.320312 105.941406 30.410156 105.941406 30.515625 L 105.941406 32.414062 C 106.269531 32.105469 106.609375 31.894531 107.042969 31.894531 C 107.585938 31.894531 107.953125 32.171875 107.953125 32.8125 L 107.953125 35.558594 C 107.953125 35.664062 107.863281 35.753906 107.757812 35.753906 L 107.503906 35.753906 C 107.398438 35.753906 107.308594 35.664062 107.308594 35.558594 L 107.308594 33.015625 C 107.308594 32.585938 107.1875 32.464844 106.847656 32.464844 C 106.550781 32.464844 106.210938 32.675781 105.941406 32.917969 L 105.941406 35.558594 C 105.941406 35.664062 105.851562 35.753906 105.746094 35.753906 L 105.488281 35.753906 "/>
<path fill-rule="nonzero" fill="rgb(41.184998%, 49.021912%, 56.834412%)" fill-opacity="1" d="M 110.398438 35.851562 C 109.859375 35.851562 109.4375 35.542969 109.4375 34.890625 L 109.4375 32.1875 C 109.4375 32.082031 109.527344 31.992188 109.632812 31.992188 L 109.886719 31.992188 C 109.992188 31.992188 110.082031 32.082031 110.082031 32.1875 L 110.082031 34.6875 C 110.082031 35.132812 110.234375 35.28125 110.570312 35.28125 C 110.871094 35.28125 111.195312 35.078125 111.472656 34.832031 L 111.472656 32.1875 C 111.472656 32.082031 111.5625 31.992188 111.667969 31.992188 L 111.921875 31.992188 C 112.027344 31.992188 112.117188 32.082031 112.117188 32.1875 L 112.117188 35.558594 C 112.117188 35.664062 112.027344 35.753906 111.921875 35.753906 L 111.808594 35.753906 C 111.695312 35.753906 111.601562 35.671875 111.578125 35.566406 L 111.515625 35.289062 C 111.203125 35.613281 110.84375 35.851562 110.398438 35.851562 "/>
<path fill-rule="nonzero" fill="rgb(41.184998%, 49.021912%, 56.834412%)" fill-opacity="1" d="M 114.332031 35.828125 C 113.851562 35.828125 113.648438 35.574219 113.648438 34.914062 L 113.648438 30.515625 C 113.648438 30.410156 113.738281 30.320312 113.84375 30.320312 L 114.097656 30.320312 C 114.203125 30.320312 114.292969 30.410156 114.292969 30.515625 L 114.292969 35.035156 C 114.292969 35.222656 114.375 35.296875 114.554688 35.296875 C 114.585938 35.296875 114.617188 35.296875 114.640625 35.289062 C 114.675781 35.289062 114.714844 35.3125 114.722656 35.347656 L 114.757812 35.566406 C 114.78125 35.671875 114.714844 35.777344 114.609375 35.800781 C 114.519531 35.8125 114.421875 35.828125 114.332031 35.828125 "/>
<path fill-rule="nonzero" fill="rgb(41.184998%, 49.021912%, 56.834412%)" fill-opacity="1" d="M 117.136719 32.40625 C 116.699219 32.40625 116.429688 32.632812 116.378906 33.53125 L 117.871094 33.53125 C 117.871094 32.667969 117.675781 32.40625 117.136719 32.40625 Z M 117.21875 35.851562 C 116.234375 35.851562 115.679688 35.28125 115.679688 33.871094 C 115.679688 32.445312 116.265625 31.894531 117.152344 31.894531 C 118.042969 31.894531 118.554688 32.40625 118.554688 33.765625 L 118.554688 33.898438 C 118.554688 33.96875 118.503906 34.019531 118.433594 34.019531 L 116.371094 34.019531 C 116.386719 35.046875 116.609375 35.304688 117.234375 35.304688 C 117.554688 35.304688 117.765625 35.207031 117.960938 35.070312 C 118.050781 35.003906 118.179688 35.027344 118.238281 35.109375 L 118.359375 35.265625 C 118.417969 35.347656 118.402344 35.476562 118.3125 35.535156 C 118.007812 35.753906 117.691406 35.851562 117.21875 35.851562 "/>
<path fill-rule="nonzero" fill="rgb(41.184998%, 49.021912%, 56.834412%)" fill-opacity="1" d="M 42.578125 44.753906 C 42.472656 44.753906 42.382812 44.664062 42.382812 44.558594 L 42.382812 39.777344 C 42.382812 39.671875 42.472656 39.582031 42.578125 39.582031 L 42.878906 39.582031 C 42.984375 39.582031 43.074219 39.671875 43.074219 39.777344 L 43.074219 41.699219 L 44.933594 41.699219 L 44.933594 39.777344 C 44.933594 39.671875 45.027344 39.582031 45.132812 39.582031 L 45.429688 39.582031 C 45.535156 39.582031 45.625 39.671875 45.625 39.777344 L 45.625 44.558594 C 45.625 44.664062 45.535156 44.753906 45.429688 44.753906 L 45.132812 44.753906 C 45.027344 44.753906 44.933594 44.664062 44.933594 44.558594 L 44.933594 42.308594 L 43.074219 42.308594 L 43.074219 44.558594 C 43.074219 44.664062 42.984375 44.753906 42.878906 44.753906 L 42.578125 44.753906 "/>
<path fill-rule="nonzero" fill="rgb(41.184998%, 49.021912%, 56.834412%)" fill-opacity="1" d="M 48.222656 44.339844 C 48.589844 44.339844 48.867188 44.09375 49.050781 43.890625 L 49.050781 42.890625 L 48.824219 42.890625 C 47.878906 42.890625 47.699219 43.132812 47.699219 43.679688 C 47.699219 44.175781 47.855469 44.339844 48.222656 44.339844 Z M 48.140625 44.851562 C 47.417969 44.851562 47.007812 44.453125 47.007812 43.679688 C 47.007812 42.824219 47.511719 42.425781 48.742188 42.425781 L 49.050781 42.425781 L 49.050781 42.132812 C 49.050781 41.714844 48.996094 41.457031 48.507812 41.457031 C 48.1875 41.457031 47.871094 41.570312 47.585938 41.714844 C 47.488281 41.757812 47.367188 41.722656 47.324219 41.625 L 47.246094 41.480469 C 47.203125 41.382812 47.238281 41.261719 47.335938 41.210938 C 47.675781 41.03125 48.066406 40.894531 48.578125 40.894531 C 49.3125 40.894531 49.695312 41.226562 49.695312 42.027344 L 49.695312 44.558594 C 49.695312 44.664062 49.605469 44.753906 49.5 44.753906 L 49.386719 44.753906 C 49.273438 44.753906 49.167969 44.679688 49.140625 44.566406 L 49.085938 44.378906 C 48.867188 44.621094 48.554688 44.851562 48.140625 44.851562 "/>
<path fill-rule="nonzero" fill="rgb(41.184998%, 49.021912%, 56.834412%)" fill-opacity="1" d="M 52.132812 44.851562 C 51.59375 44.851562 51.171875 44.542969 51.171875 43.890625 L 51.171875 41.1875 C 51.171875 41.082031 51.261719 40.992188 51.367188 40.992188 L 51.621094 40.992188 C 51.726562 40.992188 51.820312 41.082031 51.820312 41.1875 L 51.820312 43.6875 C 51.820312 44.132812 51.96875 44.28125 52.304688 44.28125 C 52.605469 44.28125 52.929688 44.078125 53.207031 43.832031 L 53.207031 41.1875 C 53.207031 41.082031 53.296875 40.992188 53.402344 40.992188 L 53.65625 40.992188 C 53.761719 40.992188 53.851562 41.082031 53.851562 41.1875 L 53.851562 44.558594 C 53.851562 44.664062 53.761719 44.753906 53.65625 44.753906 L 53.542969 44.753906 C 53.433594 44.753906 53.335938 44.671875 53.3125 44.566406 L 53.253906 44.289062 C 52.9375 44.613281 52.578125 44.851562 52.132812 44.851562 "/>
<path fill-rule="nonzero" fill="rgb(41.184998%, 49.021912%, 56.834412%)" fill-opacity="1" d="M 55.246094 41.519531 C 55.144531 41.519531 55.054688 41.429688 55.054688 41.324219 L 55.054688 41.1875 C 55.054688 41.082031 55.144531 40.992188 55.246094 40.992188 L 55.480469 40.992188 L 55.480469 40.21875 C 55.480469 40.105469 55.5625 40.007812 55.667969 39.980469 L 55.9375 39.925781 C 56.035156 39.90625 56.125 39.980469 56.125 40.078125 L 56.125 40.992188 L 56.703125 40.992188 C 56.808594 40.992188 56.898438 41.082031 56.898438 41.1875 L 56.898438 41.324219 C 56.898438 41.429688 56.808594 41.519531 56.703125 41.519531 L 56.125 41.519531 L 56.125 43.988281 C 56.125 44.230469 56.222656 44.332031 56.433594 44.332031 C 56.523438 44.332031 56.597656 44.320312 56.667969 44.296875 C 56.765625 44.265625 56.871094 44.328125 56.898438 44.425781 L 56.929688 44.535156 C 56.953125 44.640625 56.898438 44.746094 56.792969 44.785156 C 56.675781 44.820312 56.539062 44.851562 56.382812 44.851562 C 55.871094 44.851562 55.480469 44.648438 55.480469 44.046875 L 55.480469 41.519531 L 55.246094 41.519531 "/>
<path fill-rule="nonzero" fill="rgb(41.184998%, 49.021912%, 56.834412%)" fill-opacity="1" d="M 59.308594 41.40625 C 58.875 41.40625 58.601562 41.632812 58.550781 42.53125 L 60.042969 42.53125 C 60.042969 41.667969 59.847656 41.40625 59.308594 41.40625 Z M 59.390625 44.851562 C 58.40625 44.851562 57.851562 44.28125 57.851562 42.871094 C 57.851562 41.445312 58.4375 40.894531 59.324219 40.894531 C 60.21875 40.894531 60.726562 41.40625 60.726562 42.765625 L 60.726562 42.898438 C 60.726562 42.96875 60.675781 43.019531 60.609375 43.019531 L 58.542969 43.019531 C 58.558594 44.046875 58.785156 44.304688 59.40625 44.304688 C 59.730469 44.304688 59.941406 44.207031 60.136719 44.070312 C 60.226562 44.003906 60.351562 44.027344 60.414062 44.109375 L 60.53125 44.265625 C 60.59375 44.347656 60.578125 44.476562 60.488281 44.535156 C 60.179688 44.753906 59.863281 44.851562 59.390625 44.851562 "/>
<path fill-rule="nonzero" fill="rgb(41.184998%, 49.021912%, 56.834412%)" fill-opacity="1" d="M 64.722656 40.429688 C 64.625 40.484375 64.507812 40.445312 64.453125 40.355469 L 64.414062 40.289062 C 64.363281 40.199219 64.386719 40.070312 64.476562 40.007812 L 65.59375 39.238281 C 65.675781 39.175781 65.796875 39.207031 65.84375 39.296875 L 66.007812 39.582031 C 66.050781 39.671875 66.015625 39.792969 65.925781 39.84375 Z M 65.113281 41.40625 C 64.679688 41.40625 64.40625 41.632812 64.355469 42.53125 L 65.847656 42.53125 C 65.847656 41.667969 65.65625 41.40625 65.113281 41.40625 Z M 65.195312 44.851562 C 64.214844 44.851562 63.65625 44.28125 63.65625 42.871094 C 63.65625 41.445312 64.242188 40.894531 65.128906 40.894531 C 66.023438 40.894531 66.53125 41.40625 66.53125 42.765625 L 66.53125 42.898438 C 66.53125 42.96875 66.480469 43.019531 66.414062 43.019531 L 64.347656 43.019531 C 64.363281 44.046875 64.589844 44.304688 65.210938 44.304688 C 65.535156 44.304688 65.742188 44.207031 65.941406 44.070312 C 66.03125 44.003906 66.15625 44.027344 66.21875 44.109375 L 66.335938 44.265625 C 66.398438 44.347656 66.382812 44.476562 66.292969 44.535156 C 65.984375 44.753906 65.667969 44.851562 65.195312 44.851562 "/>
<path fill-rule="nonzero" fill="rgb(41.184998%, 49.021912%, 56.834412%)" fill-opacity="1" d="M 69.148438 44.851562 C 68.1875 44.851562 67.65625 44.222656 67.65625 42.871094 C 67.65625 41.4375 68.226562 40.894531 69.15625 40.894531 C 69.519531 40.894531 69.800781 40.976562 70.074219 41.195312 C 70.164062 41.261719 70.171875 41.382812 70.101562 41.464844 L 69.984375 41.617188 C 69.90625 41.699219 69.789062 41.707031 69.707031 41.640625 C 69.539062 41.511719 69.382812 41.445312 69.136719 41.445312 C 68.566406 41.445312 68.347656 41.691406 68.347656 42.871094 C 68.347656 44.027344 68.585938 44.304688 69.1875 44.304688 C 69.417969 44.304688 69.578125 44.214844 69.734375 44.085938 C 69.816406 44.019531 69.945312 44.027344 70.011719 44.109375 L 70.148438 44.25 C 70.222656 44.328125 70.214844 44.453125 70.132812 44.523438 C 69.886719 44.738281 69.578125 44.851562 69.148438 44.851562 "/>
<path fill-rule="nonzero" fill="rgb(41.184998%, 49.021912%, 56.834412%)" fill-opacity="1" d="M 72.703125 44.339844 C 73.273438 44.339844 73.542969 44.035156 73.542969 42.878906 C 73.542969 41.714844 73.265625 41.40625 72.695312 41.40625 C 72.125 41.40625 71.855469 41.707031 71.855469 42.871094 C 71.855469 44.027344 72.132812 44.339844 72.703125 44.339844 Z M 72.703125 44.851562 C 71.785156 44.851562 71.164062 44.28125 71.164062 42.871094 C 71.164062 41.457031 71.773438 40.894531 72.6875 40.894531 C 73.605469 40.894531 74.234375 41.457031 74.234375 42.871094 C 74.234375 44.28125 73.617188 44.851562 72.703125 44.851562 "/>
<path fill-rule="nonzero" fill="rgb(41.184998%, 49.021912%, 56.834412%)" fill-opacity="1" d="M 76.242188 44.828125 C 75.761719 44.828125 75.558594 44.574219 75.558594 43.914062 L 75.558594 39.515625 C 75.558594 39.410156 75.648438 39.320312 75.753906 39.320312 L 76.011719 39.320312 C 76.113281 39.320312 76.207031 39.410156 76.207031 39.515625 L 76.207031 44.035156 C 76.207031 44.222656 76.289062 44.296875 76.46875 44.296875 C 76.5 44.296875 76.527344 44.296875 76.550781 44.289062 C 76.589844 44.289062 76.625 44.3125 76.632812 44.347656 L 76.671875 44.566406 C 76.695312 44.671875 76.625 44.777344 76.519531 44.800781 C 76.429688 44.8125 76.332031 44.828125 76.242188 44.828125 "/>
<path fill-rule="nonzero" fill="rgb(41.184998%, 49.021912%, 56.834412%)" fill-opacity="1" d="M 79.046875 41.40625 C 78.613281 41.40625 78.34375 41.632812 78.289062 42.53125 L 79.785156 42.53125 C 79.785156 41.667969 79.589844 41.40625 79.046875 41.40625 Z M 79.128906 44.851562 C 78.148438 44.851562 77.589844 44.28125 77.589844 42.871094 C 77.589844 41.445312 78.175781 40.894531 79.0625 40.894531 C 79.957031 40.894531 80.46875 41.40625 80.46875 42.765625 L 80.46875 42.898438 C 80.46875 42.96875 80.414062 43.019531 80.347656 43.019531 L 78.28125 43.019531 C 78.296875 44.046875 78.523438 44.304688 79.144531 44.304688 C 79.46875 44.304688 79.679688 44.207031 79.875 44.070312 C 79.964844 44.003906 80.089844 44.027344 80.152344 44.109375 L 80.273438 44.265625 C 80.332031 44.347656 80.316406 44.476562 80.226562 44.535156 C 79.917969 44.753906 79.601562 44.851562 79.128906 44.851562 "/>
<path fill-rule="nonzero" fill="rgb(41.184998%, 49.021912%, 56.834412%)" fill-opacity="1" d="M 84.515625 44.851562 C 84.101562 44.851562 83.703125 44.71875 83.425781 44.558594 C 83.335938 44.5 83.304688 44.378906 83.359375 44.289062 L 83.441406 44.144531 C 83.492188 44.046875 83.613281 44.019531 83.703125 44.070312 C 83.96875 44.222656 84.238281 44.3125 84.542969 44.3125 C 85.054688 44.3125 85.214844 44.109375 85.214844 43.757812 C 85.214844 43.335938 85.019531 43.253906 84.417969 43.085938 C 83.890625 42.945312 83.457031 42.667969 83.457031 41.925781 C 83.457031 41.375 83.808594 40.894531 84.636719 40.894531 C 84.996094 40.894531 85.265625 40.957031 85.507812 41.054688 C 85.601562 41.097656 85.648438 41.21875 85.601562 41.316406 L 85.535156 41.464844 C 85.492188 41.5625 85.378906 41.617188 85.273438 41.570312 C 85.054688 41.472656 84.882812 41.445312 84.65625 41.445312 C 84.253906 41.445312 84.066406 41.585938 84.066406 41.910156 C 84.066406 42.261719 84.222656 42.351562 84.738281 42.496094 C 85.316406 42.652344 85.84375 42.878906 85.84375 43.726562 C 85.84375 44.507812 85.402344 44.851562 84.515625 44.851562 "/>
<path fill-rule="nonzero" fill="rgb(41.184998%, 49.021912%, 56.834412%)" fill-opacity="1" d="M 88.589844 44.296875 C 89.121094 44.296875 89.355469 44.101562 89.355469 42.890625 C 89.355469 41.683594 89.160156 41.449219 88.648438 41.449219 C 88.28125 41.449219 88.027344 41.640625 87.753906 41.894531 L 87.753906 43.929688 C 87.972656 44.140625 88.273438 44.296875 88.589844 44.296875 Z M 87.304688 46.261719 C 87.199219 46.261719 87.109375 46.171875 87.109375 46.066406 L 87.109375 41.1875 C 87.109375 41.082031 87.199219 40.992188 87.304688 40.992188 L 87.417969 40.992188 C 87.53125 40.992188 87.636719 41.074219 87.65625 41.179688 L 87.71875 41.421875 C 88.003906 41.105469 88.363281 40.894531 88.761719 40.894531 C 89.480469 40.894531 90.046875 41.300781 90.046875 42.847656 C 90.046875 44.257812 89.632812 44.851562 88.753906 44.851562 C 88.339844 44.851562 87.996094 44.664062 87.753906 44.429688 L 87.753906 46.066406 C 87.753906 46.171875 87.664062 46.261719 87.558594 46.261719 L 87.304688 46.261719 "/>
<path fill-rule="nonzero" fill="rgb(41.184998%, 49.021912%, 56.834412%)" fill-opacity="1" d="M 92.28125 40.429688 C 92.183594 40.484375 92.066406 40.445312 92.011719 40.355469 L 91.976562 40.289062 C 91.921875 40.199219 91.945312 40.070312 92.035156 40.007812 L 93.152344 39.238281 C 93.234375 39.175781 93.355469 39.207031 93.402344 39.296875 L 93.566406 39.582031 C 93.613281 39.671875 93.574219 39.792969 93.484375 39.84375 Z M 92.671875 41.40625 C 92.238281 41.40625 91.96875 41.632812 91.914062 42.53125 L 93.410156 42.53125 C 93.410156 41.667969 93.214844 41.40625 92.671875 41.40625 Z M 92.757812 44.851562 C 91.773438 44.851562 91.21875 44.28125 91.21875 42.871094 C 91.21875 41.445312 91.800781 40.894531 92.6875 40.894531 C 93.582031 40.894531 94.09375 41.40625 94.09375 42.765625 L 94.09375 42.898438 C 94.09375 42.96875 94.039062 43.019531 93.972656 43.019531 L 91.90625 43.019531 C 91.921875 44.046875 92.148438 44.304688 92.769531 44.304688 C 93.09375 44.304688 93.304688 44.207031 93.5 44.070312 C 93.589844 44.003906 93.71875 44.027344 93.777344 44.109375 L 93.898438 44.265625 C 93.957031 44.347656 93.941406 44.476562 93.851562 44.535156 C 93.542969 44.753906 93.230469 44.851562 92.757812 44.851562 "/>
<path fill-rule="nonzero" fill="rgb(41.184998%, 49.021912%, 56.834412%)" fill-opacity="1" d="M 96.714844 44.851562 C 95.753906 44.851562 95.21875 44.222656 95.21875 42.871094 C 95.21875 41.4375 95.789062 40.894531 96.722656 40.894531 C 97.082031 40.894531 97.367188 40.976562 97.636719 41.195312 C 97.726562 41.261719 97.734375 41.382812 97.667969 41.464844 L 97.546875 41.617188 C 97.472656 41.699219 97.351562 41.707031 97.269531 41.640625 C 97.105469 41.511719 96.945312 41.445312 96.699219 41.445312 C 96.128906 41.445312 95.910156 41.691406 95.910156 42.871094 C 95.910156 44.027344 96.152344 44.304688 96.75 44.304688 C 96.984375 44.304688 97.140625 44.214844 97.300781 44.085938 C 97.382812 44.019531 97.511719 44.027344 97.578125 44.109375 L 97.710938 44.25 C 97.785156 44.328125 97.78125 44.453125 97.699219 44.523438 C 97.449219 44.738281 97.140625 44.851562 96.714844 44.851562 "/>
<path fill-rule="nonzero" fill="rgb(41.184998%, 49.021912%, 56.834412%)" fill-opacity="1" d="M 99.652344 40.296875 C 99.394531 40.296875 99.207031 40.09375 99.207031 39.835938 C 99.207031 39.574219 99.402344 39.371094 99.660156 39.371094 C 99.921875 39.371094 100.117188 39.566406 100.117188 39.835938 C 100.117188 40.09375 99.921875 40.296875 99.652344 40.296875 Z M 99.539062 44.753906 C 99.433594 44.753906 99.34375 44.664062 99.34375 44.558594 L 99.34375 41.496094 L 98.984375 41.4375 C 98.871094 41.421875 98.789062 41.324219 98.789062 41.210938 L 98.789062 41.1875 C 98.789062 41.082031 98.878906 40.992188 98.984375 40.992188 L 99.792969 40.992188 C 99.898438 40.992188 99.988281 41.082031 99.988281 41.1875 L 99.988281 44.558594 C 99.988281 44.664062 99.898438 44.753906 99.792969 44.753906 L 99.539062 44.753906 "/>
<path fill-rule="nonzero" fill="rgb(41.184998%, 49.021912%, 56.834412%)" fill-opacity="1" d="M 102.46875 44.339844 C 102.835938 44.339844 103.113281 44.09375 103.296875 43.890625 L 103.296875 42.890625 L 103.070312 42.890625 C 102.125 42.890625 101.941406 43.132812 101.941406 43.679688 C 101.941406 44.175781 102.101562 44.339844 102.46875 44.339844 Z M 102.386719 44.851562 C 101.664062 44.851562 101.253906 44.453125 101.253906 43.679688 C 101.253906 42.824219 101.757812 42.425781 102.988281 42.425781 L 103.296875 42.425781 L 103.296875 42.132812 C 103.296875 41.714844 103.242188 41.457031 102.753906 41.457031 C 102.433594 41.457031 102.117188 41.570312 101.832031 41.714844 C 101.734375 41.757812 101.613281 41.722656 101.566406 41.625 L 101.492188 41.480469 C 101.449219 41.382812 101.484375 41.261719 101.582031 41.210938 C 101.921875 41.03125 102.3125 40.894531 102.820312 40.894531 C 103.558594 40.894531 103.941406 41.226562 103.941406 42.027344 L 103.941406 44.558594 C 103.941406 44.664062 103.851562 44.753906 103.746094 44.753906 L 103.632812 44.753906 C 103.519531 44.753906 103.414062 44.679688 103.386719 44.566406 L 103.332031 44.378906 C 103.113281 44.621094 102.800781 44.851562 102.386719 44.851562 "/>
<path fill-rule="nonzero" fill="rgb(41.184998%, 49.021912%, 56.834412%)" fill-opacity="1" d="M 106.128906 44.828125 C 105.648438 44.828125 105.445312 44.574219 105.445312 43.914062 L 105.445312 39.515625 C 105.445312 39.410156 105.535156 39.320312 105.640625 39.320312 L 105.898438 39.320312 C 106.003906 39.320312 106.09375 39.410156 106.09375 39.515625 L 106.09375 44.035156 C 106.09375 44.222656 106.175781 44.296875 106.355469 44.296875 C 106.386719 44.296875 106.414062 44.296875 106.4375 44.289062 C 106.476562 44.289062 106.511719 44.3125 106.519531 44.347656 L 106.558594 44.566406 C 106.578125 44.671875 106.511719 44.777344 106.40625 44.800781 C 106.316406 44.8125 106.21875 44.828125 106.128906 44.828125 "/>
<path fill-rule="nonzero" fill="rgb(41.184998%, 49.021912%, 56.834412%)" fill-opacity="1" d="M 108.214844 40.296875 C 107.960938 40.296875 107.773438 40.09375 107.773438 39.835938 C 107.773438 39.574219 107.96875 39.371094 108.222656 39.371094 C 108.484375 39.371094 108.679688 39.566406 108.679688 39.835938 C 108.679688 40.09375 108.484375 40.296875 108.214844 40.296875 Z M 108.101562 44.753906 C 107.996094 44.753906 107.90625 44.664062 107.90625 44.558594 L 107.90625 41.496094 L 107.546875 41.4375 C 107.433594 41.421875 107.351562 41.324219 107.351562 41.210938 L 107.351562 41.1875 C 107.351562 41.082031 107.441406 40.992188 107.546875 40.992188 L 108.355469 40.992188 C 108.460938 40.992188 108.554688 41.082031 108.554688 41.1875 L 108.554688 44.558594 C 108.554688 44.664062 108.460938 44.753906 108.355469 44.753906 L 108.101562 44.753906 "/>
<path fill-rule="nonzero" fill="rgb(41.184998%, 49.021912%, 56.834412%)" fill-opacity="1" d="M 110.96875 44.851562 C 110.558594 44.851562 110.160156 44.71875 109.882812 44.558594 C 109.789062 44.5 109.761719 44.378906 109.8125 44.289062 L 109.894531 44.144531 C 109.949219 44.046875 110.070312 44.019531 110.160156 44.070312 C 110.421875 44.222656 110.691406 44.3125 111 44.3125 C 111.511719 44.3125 111.667969 44.109375 111.667969 43.757812 C 111.667969 43.335938 111.472656 43.253906 110.871094 43.085938 C 110.347656 42.945312 109.910156 42.667969 109.910156 41.925781 C 109.910156 41.375 110.265625 40.894531 111.089844 40.894531 C 111.449219 40.894531 111.722656 40.957031 111.960938 41.054688 C 112.058594 41.097656 112.105469 41.21875 112.058594 41.316406 L 111.992188 41.464844 C 111.945312 41.5625 111.832031 41.617188 111.726562 41.570312 C 111.511719 41.472656 111.339844 41.445312 111.113281 41.445312 C 110.707031 41.445312 110.519531 41.585938 110.519531 41.910156 C 110.519531 42.261719 110.675781 42.351562 111.195312 42.496094 C 111.773438 42.652344 112.300781 42.878906 112.300781 43.726562 C 112.300781 44.507812 111.855469 44.851562 110.96875 44.851562 "/>
<path fill-rule="nonzero" fill="rgb(41.184998%, 49.021912%, 56.834412%)" fill-opacity="1" d="M 114.464844 40.429688 C 114.367188 40.484375 114.246094 40.445312 114.191406 40.355469 L 114.15625 40.289062 C 114.101562 40.199219 114.125 40.070312 114.214844 40.007812 L 115.335938 39.238281 C 115.417969 39.175781 115.535156 39.207031 115.582031 39.296875 L 115.746094 39.582031 C 115.792969 39.671875 115.753906 39.792969 115.664062 39.84375 Z M 114.855469 41.40625 C 114.417969 41.40625 114.148438 41.632812 114.09375 42.53125 L 115.589844 42.53125 C 115.589844 41.667969 115.394531 41.40625 114.855469 41.40625 Z M 114.9375 44.851562 C 113.953125 44.851562 113.398438 44.28125 113.398438 42.871094 C 113.398438 41.445312 113.980469 40.894531 114.867188 40.894531 C 115.761719 40.894531 116.273438 41.40625 116.273438 42.765625 L 116.273438 42.898438 C 116.273438 42.96875 116.21875 43.019531 116.152344 43.019531 L 114.089844 43.019531 C 114.101562 44.046875 114.328125 44.304688 114.949219 44.304688 C 115.273438 44.304688 115.484375 44.207031 115.679688 44.070312 C 115.769531 44.003906 115.898438 44.027344 115.957031 44.109375 L 116.078125 44.265625 C 116.136719 44.347656 116.121094 44.476562 116.03125 44.535156 C 115.726562 44.753906 115.410156 44.851562 114.9375 44.851562 "/>
<path fill-rule="nonzero" fill="rgb(41.184998%, 49.021912%, 56.834412%)" fill-opacity="1" d="M 118.851562 41.40625 C 118.414062 41.40625 118.144531 41.632812 118.09375 42.53125 L 119.585938 42.53125 C 119.585938 41.667969 119.390625 41.40625 118.851562 41.40625 Z M 118.933594 44.851562 C 117.949219 44.851562 117.394531 44.28125 117.394531 42.871094 C 117.394531 41.445312 117.980469 40.894531 118.867188 40.894531 C 119.761719 40.894531 120.269531 41.40625 120.269531 42.765625 L 120.269531 42.898438 C 120.269531 42.96875 120.21875 43.019531 120.148438 43.019531 L 118.085938 43.019531 C 118.101562 44.046875 118.324219 44.304688 118.949219 44.304688 C 119.273438 44.304688 119.480469 44.207031 119.675781 44.070312 C 119.769531 44.003906 119.894531 44.027344 119.953125 44.109375 L 120.074219 44.265625 C 120.136719 44.347656 120.121094 44.476562 120.03125 44.535156 C 119.722656 44.753906 119.40625 44.851562 118.933594 44.851562 "/>
<path fill-rule="nonzero" fill="rgb(41.184998%, 49.021912%, 56.834412%)" fill-opacity="1" d="M 124.933594 44.296875 C 125.46875 44.296875 125.699219 44.101562 125.699219 42.890625 C 125.699219 41.683594 125.503906 41.449219 124.996094 41.449219 C 124.628906 41.449219 124.371094 41.640625 124.101562 41.894531 L 124.101562 43.929688 C 124.320312 44.140625 124.617188 44.296875 124.933594 44.296875 Z M 125.101562 44.851562 C 124.6875 44.851562 124.28125 44.640625 124.0625 44.394531 L 124.011719 44.566406 C 123.980469 44.679688 123.875 44.753906 123.761719 44.753906 L 123.652344 44.753906 C 123.546875 44.753906 123.457031 44.664062 123.457031 44.558594 L 123.457031 39.515625 C 123.457031 39.410156 123.546875 39.320312 123.652344 39.320312 L 123.90625 39.320312 C 124.011719 39.320312 124.101562 39.410156 124.101562 39.515625 L 124.101562 41.382812 C 124.371094 41.097656 124.710938 40.894531 125.105469 40.894531 C 125.828125 40.894531 126.390625 41.300781 126.390625 42.847656 C 126.390625 44.257812 125.976562 44.851562 125.101562 44.851562 "/>
<path fill-rule="nonzero" fill="rgb(41.184998%, 49.021912%, 56.834412%)" fill-opacity="1" d="M 129.019531 41.40625 C 128.582031 41.40625 128.3125 41.632812 128.261719 42.53125 L 129.753906 42.53125 C 129.753906 41.667969 129.558594 41.40625 129.019531 41.40625 Z M 129.101562 44.851562 C 128.117188 44.851562 127.5625 44.28125 127.5625 42.871094 C 127.5625 41.445312 128.148438 40.894531 129.035156 40.894531 C 129.925781 40.894531 130.4375 41.40625 130.4375 42.765625 L 130.4375 42.898438 C 130.4375 42.96875 130.386719 43.019531 130.316406 43.019531 L 128.253906 43.019531 C 128.269531 44.046875 128.492188 44.304688 129.117188 44.304688 C 129.4375 44.304688 129.648438 44.207031 129.84375 44.070312 C 129.933594 44.003906 130.0625 44.027344 130.121094 44.109375 L 130.242188 44.265625 C 130.304688 44.347656 130.289062 44.476562 130.199219 44.535156 C 129.890625 44.753906 129.574219 44.851562 129.101562 44.851562 "/>
<path fill-rule="nonzero" fill="rgb(41.184998%, 49.021912%, 56.834412%)" fill-opacity="1" d="M 131.941406 44.753906 C 131.835938 44.753906 131.746094 44.664062 131.746094 44.558594 L 131.746094 41.1875 C 131.746094 41.082031 131.835938 40.992188 131.941406 40.992188 L 132.054688 40.992188 C 132.164062 40.992188 132.265625 41.074219 132.285156 41.1875 L 132.355469 41.527344 C 132.632812 41.179688 132.976562 40.925781 133.410156 40.925781 C 133.433594 40.925781 133.464844 40.925781 133.488281 40.933594 C 133.519531 40.941406 133.546875 40.96875 133.539062 41 L 133.488281 41.527344 C 133.480469 41.578125 133.425781 41.625 133.367188 41.617188 C 133.328125 41.609375 133.285156 41.609375 133.246094 41.609375 C 132.902344 41.609375 132.667969 41.738281 132.390625 41.992188 L 132.390625 44.558594 C 132.390625 44.664062 132.300781 44.753906 132.195312 44.753906 L 131.941406 44.753906 "/>
<path fill-rule="nonzero" fill="rgb(41.184998%, 49.021912%, 56.834412%)" fill-opacity="1" d="M 134.894531 44.753906 C 134.789062 44.753906 134.699219 44.664062 134.699219 44.558594 L 134.699219 41.1875 C 134.699219 41.082031 134.789062 40.992188 134.894531 40.992188 L 135.003906 40.992188 C 135.117188 40.992188 135.214844 41.074219 135.238281 41.179688 L 135.296875 41.457031 C 135.628906 41.128906 136.003906 40.894531 136.445312 40.894531 C 136.988281 40.894531 137.355469 41.171875 137.355469 41.8125 L 137.355469 44.558594 C 137.355469 44.664062 137.265625 44.753906 137.160156 44.753906 L 136.90625 44.753906 C 136.800781 44.753906 136.710938 44.664062 136.710938 44.558594 L 136.710938 42.015625 C 136.710938 41.585938 136.589844 41.464844 136.253906 41.464844 C 135.953125 41.464844 135.613281 41.675781 135.34375 41.917969 L 135.34375 44.558594 C 135.34375 44.664062 135.253906 44.753906 135.148438 44.753906 L 134.894531 44.753906 "/>
<path fill-rule="nonzero" fill="rgb(41.184998%, 49.021912%, 56.834412%)" fill-opacity="1" d="M 140.199219 44.339844 C 140.773438 44.339844 141.042969 44.035156 141.042969 42.878906 C 141.042969 41.714844 140.765625 41.40625 140.195312 41.40625 C 139.621094 41.40625 139.351562 41.707031 139.351562 42.871094 C 139.351562 44.027344 139.632812 44.339844 140.199219 44.339844 Z M 140.199219 44.851562 C 139.285156 44.851562 138.660156 44.28125 138.660156 42.871094 C 138.660156 41.457031 139.269531 40.894531 140.1875 40.894531 C 141.101562 40.894531 141.734375 41.457031 141.734375 42.871094 C 141.734375 44.28125 141.117188 44.851562 140.199219 44.851562 "/>
<path fill-rule="nonzero" fill="rgb(41.184998%, 49.021912%, 56.834412%)" fill-opacity="1" d="M 143.496094 40.296875 C 143.242188 40.296875 143.054688 40.09375 143.054688 39.835938 C 143.054688 39.574219 143.25 39.371094 143.503906 39.371094 C 143.765625 39.371094 143.960938 39.566406 143.960938 39.835938 C 143.960938 40.09375 143.765625 40.296875 143.496094 40.296875 Z M 143.382812 44.753906 C 143.277344 44.753906 143.1875 44.664062 143.1875 44.558594 L 143.1875 41.496094 L 142.828125 41.4375 C 142.714844 41.421875 142.632812 41.324219 142.632812 41.210938 L 142.632812 41.1875 C 142.632812 41.082031 142.722656 40.992188 142.828125 40.992188 L 143.640625 40.992188 C 143.746094 40.992188 143.835938 41.082031 143.835938 41.1875 L 143.835938 44.558594 C 143.835938 44.664062 143.746094 44.753906 143.640625 44.753906 L 143.382812 44.753906 "/>
<path fill-rule="nonzero" fill="rgb(41.184998%, 49.021912%, 56.834412%)" fill-opacity="1" d="M 146.253906 44.851562 C 145.839844 44.851562 145.441406 44.71875 145.164062 44.558594 C 145.074219 44.5 145.042969 44.378906 145.097656 44.289062 L 145.179688 44.144531 C 145.230469 44.046875 145.351562 44.019531 145.441406 44.070312 C 145.703125 44.222656 145.976562 44.3125 146.28125 44.3125 C 146.792969 44.3125 146.949219 44.109375 146.949219 43.757812 C 146.949219 43.335938 146.753906 43.253906 146.15625 43.085938 C 145.628906 42.945312 145.195312 42.667969 145.195312 41.925781 C 145.195312 41.375 145.546875 40.894531 146.371094 40.894531 C 146.734375 40.894531 147.003906 40.957031 147.242188 41.054688 C 147.339844 41.097656 147.386719 41.21875 147.339844 41.316406 L 147.273438 41.464844 C 147.230469 41.5625 147.117188 41.617188 147.011719 41.570312 C 146.792969 41.472656 146.621094 41.445312 146.394531 41.445312 C 145.988281 41.445312 145.800781 41.585938 145.800781 41.910156 C 145.800781 42.261719 145.960938 42.351562 146.476562 42.496094 C 147.054688 42.652344 147.582031 42.878906 147.582031 43.726562 C 147.582031 44.507812 147.136719 44.851562 146.253906 44.851562 "/>
<path fill-rule="nonzero" fill="rgb(41.184998%, 49.021912%, 56.834412%)" fill-opacity="1" d="M 150.136719 41.40625 C 149.699219 41.40625 149.429688 41.632812 149.378906 42.53125 L 150.871094 42.53125 C 150.871094 41.667969 150.675781 41.40625 150.136719 41.40625 Z M 150.21875 44.851562 C 149.234375 44.851562 148.679688 44.28125 148.679688 42.871094 C 148.679688 41.445312 149.265625 40.894531 150.152344 40.894531 C 151.042969 40.894531 151.554688 41.40625 151.554688 42.765625 L 151.554688 42.898438 C 151.554688 42.96875 151.503906 43.019531 151.433594 43.019531 L 149.371094 43.019531 C 149.386719 44.046875 149.609375 44.304688 150.234375 44.304688 C 150.554688 44.304688 150.765625 44.207031 150.960938 44.070312 C 151.050781 44.003906 151.179688 44.027344 151.238281 44.109375 L 151.359375 44.265625 C 151.417969 44.347656 151.402344 44.476562 151.3125 44.535156 C 151.007812 44.753906 150.691406 44.851562 150.21875 44.851562 "/>
<path fill-rule="nonzero" fill="rgb(41.184998%, 49.021912%, 56.834412%)" fill-opacity="1" d="M 43 53.175781 L 43.839844 53.175781 C 44.558594 53.175781 44.816406 52.898438 44.816406 52.269531 C 44.816406 51.644531 44.582031 51.359375 43.871094 51.359375 L 43 51.359375 Z M 42.992188 50.773438 L 43.847656 50.773438 C 44.457031 50.773438 44.589844 50.519531 44.589844 49.976562 C 44.589844 49.4375 44.417969 49.160156 43.808594 49.160156 L 42.992188 49.160156 Z M 42.503906 53.753906 C 42.398438 53.753906 42.308594 53.664062 42.308594 53.558594 L 42.308594 48.777344 C 42.308594 48.671875 42.398438 48.582031 42.503906 48.582031 L 43.832031 48.582031 C 44.921875 48.582031 45.320312 49.152344 45.320312 49.964844 C 45.320312 50.503906 45.183594 50.796875 44.6875 51.007812 C 45.191406 51.148438 45.550781 51.539062 45.550781 52.304688 C 45.550781 53.332031 44.875 53.753906 43.914062 53.753906 L 42.503906 53.753906 "/>
<path fill-rule="nonzero" fill="rgb(41.184998%, 49.021912%, 56.834412%)" fill-opacity="1" d="M 48.078125 50.40625 C 47.640625 50.40625 47.371094 50.632812 47.320312 51.53125 L 48.8125 51.53125 C 48.8125 50.667969 48.617188 50.40625 48.078125 50.40625 Z M 48.160156 53.851562 C 47.175781 53.851562 46.621094 53.28125 46.621094 51.871094 C 46.621094 50.445312 47.207031 49.894531 48.09375 49.894531 C 48.984375 49.894531 49.496094 50.40625 49.496094 51.765625 L 49.496094 51.898438 C 49.496094 51.96875 49.441406 52.019531 49.375 52.019531 L 47.3125 52.019531 C 47.328125 53.046875 47.550781 53.304688 48.175781 53.304688 C 48.496094 53.304688 48.707031 53.207031 48.902344 53.070312 C 48.992188 53.003906 49.121094 53.027344 49.179688 53.109375 L 49.300781 53.265625 C 49.359375 53.347656 49.34375 53.476562 49.253906 53.535156 C 48.949219 53.753906 48.632812 53.851562 48.160156 53.851562 "/>
<path fill-rule="nonzero" fill="rgb(41.184998%, 49.021912%, 56.834412%)" fill-opacity="1" d="M 51 53.753906 C 50.894531 53.753906 50.804688 53.664062 50.804688 53.558594 L 50.804688 50.1875 C 50.804688 50.082031 50.894531 49.992188 51 49.992188 L 51.109375 49.992188 C 51.222656 49.992188 51.320312 50.074219 51.34375 50.1875 L 51.410156 50.527344 C 51.6875 50.179688 52.035156 49.925781 52.46875 49.925781 C 52.492188 49.925781 52.523438 49.925781 52.542969 49.933594 C 52.574219 49.941406 52.605469 49.96875 52.597656 50 L 52.542969 50.527344 C 52.539062 50.578125 52.484375 50.625 52.425781 50.617188 C 52.386719 50.609375 52.34375 50.609375 52.304688 50.609375 C 51.960938 50.609375 51.726562 50.738281 51.449219 50.992188 L 51.449219 53.558594 C 51.449219 53.664062 51.359375 53.753906 51.253906 53.753906 L 51 53.753906 "/>
<path fill-rule="nonzero" fill="rgb(41.184998%, 49.021912%, 56.834412%)" fill-opacity="1" d="M 53.949219 53.753906 C 53.84375 53.753906 53.753906 53.664062 53.753906 53.558594 L 53.753906 50.1875 C 53.753906 50.082031 53.84375 49.992188 53.949219 49.992188 L 54.0625 49.992188 C 54.175781 49.992188 54.273438 50.074219 54.296875 50.179688 L 54.355469 50.457031 C 54.683594 50.128906 55.0625 49.894531 55.503906 49.894531 C 56.042969 49.894531 56.414062 50.171875 56.414062 50.8125 L 56.414062 53.558594 C 56.414062 53.664062 56.324219 53.753906 56.21875 53.753906 L 55.960938 53.753906 C 55.855469 53.753906 55.765625 53.664062 55.765625 53.558594 L 55.765625 51.015625 C 55.765625 50.585938 55.648438 50.464844 55.308594 50.464844 C 55.007812 50.464844 54.671875 50.675781 54.402344 50.917969 L 54.402344 53.558594 C 54.402344 53.664062 54.308594 53.753906 54.207031 53.753906 L 53.949219 53.753906 "/>
<path fill-rule="nonzero" fill="rgb(41.184998%, 49.021912%, 56.834412%)" fill-opacity="1" d="M 61.28125 53.851562 C 60.558594 53.851562 59.867188 53.46875 59.867188 52.269531 L 59.867188 48.777344 C 59.867188 48.671875 59.957031 48.582031 60.0625 48.582031 L 60.363281 48.582031 C 60.46875 48.582031 60.558594 48.671875 60.558594 48.777344 L 60.558594 52.148438 C 60.558594 52.90625 60.703125 53.25 61.355469 53.25 C 61.894531 53.25 62.269531 52.980469 62.488281 52.769531 L 62.488281 48.777344 C 62.488281 48.671875 62.578125 48.582031 62.683594 48.582031 L 62.984375 48.582031 C 63.089844 48.582031 63.179688 48.671875 63.179688 48.777344 L 63.179688 53.558594 C 63.179688 53.664062 63.089844 53.753906 62.984375 53.753906 L 62.863281 53.753906 C 62.75 53.753906 62.644531 53.671875 62.621094 53.566406 L 62.546875 53.273438 C 62.253906 53.566406 61.835938 53.851562 61.28125 53.851562 "/>
<path fill-rule="nonzero" fill="rgb(41.184998%, 49.021912%, 56.834412%)" fill-opacity="1" d="M 65 53.753906 C 64.894531 53.753906 64.804688 53.664062 64.804688 53.558594 L 64.804688 50.1875 C 64.804688 50.082031 64.894531 49.992188 65 49.992188 L 65.113281 49.992188 C 65.226562 49.992188 65.324219 50.074219 65.34375 50.179688 L 65.40625 50.457031 C 65.734375 50.128906 66.109375 49.894531 66.554688 49.894531 C 67.09375 49.894531 67.460938 50.171875 67.460938 50.8125 L 67.460938 53.558594 C 67.460938 53.664062 67.371094 53.753906 67.265625 53.753906 L 67.011719 53.753906 C 66.90625 53.753906 66.816406 53.664062 66.816406 53.558594 L 66.816406 51.015625 C 66.816406 50.585938 66.695312 50.464844 66.359375 50.464844 C 66.058594 50.464844 65.71875 50.675781 65.449219 50.917969 L 65.449219 53.558594 C 65.449219 53.664062 65.359375 53.753906 65.253906 53.753906 L 65 53.753906 "/>
<path fill-rule="nonzero" fill="rgb(41.184998%, 49.021912%, 56.834412%)" fill-opacity="1" d="M 69.488281 49.296875 C 69.234375 49.296875 69.046875 49.09375 69.046875 48.835938 C 69.046875 48.574219 69.242188 48.371094 69.496094 48.371094 C 69.761719 48.371094 69.957031 48.566406 69.957031 48.835938 C 69.957031 49.09375 69.761719 49.296875 69.488281 49.296875 Z M 69.378906 53.753906 C 69.273438 53.753906 69.179688 53.664062 69.179688 53.558594 L 69.179688 50.496094 L 68.820312 50.4375 C 68.710938 50.421875 68.625 50.324219 68.625 50.210938 L 68.625 50.1875 C 68.625 50.082031 68.714844 49.992188 68.820312 49.992188 L 69.632812 49.992188 C 69.738281 49.992188 69.828125 50.082031 69.828125 50.1875 L 69.828125 53.558594 C 69.828125 53.664062 69.738281 53.753906 69.632812 53.753906 L 69.378906 53.753906 "/>
<path fill-rule="nonzero" fill="rgb(41.184998%, 49.021912%, 56.834412%)" fill-opacity="1" d="M 72.40625 53.753906 C 72.296875 53.753906 72.191406 53.679688 72.152344 53.566406 L 71.035156 50.179688 C 71.003906 50.082031 71.070312 49.992188 71.167969 49.992188 L 71.484375 49.992188 C 71.597656 49.992188 71.703125 50.066406 71.730469 50.179688 L 72.316406 52.148438 C 72.402344 52.417969 72.492188 52.867188 72.550781 53.125 L 72.558594 53.125 C 72.601562 52.898438 72.703125 52.425781 72.789062 52.132812 L 73.375 50.179688 C 73.40625 50.066406 73.511719 49.992188 73.625 49.992188 L 73.902344 49.992188 C 74 49.992188 74.066406 50.082031 74.035156 50.179688 L 72.894531 53.566406 C 72.859375 53.679688 72.753906 53.753906 72.640625 53.753906 L 72.40625 53.753906 "/>
<path fill-rule="nonzero" fill="rgb(41.184998%, 49.021912%, 56.834412%)" fill-opacity="1" d="M 76.402344 50.40625 C 75.96875 50.40625 75.695312 50.632812 75.644531 51.53125 L 77.136719 51.53125 C 77.136719 50.667969 76.941406 50.40625 76.402344 50.40625 Z M 76.484375 53.851562 C 75.5 53.851562 74.945312 53.28125 74.945312 51.871094 C 74.945312 50.445312 75.53125 49.894531 76.417969 49.894531 C 77.308594 49.894531 77.820312 50.40625 77.820312 51.765625 L 77.820312 51.898438 C 77.820312 51.96875 77.769531 52.019531 77.703125 52.019531 L 75.636719 52.019531 C 75.652344 53.046875 75.878906 53.304688 76.5 53.304688 C 76.824219 53.304688 77.03125 53.207031 77.226562 53.070312 C 77.320312 53.003906 77.445312 53.027344 77.507812 53.109375 L 77.625 53.265625 C 77.6875 53.347656 77.671875 53.476562 77.582031 53.535156 C 77.273438 53.753906 76.957031 53.851562 76.484375 53.851562 "/>
<path fill-rule="nonzero" fill="rgb(41.184998%, 49.021912%, 56.834412%)" fill-opacity="1" d="M 79.324219 53.753906 C 79.21875 53.753906 79.128906 53.664062 79.128906 53.558594 L 79.128906 50.1875 C 79.128906 50.082031 79.21875 49.992188 79.324219 49.992188 L 79.4375 49.992188 C 79.550781 49.992188 79.648438 50.074219 79.667969 50.1875 L 79.738281 50.527344 C 80.015625 50.179688 80.359375 49.925781 80.796875 49.925781 C 80.816406 49.925781 80.847656 49.925781 80.871094 49.933594 C 80.902344 49.941406 80.929688 49.96875 80.921875 50 L 80.871094 50.527344 C 80.863281 50.578125 80.808594 50.625 80.75 50.617188 C 80.714844 50.609375 80.667969 50.609375 80.628906 50.609375 C 80.285156 50.609375 80.050781 50.738281 79.773438 50.992188 L 79.773438 53.558594 C 79.773438 53.664062 79.683594 53.753906 79.578125 53.753906 L 79.324219 53.753906 "/>
<path fill-rule="nonzero" fill="rgb(41.184998%, 49.021912%, 56.834412%)" fill-opacity="1" d="M 83 53.851562 C 82.585938 53.851562 82.191406 53.71875 81.910156 53.558594 C 81.820312 53.5 81.792969 53.378906 81.84375 53.289062 L 81.925781 53.144531 C 81.980469 53.046875 82.097656 53.019531 82.191406 53.070312 C 82.453125 53.222656 82.722656 53.3125 83.03125 53.3125 C 83.539062 53.3125 83.699219 53.109375 83.699219 52.757812 C 83.699219 52.335938 83.503906 52.253906 82.902344 52.085938 C 82.378906 51.945312 81.941406 51.667969 81.941406 50.925781 C 81.941406 50.375 82.292969 49.894531 83.121094 49.894531 C 83.480469 49.894531 83.75 49.957031 83.992188 50.054688 C 84.089844 50.097656 84.132812 50.21875 84.089844 50.316406 L 84.019531 50.464844 C 83.976562 50.5625 83.863281 50.617188 83.757812 50.570312 C 83.539062 50.472656 83.367188 50.445312 83.144531 50.445312 C 82.738281 50.445312 82.550781 50.585938 82.550781 50.910156 C 82.550781 51.261719 82.707031 51.351562 83.226562 51.496094 C 83.804688 51.652344 84.328125 51.878906 84.328125 52.726562 C 84.328125 53.507812 83.886719 53.851562 83 53.851562 "/>
<path fill-rule="nonzero" fill="rgb(41.184998%, 49.021912%, 56.834412%)" fill-opacity="1" d="M 86.15625 49.296875 C 85.898438 49.296875 85.710938 49.09375 85.710938 48.835938 C 85.710938 48.574219 85.90625 48.371094 86.164062 48.371094 C 86.425781 48.371094 86.621094 48.566406 86.621094 48.835938 C 86.621094 49.09375 86.425781 49.296875 86.15625 49.296875 Z M 86.042969 53.753906 C 85.9375 53.753906 85.847656 53.664062 85.847656 53.558594 L 85.847656 50.496094 L 85.488281 50.4375 C 85.375 50.421875 85.292969 50.324219 85.292969 50.210938 L 85.292969 50.1875 C 85.292969 50.082031 85.382812 49.992188 85.488281 49.992188 L 86.296875 49.992188 C 86.402344 49.992188 86.492188 50.082031 86.492188 50.1875 L 86.492188 53.558594 C 86.492188 53.664062 86.402344 53.753906 86.296875 53.753906 L 86.042969 53.753906 "/>
<path fill-rule="nonzero" fill="rgb(41.184998%, 49.021912%, 56.834412%)" fill-opacity="1" d="M 87.894531 50.519531 C 87.789062 50.519531 87.699219 50.429688 87.699219 50.324219 L 87.699219 50.1875 C 87.699219 50.082031 87.789062 49.992188 87.894531 49.992188 L 88.128906 49.992188 L 88.128906 49.21875 C 88.128906 49.105469 88.210938 49.007812 88.316406 48.980469 L 88.585938 48.925781 C 88.683594 48.90625 88.773438 48.980469 88.773438 49.078125 L 88.773438 49.992188 L 89.351562 49.992188 C 89.457031 49.992188 89.546875 50.082031 89.546875 50.1875 L 89.546875 50.324219 C 89.546875 50.429688 89.457031 50.519531 89.351562 50.519531 L 88.773438 50.519531 L 88.773438 52.988281 C 88.773438 53.230469 88.871094 53.332031 89.082031 53.332031 C 89.171875 53.332031 89.246094 53.320312 89.3125 53.296875 C 89.410156 53.265625 89.515625 53.328125 89.546875 53.425781 L 89.578125 53.535156 C 89.597656 53.640625 89.546875 53.746094 89.441406 53.785156 C 89.320312 53.820312 89.1875 53.851562 89.027344 53.851562 C 88.519531 53.851562 88.128906 53.648438 88.128906 53.046875 L 88.128906 50.519531 L 87.894531 50.519531 "/>
<g clip-path="url(#clip-0)">
<path fill-rule="nonzero" fill="rgb(41.184998%, 49.021912%, 56.834412%)" fill-opacity="1" d="M 91.136719 55.261719 C 91.03125 55.292969 90.925781 55.226562 90.898438 55.121094 L 90.859375 54.976562 C 90.828125 54.871094 90.890625 54.761719 90.996094 54.730469 C 91.460938 54.582031 91.65625 54.378906 91.84375 53.753906 L 91.835938 53.753906 C 91.746094 53.753906 91.671875 53.695312 91.640625 53.613281 L 90.574219 50.179688 C 90.542969 50.082031 90.613281 49.992188 90.710938 49.992188 L 91.023438 49.992188 C 91.136719 49.992188 91.242188 50.066406 91.273438 50.179688 L 91.851562 52.207031 C 91.933594 52.507812 92.023438 52.949219 92.074219 53.238281 L 92.082031 53.238281 C 92.136719 52.964844 92.203125 52.574219 92.316406 52.207031 L 92.925781 50.179688 C 92.960938 50.066406 93.066406 49.992188 93.179688 49.992188 L 93.457031 49.992188 C 93.554688 49.992188 93.621094 50.082031 93.59375 50.179688 L 92.40625 53.875 C 92.070312 54.886719 91.777344 55.113281 91.136719 55.261719 "/>
</g>
<path fill-rule="nonzero" fill="rgb(41.184998%, 49.021912%, 56.834412%)" fill-opacity="1" d="M 97.933594 53.339844 C 98.503906 53.339844 98.773438 53.035156 98.773438 51.878906 C 98.773438 50.714844 98.496094 50.40625 97.925781 50.40625 C 97.355469 50.40625 97.085938 50.707031 97.085938 51.871094 C 97.085938 53.027344 97.363281 53.339844 97.933594 53.339844 Z M 97.933594 53.851562 C 97.015625 53.851562 96.394531 53.28125 96.394531 51.871094 C 96.394531 50.457031 97.003906 49.894531 97.917969 49.894531 C 98.835938 49.894531 99.464844 50.457031 99.464844 51.871094 C 99.464844 53.28125 98.847656 53.851562 97.933594 53.851562 "/>
<path fill-rule="nonzero" fill="rgb(41.184998%, 49.021912%, 56.834412%)" fill-opacity="1" d="M 100.578125 50.519531 C 100.472656 50.519531 100.382812 50.429688 100.382812 50.324219 L 100.382812 50.1875 C 100.382812 50.082031 100.472656 49.992188 100.578125 49.992188 L 100.796875 49.992188 L 100.796875 49.394531 C 100.796875 48.527344 101.238281 48.273438 101.792969 48.273438 C 102.011719 48.273438 102.222656 48.3125 102.402344 48.386719 C 102.5 48.425781 102.542969 48.542969 102.5 48.640625 L 102.4375 48.769531 C 102.394531 48.867188 102.273438 48.917969 102.167969 48.890625 C 102.078125 48.859375 101.980469 48.84375 101.882812 48.84375 C 101.566406 48.84375 101.441406 49.003906 101.441406 49.386719 L 101.441406 49.992188 L 101.949219 49.992188 C 102.058594 49.992188 102.144531 50.082031 102.144531 50.1875 L 102.144531 50.324219 C 102.144531 50.429688 102.058594 50.519531 101.949219 50.519531 L 101.441406 50.519531 L 101.441406 53.558594 C 101.441406 53.664062 101.351562 53.753906 101.246094 53.753906 L 100.988281 53.753906 C 100.886719 53.753906 100.796875 53.664062 100.796875 53.558594 L 100.796875 50.519531 L 100.578125 50.519531 "/>
<path fill-rule="nonzero" fill="rgb(41.184998%, 49.021912%, 56.834412%)" fill-opacity="1" d="M 106.308594 50.773438 L 106.046875 51.667969 L 107.308594 51.667969 L 107.058594 50.773438 C 106.835938 49.96875 106.773438 49.679688 106.699219 49.28125 L 106.683594 49.28125 C 106.609375 49.691406 106.542969 49.984375 106.308594 50.773438 Z M 104.925781 53.753906 C 104.828125 53.753906 104.761719 53.664062 104.792969 53.566406 L 106.269531 48.761719 C 106.308594 48.648438 106.414062 48.574219 106.527344 48.574219 L 106.902344 48.574219 C 107.015625 48.574219 107.121094 48.648438 107.148438 48.761719 L 108.597656 53.566406 C 108.621094 53.664062 108.554688 53.753906 108.457031 53.753906 L 108.089844 53.753906 C 107.976562 53.753906 107.871094 53.679688 107.839844 53.566406 L 107.472656 52.253906 L 105.871094 52.253906 L 105.488281 53.566406 C 105.460938 53.679688 105.355469 53.753906 105.242188 53.753906 L 104.925781 53.753906 "/>
<g clip-path="url(#clip-1)">
<path fill-rule="nonzero" fill="rgb(41.184998%, 49.021912%, 56.834412%)" fill-opacity="1" d="M 111.308594 53.296875 C 111.839844 53.296875 112.074219 53.101562 112.074219 51.890625 C 112.074219 50.683594 111.878906 50.449219 111.367188 50.449219 C 111 50.449219 110.742188 50.640625 110.472656 50.894531 L 110.472656 52.929688 C 110.691406 53.140625 110.992188 53.296875 111.308594 53.296875 Z M 110.023438 55.261719 C 109.917969 55.261719 109.828125 55.171875 109.828125 55.066406 L 109.828125 50.1875 C 109.828125 50.082031 109.917969 49.992188 110.023438 49.992188 L 110.136719 49.992188 C 110.25 49.992188 110.355469 50.074219 110.375 50.179688 L 110.4375 50.421875 C 110.722656 50.105469 111.082031 49.894531 111.480469 49.894531 C 112.199219 49.894531 112.765625 50.300781 112.765625 51.847656 C 112.765625 53.257812 112.351562 53.851562 111.472656 53.851562 C 111.058594 53.851562 110.714844 53.664062 110.472656 53.429688 L 110.472656 55.066406 C 110.472656 55.171875 110.382812 55.261719 110.277344 55.261719 L 110.023438 55.261719 "/>
</g>
<g clip-path="url(#clip-2)">
<path fill-rule="nonzero" fill="rgb(41.184998%, 49.021912%, 56.834412%)" fill-opacity="1" d="M 115.609375 53.296875 C 116.144531 53.296875 116.375 53.101562 116.375 51.890625 C 116.375 50.683594 116.179688 50.449219 115.667969 50.449219 C 115.300781 50.449219 115.046875 50.640625 114.777344 50.894531 L 114.777344 52.929688 C 114.992188 53.140625 115.292969 53.296875 115.609375 53.296875 Z M 114.324219 55.261719 C 114.222656 55.261719 114.128906 55.171875 114.128906 55.066406 L 114.128906 50.1875 C 114.128906 50.082031 114.222656 49.992188 114.324219 49.992188 L 114.4375 49.992188 C 114.550781 49.992188 114.65625 50.074219 114.679688 50.179688 L 114.738281 50.421875 C 115.023438 50.105469 115.382812 49.894531 115.78125 49.894531 C 116.503906 49.894531 117.066406 50.300781 117.066406 51.847656 C 117.066406 53.257812 116.652344 53.851562 115.773438 53.851562 C 115.359375 53.851562 115.015625 53.664062 114.777344 53.429688 L 114.777344 55.066406 C 114.777344 55.171875 114.6875 55.261719 114.582031 55.261719 L 114.324219 55.261719 "/>
</g>
<path fill-rule="nonzero" fill="rgb(41.184998%, 49.021912%, 56.834412%)" fill-opacity="1" d="M 119.117188 53.828125 C 118.636719 53.828125 118.433594 53.574219 118.433594 52.914062 L 118.433594 48.515625 C 118.433594 48.410156 118.523438 48.320312 118.628906 48.320312 L 118.882812 48.320312 C 118.988281 48.320312 119.078125 48.410156 119.078125 48.515625 L 119.078125 53.035156 C 119.078125 53.222656 119.160156 53.296875 119.339844 53.296875 C 119.371094 53.296875 119.402344 53.296875 119.425781 53.289062 C 119.460938 53.289062 119.5 53.3125 119.507812 53.347656 L 119.542969 53.566406 C 119.566406 53.671875 119.5 53.777344 119.394531 53.800781 C 119.304688 53.8125 119.207031 53.828125 119.117188 53.828125 "/>
<path fill-rule="nonzero" fill="rgb(41.184998%, 49.021912%, 56.834412%)" fill-opacity="1" d="M 121.199219 49.296875 C 120.945312 49.296875 120.757812 49.09375 120.757812 48.835938 C 120.757812 48.574219 120.953125 48.371094 121.207031 48.371094 C 121.472656 48.371094 121.667969 48.566406 121.667969 48.835938 C 121.667969 49.09375 121.472656 49.296875 121.199219 49.296875 Z M 121.089844 53.753906 C 120.984375 53.753906 120.894531 53.664062 120.894531 53.558594 L 120.894531 50.496094 L 120.53125 50.4375 C 120.421875 50.421875 120.339844 50.324219 120.339844 50.210938 L 120.339844 50.1875 C 120.339844 50.082031 120.429688 49.992188 120.53125 49.992188 L 121.34375 49.992188 C 121.449219 49.992188 121.539062 50.082031 121.539062 50.1875 L 121.539062 53.558594 C 121.539062 53.664062 121.449219 53.753906 121.34375 53.753906 L 121.089844 53.753906 "/>
<path fill-rule="nonzero" fill="rgb(41.184998%, 49.021912%, 56.834412%)" fill-opacity="1" d="M 124.320312 50.40625 C 123.886719 50.40625 123.617188 50.632812 123.5625 51.53125 L 125.058594 51.53125 C 125.058594 50.667969 124.863281 50.40625 124.320312 50.40625 Z M 124.402344 53.851562 C 123.421875 53.851562 122.863281 53.28125 122.863281 51.871094 C 122.863281 50.445312 123.449219 49.894531 124.335938 49.894531 C 125.230469 49.894531 125.742188 50.40625 125.742188 51.765625 L 125.742188 51.898438 C 125.742188 51.96875 125.6875 52.019531 125.621094 52.019531 L 123.554688 52.019531 C 123.570312 53.046875 123.796875 53.304688 124.417969 53.304688 C 124.742188 53.304688 124.953125 53.207031 125.148438 53.070312 C 125.238281 53.003906 125.363281 53.027344 125.425781 53.109375 L 125.546875 53.265625 C 125.605469 53.347656 125.589844 53.476562 125.5 53.535156 C 125.191406 53.753906 124.878906 53.851562 124.402344 53.851562 "/>
<path fill-rule="nonzero" fill="rgb(41.184998%, 49.021912%, 56.834412%)" fill-opacity="1" d="M 128.289062 53.296875 C 128.65625 53.296875 128.910156 53.144531 129.183594 52.890625 L 129.183594 50.855469 C 128.964844 50.644531 128.664062 50.449219 128.347656 50.449219 C 127.816406 50.449219 127.582031 50.644531 127.582031 51.855469 C 127.582031 53.0625 127.777344 53.296875 128.289062 53.296875 Z M 128.175781 53.851562 C 127.453125 53.851562 126.890625 53.445312 126.890625 51.898438 C 126.890625 50.488281 127.304688 49.894531 128.183594 49.894531 C 128.597656 49.894531 128.941406 50.121094 129.183594 50.355469 L 129.183594 48.515625 C 129.183594 48.410156 129.273438 48.320312 129.378906 48.320312 L 129.632812 48.320312 C 129.738281 48.320312 129.828125 48.410156 129.828125 48.515625 L 129.828125 53.558594 C 129.828125 53.664062 129.738281 53.753906 129.632812 53.753906 L 129.519531 53.753906 C 129.40625 53.753906 129.300781 53.679688 129.273438 53.566406 L 129.21875 53.363281 C 128.933594 53.679688 128.574219 53.851562 128.175781 53.851562 "/>
<path fill-rule="nonzero" fill="rgb(41.184998%, 49.021912%, 56.834412%)" fill-opacity="1" d="M 134.5 53.851562 C 133.964844 53.851562 133.464844 53.695312 133.101562 53.445312 C 133.011719 53.386719 132.980469 53.257812 133.042969 53.167969 L 133.140625 52.996094 C 133.199219 52.90625 133.320312 52.875 133.402344 52.9375 C 133.742188 53.160156 134.011719 53.257812 134.445312 53.257812 C 135.136719 53.257812 135.390625 52.945312 135.390625 52.410156 C 135.390625 51.78125 135.039062 51.601562 134.410156 51.359375 C 133.554688 51.027344 133.164062 50.683594 133.164062 49.820312 C 133.164062 48.933594 133.71875 48.484375 134.617188 48.484375 C 135.09375 48.484375 135.414062 48.574219 135.699219 48.738281 C 135.789062 48.792969 135.828125 48.914062 135.773438 49.007812 L 135.675781 49.203125 C 135.625 49.296875 135.503906 49.332031 135.414062 49.28125 C 135.183594 49.144531 134.957031 49.078125 134.65625 49.078125 C 134.160156 49.078125 133.847656 49.28125 133.847656 49.796875 C 133.847656 50.324219 134.046875 50.472656 134.671875 50.714844 C 135.476562 51.023438 136.105469 51.335938 136.105469 52.371094 C 136.105469 53.140625 135.722656 53.851562 134.5 53.851562 "/>
<path fill-rule="nonzero" fill="rgb(41.184998%, 49.021912%, 56.834412%)" fill-opacity="1" d="M 138.796875 53.851562 C 137.835938 53.851562 137.304688 53.222656 137.304688 51.871094 C 137.304688 50.4375 137.875 49.894531 138.804688 49.894531 C 139.164062 49.894531 139.449219 49.976562 139.722656 50.195312 C 139.8125 50.261719 139.820312 50.382812 139.75 50.464844 L 139.632812 50.617188 C 139.554688 50.699219 139.4375 50.707031 139.355469 50.640625 C 139.1875 50.511719 139.03125 50.445312 138.78125 50.445312 C 138.210938 50.445312 137.996094 50.691406 137.996094 51.871094 C 137.996094 53.027344 138.234375 53.304688 138.835938 53.304688 C 139.066406 53.304688 139.226562 53.214844 139.382812 53.085938 C 139.464844 53.019531 139.59375 53.027344 139.660156 53.109375 L 139.796875 53.25 C 139.871094 53.328125 139.863281 53.453125 139.78125 53.523438 C 139.535156 53.738281 139.226562 53.851562 138.796875 53.851562 "/>
<path fill-rule="nonzero" fill="rgb(41.184998%, 49.021912%, 56.834412%)" fill-opacity="1" d="M 141.734375 49.296875 C 141.480469 49.296875 141.292969 49.09375 141.292969 48.835938 C 141.292969 48.574219 141.488281 48.371094 141.742188 48.371094 C 142.003906 48.371094 142.199219 48.566406 142.199219 48.835938 C 142.199219 49.09375 142.003906 49.296875 141.734375 49.296875 Z M 141.621094 53.753906 C 141.519531 53.753906 141.429688 53.664062 141.429688 53.558594 L 141.429688 50.496094 L 141.066406 50.4375 C 140.953125 50.421875 140.871094 50.324219 140.871094 50.210938 L 140.871094 50.1875 C 140.871094 50.082031 140.960938 49.992188 141.066406 49.992188 L 141.878906 49.992188 C 141.984375 49.992188 142.074219 50.082031 142.074219 50.1875 L 142.074219 53.558594 C 142.074219 53.664062 141.984375 53.753906 141.878906 53.753906 L 141.621094 53.753906 "/>
<path fill-rule="nonzero" fill="rgb(41.184998%, 49.021912%, 56.834412%)" fill-opacity="1" d="M 144.855469 50.40625 C 144.421875 50.40625 144.148438 50.632812 144.097656 51.53125 L 145.59375 51.53125 C 145.59375 50.667969 145.394531 50.40625 144.855469 50.40625 Z M 144.9375 53.851562 C 143.953125 53.851562 143.398438 53.28125 143.398438 51.871094 C 143.398438 50.445312 143.984375 49.894531 144.871094 49.894531 C 145.765625 49.894531 146.273438 50.40625 146.273438 51.765625 L 146.273438 51.898438 C 146.273438 51.96875 146.222656 52.019531 146.15625 52.019531 L 144.089844 52.019531 C 144.105469 53.046875 144.332031 53.304688 144.953125 53.304688 C 145.277344 53.304688 145.484375 53.207031 145.683594 53.070312 C 145.773438 53.003906 145.898438 53.027344 145.960938 53.109375 L 146.078125 53.265625 C 146.140625 53.347656 146.125 53.476562 146.035156 53.535156 C 145.726562 53.753906 145.410156 53.851562 144.9375 53.851562 "/>
<path fill-rule="nonzero" fill="rgb(41.184998%, 49.021912%, 56.834412%)" fill-opacity="1" d="M 147.777344 53.753906 C 147.671875 53.753906 147.582031 53.664062 147.582031 53.558594 L 147.582031 50.1875 C 147.582031 50.082031 147.671875 49.992188 147.777344 49.992188 L 147.890625 49.992188 C 148.003906 49.992188 148.101562 50.074219 148.121094 50.179688 L 148.183594 50.457031 C 148.515625 50.128906 148.890625 49.894531 149.332031 49.894531 C 149.871094 49.894531 150.238281 50.171875 150.238281 50.8125 L 150.238281 53.558594 C 150.238281 53.664062 150.148438 53.753906 150.046875 53.753906 L 149.789062 53.753906 C 149.683594 53.753906 149.59375 53.664062 149.59375 53.558594 L 149.59375 51.015625 C 149.59375 50.585938 149.476562 50.464844 149.136719 50.464844 C 148.835938 50.464844 148.5 50.675781 148.226562 50.917969 L 148.226562 53.558594 C 148.226562 53.664062 148.136719 53.753906 148.03125 53.753906 L 147.777344 53.753906 "/>
<path fill-rule="nonzero" fill="rgb(41.184998%, 49.021912%, 56.834412%)" fill-opacity="1" d="M 153.046875 53.851562 C 152.085938 53.851562 151.550781 53.222656 151.550781 51.871094 C 151.550781 50.4375 152.121094 49.894531 153.054688 49.894531 C 153.414062 49.894531 153.699219 49.976562 153.96875 50.195312 C 154.058594 50.261719 154.066406 50.382812 154 50.464844 L 153.878906 50.617188 C 153.804688 50.699219 153.683594 50.707031 153.601562 50.640625 C 153.4375 50.511719 153.277344 50.445312 153.03125 50.445312 C 152.460938 50.445312 152.242188 50.691406 152.242188 51.871094 C 152.242188 53.027344 152.480469 53.304688 153.082031 53.304688 C 153.316406 53.304688 153.472656 53.214844 153.632812 53.085938 C 153.714844 53.019531 153.839844 53.027344 153.910156 53.109375 L 154.042969 53.25 C 154.117188 53.328125 154.109375 53.453125 154.027344 53.523438 C 153.78125 53.738281 153.472656 53.851562 153.046875 53.851562 "/>
<path fill-rule="nonzero" fill="rgb(41.184998%, 49.021912%, 56.834412%)" fill-opacity="1" d="M 156.527344 50.40625 C 156.089844 50.40625 155.820312 50.632812 155.769531 51.53125 L 157.261719 51.53125 C 157.261719 50.667969 157.066406 50.40625 156.527344 50.40625 Z M 156.609375 53.851562 C 155.625 53.851562 155.070312 53.28125 155.070312 51.871094 C 155.070312 50.445312 155.65625 49.894531 156.542969 49.894531 C 157.433594 49.894531 157.945312 50.40625 157.945312 51.765625 L 157.945312 51.898438 C 157.945312 51.96875 157.894531 52.019531 157.824219 52.019531 L 155.761719 52.019531 C 155.777344 53.046875 156 53.304688 156.625 53.304688 C 156.945312 53.304688 157.15625 53.207031 157.351562 53.070312 C 157.441406 53.003906 157.570312 53.027344 157.628906 53.109375 L 157.75 53.265625 C 157.8125 53.347656 157.796875 53.476562 157.707031 53.535156 C 157.398438 53.753906 157.082031 53.851562 156.609375 53.851562 "/>
<g clip-path="url(#clip-3)">
<path fill-rule="nonzero" fill="rgb(41.184998%, 49.021912%, 56.834412%)" fill-opacity="1" d="M 160.140625 53.851562 C 159.730469 53.851562 159.332031 53.71875 159.054688 53.558594 C 158.964844 53.5 158.933594 53.378906 158.984375 53.289062 L 159.066406 53.144531 C 159.121094 53.046875 159.242188 53.019531 159.332031 53.070312 C 159.59375 53.222656 159.863281 53.3125 160.171875 53.3125 C 160.683594 53.3125 160.839844 53.109375 160.839844 52.757812 C 160.839844 52.335938 160.644531 52.253906 160.042969 52.085938 C 159.519531 51.945312 159.082031 51.667969 159.082031 50.925781 C 159.082031 50.375 159.4375 49.894531 160.261719 49.894531 C 160.621094 49.894531 160.894531 49.957031 161.132812 50.054688 C 161.230469 50.097656 161.277344 50.21875 161.230469 50.316406 L 161.164062 50.464844 C 161.117188 50.5625 161.003906 50.617188 160.898438 50.570312 C 160.683594 50.472656 160.511719 50.445312 160.285156 50.445312 C 159.878906 50.445312 159.691406 50.585938 159.691406 50.910156 C 159.691406 51.261719 159.851562 51.351562 160.367188 51.496094 C 160.945312 51.652344 161.472656 51.878906 161.472656 52.726562 C 161.472656 53.507812 161.027344 53.851562 160.140625 53.851562 "/>
</g>
</svg>
