<?xml version="1.0" encoding="UTF-8"?>
<svg xmlns="http://www.w3.org/2000/svg" xmlns:xlink="http://www.w3.org/1999/xlink" width="204.09" height="38.47" viewBox="0 0 204.09 38.47">
<defs>
<clipPath id="clip-0">
<path clip-rule="nonzero" d="M 185 0 L 204.089844 0 L 204.089844 23 L 185 23 Z M 185 0 "/>
</clipPath>
<clipPath id="clip-1">
<path clip-rule="nonzero" d="M 90 29 L 203 29 L 203 38.46875 L 90 38.46875 Z M 90 29 "/>
</clipPath>
</defs>
<path fill-rule="nonzero" fill="rgb(13.729858%, 12.159729%, 12.548828%)" fill-opacity="1" d="M 40.625 16.445312 L 33.78125 9.605469 L 26.9375 16.445312 L 28.058594 17.566406 C 28.058594 17.566406 30.8125 14.8125 32.546875 13.074219 C 32.707031 12.921875 32.878906 12.722656 33.011719 12.585938 L 32.988281 13.207031 L 32.988281 23.347656 L 34.574219 23.347656 L 34.574219 13.21875 L 34.550781 12.585938 C 34.679688 12.71875 34.847656 12.910156 35 13.0625 C 36.734375 14.796875 39.503906 17.566406 39.503906 17.566406 Z M 33.78125 0 L 45.425781 11.644531 L 44.308594 12.765625 C 44.308594 12.765625 34.789062 3.25 33.78125 2.242188 C 32.773438 3.25 23.257812 12.765625 23.257812 12.765625 L 22.136719 11.644531 L 33.78125 0 "/>
<path fill-rule="nonzero" fill="rgb(13.729858%, 12.159729%, 12.548828%)" fill-opacity="1" d="M 19.179688 11.871094 L 19.179688 11.804688 C 19.179688 5.5625 14.359375 0.773438 7.386719 0.773438 L 0 0.773438 L 0 22.964844 L 7.386719 22.964844 C 14.359375 22.964844 19.179688 18.113281 19.179688 11.871094 M 17.46875 11.933594 C 17.46875 17.226562 13.570312 21.445312 7.386719 21.445312 L 1.648438 21.445312 L 1.648438 2.296875 L 7.386719 2.296875 C 13.570312 2.296875 17.46875 6.605469 17.46875 11.871094 L 17.46875 11.933594 "/>
<path fill-rule="nonzero" fill="rgb(13.729858%, 12.159729%, 12.548828%)" fill-opacity="1" d="M 68.066406 19.476562 L 66.957031 18.398438 C 64.707031 20.617188 62.519531 21.855469 59.316406 21.855469 C 54.023438 21.855469 49.933594 17.480469 49.933594 11.867188 L 49.933594 11.804688 C 49.933594 6.226562 53.960938 1.882812 59.285156 1.882812 C 62.613281 1.882812 64.832031 3.277344 66.765625 5.148438 L 67.941406 3.945312 C 65.65625 1.851562 63.28125 0.394531 59.316406 0.394531 C 52.914062 0.394531 48.222656 5.59375 48.222656 11.867188 L 48.222656 11.933594 C 48.222656 18.304688 52.914062 23.347656 59.253906 23.347656 C 63.183594 23.347656 65.722656 21.792969 68.066406 19.476562 "/>
<path fill-rule="nonzero" fill="rgb(13.729858%, 12.159729%, 12.548828%)" fill-opacity="1" d="M 90.101562 22.964844 L 90.101562 0.773438 L 88.453125 0.773438 L 88.453125 11.046875 L 74.25 11.046875 L 74.25 0.773438 L 72.601562 0.773438 L 72.601562 22.964844 L 74.25 22.964844 L 74.25 12.566406 L 88.453125 12.566406 L 88.453125 22.964844 L 90.101562 22.964844 "/>
<path fill-rule="nonzero" fill="rgb(13.729858%, 12.159729%, 12.548828%)" fill-opacity="1" d="M 111.5625 17.226562 L 111.5625 17.164062 C 111.5625 13.929688 109.40625 12.089844 104.269531 11.046875 C 99.007812 9.96875 97.804688 8.539062 97.804688 6.195312 L 97.804688 6.132812 C 97.804688 3.816406 99.960938 1.945312 103.226562 1.945312 C 105.667969 1.945312 107.757812 2.644531 109.851562 4.449219 L 110.898438 3.152344 C 108.644531 1.34375 106.523438 0.457031 103.289062 0.457031 C 99.167969 0.457031 96.15625 2.992188 96.15625 6.289062 L 96.15625 6.351562 C 96.15625 9.714844 98.3125 11.519531 103.640625 12.597656 C 108.679688 13.613281 109.914062 14.976562 109.914062 17.320312 L 109.914062 17.386719 C 109.914062 19.921875 107.632812 21.792969 104.304688 21.792969 C 101.039062 21.792969 98.785156 20.746094 96.347656 18.496094 L 95.269531 19.730469 C 97.929688 22.109375 100.65625 23.28125 104.207031 23.28125 C 108.488281 23.28125 111.5625 20.808594 111.5625 17.226562 "/>
<path fill-rule="nonzero" fill="rgb(13.729858%, 12.159729%, 12.548828%)" fill-opacity="1" d="M 132.039062 2.296875 L 132.039062 0.773438 L 114.921875 0.773438 L 114.921875 2.296875 L 122.652344 2.296875 L 122.652344 22.964844 L 124.304688 22.964844 L 124.304688 2.296875 L 132.039062 2.296875 "/>
<path fill-rule="nonzero" fill="rgb(13.729858%, 12.159729%, 12.548828%)" fill-opacity="1" d="M 156.636719 11.871094 C 156.667969 11.839844 156.667969 11.839844 156.636719 11.804688 C 156.636719 5.75 152.230469 0.394531 145.507812 0.394531 C 138.785156 0.394531 134.316406 5.8125 134.316406 11.871094 L 134.316406 11.933594 C 134.316406 17.988281 138.722656 23.347656 145.441406 23.347656 C 152.164062 23.347656 156.636719 17.925781 156.636719 11.871094 M 154.921875 11.933594 C 154.921875 17.417969 150.992188 21.855469 145.507812 21.855469 C 140.023438 21.855469 136.027344 17.355469 136.027344 11.871094 L 136.027344 11.804688 C 136.027344 6.320312 139.960938 1.882812 145.441406 1.882812 C 150.929688 1.882812 154.921875 6.386719 154.921875 11.871094 L 154.921875 11.933594 "/>
<path fill-rule="nonzero" fill="rgb(13.729858%, 12.159729%, 12.548828%)" fill-opacity="1" d="M 181.109375 19.476562 L 180 18.398438 C 177.75 20.617188 175.5625 21.855469 172.359375 21.855469 C 167.066406 21.855469 162.976562 17.480469 162.976562 11.867188 L 162.976562 11.804688 C 162.976562 6.226562 167.003906 1.882812 172.328125 1.882812 C 175.65625 1.882812 177.875 3.277344 179.8125 5.148438 L 180.980469 3.945312 C 178.699219 1.851562 176.324219 0.394531 172.359375 0.394531 C 165.957031 0.394531 161.265625 5.59375 161.265625 11.867188 L 161.265625 11.933594 C 161.265625 18.304688 165.957031 23.347656 172.296875 23.347656 C 176.230469 23.347656 178.765625 21.792969 181.109375 19.476562 "/>
<g clip-path="url(#clip-0)">
<path fill-rule="nonzero" fill="rgb(13.729858%, 12.159729%, 12.548828%)" fill-opacity="1" d="M 204.09375 22.964844 L 193.980469 10.570312 L 203.683594 0.773438 L 201.429688 0.773438 L 187.292969 15.355469 L 187.292969 0.773438 L 185.644531 0.773438 L 185.644531 22.964844 L 187.292969 22.964844 L 187.292969 17.320312 L 192.808594 11.742188 L 201.9375 22.964844 L 204.09375 22.964844 "/>
</g>
<g clip-path="url(#clip-1)">
<path fill-rule="nonzero" fill="rgb(13.729858%, 12.159729%, 12.548828%)" fill-opacity="1" d="M 97.136719 38.328125 L 94.398438 34.78125 C 95.796875 34.59375 96.828125 33.796875 96.828125 32.410156 L 96.828125 32.386719 C 96.828125 30.996094 95.652344 30.023438 93.863281 30.023438 L 90.375 30.023438 L 90.375 38.328125 L 90.992188 38.328125 L 90.992188 34.886719 L 93.710938 34.886719 L 96.355469 38.328125 Z M 96.210938 32.433594 C 96.210938 33.632812 95.179688 34.332031 93.792969 34.332031 L 90.992188 34.332031 L 90.992188 30.59375 L 93.828125 30.59375 C 95.335938 30.59375 96.210938 31.292969 96.210938 32.410156 Z M 104.917969 38.328125 L 104.917969 37.757812 L 99.566406 37.757812 L 99.566406 34.425781 L 104.324219 34.425781 L 104.324219 33.855469 L 99.566406 33.855469 L 99.566406 30.59375 L 104.855469 30.59375 L 104.855469 30.023438 L 98.953125 30.023438 L 98.953125 38.328125 Z M 107.597656 30.023438 L 106.980469 30.023438 L 106.980469 38.328125 L 107.597656 38.328125 Z M 115.960938 30.59375 L 115.960938 30.023438 L 109.554688 30.023438 L 109.554688 30.59375 L 112.449219 30.59375 L 112.449219 38.328125 L 113.0625 38.328125 L 113.0625 30.59375 Z M 123.21875 36.179688 L 123.21875 36.15625 C 123.21875 34.945312 122.410156 34.257812 120.488281 33.867188 C 118.519531 33.464844 118.066406 32.929688 118.066406 32.054688 L 118.066406 32.03125 C 118.066406 31.164062 118.875 30.464844 120.097656 30.464844 C 121.011719 30.464844 121.792969 30.726562 122.574219 31.402344 L 122.96875 30.914062 C 122.125 30.238281 121.332031 29.90625 120.121094 29.90625 C 118.578125 29.90625 117.453125 30.855469 117.453125 32.089844 L 117.453125 32.113281 C 117.453125 33.371094 118.257812 34.046875 120.25 34.449219 C 122.136719 34.828125 122.601562 35.339844 122.601562 36.214844 L 122.601562 36.238281 C 122.601562 37.1875 121.746094 37.890625 120.5 37.890625 C 119.277344 37.890625 118.4375 37.496094 117.523438 36.65625 L 117.121094 37.117188 C 118.117188 38.007812 119.136719 38.445312 120.464844 38.445312 C 122.066406 38.445312 123.21875 37.519531 123.21875 36.179688 M 132.300781 37.023438 L 131.886719 36.621094 C 131.046875 37.449219 130.226562 37.914062 129.027344 37.914062 C 127.046875 37.914062 125.519531 36.277344 125.519531 34.175781 L 125.519531 34.152344 C 125.519531 32.066406 127.023438 30.441406 129.015625 30.441406 C 130.261719 30.441406 131.09375 30.960938 131.816406 31.660156 L 132.253906 31.210938 C 131.398438 30.429688 130.511719 29.882812 129.027344 29.882812 C 126.632812 29.882812 124.878906 31.828125 124.878906 34.175781 L 124.878906 34.199219 C 124.878906 36.585938 126.632812 38.46875 129.003906 38.46875 C 130.476562 38.46875 131.425781 37.890625 132.300781 37.023438 M 140.546875 38.328125 L 140.546875 30.023438 L 139.929688 30.023438 L 139.929688 33.867188 L 134.613281 33.867188 L 134.613281 30.023438 L 133.996094 30.023438 L 133.996094 38.328125 L 134.613281 38.328125 L 134.613281 34.4375 L 139.929688 34.4375 L 139.929688 38.328125 Z M 149.6875 34.804688 L 149.6875 30.023438 L 149.074219 30.023438 L 149.074219 34.875 C 149.074219 36.882812 147.992188 37.902344 146.308594 37.902344 C 144.554688 37.902344 143.496094 36.773438 143.496094 34.816406 L 143.496094 30.023438 L 142.882812 30.023438 L 142.882812 34.875 C 142.882812 37.203125 144.292969 38.457031 146.285156 38.457031 C 148.300781 38.457031 149.6875 37.1875 149.6875 34.804688 M 157.519531 38.328125 L 157.519531 37.757812 L 152.644531 37.757812 L 152.644531 30.023438 L 152.023438 30.023438 L 152.023438 38.328125 Z M 165.335938 38.328125 L 165.335938 37.757812 L 159.984375 37.757812 L 159.984375 34.425781 L 164.742188 34.425781 L 164.742188 33.855469 L 159.984375 33.855469 L 159.984375 30.59375 L 165.273438 30.59375 L 165.273438 30.023438 L 159.367188 30.023438 L 159.367188 38.328125 Z M 177.457031 36.0625 L 177.457031 36.039062 C 177.457031 34.886719 176.578125 34.320312 175.582031 34.058594 C 176.257812 33.785156 176.992188 33.214844 176.992188 32.089844 L 176.992188 32.066406 C 176.992188 30.820312 175.914062 30.023438 174.300781 30.023438 L 170.871094 30.023438 L 170.871094 38.328125 L 174.480469 38.328125 C 176.269531 38.328125 177.457031 37.449219 177.457031 36.0625 M 176.363281 32.148438 C 176.363281 33.25 175.476562 33.855469 174.230469 33.855469 L 171.488281 33.855469 L 171.488281 30.59375 L 174.289062 30.59375 C 175.617188 30.59375 176.363281 31.210938 176.363281 32.125 Z M 176.828125 36.0625 C 176.828125 37.105469 175.925781 37.757812 174.503906 37.757812 L 171.488281 37.757812 L 171.488281 34.425781 L 174.300781 34.425781 C 175.9375 34.425781 176.828125 35.019531 176.828125 36.039062 Z M 185.402344 38.328125 L 185.402344 37.757812 L 180.054688 37.757812 L 180.054688 34.425781 L 184.808594 34.425781 L 184.808594 33.855469 L 180.054688 33.855469 L 180.054688 30.59375 L 185.34375 30.59375 L 185.34375 30.023438 L 179.4375 30.023438 L 179.4375 38.328125 Z M 194.144531 38.328125 L 191.402344 34.78125 C 192.804688 34.59375 193.835938 33.796875 193.835938 32.410156 L 193.835938 32.386719 C 193.835938 30.996094 192.660156 30.023438 190.871094 30.023438 L 187.382812 30.023438 L 187.382812 38.328125 L 188 38.328125 L 188 34.886719 L 190.714844 34.886719 L 193.359375 38.328125 Z M 193.21875 32.433594 C 193.21875 33.632812 192.1875 34.332031 190.800781 34.332031 L 188 34.332031 L 188 30.59375 L 190.835938 30.59375 C 192.339844 30.59375 193.21875 31.292969 193.21875 32.410156 Z M 202.859375 38.328125 L 202.859375 30.023438 L 202.269531 30.023438 L 202.269531 37.25 L 196.539062 30.023438 L 195.957031 30.023438 L 195.957031 38.328125 L 196.550781 38.328125 L 196.550781 30.949219 L 202.398438 38.328125 L 202.859375 38.328125 "/>
</g>
</svg>
