<svg id="Layer_1" data-name="Layer 1" xmlns="http://www.w3.org/2000/svg" viewBox="0 0 449.5 93.59"><defs><style>.cls-1{fill:#d81e05;}</style></defs><path class="cls-1" d="M74.08,12.75v93.59S22,92.22,27.69,12.75Zm-10,10H37.28c-.35,25.1,5.73,44.91,18.11,59a56.92,56.92,0,0,0,8.67,8Z" transform="translate(-27.25 -12.75)"/><path class="cls-1" d="M105.27,43.93H89.67V22.77h26.78a130.66,130.66,0,0,1-.69,15.59h10A150.09,150.09,0,0,0,126,12.75H79.65V54h33.22a69,69,0,0,1-14.53,27.8,56.92,56.92,0,0,1-8.67,8V59.52h-10v46.82s37.79-10.26,45.47-62.41H105.27Z" transform="translate(-27.25 -12.75)"/><path d="M146.94,82.63V23h13.88a32.15,32.15,0,0,1,9,1.08,12.68,12.68,0,0,1,5.83,3.41,13.28,13.28,0,0,1,3.11,5.74,32.64,32.64,0,0,1,.92,8.36V63.1a34.2,34.2,0,0,1-.94,8.66,14.94,14.94,0,0,1-3.07,6,12.54,12.54,0,0,1-5.7,3.65,28.33,28.33,0,0,1-8.75,1.17ZM157.8,75h3.1a12.11,12.11,0,0,0,2.84-.29,10.45,10.45,0,0,0,2-.68,3.27,3.27,0,0,0,1.38-1.29,10.09,10.09,0,0,0,.85-1.66,9.5,9.5,0,0,0,.43-2.28q.13-1.53.18-2.61c0-.72,0-1.79,0-3.2V41.19c0-1.42,0-2.56-.07-3.42a18.3,18.3,0,0,0-.34-2.61,5.28,5.28,0,0,0-.79-2,5.6,5.6,0,0,0-1.38-1.31,5.54,5.54,0,0,0-2.16-.83,17.65,17.65,0,0,0-3.13-.23h-3Z" transform="translate(-27.25 -12.75)"/><path d="M195.39,82.63V23H206.1V82.63Z" transform="translate(-27.25 -12.75)"/><path d="M222.64,82.63V23h13.67a36.56,36.56,0,0,1,8.1.77,16.05,16.05,0,0,1,5.88,2.59A10.9,10.9,0,0,1,254,31.28a20.52,20.52,0,0,1,1.24,7.61,21.75,21.75,0,0,1-1.67,9.17,10.28,10.28,0,0,1-5.52,5.18l8.27,29.39h-10.9L238.33,55.4h-4.82V82.63Zm10.87-34.18h2.62c3.22,0,5.5-.68,6.86-2.05s2-3.7,2-7-.59-5.47-1.76-6.85-3.34-2.07-6.48-2.07h-3.27Z" transform="translate(-27.25 -12.75)"/><path d="M276.7,82.63V31h-10V23h30.54v8h-9.67V82.63Z" transform="translate(-27.25 -12.75)"/><path d="M317.74,82.63V59.93L305.58,23h10.15l7.37,23.74,7-23.74h10L328.1,59.93v22.7Z" transform="translate(-27.25 -12.75)"/><path d="M367.77,83.35q-15.75,0-16.55-18.2l9.46-2Q361,75,367.45,75a4.41,4.41,0,0,0,3.68-1.51,6.3,6.3,0,0,0,1.21-4.06,11.23,11.23,0,0,0-.9-4.55,12.5,12.5,0,0,0-2.09-3.39A44.68,44.68,0,0,0,366,58.24l-7.84-6.8A21.76,21.76,0,0,1,353,45.16a17.5,17.5,0,0,1-1.7-8.14q0-6.95,4.09-10.8t11.2-3.92a17.79,17.79,0,0,1,5.8.81,12.28,12.28,0,0,1,4.15,2.27,11.87,11.87,0,0,1,2.73,3.54,19.41,19.41,0,0,1,1.64,4.41,34,34,0,0,1,.76,5.09l-9.28,1.83c-.05-1.2-.13-2.24-.24-3.13a16.74,16.74,0,0,0-.56-2.69,6.84,6.84,0,0,0-1-2.22,4.56,4.56,0,0,0-1.69-1.35,4.91,4.91,0,0,0-2.47-.39,5,5,0,0,0-3.68,1.6,5.71,5.71,0,0,0-1.28,3.9,9,9,0,0,0,1.13,4.73,18.35,18.35,0,0,0,3.55,4l7.77,6.76a41.5,41.5,0,0,1,3.38,3.42A29.36,29.36,0,0,1,380,58.63a17.82,17.82,0,0,1,2,4.68,21,21,0,0,1,.68,5.4,14.18,14.18,0,0,1-4.12,10.57A14.73,14.73,0,0,1,367.77,83.35Z" transform="translate(-27.25 -12.75)"/><path d="M412.66,83.35q-9.21,0-13.2-5t-4-14.64v-22a33.33,33.33,0,0,1,.9-8.24,16.31,16.31,0,0,1,2.9-6,12.06,12.06,0,0,1,5.34-3.83,22.64,22.64,0,0,1,8.06-1.28q9.16,0,13.18,4.93t4,14.46v22a33.13,33.13,0,0,1-.92,8.22A17,17,0,0,1,426,78.08,12.27,12.27,0,0,1,420.68,82,21.86,21.86,0,0,1,412.66,83.35Zm-2.72-8.53a7.16,7.16,0,0,0,2.72.47,7,7,0,0,0,2.69-.47,4.73,4.73,0,0,0,1.78-1.22,5.17,5.17,0,0,0,1.05-2,12.4,12.4,0,0,0,.5-2.45,27,27,0,0,0,.13-2.91V39.17a23.88,23.88,0,0,0-.22-3.59,9.06,9.06,0,0,0-.84-2.72A4.12,4.12,0,0,0,415.86,31a7.15,7.15,0,0,0-3.2-.63,7.24,7.24,0,0,0-3.22.63,4,4,0,0,0-1.89,1.91,9.65,9.65,0,0,0-.83,2.72,25.48,25.48,0,0,0-.21,3.59V66.26q0,1.69.12,2.91a12.4,12.4,0,0,0,.5,2.45,5.59,5.59,0,0,0,1,2A4.65,4.65,0,0,0,409.94,74.82Z" transform="translate(-27.25 -12.75)"/><path d="M441.46,82.63l12-31.66L441.79,23H452l7.73,18.49L466.36,23h9.53L464.38,52.88l12.37,29.75H466.61l-8.35-20-7.34,20Z" transform="translate(-27.25 -12.75)"/></svg>