<?xml version="1.0" encoding="UTF-8"?>
<svg xmlns="http://www.w3.org/2000/svg" xmlns:xlink="http://www.w3.org/1999/xlink" width="566.929" height="566.929" viewBox="0 0 566.929 566.929">
<path fill-rule="evenodd" fill="rgb(13.729858%, 12.159729%, 12.548828%)" fill-opacity="1" d="M 455.085938 245.921875 C 454.960938 245.703125 454.648438 245.527344 454.394531 245.527344 L 420.453125 245.527344 C 420.203125 245.527344 419.992188 245.734375 419.992188 245.984375 L 419.992188 331.523438 C 419.992188 331.777344 420.203125 331.984375 420.453125 331.984375 L 446.980469 331.984375 C 447.230469 331.984375 447.441406 331.777344 447.441406 331.523438 L 447.441406 288.9375 C 447.441406 288.683594 447.546875 288.660156 447.675781 288.875 L 472.464844 331.589844 C 472.59375 331.800781 472.902344 331.984375 473.15625 331.984375 L 508.734375 331.984375 C 508.988281 331.984375 509.199219 331.777344 509.199219 331.523438 L 509.199219 245.984375 C 509.199219 245.734375 508.988281 245.527344 508.734375 245.527344 L 482.21875 245.527344 C 481.964844 245.527344 481.757812 245.734375 481.757812 245.984375 L 481.757812 291.445312 C 481.757812 291.703125 481.652344 291.726562 481.523438 291.507812 Z M 341.632812 331.523438 C 341.632812 331.777344 341.835938 331.984375 342.089844 331.984375 L 415.414062 331.984375 C 415.667969 331.984375 415.875 331.777344 415.875 331.523438 L 415.875 306.378906 C 415.875 306.125 415.667969 305.914062 415.414062 305.914062 L 369.542969 305.914062 C 369.292969 305.914062 369.082031 305.695312 369.082031 305.449219 L 369.082031 302.257812 C 369.082031 302.003906 369.292969 301.792969 369.542969 301.792969 L 415.414062 301.792969 C 415.667969 301.792969 415.875 301.585938 415.875 301.328125 L 415.875 276.183594 C 415.875 275.925781 415.667969 275.71875 415.414062 275.71875 L 369.542969 275.71875 C 369.292969 275.71875 369.082031 275.507812 369.082031 275.257812 L 369.082031 272.058594 C 369.082031 271.8125 369.292969 271.597656 369.542969 271.597656 L 415.414062 271.597656 C 415.667969 271.597656 415.875 271.390625 415.875 271.136719 L 415.875 245.984375 C 415.875 245.734375 415.667969 245.527344 415.414062 245.527344 L 342.089844 245.527344 C 341.835938 245.527344 341.632812 245.734375 341.632812 245.984375 Z M 264.007812 245.527344 C 263.75 245.527344 263.4375 245.703125 263.3125 245.921875 L 248.945312 271.199219 C 248.820312 271.417969 248.925781 271.597656 249.175781 271.597656 L 290.804688 271.597656 C 291.054688 271.597656 291.164062 271.773438 291.03125 272 L 256.632812 331.589844 C 256.507812 331.800781 256.613281 331.984375 256.867188 331.984375 L 337.1875 331.984375 C 337.445312 331.984375 337.65625 331.777344 337.65625 331.523438 L 337.65625 306.507812 C 337.65625 306.257812 337.445312 306.046875 337.1875 306.046875 L 304.492188 306.046875 C 304.238281 306.046875 304.136719 305.867188 304.257812 305.652344 L 338.921875 245.921875 C 339.058594 245.703125 338.953125 245.527344 338.695312 245.527344 Z M 225.167969 306.046875 C 224.910156 306.046875 224.804688 305.867188 224.929688 305.652344 L 259.335938 245.921875 C 259.460938 245.703125 259.355469 245.527344 259.101562 245.527344 L 174.109375 245.527344 C 173.855469 245.527344 173.644531 245.734375 173.644531 245.984375 L 173.644531 271.136719 C 173.644531 271.390625 173.855469 271.597656 174.109375 271.597656 L 211.476562 271.597656 C 211.730469 271.597656 211.835938 271.773438 211.707031 272 L 177.039062 331.589844 C 176.914062 331.800781 177.015625 331.984375 177.265625 331.984375 L 251.96875 331.984375 C 252.214844 331.984375 252.527344 331.800781 252.652344 331.582031 L 267.015625 306.449219 C 267.140625 306.230469 267.035156 306.046875 266.78125 306.046875 Z M 142.082031 331.523438 C 142.082031 331.777344 142.292969 331.984375 142.542969 331.984375 L 169.070312 331.984375 C 169.324219 331.984375 169.535156 331.777344 169.535156 331.523438 L 169.535156 245.984375 C 169.535156 245.734375 169.324219 245.527344 169.070312 245.527344 L 142.542969 245.527344 C 142.292969 245.527344 142.082031 245.734375 142.082031 245.984375 Z M 63.582031 331.523438 C 63.582031 331.777344 63.789062 331.984375 64.042969 331.984375 L 90.566406 331.984375 C 90.820312 331.984375 91.03125 331.777344 91.03125 331.523438 L 91.03125 301.703125 C 91.03125 301.449219 91.238281 301.246094 91.492188 301.246094 L 137.5 301.246094 C 137.757812 301.246094 137.96875 301.03125 137.96875 300.777344 L 137.96875 275.761719 C 137.96875 275.507812 137.757812 275.300781 137.5 275.300781 L 91.492188 275.300781 C 91.238281 275.300781 91.03125 275.089844 91.03125 274.835938 L 91.03125 272.058594 C 91.03125 271.8125 91.238281 271.597656 91.492188 271.597656 L 137.5 271.597656 C 137.757812 271.597656 137.96875 271.390625 137.96875 271.136719 L 137.96875 245.984375 C 137.96875 245.734375 137.757812 245.527344 137.5 245.527344 L 64.042969 245.527344 C 63.789062 245.527344 63.582031 245.734375 63.582031 245.984375 Z M 63.582031 331.523438 "/>
</svg>
