<?xml version="1.0" encoding="UTF-8"?>
<svg xmlns="http://www.w3.org/2000/svg" xmlns:xlink="http://www.w3.org/1999/xlink" width="175.75" height="229.31" viewBox="0 0 175.75 229.31">
<defs>
<clipPath id="clip-0">
<path clip-rule="nonzero" d="M 56 222 L 121 222 L 121 229.308594 L 56 229.308594 Z M 56 222 "/>
</clipPath>
<clipPath id="clip-1">
<path clip-rule="nonzero" d="M 0 0 L 175.75 0 L 175.75 176 L 0 176 Z M 0 0 "/>
</clipPath>
</defs>
<path fill-rule="nonzero" fill="rgb(95.532227%, 40.040588%, 72.956848%)" fill-opacity="1" d="M 28.257812 208.640625 C 28.027344 209.886719 26.953125 211.25 24.667969 211.25 C 22.539062 211.25 20.792969 209.386719 20.792969 207.125 C 20.792969 204.859375 22.519531 202.980469 24.648438 202.980469 C 25.933594 202.980469 27.085938 203.691406 27.796875 204.726562 L 30.15625 202.921875 C 28.890625 201.269531 27.011719 200.160156 24.648438 200.160156 C 20.832031 200.160156 17.78125 203.265625 17.78125 207.125 C 17.78125 210.960938 20.851562 214.070312 24.667969 214.070312 C 28.660156 214.070312 31.539062 210.960938 31.539062 207.125 C 31.539062 206.492188 31.460938 206.070312 31.460938 206.070312 L 24.613281 206.070312 L 24.613281 208.640625 Z M 38.898438 213.820312 L 47.285156 213.820312 L 47.285156 211 L 41.777344 211 L 41.777344 207.871094 L 46.941406 207.871094 L 46.941406 205.109375 L 41.777344 205.109375 L 41.777344 203.191406 L 47.191406 203.191406 L 47.191406 200.390625 L 38.898438 200.390625 Z M 55.234375 213.820312 L 63.179688 213.820312 L 63.179688 211.136719 L 58.113281 211.136719 L 58.113281 200.390625 L 55.234375 200.390625 Z M 77.597656 211.308594 L 78.636719 213.820312 L 81.6875 213.820312 L 75.660156 200.140625 L 69.636719 213.820312 L 72.6875 213.820312 L 73.761719 211.308594 Z M 76.621094 208.738281 L 74.738281 208.738281 L 75.660156 206.414062 Z M 89.679688 213.820312 L 92.558594 213.820312 L 92.558594 203.191406 L 95.609375 203.191406 L 95.609375 200.390625 L 86.628906 200.390625 L 86.628906 203.191406 L 89.679688 203.191406 Z M 102.695312 213.820312 L 111.082031 213.820312 L 111.082031 211 L 105.574219 211 L 105.574219 207.871094 L 110.734375 207.871094 L 110.734375 205.109375 L 105.574219 205.109375 L 105.574219 203.191406 L 110.984375 203.191406 L 110.984375 200.390625 L 102.695312 200.390625 Z M 128.96875 205.339844 C 128.96875 202.617188 126.746094 200.390625 124 200.390625 L 119.03125 200.390625 L 119.03125 213.820312 L 121.910156 213.820312 L 121.910156 210.195312 L 123.675781 210.195312 C 125.132812 210.195312 126.09375 211.367188 126.09375 212.785156 L 126.09375 213.820312 L 128.96875 213.820312 L 128.96875 212.785156 C 128.96875 211.382812 128.644531 210.042969 127.109375 208.890625 C 128.085938 208.121094 128.96875 207.144531 128.96875 205.339844 M 126.035156 205.339844 C 126.035156 206.585938 124.996094 207.625 123.730469 207.625 L 121.910156 207.625 L 121.910156 203.039062 L 123.730469 203.039062 C 124.996094 203.039062 126.035156 204.074219 126.035156 205.339844 M 136.832031 213.820312 L 139.710938 213.820312 L 139.710938 200.386719 L 136.832031 200.386719 Z M 154.476562 211.308594 L 155.511719 213.820312 L 158.566406 213.820312 L 152.539062 200.140625 L 146.511719 213.820312 L 149.566406 213.820312 L 150.636719 211.308594 Z M 153.5 208.738281 L 151.617188 208.738281 L 152.539062 206.414062 Z M 153.5 208.738281 "/>
<g clip-path="url(#clip-0)">
<path fill-rule="nonzero" fill="rgb(95.532227%, 40.040588%, 72.956848%)" fill-opacity="1" d="M 58.367188 227.253906 L 58.367188 224.132812 L 59.15625 224.132812 C 60.03125 224.132812 60.714844 224.816406 60.714844 225.695312 C 60.714844 226.570312 60.03125 227.253906 59.15625 227.253906 Z M 56.355469 229.121094 L 59.507812 229.121094 C 61.386719 229.121094 62.84375 227.589844 62.84375 225.695312 C 62.84375 223.796875 61.359375 222.265625 59.507812 222.265625 L 56.355469 222.265625 Z M 66.65625 229.121094 L 68.671875 229.121094 L 68.671875 222.265625 L 66.65625 222.265625 Z M 82.351562 224.277344 C 82.351562 223.125 81.429688 222.265625 80.324219 222.265625 L 76.996094 222.265625 L 76.996094 229.121094 L 80.367188 229.121094 C 81.546875 229.121094 82.570312 228.128906 82.570312 226.933594 C 82.570312 226.335938 82.304688 225.824219 81.914062 225.460938 C 82.160156 225.167969 82.351562 224.789062 82.351562 224.277344 M 78.980469 224.132812 L 79.957031 224.132812 C 80.148438 224.132812 80.308594 224.292969 80.308594 224.484375 C 80.308594 224.671875 80.148438 224.832031 79.957031 224.832031 L 78.980469 224.832031 Z M 78.980469 227.253906 L 78.980469 226.351562 L 80.015625 226.351562 C 80.265625 226.351562 80.46875 226.554688 80.46875 226.800781 C 80.46875 227.050781 80.265625 227.253906 80.015625 227.253906 Z M 86.476562 229.121094 L 90.894531 229.121094 L 90.894531 227.253906 L 88.488281 227.253906 L 88.488281 226.464844 L 90.660156 226.464844 L 90.660156 224.714844 L 88.488281 224.714844 L 88.488281 224.132812 L 90.851562 224.132812 L 90.851562 222.265625 L 86.476562 222.265625 Z M 97.425781 227.488281 C 97.980469 227.488281 98.417969 227.925781 98.417969 228.480469 L 98.417969 229.121094 L 100.402344 229.121094 L 100.402344 228.347656 C 100.402344 227.53125 100.238281 227.035156 99.613281 226.65625 C 100.023438 226.363281 100.402344 225.75 100.402344 224.90625 C 100.402344 223.417969 99.25 222.265625 97.761719 222.265625 L 94.960938 222.265625 L 94.960938 229.121094 L 96.972656 229.121094 L 96.972656 227.488281 Z M 98.316406 224.90625 C 98.316406 225.34375 97.980469 225.679688 97.542969 225.679688 L 96.972656 225.679688 L 96.972656 224.132812 L 97.542969 224.132812 C 97.980469 224.132812 98.316406 224.46875 98.316406 224.90625 M 104.441406 229.121094 L 106.378906 229.121094 L 106.378906 225.328125 L 110.1875 229.308594 L 110.1875 222.265625 L 108.246094 222.265625 L 108.246094 224.585938 L 106.089844 222.265625 L 104.441406 222.265625 Z M 117.871094 228.433594 L 118.160156 229.121094 L 120.320312 229.121094 L 116.964844 222.089844 L 113.613281 229.121094 L 115.769531 229.121094 L 116.0625 228.433594 Z M 117.375 227.035156 L 116.558594 227.035156 L 116.964844 226.015625 Z M 117.375 227.035156 "/>
</g>
<path fill-rule="nonzero" fill="rgb(95.532227%, 40.040588%, 72.956848%)" fill-opacity="1" d="M 93.386719 96.488281 L 93.335938 109.089844 C 93.300781 115.804688 92.6875 120.71875 91.496094 123.808594 C 89.867188 128.203125 87.046875 131.574219 83.046875 133.925781 C 79.046875 136.28125 74.246094 137.441406 68.648438 137.410156 C 64.550781 137.382812 60.871094 136.785156 57.609375 135.613281 C 54.339844 134.421875 51.695312 132.851562 49.652344 130.882812 C 47.609375 128.914062 45.738281 126.042969 44.03125 122.269531 L 50.75 122.304688 C 52.554688 125.472656 54.882812 127.820312 57.738281 129.363281 C 60.601562 130.890625 64.15625 131.683594 68.40625 131.703125 C 72.589844 131.734375 76.136719 130.960938 79.035156 129.421875 C 81.921875 127.871094 83.996094 125.910156 85.238281 123.5625 C 86.484375 121.207031 87.117188 117.390625 87.144531 112.121094 L 87.023438 110.152344 C 84.6875 113.070312 81.984375 114.808594 78.632812 116.355469 C 75.28125 117.898438 71.730469 118.667969 67.976562 118.648438 C 63.574219 118.617188 59.449219 117.507812 55.585938 115.300781 C 51.726562 113.097656 48.75 110.140625 46.664062 106.4375 C 44.566406 102.730469 43.535156 98.664062 43.558594 94.238281 C 43.585938 89.808594 44.707031 85.6875 46.925781 81.875 C 49.148438 78.0625 52.214844 75.054688 56.109375 72.84375 C 60.007812 70.640625 64.113281 69.546875 68.425781 69.570312 C 72.003906 69.589844 75.335938 70.347656 78.417969 71.859375 C 81.507812 73.359375 84.289062 75.058594 87.144531 78.46875 M 68.640625 75.515625 C 65.15625 75.492188 61.914062 76.320312 58.917969 77.992188 C 55.914062 79.65625 53.558594 81.976562 51.84375 84.945312 C 50.125 87.914062 49.261719 91.128906 49.242188 94.589844 C 49.210938 99.84375 50.949219 104.195312 54.441406 107.644531 C 57.9375 111.097656 62.484375 112.835938 68.085938 112.867188 C 73.734375 112.894531 78.292969 111.226562 81.75 107.839844 C 85.21875 104.453125 86.957031 99.988281 86.992188 94.449219 C 87.011719 90.84375 86.234375 87.621094 84.675781 84.78125 C 83.109375 81.945312 80.875 79.691406 77.988281 78.03125 C 75.09375 76.375 71.976562 75.53125 68.640625 75.515625 M 87.132812 78.925781 L 87.144531 39.054688 L 93.28125 39.054688 L 93.28125 65.332031 C 95.875 62.179688 98.871094 59.902344 102.066406 58.355469 C 105.261719 56.808594 108.761719 56.042969 112.5625 56.0625 C 119.320312 56.101562 125.078125 58.589844 129.828125 63.535156 C 134.59375 68.46875 136.941406 74.441406 136.90625 81.453125 C 136.867188 88.371094 134.425781 94.273438 129.570312 99.140625 C 124.71875 104.011719 118.894531 106.429688 112.113281 106.390625 C 108.21875 106.363281 104.699219 105.507812 101.546875 103.824219 C 98.480469 102.160156 95.65625 99.941406 93.28125 96.707031 C 93.226562 96.621094 93.449219 96.566406 93.386719 96.488281 M 112.183594 100.445312 C 115.597656 100.46875 118.761719 99.648438 121.664062 97.976562 C 124.5625 96.316406 126.875 93.96875 128.605469 90.933594 C 130.328125 87.90625 131.203125 84.691406 131.21875 81.300781 C 131.242188 77.910156 130.394531 74.671875 128.691406 71.597656 C 126.984375 68.511719 124.679688 66.109375 121.78125 64.382812 C 118.886719 62.648438 115.789062 61.785156 112.484375 61.765625 C 109.125 61.742188 105.925781 62.582031 102.890625 64.273438 C 99.859375 65.96875 97.523438 68.257812 95.886719 71.144531 C 94.246094 74.03125 93.417969 77.289062 93.398438 80.914062 C 93.363281 86.441406 95.164062 91.070312 98.777344 94.800781 C 102.398438 98.539062 106.867188 100.414062 112.183594 100.445312 "/>
<g clip-path="url(#clip-1)">
<path fill-rule="nonzero" fill="rgb(95.532227%, 40.040588%, 72.956848%)" fill-opacity="1" d="M 87.875 0.00390625 C 39.34375 0.00390625 0 39.347656 0 87.878906 C 0 136.410156 39.34375 175.75 87.875 175.75 C 136.40625 175.75 175.746094 136.410156 175.746094 87.878906 C 175.746094 39.347656 136.40625 0.00390625 87.875 0.00390625 Z M 87.875 6.003906 C 133.019531 6.003906 169.746094 42.734375 169.746094 87.878906 C 169.746094 133.023438 133.019531 169.75 87.875 169.75 C 42.726562 169.75 6 133.023438 6 87.878906 C 6 42.734375 42.726562 6.003906 87.875 6.003906 "/>
</g>
<path fill-rule="nonzero" fill="rgb(95.532227%, 40.040588%, 72.956848%)" fill-opacity="1" d="M 46.976562 226.867188 L 17.601562 226.867188 L 17.601562 224.867188 L 46.976562 224.867188 L 46.976562 226.867188 "/>
<path fill-rule="nonzero" fill="rgb(95.532227%, 40.040588%, 72.956848%)" fill-opacity="1" d="M 158.664062 226.867188 L 129.292969 226.867188 L 129.292969 224.867188 L 158.664062 224.867188 L 158.664062 226.867188 "/>
</svg>
