<?xml version="1.0" encoding="UTF-8"?>
<svg xmlns="http://www.w3.org/2000/svg" xmlns:xlink="http://www.w3.org/1999/xlink" width="595.276" height="841.89" viewBox="0 0 595.276 841.89">
<defs>
<clipPath id="clip-0">
<path clip-rule="nonzero" d="M 0 420 L 595.277344 420 L 595.277344 841.890625 L 0 841.890625 Z M 0 420 "/>
</clipPath>
</defs>
<g clip-path="url(#clip-0)">
<path fill-rule="nonzero" fill="rgb(13.729858%, 12.159729%, 12.548828%)" fill-opacity="1" d="M 0 841.890625 L 595.273438 841.890625 L 595.273438 420.945312 L 0 420.945312 Z M 0 841.890625 "/>
</g>
<path fill-rule="nonzero" fill="rgb(100%, 100%, 100%)" fill-opacity="1" d="M 331.917969 674.503906 L 314.480469 674.503906 L 314.480469 640.292969 L 282.378906 640.292969 L 282.378906 674.503906 L 264.941406 674.503906 L 264.941406 595.199219 L 282.378906 595.199219 L 282.378906 625.632812 L 314.480469 625.632812 L 314.480469 595.199219 L 331.917969 595.199219 Z M 297.550781 570.292969 C 232.917969 570.292969 180.339844 622.871094 180.339844 687.503906 L 180.339844 692.542969 L 414.765625 692.542969 L 414.765625 687.503906 C 414.765625 622.871094 362.183594 570.292969 297.550781 570.292969 "/>
<path fill-rule="nonzero" fill="rgb(100%, 100%, 100%)" fill-opacity="1" d="M 380.316406 590 L 385.03125 590 L 385.03125 574.652344 L 390.4375 574.652344 L 390.4375 570.953125 L 374.90625 570.953125 L 374.90625 574.652344 L 380.316406 574.652344 Z M 380.316406 590 "/>
<path fill-rule="nonzero" fill="rgb(100%, 100%, 100%)" fill-opacity="1" d="M 408.699219 570.953125 L 403.933594 583.480469 L 399.175781 570.953125 L 392.886719 570.953125 L 392.886719 590 L 397.324219 590 L 397.324219 576.5 L 397.417969 576.5 L 402.316406 590 L 405.507812 590 L 410.40625 576.5 L 410.5 576.5 L 410.5 590 L 414.9375 590 L 414.9375 570.953125 Z M 408.699219 570.953125 "/>
<path fill-rule="nonzero" fill="rgb(13.729858%, 12.159729%, 12.548828%)" fill-opacity="1" d="M 331.917969 253.558594 L 314.480469 253.558594 L 314.480469 219.351562 L 282.378906 219.351562 L 282.378906 253.558594 L 264.941406 253.558594 L 264.941406 174.253906 L 282.378906 174.253906 L 282.378906 204.6875 L 314.480469 204.6875 L 314.480469 174.253906 L 331.917969 174.253906 Z M 297.550781 149.347656 C 232.917969 149.347656 180.339844 201.925781 180.339844 266.558594 L 180.339844 271.597656 L 414.765625 271.597656 L 414.765625 266.558594 C 414.765625 201.925781 362.183594 149.347656 297.550781 149.347656 "/>
<path fill-rule="nonzero" fill="rgb(13.729858%, 12.159729%, 12.548828%)" fill-opacity="1" d="M 380.316406 169.054688 L 385.03125 169.054688 L 385.03125 153.707031 L 390.4375 153.707031 L 390.4375 150.007812 L 374.90625 150.007812 L 374.90625 153.707031 L 380.316406 153.707031 Z M 380.316406 169.054688 "/>
<path fill-rule="nonzero" fill="rgb(13.729858%, 12.159729%, 12.548828%)" fill-opacity="1" d="M 408.699219 150.007812 L 403.933594 162.535156 L 399.175781 150.007812 L 392.886719 150.007812 L 392.886719 169.054688 L 397.324219 169.054688 L 397.324219 155.554688 L 397.417969 155.554688 L 402.316406 169.054688 L 405.507812 169.054688 L 410.40625 155.554688 L 410.5 155.554688 L 410.5 169.054688 L 414.9375 169.054688 L 414.9375 150.007812 Z M 408.699219 150.007812 "/>
</svg>
