<?xml version="1.0" encoding="UTF-8"?>
<svg xmlns="http://www.w3.org/2000/svg" xmlns:xlink="http://www.w3.org/1999/xlink" width="85.04" height="85.04" viewBox="0 0 85.04 85.04">
<defs>
<clipPath id="clip-0">
<path clip-rule="nonzero" d="M 0 0 L 85.039062 0 L 85.039062 85.039062 L 0 85.039062 Z M 0 0 "/>
</clipPath>
</defs>
<g clip-path="url(#clip-0)">
<path fill-rule="nonzero" fill="rgb(18.110657%, 16.619873%, 16.990662%)" fill-opacity="1" d="M 42.519531 85.039062 L 0 42.519531 L 42.519531 0 L 85.039062 42.519531 L 42.519531 85.039062 "/>
</g>
<path fill-rule="nonzero" fill="rgb(100%, 100%, 100%)" fill-opacity="1" d="M 20.949219 35.515625 C 20.949219 35.347656 21.085938 35.195312 21.273438 35.195312 L 23.285156 35.195312 C 23.457031 35.195312 23.605469 35.347656 23.605469 35.515625 L 23.605469 44.554688 L 27.636719 44.554688 C 27.824219 44.554688 27.957031 44.707031 27.957031 44.878906 L 27.957031 46.722656 C 27.957031 46.890625 27.824219 47.042969 27.636719 47.042969 L 21.273438 47.042969 C 21.085938 47.042969 20.949219 46.890625 20.949219 46.722656 L 20.949219 35.515625 "/>
<path fill-rule="nonzero" fill="rgb(100%, 100%, 100%)" fill-opacity="1" d="M 36.101562 35.023438 C 39.488281 35.023438 42.195312 37.75 42.195312 41.136719 C 42.195312 44.523438 39.488281 47.214844 36.101562 47.214844 C 32.71875 47.214844 30.027344 44.523438 30.027344 41.136719 C 30.027344 37.75 32.71875 35.023438 36.101562 35.023438 M 36.101562 44.503906 C 37.964844 44.503906 39.488281 42.980469 39.488281 41.136719 C 39.488281 39.273438 37.964844 37.734375 36.101562 37.734375 C 34.257812 37.734375 32.734375 39.273438 32.734375 41.136719 C 32.734375 42.980469 34.257812 44.503906 36.101562 44.503906 "/>
<path fill-rule="nonzero" fill="rgb(100%, 100%, 100%)" fill-opacity="1" d="M 45.550781 35.515625 C 45.550781 35.347656 45.6875 35.195312 45.875 35.195312 L 47.886719 35.195312 C 48.058594 35.195312 48.210938 35.347656 48.210938 35.515625 L 48.210938 44.554688 L 52.238281 44.554688 C 52.425781 44.554688 52.558594 44.707031 52.558594 44.878906 L 52.558594 46.722656 C 52.558594 46.890625 52.425781 47.042969 52.238281 47.042969 L 45.875 47.042969 C 45.6875 47.042969 45.550781 46.890625 45.550781 46.722656 L 45.550781 35.515625 "/>
<path fill-rule="nonzero" fill="rgb(100%, 100%, 100%)" fill-opacity="1" d="M 54.203125 46.605469 L 59.503906 35.210938 C 59.554688 35.109375 59.671875 35.027344 59.789062 35.027344 L 59.960938 35.027344 C 60.078125 35.027344 60.195312 35.109375 60.246094 35.210938 L 65.546875 46.605469 C 65.648438 46.824219 65.511719 47.042969 65.257812 47.042969 L 63.378906 47.042969 C 63.074219 47.042969 62.941406 46.941406 62.785156 46.621094 L 62.175781 45.285156 L 57.574219 45.285156 L 56.964844 46.636719 C 56.878906 46.839844 56.691406 47.042969 56.351562 47.042969 L 54.492188 47.042969 C 54.238281 47.042969 54.101562 46.824219 54.203125 46.605469 M 61.160156 42.980469 L 59.875 40.1875 L 59.855469 40.1875 L 58.589844 42.980469 L 61.160156 42.980469 "/>
</svg>
