<?xml version="1.0" encoding="UTF-8"?>
<svg id="Ebene_1" data-name="Ebene 1" xmlns="http://www.w3.org/2000/svg" viewBox="0 0 254.05 115.89">
  <defs>
    <style>
      .cls-1 {
        fill: #e4190a;
      }

      .cls-2 {
        fill: #557990;
      }
    </style>
  </defs>
  <path class="cls-1" d="M55.74,6.51c0,1.8-1.46,3.26-3.26,3.26s-3.26-1.46-3.26-3.26,1.46-3.26,3.26-3.26,3.26,1.46,3.26,3.26Z"/>
  <path class="cls-1" d="M81.98,6.51c0,3.6-2.92,6.52-6.52,6.52s-6.51-2.92-6.51-6.52,2.92-6.51,6.51-6.51,6.52,2.92,6.52,6.51Z"/>
  <path class="cls-1" d="M104.97,6.51c0,3.6-2.92,6.52-6.52,6.52s-6.51-2.92-6.51-6.52,2.92-6.51,6.51-6.51,6.52,2.92,6.52,6.51Z"/>
  <path class="cls-1" d="M127.95,6.51c0,3.6-2.92,6.52-6.52,6.52s-6.51-2.92-6.51-6.52,2.92-6.51,6.51-6.51,6.52,2.92,6.52,6.51Z"/>
  <path class="cls-1" d="M147.68,6.51c0,1.8-1.46,3.26-3.26,3.26s-3.26-1.46-3.26-3.26,1.46-3.26,3.26-3.26,3.26,1.46,3.26,3.26Z"/>
  <path class="cls-1" d="M170.66,6.51c0,1.8-1.46,3.26-3.26,3.26s-3.26-1.46-3.26-3.26,1.46-3.26,3.26-3.26,3.26,1.46,3.26,3.26Z"/>
  <path class="cls-1" d="M13.03,29.5c0,3.6-2.92,6.52-6.52,6.52S0,33.1,0,29.5s2.92-6.51,6.51-6.51,6.52,2.92,6.52,6.51Z"/>
  <path class="cls-1" d="M36.02,29.5c0,3.6-2.92,6.52-6.52,6.52s-6.51-2.92-6.51-6.52,2.92-6.51,6.51-6.51,6.52,2.92,6.52,6.51Z"/>
  <path class="cls-1" d="M59,29.5c0,3.6-2.92,6.52-6.52,6.52s-6.51-2.92-6.51-6.52,2.92-6.51,6.51-6.51,6.52,2.92,6.52,6.51Z"/>
  <path class="cls-1" d="M81.98,29.5c0,3.6-2.92,6.52-6.52,6.52s-6.51-2.92-6.51-6.52,2.92-6.51,6.51-6.51,6.52,2.92,6.52,6.51Z"/>
  <path class="cls-1" d="M104.97,29.5c0,3.6-2.92,6.52-6.52,6.52s-6.51-2.92-6.51-6.52,2.92-6.51,6.51-6.51,6.52,2.92,6.52,6.51Z"/>
  <path class="cls-1" d="M127.95,29.5c0,3.6-2.92,6.52-6.52,6.52s-6.51-2.92-6.51-6.52,2.92-6.51,6.51-6.51,6.52,2.92,6.52,6.51Z"/>
  <path class="cls-1" d="M150.94,29.5c0,3.6-2.92,6.52-6.52,6.52s-6.51-2.92-6.51-6.52,2.92-6.51,6.51-6.51,6.52,2.92,6.52,6.51Z"/>
  <path class="cls-1" d="M36.02,52.48c0,3.6-2.92,6.52-6.52,6.52s-6.51-2.92-6.51-6.52,2.92-6.51,6.51-6.51,6.52,2.92,6.52,6.51Z"/>
  <path class="cls-1" d="M59,52.48c0,3.6-2.92,6.52-6.52,6.52s-6.51-2.92-6.51-6.52,2.92-6.51,6.51-6.51,6.52,2.92,6.52,6.51Z"/>
  <path class="cls-1" d="M81.98,52.48c0,3.6-2.92,6.52-6.52,6.52s-6.51-2.92-6.51-6.52,2.92-6.51,6.51-6.51,6.52,2.92,6.52,6.51Z"/>
  <path class="cls-1" d="M104.97,52.48c0,3.6-2.92,6.52-6.52,6.52s-6.51-2.92-6.51-6.52,2.92-6.51,6.51-6.51,6.52,2.92,6.52,6.51Z"/>
  <path class="cls-1" d="M124.7,52.48c0,1.8-1.46,3.26-3.26,3.26s-3.26-1.46-3.26-3.26,1.46-3.26,3.26-3.26,3.26,1.46,3.26,3.26Z"/>
  <path class="cls-1" d="M147.68,52.48c0,1.8-1.46,3.26-3.26,3.26s-3.26-1.46-3.26-3.26,1.46-3.26,3.26-3.26,3.26,1.46,3.26,3.26Z"/>
  <path class="cls-1" d="M32.76,75.47c0,1.8-1.46,3.26-3.26,3.26s-3.26-1.46-3.26-3.26,1.46-3.26,3.26-3.26,3.26,1.46,3.26,3.26Z"/>
  <path class="cls-1" d="M55.74,75.47c0,1.8-1.46,3.26-3.26,3.26s-3.26-1.46-3.26-3.26,1.46-3.26,3.26-3.26,3.26,1.46,3.26,3.26Z"/>
  <path class="cls-1" d="M81.98,75.47c0,3.6-2.92,6.52-6.52,6.52s-6.51-2.92-6.51-6.52,2.92-6.51,6.51-6.51,6.52,2.92,6.52,6.51Z"/>
  <path class="cls-1" d="M104.97,75.47c0,3.6-2.92,6.52-6.52,6.52s-6.51-2.92-6.51-6.52,2.92-6.51,6.51-6.51,6.52,2.92,6.52,6.51Z"/>
  <path class="cls-1" d="M127.95,75.47c0,3.6-2.92,6.52-6.52,6.52s-6.51-2.92-6.51-6.52,2.92-6.51,6.51-6.51,6.52,2.92,6.52,6.51Z"/>
  <path class="cls-1" d="M147.68,75.47c0,1.8-1.46,3.26-3.26,3.26s-3.26-1.46-3.26-3.26,1.46-3.26,3.26-3.26,3.26,1.46,3.26,3.26Z"/>
  <path class="cls-1" d="M170.66,75.47c0,1.8-1.46,3.26-3.26,3.26s-3.26-1.46-3.26-3.26,1.46-3.26,3.26-3.26,3.26,1.46,3.26,3.26Z"/>
  <path class="cls-2" d="M87.29,91.16v19.36h-3.78v-19.36h3.78Z"/>
  <path class="cls-2" d="M97.21,103.98c0,1.47,.35,4.48-1.88,4.48-1.23,0-1.39-1.18-1.39-2.14,0-2.41,1.39-2.25,3.27-2.33Zm3.7-2.73c0-2.47-.62-4.53-5.42-4.53-1.45,0-2.68,.24-3.54,.88-.88,.62-1.39,1.66-1.39,3.3h3.7c0-1.07,.11-2.06,1.42-2.06s1.53,.83,1.53,1.98v1.05c-3.51-.05-6.97,.13-6.97,4.61,0,2.36,.97,4.32,3.59,4.32,1.64,0,2.74-.67,3.54-2.07h.05l.16,1.8h3.51c-.08-.83-.19-1.69-.19-2.52v-6.76Z"/>
  <path class="cls-2" d="M109.35,108.45c-1.29,0-1.53-1.42-1.53-4.83,0-2.71-.03-4.59,1.53-4.59,1.64,0,1.61,1.88,1.61,4.59,0,3.41-.24,4.83-1.61,4.83Zm-5.31,2.06h3.59v-1.5h.05c.7,1.31,1.74,1.77,3.19,1.77,3.91,0,3.78-4.34,3.78-7.13s.11-6.94-3.7-6.94c-1.37,0-2.31,.4-3.08,1.56h-.05v-7.11h-3.78v19.36Z"/>
  <path class="cls-2" d="M122.66,108.37c-1.39,0-1.74-.88-1.74-5.01,0-2.82,.13-4.24,1.74-4.24s1.74,1.42,1.74,4.24c0,4.13-.35,5.01-1.74,5.01Zm0,2.41c4.88,0,5.52-2.98,5.52-7.21,0-3.7-.54-6.86-5.52-6.86s-5.52,3.16-5.52,6.86c0,4.24,.64,7.21,5.52,7.21Z"/>
  <path class="cls-2" d="M134.45,96.98v1.74h.05c.7-1.56,1.98-2.01,3.51-2.01v3.38c-3.32-.22-3.38,1.72-3.38,3.06v7.37h-3.78v-13.54h3.59Z"/>
  <path class="cls-2" d="M144.21,96.98h1.53v-2.15l3.78-1.69v3.83h1.96v2.33h-1.96v7.24c0,1.02-.03,1.69,1.21,1.69,.24,0,.48,0,.67-.05v2.33c-.51,.05-1.05,.13-1.96,.13-3.27,0-3.7-2.17-3.7-3v-8.34h-1.53v-2.33Z"/>
  <path class="cls-2" d="M156.68,102.23c0-1.15-.03-3.19,1.72-3.19s1.74,1.88,1.74,3.19h-3.46Zm7.24,2.12c.13-4.34-.43-7.64-5.52-7.64s-5.52,3.16-5.52,6.86c0,4.24,.64,7.21,5.52,7.21,1.77,0,3.11-.48,4-1.31,.91-.83,1.39-2.04,1.45-3.51h-3.83c0,1.13-.27,2.41-1.61,2.41-1.66,0-1.72-2.41-1.72-4.02h7.24Z"/>
  <path class="cls-2" d="M173.17,103.98c0,1.47,.35,4.48-1.88,4.48-1.23,0-1.39-1.18-1.39-2.14,0-2.41,1.39-2.25,3.27-2.33Zm3.7-2.73c0-2.47-.62-4.53-5.42-4.53-1.45,0-2.68,.24-3.54,.88-.88,.62-1.39,1.66-1.39,3.3h3.7c0-1.07,.11-2.06,1.42-2.06s1.53,.83,1.53,1.98v1.05c-3.51-.05-6.97,.13-6.97,4.61,0,2.36,.97,4.32,3.59,4.32,1.64,0,2.74-.67,3.54-2.07h.05l.16,1.8h3.51c-.08-.83-.19-1.69-.19-2.52v-6.76Z"/>
  <path class="cls-2" d="M183.5,98.35h.05c.75-1.21,1.77-1.64,3.19-1.64,1.34,0,2.41,.64,3.03,1.72,.88-1.18,1.96-1.72,3.51-1.72,1.8,0,3.38,1.07,3.38,2.95v10.86h-3.78v-9.33c0-1.21-.21-2.15-1.42-2.15s-1.42,.94-1.42,2.15v9.33h-3.7v-9.33c0-1.21-.21-2.15-1.42-2.15s-1.42,.94-1.42,2.15v9.33h-3.78v-13.54h3.78v1.37Z"/>
  <path class="cls-2" d="M203.26,96.98h3.75l1.85,10.19h.05l2.6-10.19h3.92l2.39,10.19h.05l2.04-10.19h3.62l-3.67,13.54h-3.97l-2.44-9.25h-.05l-2.74,9.25h-4.02l-3.38-13.54Z"/>
  <path class="cls-2" d="M237.13,104.14c0,1.48,.35,4.48-1.88,4.48-1.23,0-1.39-1.18-1.39-2.14,0-2.41,1.39-2.25,3.27-2.33Zm3.7-2.73c0-2.47-.62-4.53-5.42-4.53-1.45,0-2.68,.24-3.54,.88-.89,.62-1.39,1.66-1.39,3.3h3.7c0-1.07,.11-2.06,1.42-2.06s1.53,.83,1.53,1.98v1.05c-3.51-.05-6.97,.13-6.97,4.61,0,2.36,.97,4.32,3.59,4.32,1.64,0,2.73-.67,3.54-2.06h.05l.16,1.8h3.51c-.08-.83-.19-1.69-.19-2.52v-6.76Z"/>
  <path class="cls-2" d="M247.08,104.33c0-4.13,.24-5.12,1.66-5.12s1.53,1.69,1.53,4.67-.19,4.29-1.56,4.29c-1.82,0-1.63-2.57-1.63-3.83Zm3.38-7.19v1.58h-.05c-.54-1.26-1.69-1.85-3.03-1.85-3.94,0-4,3.78-4,6.76s-.19,6.86,3.97,6.86c1.23,0,2.31-.54,2.87-1.58h.05v2.6c0,1.37-.46,2.25-1.39,2.25-.59,0-1.02-.19-1.26-.54-.24-.32-.32-.8-.32-1.37h-3.7c.08,3.3,2.49,4.02,5.31,4.02,5.2,0,5.15-3.7,5.15-4.64v-14.1h-3.59Z"/>
</svg>