<?xml version="1.0" encoding="UTF-8"?>
<svg width="700pt" height="700pt" version="1.1" viewBox="0 0 700 700" xmlns="http://www.w3.org/2000/svg" xmlns:xlink="http://www.w3.org/1999/xlink">
 <defs>
  <symbol id="o" overflow="visible">
   <path d="m29.312-1.75c-1.5117 0.78125-3.0898 1.3711-4.7344 1.7656-1.6367 0.40625-3.3398 0.60938-5.1094 0.60938-5.3125 0-9.5273-1.4844-12.641-4.4531-3.1055-2.9688-4.6562-7-4.6562-12.094s1.5508-9.125 4.6562-12.094c3.1133-2.9688 7.3281-4.4531 12.641-4.4531 1.7695 0 3.4727 0.19922 5.1094 0.59375 1.6445 0.39844 3.2227 0.99219 4.7344 1.7812v6.5938c-1.5312-1.0391-3.0391-1.8008-4.5156-2.2812-1.4805-0.48828-3.0391-0.73438-4.6719-0.73438-2.9375 0-5.2461 0.94531-6.9219 2.8281-1.6797 1.875-2.5156 4.4648-2.5156 7.7656 0 3.293 0.83594 5.8828 2.5156 7.7656 1.6758 1.875 3.9844 2.8125 6.9219 2.8125 1.6328 0 3.1914-0.23828 4.6719-0.71875 1.4766-0.48828 2.9844-1.2539 4.5156-2.2969z"/>
  </symbol>
  <symbol id="d" overflow="visible">
   <path d="m21.453-17.406c-0.67969-0.3125-1.3516-0.53906-2.0156-0.6875-0.65625-0.15625-1.3203-0.23438-1.9844-0.23438-1.9688 0-3.4844 0.63281-4.5469 1.8906-1.0547 1.2617-1.5781 3.0703-1.5781 5.4219v11.016h-7.6562v-23.922h7.6562v3.9219c0.97656-1.5625 2.1016-2.7031 3.375-3.4219 1.2812-0.71875 2.8125-1.0781 4.5938-1.0781 0.25 0 0.52344 0.011719 0.82812 0.03125 0.30078 0.023438 0.73438 0.070312 1.2969 0.14062z"/>
  </symbol>
  <symbol id="c" overflow="visible">
   <path d="m27.562-12.031v2.1875h-17.891c0.1875 1.793 0.83203 3.1367 1.9375 4.0312 1.1133 0.89844 2.6719 1.3438 4.6719 1.3438 1.6016 0 3.25-0.23438 4.9375-0.70312 1.6875-0.47656 3.4219-1.2031 5.2031-2.1719v5.8906c-1.8047 0.6875-3.6094 1.2031-5.4219 1.5469-1.8125 0.35156-3.6211 0.53125-5.4219 0.53125-4.3359 0-7.7031-1.0977-10.109-3.2969-2.3984-2.207-3.5938-5.2969-3.5938-9.2656 0-3.9062 1.1758-6.9727 3.5312-9.2031 2.3633-2.2383 5.6094-3.3594 9.7344-3.3594 3.7578 0 6.7695 1.1367 9.0312 3.4062 2.2578 2.2617 3.3906 5.2812 3.3906 9.0625zm-7.8594-2.5312c0-1.457-0.42969-2.6289-1.2812-3.5156-0.84375-0.89453-1.9492-1.3438-3.3125-1.3438-1.4922 0-2.6992 0.41797-3.625 1.25-0.91797 0.83594-1.4922 2.0391-1.7188 3.6094z"/>
  </symbol>
  <symbol id="a" overflow="visible">
   <path d="m14.391-10.766c-1.5938 0-2.793 0.27344-3.5938 0.8125-0.80469 0.54297-1.2031 1.3398-1.2031 2.3906 0 0.96875 0.32031 1.7305 0.96875 2.2812 0.64453 0.54297 1.5469 0.8125 2.7031 0.8125 1.4375 0 2.6445-0.51562 3.625-1.5469 0.98828-1.0312 1.4844-2.3203 1.4844-3.875v-0.875zm11.688-2.8906v13.656h-7.7031v-3.5469c-1.0312 1.4492-2.1875 2.5078-3.4688 3.1719s-2.8398 1-4.6719 1c-2.4805 0-4.4961-0.72266-6.0469-2.1719-1.543-1.4453-2.3125-3.3203-2.3125-5.625 0-2.8125 0.96094-4.8672 2.8906-6.1719 1.9375-1.3125 4.9688-1.9688 9.0938-1.9688h4.5156v-0.60938c0-1.207-0.48047-2.0938-1.4375-2.6562-0.94922-0.5625-2.4375-0.84375-4.4688-0.84375-1.6367 0-3.1562 0.16797-4.5625 0.5-1.4062 0.32422-2.7188 0.8125-3.9375 1.4688v-5.8281c1.6445-0.40625 3.2891-0.70703 4.9375-0.90625 1.6562-0.20703 3.3047-0.3125 4.9531-0.3125 4.3203 0 7.4375 0.85547 9.3438 2.5625 1.9141 1.6992 2.875 4.4609 2.875 8.2812z"/>
  </symbol>
  <symbol id="h" overflow="visible">
   <path d="m12.031-30.719v6.7969h7.875v5.4688h-7.875v10.141c0 1.1172 0.21875 1.8711 0.65625 2.2656 0.4375 0.38672 1.3125 0.57812 2.625 0.57812h3.9375v5.4688h-6.5625c-3.0234 0-5.1641-0.62891-6.4219-1.8906-1.2617-1.2578-1.8906-3.3984-1.8906-6.4219v-10.141h-3.7969v-5.4688h3.7969v-6.7969z"/>
  </symbol>
  <symbol id="g" overflow="visible">
   <path d="m19.953-20.422v-12.812h7.6875v33.234h-7.6875v-3.4531c-1.0547 1.4062-2.2148 2.4375-3.4844 3.0938-1.2734 0.65625-2.7422 0.98438-4.4062 0.98438-2.9492 0-5.3711-1.1719-7.2656-3.5156-1.8867-2.3438-2.8281-5.3594-2.8281-9.0469s0.94141-6.7031 2.8281-9.0469c1.8945-2.3438 4.3164-3.5156 7.2656-3.5156 1.6562 0 3.1172 0.33594 4.3906 1 1.2812 0.65625 2.4453 1.6836 3.5 3.0781zm-5.0469 15.484c1.6445 0 2.8945-0.59766 3.75-1.7969 0.86328-1.1953 1.2969-2.9297 1.2969-5.2031 0-2.2812-0.43359-4.0195-1.2969-5.2188-0.85547-1.1953-2.1055-1.7969-3.75-1.7969-1.625 0-2.8711 0.60156-3.7344 1.7969-0.85547 1.1992-1.2812 2.9375-1.2812 5.2188 0 2.2734 0.42578 4.0078 1.2812 5.2031 0.86328 1.1992 2.1094 1.7969 3.7344 1.7969z"/>
  </symbol>
  <symbol id="f" overflow="visible">
   <path d="m16.406-4.9375c1.6328 0 2.8828-0.59766 3.75-1.7969 0.86328-1.1953 1.2969-2.9297 1.2969-5.2031 0-2.2812-0.43359-4.0195-1.2969-5.2188-0.86719-1.1953-2.1172-1.7969-3.75-1.7969-1.6367 0-2.8906 0.60547-3.7656 1.8125-0.875 1.1992-1.3125 2.9336-1.3125 5.2031 0 2.2617 0.4375 3.9961 1.3125 5.2031 0.875 1.1992 2.1289 1.7969 3.7656 1.7969zm-5.0781-15.484c1.0508-1.3945 2.2188-2.4219 3.5-3.0781 1.2812-0.66406 2.7539-1 4.4219-1 2.9453 0 5.3672 1.1719 7.2656 3.5156 1.8945 2.3438 2.8438 5.3594 2.8438 9.0469s-0.94922 6.7031-2.8438 9.0469c-1.8984 2.3438-4.3203 3.5156-7.2656 3.5156-1.668 0-3.1406-0.33594-4.4219-1s-2.4492-1.6914-3.5-3.0781v3.4531h-7.6562v-33.234h7.6562z"/>
  </symbol>
  <symbol id="b" overflow="visible">
   <path d="m0.53125-23.922h7.6562l6.4219 16.234 5.4688-16.234h7.6562l-10.062 26.188c-1.0117 2.6641-2.1953 4.5234-3.5469 5.5781-1.3438 1.0625-3.1211 1.5938-5.3281 1.5938h-4.4219v-5.0156h2.3906c1.3008 0 2.2422-0.21094 2.8281-0.625 0.59375-0.40625 1.0547-1.1484 1.3906-2.2188l0.20312-0.65625z"/>
  </symbol>
  <symbol id="e" overflow="visible">
   <path d="m12.234-25.672v19.453h2.9531c3.3633 0 5.9297-0.83203 7.7031-2.5 1.7695-1.6641 2.6562-4.0859 2.6562-7.2656 0-3.1562-0.88672-5.5547-2.6562-7.2031-1.7617-1.6562-4.3281-2.4844-7.7031-2.4844zm-8.2188-6.2188h8.6719c4.8438 0 8.4453 0.34375 10.812 1.0312 2.375 0.6875 4.4102 1.8594 6.1094 3.5156 1.4883 1.4375 2.5977 3.1016 3.3281 4.9844 0.72656 1.875 1.0938 4 1.0938 6.375 0 2.4062-0.36719 4.5586-1.0938 6.4531-0.73047 1.8867-1.8398 3.5469-3.3281 4.9844-1.7109 1.6484-3.7617 2.8203-6.1562 3.5156-2.3984 0.6875-5.9844 1.0312-10.766 1.0312h-8.6719z"/>
  </symbol>
  <symbol id="n" overflow="visible">
   <path d="m1.5312-23.922h7.4375l4.0156 16.484 4.0469-16.484h6.375l4.0156 16.312 4.0469-16.312h7.4375l-6.3125 23.922h-8.3438l-4.0469-16.453-4.0156 16.453h-8.3438z"/>
  </symbol>
  <symbol id="m" overflow="visible">
   <path d="m3.6719-23.922h7.6562v23.922h-7.6562zm0-9.3125h7.6562v6.2344h-7.6562z"/>
  </symbol>
  <symbol id="l" overflow="visible">
   <path d="m27.734-14.562v14.562h-7.7031v-11.156c0-2.0625-0.046875-3.4844-0.14062-4.2656-0.085937-0.78125-0.24219-1.3594-0.46875-1.7344-0.30469-0.5-0.71094-0.88281-1.2188-1.1562-0.51172-0.28125-1.0938-0.42188-1.75-0.42188-1.5938 0-2.8516 0.61719-3.7656 1.8438-0.90625 1.2305-1.3594 2.9375-1.3594 5.125v11.766h-7.6562v-23.922h7.6562v3.5c1.1445-1.3945 2.3633-2.4219 3.6562-3.0781 1.3008-0.66406 2.7383-1 4.3125-1 2.7578 0 4.8516 0.85156 6.2812 2.5469 1.4375 1.6875 2.1562 4.1523 2.1562 7.3906z"/>
  </symbol>
  <symbol id="k" overflow="visible">
   <path d="m4.0156-31.891h10.469l7.2656 17.062 7.2969-17.062h10.453v31.891h-7.7812v-23.328l-7.3438 17.203h-5.2188l-7.3438-17.203v23.328h-7.7969z"/>
  </symbol>
  <symbol id="j" overflow="visible">
   <path d="m3.4219-9.3125v-14.609h7.6875v2.3906c0 1.293-0.011719 2.918-0.03125 4.875-0.011719 1.9609-0.015625 3.2656-0.015625 3.9219 0 1.9297 0.046875 3.3125 0.14062 4.1562 0.10156 0.84375 0.28125 1.4609 0.53125 1.8438 0.3125 0.5 0.71875 0.88672 1.2188 1.1562 0.50781 0.27344 1.0938 0.40625 1.75 0.40625 1.5938 0 2.8438-0.60938 3.75-1.8281 0.91406-1.2266 1.375-2.9297 1.375-5.1094v-11.812h7.6406v23.922h-7.6406v-3.4531c-1.1562 1.3867-2.3828 2.4141-3.6719 3.0781-1.2812 0.66406-2.6992 1-4.25 1-2.7734 0-4.8828-0.84766-6.3281-2.5469-1.4375-1.6953-2.1562-4.1602-2.1562-7.3906z"/>
  </symbol>
  <symbol id="i" overflow="visible">
   <path d="m3.6719-33.234h7.6562v33.234h-7.6562z"/>
  </symbol>
 </defs>
 <g>
  <path d="m595 316.38v-20.387c-0.003906-4.8711-1.9414-9.543-5.3867-12.988-3.4453-3.4453-8.1172-5.3789-12.988-5.3828h-8.7773c-1.5352-40.438-14.305-79.645-36.871-113.23-22.566-33.586-54.043-60.223-90.902-76.922 0.38672-8.1094 2.5-20.941-4.6055-27.109v-0.003907c-3.3125-3.5391-7.9453-5.5469-12.793-5.543h-26.238c-0.3125-4.6328-2.3672-8.9727-5.7539-12.148-3.3828-3.1758-7.8477-4.9453-12.488-4.9609h-58.828c-4.6406 0.015625-9.1055 1.7852-12.492 4.9609-3.3867 3.1758-5.4414 7.5156-5.7539 12.148h-26.262c-4.8867-0.003906-9.5547 2.0352-12.867 5.6289-7.2109 6.4102-4.6914 19.301-4.3984 27.777-36.441 16.891-67.512 43.512-89.793 76.93s-34.906 72.336-36.484 112.47h-7.9414c-4.8711 0.003906-9.543 1.9375-12.988 5.3828-3.4453 3.4453-5.3828 8.1172-5.3867 12.988v20.387c-0.007812 4.3594 1.5352 8.5781 4.3477 11.906 2.8164 3.3281 6.7227 5.5469 11.023 6.2617l43.059 7.1289c-5.1094 4.6211-9.7539 9.7344-13.871 15.258h-18.199c-6.9219-0.054688-13.586 2.6367-18.527 7.4883-4.9414 4.8477-7.7578 11.461-7.832 18.387v86.535c0.074219 6.9219 2.8906 13.535 7.832 18.387 4.9414 4.8516 11.605 7.543 18.527 7.4844h33.109c19.797 17.488 45.309 27.125 71.723 27.09h26.418-0.003906c11.844 0.0625 23.453-3.2852 33.445-9.6406 9.9883-6.3555 17.941-15.453 22.902-26.207l22.68-50.184h-0.003906c1.4766-3.2031 4.6914-5.2422 8.2188-5.2148 3.5234 0.027343 6.707 2.1172 8.1328 5.3438l21.293 49.195v-0.003906c4.8398 10.988 12.793 20.32 22.871 26.844 10.082 6.5234 21.848 9.9531 33.855 9.8672h27.809c26.414 0.035157 51.926-9.6016 71.723-27.09h33.109c6.9219 0.058593 13.586-2.6328 18.527-7.4844 4.9414-4.8516 7.7578-11.465 7.832-18.387v-86.535c-0.074219-6.9258-2.8906-13.539-7.832-18.387-4.9414-4.8516-11.605-7.543-18.527-7.4883h-18.199c-4.1172-5.5234-8.7617-10.637-13.871-15.258l43.09-7.1289c4.2969-0.72266 8.1953-2.9453 11.004-6.2695 2.8086-3.3281 4.3438-7.543 4.3359-11.898zm-320.14-244.07h26.133v79.051l0.003906-0.003906c0.09375 4.7656 3.9805 8.582 8.75 8.582 4.7656 0 8.6562-3.8164 8.75-8.582 0.042968-0.51953-0.03125-87.633 0-88.031v-7.2539c0-0.48047 0.39062-0.86719 0.87109-0.87109h58.828c0.48047 0.003906 0.86719 0.39062 0.87109 0.87109v95.285c0.066406 4.7852 3.9648 8.6289 8.75 8.6289s8.6797-3.8438 8.75-8.6289v-79.051l26.086-0.007813c0.47656 0.42188 0.71094 1.0547 0.62109 1.6836l-10.914 203.62h-127.09c-0.1875-13.027-11.641-197.92-10.41-205.3zm-152.36 397.03v-86.535c0.042969-2.293 1.0039-4.4727 2.6719-6.0508 1.668-1.5742 3.8984-2.4141 6.1875-2.3242h7.6719c-7.8789 16.473-11.152 34.77-9.4766 52.953 1.6719 18.184 8.2344 35.574 18.988 50.328h-17.184c-4.7539 0.125-8.7148-3.6172-8.8594-8.3711zm313.5 35.461c-8.5938 0.082031-17.02-2.3516-24.246-7-7.2266-4.6484-12.938-11.312-16.422-19.164l-21.289-49.191v-0.003906c-2.8438-6.1758-7.9336-11.039-14.234-13.594-6.3047-2.5547-13.344-2.6094-19.684-0.15234-6.3398 2.457-11.508 7.2383-14.445 13.371l-22.676 50.176h0.003906c-3.5703 7.6875-9.2812 14.188-16.445 18.719-7.1602 4.5312-15.48 6.9062-23.957 6.8398h-26.418 0.003906c-23.199 0.046875-45.535-8.7852-62.426-24.684-57.562-53.422-16.832-149.56 62.426-148.96h227.62c79.184-0.59766 120.04 95.512 62.422 148.96-16.887 15.898-39.223 24.73-62.422 24.684zm132.64-130.37c2.2891-0.089844 4.5195 0.75 6.1875 2.3242 1.668 1.5781 2.6289 3.7578 2.6719 6.0508v86.535c-0.14453 4.7539-4.1055 8.4961-8.8594 8.3711h-17.184c10.652-14.801 17.156-32.184 18.828-50.344 1.6719-18.16-1.543-36.438-9.3164-52.938zm8.8594-58.055c0 0.4375-0.30078 0.8125-0.72656 0.90625l-60.293 9.9805c-16.117-8.9336-34.242-13.617-52.672-13.602h-227.62c-18.43-0.015625-36.555 4.668-52.672 13.602l-60.258-9.9805c-0.44141-0.078125-0.76172-0.46094-0.76172-0.90625v-20.387c-0.003906-0.23438 0.085938-0.46094 0.25-0.625 0.16797-0.16406 0.39453-0.25391 0.625-0.24609h53.027c4.832 0 8.75-3.918 8.75-8.75 0-4.832-3.918-8.75-8.75-8.75h-27.586c1.5156-35.609 12.484-70.176 31.781-100.14 19.293-29.969 46.219-54.258 78.008-70.375l9.1367 170.51-34.445-0.003906c-4.7812 0.074219-8.6211 3.9688-8.6211 8.75 0 4.7852 3.8398 8.6797 8.6211 8.75h230.96c4.7656-0.09375 8.5781-3.9844 8.5781-8.75 0-4.7617-3.8125-8.6523-8.5781-8.75h-34.379l9.1836-171.32v0.003906c32.207 15.957 59.531 40.281 79.109 70.422 19.578 30.145 30.691 64.996 32.172 100.91h-29.199 0.003906c-4.8359 0-8.75 3.918-8.75 8.75 0 4.832 3.9141 8.75 8.75 8.75h55.473c0.23047-0.007813 0.45703 0.082031 0.625 0.24609 0.16406 0.16406 0.25391 0.39062 0.25 0.625z"/>
  <path d="m307.44 235.34h25.004v24.992c0 2.3242 0.91797 4.5469 2.5625 6.1914 1.6406 1.6406 3.8672 2.5625 6.1875 2.5586h17.078-0.003906c2.3242 0.003906 4.5469-0.91797 6.1875-2.5586 1.6445-1.6445 2.5664-3.8672 2.5625-6.1914v-24.992h25.004c2.3203 0 4.5469-0.92188 6.1875-2.5625 1.6406-1.6406 2.5625-3.8672 2.5625-6.1875v-17.082c0-2.3203-0.92188-4.5469-2.5625-6.1875s-3.8672-2.5625-6.1875-2.5625h-25.004v-25c0.003906-2.3242-0.91797-4.5469-2.5625-6.1914-1.6406-1.6406-3.8633-2.5625-6.1875-2.5586h-17.074c-2.3203-0.003906-4.5469 0.91797-6.1875 2.5586-1.6445 1.6445-2.5625 3.8672-2.5625 6.1914v25.004l-25.004-0.003906c-2.3203 0-4.5469 0.92188-6.1875 2.5625s-2.5625 3.8672-2.5625 6.1875v17.082c0 2.3203 0.92188 4.5469 2.5625 6.1875 1.6406 1.6406 3.8672 2.5625 6.1875 2.5625z"/>
  <path d="m213.02 452.33-13.609 18.883 0.003906 0.003906c-2.7148 3.9219-1.7891 9.293 2.0781 12.082 3.8711 2.7891 9.2578 1.9688 12.121-1.8477l13.609-18.883c2.7109-3.9219 1.7812-9.293-2.0859-12.078-3.8672-2.7891-9.2539-1.9688-12.117 1.8398z"/>
  <path d="m281.27 357.65-52.469 72.801c-2.7148 3.9219-1.793 9.293 2.0742 12.078 3.8672 2.7891 9.2539 1.9727 12.117-1.8398l52.469-72.801c2.7188-3.9219 1.793-9.293-2.0742-12.086-3.8672-2.7891-9.2539-1.9688-12.117 1.8477z"/>
  <path d="m436.99 454.93-14.344 19.898c-2.7148 3.9219-1.793 9.293 2.0742 12.082 3.8672 2.7891 9.2578 1.9688 12.121-1.8438l14.34-19.902c2.7188-3.918 1.7969-9.293-2.0703-12.082-3.8711-2.7891-9.2617-1.9688-12.121 1.8477z"/>
  <path d="m516.71 359.28c-3.9219-2.8047-9.375-1.9219-12.211 1.9805l-49.289 68.387h0.003906c-1.3789 1.8789-1.9453 4.2344-1.582 6.5352 0.36719 2.3008 1.6328 4.3633 3.5234 5.7266 1.8906 1.3633 4.2461 1.9141 6.5469 1.5352 2.3008-0.37891 4.3516-1.6602 5.7031-3.5625l49.289-68.383c1.3555-1.8828 1.9102-4.2305 1.5391-6.5195-0.37109-2.293-1.6406-4.3438-3.5234-5.6992z"/>
  <use x="70" y="691.25" xlink:href="#o"/>
  <use x="102.109375" y="691.25" xlink:href="#d"/>
  <use x="123.683594" y="691.25" xlink:href="#c"/>
  <use x="153.355469" y="691.25" xlink:href="#a"/>
  <use x="182.878906" y="691.25" xlink:href="#h"/>
  <use x="203.792969" y="691.25" xlink:href="#c"/>
  <use x="233.464844" y="691.25" xlink:href="#g"/>
  <use x="280.011719" y="691.25" xlink:href="#f"/>
  <use x="311.328125" y="691.25" xlink:href="#b"/>
  <use x="355.078125" y="691.25" xlink:href="#e"/>
  <use x="391.394531" y="691.25" xlink:href="#a"/>
  <use x="420.917969" y="691.25" xlink:href="#d"/>
  <use x="442.496094" y="691.25" xlink:href="#n"/>
  <use x="482.910156" y="691.25" xlink:href="#m"/>
  <use x="497.910156" y="691.25" xlink:href="#l"/>
  <use x="544.285156" y="691.25" xlink:href="#k"/>
  <use x="587.820312" y="691.25" xlink:href="#j"/>
  <use x="618.96875" y="691.25" xlink:href="#i"/>
  <use x="633.964844" y="691.25" xlink:href="#b"/>
  <use x="662.484375" y="691.25" xlink:href="#a"/>
 </g>
</svg>
