<?xml version="1.0" encoding="utf-8"?>
<!-- Generator: Adobe Illustrator 25.4.1, SVG Export Plug-In . SVG Version: 6.00 Build 0)  -->
<svg version="1.1" id="Layer_1" xmlns="http://www.w3.org/2000/svg" xmlns:xlink="http://www.w3.org/1999/xlink" x="0px" y="0px"
	 viewBox="0 0 300 128.3" style="enable-background:new 0 0 300 128.3;" xml:space="preserve">
<style type="text/css">
	.st0{fill:#00AB4E;}
	.st1{fill:#EB2D2E;}
	.st2{fill:none;stroke:#FFFFFF;stroke-width:0.7599;}
	.st3{fill:#FFFFFF;}
</style>
<g>
	<path class="st0" d="M50.8,87.7c6.5-3,16.9-8.8,16.9-17c0-3.5-3.1-6.6-6-8.1c-4.2-2.3-8.1-5-11.5-8.4c-6.5-5.4-5.1-13.6-0.4-19.5
		c2.2-2.4,4.6-4.1,5.8-4.8c8.1-4.8,17.3-8.3,26.4-10.5c4.2-1,8.5-2,12.7-3c0.2,0,0.3,0,0.5,0c-9.7-6.5-21.4-10.2-34-10.2
		C27.4,6.1,0,33.4,0,67.2c0,12.4,3.7,23.9,10,33.5C23.7,97,37.9,93.8,50.8,87.7"/>
	<path class="st0" d="M100.4,20.1c-8.9,2.9-32.2,8.3-29.8,20.7c1.2,6.2,9.3,7.8,14.2,10.2c7.5,3.6,10.6,9.3,10.6,17.3
		c0-0.1,0-0.1,0-0.2c0,0.1,0,0.1,0,0.2c0,0,0,0,0-0.1c-1.8,18.9-26.7,24-41.6,27.9c-13.1,3.4-26.4,7.1-39.6,10.2
		c11.2,13.4,28.1,21.9,47,21.9c33.9,0,61.3-27.4,61.3-61.1C122.6,48.3,114,31.3,100.4,20.1"/>
	<path class="st1" d="M29.4,65.7c0.9-3,5.2-7,7.6-8.9c2.4-1.8,5.1-3.1,8.2-2.5c0.3,0.1,3.5,1.3,2.6,2c-0.8,0.7-2,1.1-3,1.7
		c-3.8,2.4-6.4,6.4-7.2,10.7c-0.4,2.4-0.8,4.2-3.9,2.6C31.9,70.3,28.7,68.3,29.4,65.7"/>
	<path class="st2" d="M29.4,65.7c0.9-3,5.2-7,7.6-8.9c2.4-1.8,5.1-3.1,8.2-2.5c0.3,0.1,3.5,1.3,2.6,2c-0.8,0.7-2,1.1-3,1.7
		c-3.8,2.4-6.4,6.4-7.2,10.7c-0.4,2.4-0.8,4.2-3.9,2.6C31.9,70.3,28.7,68.3,29.4,65.7"/>
	<path class="st1" d="M49.2,60.7c-1.7,1.5-6.7,4.9-5.9,7.6c1,3.3,7.2,2.3,9.4,1.3c1.2-0.5,3-1.4,3.5-2.8c0.9-2.7-1.5-2.3-3.4-1.9
		c-1.1,0.3-3.7,1.3-4.7,0.3C46.9,64.1,48.7,61.8,49.2,60.7"/>
	<path class="st2" d="M49.2,60.7c-1.7,1.5-6.7,4.9-5.9,7.6c1,3.3,7.2,2.3,9.4,1.3c1.2-0.5,3-1.4,3.5-2.8c0.9-2.7-1.5-2.3-3.4-1.9
		c-1.1,0.3-3.7,1.3-4.7,0.3C46.9,64.1,48.7,61.8,49.2,60.7"/>
	<path class="st1" d="M30.9,75c3.6-1.9,14.4-3.3,17.6-0.1c4.1,4.1-2.9,11.8-5.8,14.6c-1.8,1.7-5.1-1-3.2-2.6
		c2.1-1.8,4.6-3.1,5.5-5.9C47.4,73.6,34.4,76.5,30.9,75"/>
	<path class="st2" d="M30.9,75c3.6-1.9,14.4-3.3,17.6-0.1c4.1,4.1-2.9,11.8-5.8,14.6c-1.8,1.7-5.1-1-3.2-2.6
		c2.1-1.8,4.6-3.1,5.5-5.9C47.4,73.6,34.4,76.5,30.9,75"/>
	<path class="st1" d="M51.6,58.8c3.6,2.9,9.3-1.8,8.8-6c-0.3-2.3-1.6-4.2-4.2-3.7c-0.7,0.1-1.4,1.1-2.2,0.9c-1-0.2,0.9-1.4,1.1-1.5
		c5-2.3,8.4,3.9,6.6,8.1c-1.7,3.9-8.4,6.3-10.9,1.7C51.1,58.5,51.3,58.6,51.6,58.8"/>
	<path class="st2" d="M51.6,58.8c3.6,2.9,9.3-1.8,8.8-6c-0.3-2.3-1.6-4.2-4.2-3.7c-0.7,0.1-1.4,1.1-2.2,0.9c-1-0.2,0.9-1.4,1.1-1.5
		c5-2.3,8.4,3.9,6.6,8.1c-1.7,3.9-8.4,6.3-10.9,1.7C51.1,58.5,51.3,58.6,51.6,58.8"/>
	<path class="st1" d="M31.8,94.2c-1.8,1.4-3.5,2.9-5.6,3.9c-2.4,1.2-4.3,0.7-6.4-0.7c-1.6-1-2.4-4.2-2.2-5.9
		c0.3-2.4,0.7-4.4,2.1-6.4c1.4-2,2.9-3.6,4.9-5c2-1.3,4.2-1.4,6.6-1.2c0.8,0.1,1.7-1.4,1-2c-0.9-0.9-1.7-1.1-3-1
		c-2.5,0.2-4.4,0.7-6.4,2.2c-2.6,1.9-4.7,4.5-6,7.5c-1.1,2.7-1.8,6.9-0.5,9.7c1.5,3.4,3.9,5.3,7.7,4.8C27.4,99.6,30,96.7,31.8,94.2"
		/>
	<path class="st2" d="M31.8,94.2c-1.8,1.4-3.5,2.9-5.6,3.9c-2.4,1.2-4.3,0.7-6.4-0.7c-1.6-1-2.4-4.2-2.2-5.9
		c0.3-2.4,0.7-4.4,2.1-6.4c1.4-2,2.9-3.6,4.9-5c2-1.3,4.2-1.4,6.6-1.2c0.8,0.1,1.7-1.4,1-2c-0.9-0.9-1.7-1.1-3-1
		c-2.5,0.2-4.4,0.7-6.4,2.2c-2.6,1.9-4.7,4.5-6,7.5c-1.1,2.7-1.8,6.9-0.5,9.7c1.5,3.4,3.9,5.3,7.7,4.8C27.4,99.6,30,96.7,31.8,94.2"
		/>
	<path class="st1" d="M64.4,70.1c-2.3-0.8-5.1-0.3-7.4,0.9c-0.5-1.7-1.7-2.4-3.4,0c0.6,0.4,1,0.8,1.3,1.3c-0.9,0.6-1.6,1.4-2.2,2.1
		c-2.8,3.5-4.9,8.8-2,12.9c3.3,4.6,9.2,1.5,12.2-1.7c-4,2.2-8.6,4.9-11.6-0.1c-2.2-3.5,1.2-9.6,4.4-11.5c0.4,1.9,0.1,4,0.2,6
		c1.2-1.2,1.7-4.4,1.5-6.9c1.5-0.7,3.1-1.3,4.8-1.1c0.7,0.1,2.4,0.9,3.1,0.5C66.4,71.7,65.2,70.4,64.4,70.1"/>
	<path class="st2" d="M64.4,70.1c-2.3-0.8-5.1-0.3-7.4,0.9c-0.5-1.7-1.7-2.4-3.4,0c0.6,0.4,1,0.8,1.3,1.3c-0.9,0.6-1.6,1.4-2.2,2.1
		c-2.8,3.5-4.9,8.8-2,12.9c3.3,4.6,9.2,1.5,12.2-1.7c-4,2.2-8.6,4.9-11.6-0.1c-2.2-3.5,1.2-9.6,4.4-11.5c0.4,1.9,0.1,4,0.2,6
		c1.2-1.2,1.7-4.4,1.5-6.9c1.5-0.7,3.1-1.3,4.8-1.1c0.7,0.1,2.4,0.9,3.1,0.5C66.4,71.7,65.2,70.4,64.4,70.1z"/>
	<g>
		<path class="st0" d="M242.1,44.2l-1.8-24.9l3.6-1l0.4,5.1c0.7-2.2,1.5-3.8,2.4-5c0.9-1.2,2-2,3.2-2.3c0.8-0.2,1.9-0.2,3.2,0
			l-0.6,4.2c-0.8-0.3-1.7-0.3-2.5-0.1c-1.4,0.4-2.6,1.6-3.7,3.6c-1,2-1.4,5.1-1.1,9.4l0.8,10L242.1,44.2z"/>
	</g>
	<g>
		<path class="st0" d="M234.9,36.9l4-0.7c0,2.1-0.8,4.3-2.3,6.6c-1.5,2.3-3.7,3.9-6.5,4.7c-1.7,0.5-3.5,0.6-5.1,0.2
			c-1.7-0.4-3.1-1.2-4.3-2.5c-1.2-1.3-2.1-2.9-2.6-4.9c-0.7-2.6-0.8-5.2-0.3-7.9c0.5-2.7,1.5-5,3.1-6.7c1.6-1.7,3.4-2.9,5.6-3.5
			c2.8-0.8,5.3-0.6,7.5,0.7c2.2,1.3,3.7,3.4,4.5,6.4c0.3,1.1,0.6,2.3,0.7,3.6l-17.4,5c0.1,0.5,0.2,0.9,0.3,1.2
			c0.6,2.2,1.6,3.7,3,4.6c1.3,0.9,2.8,1.1,4.2,0.7c1.4-0.4,2.6-1.2,3.7-2.5C234,40.3,234.7,38.7,234.9,36.9z M221.5,34.3l13.3-3.8
			c-0.1-0.4-0.2-0.7-0.2-0.9c-0.6-2-1.5-3.3-2.8-4.1c-1.3-0.8-2.8-0.9-4.3-0.5c-1.7,0.5-3.1,1.5-4.2,3.1
			C222.1,29.7,221.5,31.8,221.5,34.3z"/>
	</g>
	<g>
		<path class="st0" d="M206.4,53.9l-15.5-30.6l4.2-1.2l9.3,18.3c1.7,3.3,3,6,3.8,8.1c0.6-3.1,1.1-5.6,1.5-7.5l5.5-24.6l4.5-1.3
			l-8.5,37.5L206.4,53.9z"/>
	</g>
	<g>
		<path class="st0" d="M184.1,56c-1,1.6-2.1,2.8-3.3,3.7c-1.1,0.9-2.4,1.6-3.9,2c-2.2,0.6-4.1,0.5-5.8-0.4c-1.7-0.9-2.8-2.3-3.4-4.3
			c-0.4-1.3-0.4-2.5-0.1-3.7c0.3-1.2,0.9-2.2,1.7-3.1c0.8-0.9,1.9-1.7,3.2-2.3c0.8-0.4,2.5-1.1,5-1.9c2.5-0.8,4.3-1.6,5.2-2.4
			c0-1.2-0.1-2.1-0.3-2.8c-0.3-0.9-0.8-1.5-1.6-1.9c-1.1-0.5-2.6-0.4-4.4,0.1c-1.7,0.5-3,1.3-3.9,2.3c-0.9,1-1.4,2.3-1.5,3.8
			l-4.1,0.8c0.2-2.6,1-4.7,2.4-6.4c1.4-1.7,3.5-3,6.3-3.8c2.9-0.8,5.4-0.8,7.5,0.1c1.6,0.7,2.6,1.8,3.1,3.5c0.4,1.3,0.6,2.8,0.7,4.5
			l0.4,6.2c0.1,2,0.3,3.5,0.7,4.7c0.2,0.7,0.7,1.7,1.4,3l-4,1.2C185,58.1,184.5,57.1,184.1,56z M183.1,46.6c-0.5,0.4-1.1,0.7-1.7,1
			c-0.6,0.3-1.7,0.7-3.1,1.3c-2.3,0.9-3.9,1.6-4.8,2.2c-0.9,0.6-1.5,1.3-1.8,2.1c-0.3,0.8-0.3,1.7-0.1,2.5c0.3,1.1,1,1.9,2,2.4
			c1,0.5,2.2,0.5,3.6,0.1c1.3-0.4,2.5-1.1,3.5-2.1c1-1,1.7-2.3,2.1-3.7C183.2,50.9,183.3,49,183.1,46.6z"/>
	</g>
	<g>
		<path class="st0" d="M166.8,60.5l0.3,3.5c-0.9,0.5-1.8,0.9-2.7,1.2c-1.6,0.5-3,0.4-4.1-0.1c-0.9-0.4-1.5-1.1-1.7-2.1
			c-0.1-0.5-0.3-1.8-0.4-3.7l-1-14.5l-3.2,0.9l-0.2-3.3l3.2-0.9l-0.4-6.1l3.8-4.1l0.7,9l4-1.1l0.2,3.3l-3.9,1.1l1,13.8
			c0.1,1.7,0.2,2.8,0.3,3.1c0.1,0.5,0.4,0.8,0.7,1c0.3,0.2,0.8,0.2,1.4,0C165.4,61.2,166.1,60.9,166.8,60.5z"/>
	</g>
	<g>
		<path class="st0" d="M154.1,64l0.3,3.5c-0.9,0.5-1.8,0.9-2.7,1.2c-1.6,0.5-3,0.4-4.1-0.1c-0.9-0.4-1.5-1.1-1.7-2.1
			c-0.1-0.5-0.3-1.8-0.4-3.7l-1-14.5l-3.2,0.9l-0.2-3.3l3.2-0.9l-0.4-6.1l3.8-4.1l0.7,9l4-1.1l0.2,3.3l-3.9,1.1l1,13.8
			c0.1,1.7,0.2,2.8,0.3,3.1c0.1,0.5,0.4,0.8,0.7,1c0.3,0.2,0.8,0.2,1.4,0C152.7,64.6,153.4,64.3,154.1,64z"/>
	</g>
	<g>
		<g>
			<path class="st0" d="M138.2,62.9l4-0.7c0,2.1-0.8,4.3-2.3,6.6c-1.5,2.3-3.7,3.9-6.5,4.7c-1.7,0.5-3.5,0.6-5.1,0.2
				c-1.7-0.4-3.1-1.2-4.3-2.5c-1.2-1.3-2.1-2.9-2.6-4.9c-0.7-2.6-0.8-5.2-0.3-7.9c0.5-2.7,1.5-5,3.1-6.7c1.6-1.7,3.4-2.9,5.6-3.5
				c2.8-0.8,5.3-0.6,7.5,0.7c2.2,1.3,3.7,3.4,4.5,6.4c0.3,1.1,0.6,2.3,0.7,3.6l-17.4,5c0.1,0.5,0.2,0.9,0.3,1.3
				c0.6,2.2,1.6,3.7,3,4.6c1.3,0.9,2.8,1.1,4.2,0.7c1.4-0.4,2.6-1.2,3.7-2.5C137.3,66.3,137.9,64.8,138.2,62.9z M124.8,60.3
				l13.3-3.8c-0.1-0.4-0.2-0.7-0.2-0.9c-0.6-2-1.5-3.3-2.8-4.1c-1.3-0.8-2.8-0.9-4.3-0.5c-1.7,0.5-3.1,1.5-4.2,3.1
				C125.4,55.7,124.8,57.8,124.8,60.3z"/>
		</g>
	</g>
	<g>
		<path class="st3" d="M115.1,74.3c-1,1.6-2.1,2.9-3.2,3.8s-2.4,1.6-3.8,2.1c-2.2,0.7-4.1,0.6-5.8-0.3c-1.7-0.9-2.9-2.3-3.5-4.2
			c-0.4-1.3-0.5-2.5-0.2-3.7c0.3-1.2,0.8-2.2,1.6-3.1c0.8-0.9,1.9-1.7,3.2-2.4c0.8-0.4,2.5-1.1,5-2c2.5-0.9,4.2-1.7,5.2-2.5
			c0-1.2-0.1-2.1-0.4-2.8c-0.3-0.9-0.8-1.5-1.7-1.8c-1.2-0.4-2.6-0.4-4.4,0.2c-1.7,0.5-3,1.3-3.8,2.4c-0.8,1.1-1.3,2.3-1.4,3.9
			l-4.1,0.9c0.1-2.6,0.9-4.7,2.3-6.5c1.4-1.8,3.5-3.1,6.2-3.9c2.9-0.9,5.4-0.9,7.5-0.1c1.6,0.6,2.7,1.8,3.2,3.4
			c0.4,1.2,0.6,2.7,0.8,4.5l0.5,6.2c0.2,2,0.4,3.5,0.8,4.7c0.2,0.7,0.7,1.7,1.5,3l-4,1.2C116,76.4,115.5,75.5,115.1,74.3z
			 M113.8,64.9c-0.5,0.4-1.1,0.7-1.7,1.1c-0.6,0.3-1.6,0.8-3.1,1.4c-2.3,0.9-3.8,1.7-4.7,2.3c-0.9,0.6-1.4,1.3-1.7,2.2
			c-0.3,0.8-0.3,1.7,0,2.5c0.3,1.1,1,1.9,2,2.4c1,0.5,2.2,0.5,3.6,0c1.3-0.4,2.5-1.1,3.5-2.2c1-1.1,1.7-2.3,2-3.8
			C114.1,69.3,114.1,67.4,113.8,64.9z"/>
	</g>
	<g>
		<path class="st0" d="M295.9,20.5l4-0.8c0,2.1-0.7,4.3-2.2,6.6c-1.5,2.3-3.6,3.9-6.4,4.8c-1.7,0.5-3.4,0.6-5.1,0.3
			c-1.7-0.3-3.1-1.2-4.4-2.5c-1.2-1.3-2.1-2.9-2.7-4.8c-0.8-2.5-1-5.2-0.5-7.9c0.4-2.8,1.4-5,2.9-6.7c1.5-1.7,3.4-2.9,5.6-3.6
			c2.8-0.9,5.3-0.7,7.5,0.5c2.2,1.2,3.8,3.3,4.7,6.3c0.3,1.1,0.6,2.3,0.8,3.6l-17.3,5.3c0.1,0.5,0.2,0.9,0.3,1.2
			c0.7,2.2,1.7,3.7,3,4.5c1.4,0.8,2.8,1,4.2,0.6c1.4-0.4,2.6-1.3,3.6-2.6C295,24,295.6,22.4,295.9,20.5z M282.4,18.3l13.2-4.1
			c-0.1-0.4-0.2-0.7-0.2-0.9c-0.6-2-1.6-3.3-2.9-4.1c-1.3-0.7-2.8-0.9-4.4-0.4c-1.7,0.5-3.1,1.6-4.1,3.2
			C282.9,13.7,282.4,15.7,282.4,18.3z"/>
	</g>
	<g>
		<path class="st0" d="M271.8,31.8c-1.5,3.3-3.4,5.3-5.9,6.1c-2.2,0.7-4.3,0.4-6.3-0.7c-2-1.2-3.4-3.3-4.4-6.4
			c-0.9-2.8-1.1-5.6-0.6-8.3c0.4-2.7,1.4-4.9,2.7-6.6c1.4-1.7,3-2.8,4.7-3.4c2.9-0.9,5.5-0.2,7.8,2.1l-1.2-13.4l4-1.2l3.2,34.3
			l-3.7,1.1L271.8,31.8z M258.9,28.8c0.5,1.6,1.1,2.8,1.7,3.7c0.6,0.8,1.4,1.4,2.4,1.8c1,0.4,2,0.4,3.1,0.1c1.8-0.6,3.2-2,4.1-4.3
			c1.2-3.1,1.3-6.4,0.1-10.1c-0.6-1.8-1.5-3.1-2.8-3.9c-1.3-0.7-2.7-0.9-4.2-0.4c-1,0.3-1.8,0.8-2.4,1.4c-0.7,0.7-1.2,1.6-1.7,2.9
			c-0.5,1.3-0.7,2.7-0.8,4.5C258.3,26.2,258.5,27.6,258.9,28.8z"/>
	</g>
</g>
</svg>
