<?xml version="1.0" encoding="UTF-8"?>
<svg xmlns="http://www.w3.org/2000/svg" xmlns:xlink="http://www.w3.org/1999/xlink" width="541.42" height="60.94" viewBox="0 0 541.42 60.94">
<path fill-rule="nonzero" fill="rgb(0%, 0%, 0%)" fill-opacity="1" d="M 283.5625 42.410156 C 288.503906 42.410156 290.945312 40.679688 290.945312 37.117188 C 290.945312 33.367188 288.5625 31.699219 283.148438 31.699219 L 274.828125 31.699219 L 274.828125 42.410156 Z M 283.207031 25.335938 C 287.433594 25.335938 289.875 23.671875 289.875 20.871094 C 289.875 17.664062 287.671875 16.171875 283.089844 16.171875 L 274.828125 16.171875 L 274.828125 25.335938 Z M 284.402344 9.453125 C 293.082031 9.453125 298.019531 13.144531 298.019531 19.566406 C 298.019531 23.078125 296.355469 25.691406 292.488281 27.71875 C 297.425781 29.558594 299.511719 32.65625 299.511719 37.769531 C 299.511719 44.726562 294.039062 49.128906 285.355469 49.128906 L 266.496094 49.128906 L 266.496094 9.453125 Z M 244.421875 42.410156 C 249.359375 42.410156 251.804688 40.679688 251.804688 37.117188 C 251.804688 33.367188 249.421875 31.699219 244.007812 31.699219 L 235.863281 31.699219 L 235.863281 42.410156 Z M 244.066406 25.335938 C 248.292969 25.335938 250.734375 23.671875 250.734375 20.871094 C 250.734375 17.664062 248.527344 16.171875 243.949219 16.171875 L 235.863281 16.171875 L 235.863281 25.335938 Z M 245.261719 9.453125 C 253.941406 9.453125 258.878906 13.144531 258.878906 19.566406 C 258.878906 23.078125 257.214844 25.691406 253.347656 27.71875 C 258.285156 29.558594 260.371094 32.65625 260.371094 37.769531 C 260.371094 44.726562 254.894531 49.128906 246.214844 49.128906 L 227.53125 49.128906 L 227.53125 9.453125 Z M 212.066406 21.230469 C 211.59375 17.183594 209.210938 15.34375 204.390625 15.34375 C 200.285156 15.34375 197.730469 17.125 197.730469 19.980469 C 197.730469 22.367188 199.335938 23.789062 202.609375 24.386719 L 209.742188 25.632812 C 217.363281 26.9375 221.46875 30.984375 221.46875 37.175781 C 221.46875 44.964844 215.15625 49.960938 205.164062 49.960938 C 194.578125 49.960938 188.511719 44.847656 188.332031 35.863281 L 196.78125 35.863281 C 197.316406 41.039062 199.871094 43.242188 205.519531 43.242188 C 209.863281 43.242188 212.960938 40.976562 212.960938 37.832031 C 212.960938 35.328125 211.296875 33.785156 208.082031 33.191406 L 201.601562 32.003906 C 193.328125 30.449219 189.519531 26.878906 189.519531 20.515625 C 189.519531 13.261719 195.347656 8.621094 204.867188 8.621094 C 214.207031 8.621094 219.976562 13.324219 220.210938 21.230469 L 212.066406 21.230469 "/>
<path fill-rule="nonzero" fill="rgb(0%, 0%, 0%)" fill-opacity="1" d="M 400.699219 16.589844 L 400.699219 25.929688 L 418.53125 25.929688 L 418.53125 32.832031 L 400.699219 32.832031 L 400.699219 49.128906 L 392.367188 49.128906 L 392.367188 9.453125 L 420.269531 9.453125 L 420.269531 16.589844 Z M 365.832031 16.589844 L 365.832031 25.929688 L 383.445312 25.929688 L 383.445312 32.832031 L 365.832031 32.832031 L 365.832031 49.128906 L 357.503906 49.128906 L 357.503906 9.453125 L 385.164062 9.453125 L 385.164062 16.589844 Z M 351.675781 35.148438 C 351.082031 44.253906 344.421875 49.960938 334.429688 49.960938 C 323.238281 49.960938 315.867188 41.816406 315.867188 29.382812 C 315.867188 17.003906 323.425781 8.621094 334.605469 8.621094 C 344.183594 8.621094 350.605469 13.917969 351.316406 22.304688 L 343.054688 22.304688 C 342.097656 17.785156 339.304688 15.578125 334.664062 15.578125 C 328.363281 15.578125 324.257812 20.933594 324.257812 29.320312 C 324.257812 37.59375 328.304688 43.066406 334.488281 43.066406 C 339.601562 43.066406 342.453125 40.5625 343.351562 35.148438 L 351.675781 35.148438 "/>
<path fill-rule="nonzero" fill="rgb(0%, 0%, 0%)" fill-opacity="1" d="M 530.785156 21.230469 C 530.3125 17.183594 527.9375 15.34375 523.109375 15.34375 C 519.011719 15.34375 516.457031 17.125 516.457031 19.980469 C 516.457031 22.367188 518.0625 23.789062 521.328125 24.386719 L 528.472656 25.632812 C 536.089844 26.9375 540.1875 30.984375 540.1875 37.175781 C 540.1875 44.964844 533.875 49.960938 523.882812 49.960938 C 513.296875 49.960938 507.238281 44.847656 507.058594 35.863281 L 515.492188 35.863281 C 516.027344 41.039062 518.597656 43.242188 524.238281 43.242188 C 528.589844 43.242188 531.679688 40.976562 531.679688 37.832031 C 531.679688 35.328125 530.015625 33.785156 526.808594 33.191406 L 520.320312 32.003906 C 512.046875 30.449219 508.246094 26.878906 508.246094 20.515625 C 508.246094 13.261719 514.066406 8.621094 523.585938 8.621094 C 532.925781 8.621094 538.703125 13.324219 538.9375 21.230469 Z M 482.78125 16.589844 L 482.78125 25.929688 L 500.511719 25.929688 L 500.511719 32.832031 L 482.78125 32.832031 L 482.78125 49.128906 L 474.449219 49.128906 L 474.449219 9.453125 L 502.234375 9.453125 L 502.234375 16.589844 Z M 447.5 16.589844 L 447.5 25.929688 L 465.347656 25.929688 L 465.347656 32.832031 L 447.5 32.832031 L 447.5 49.128906 L 439.1875 49.128906 L 439.1875 9.453125 L 467.070312 9.453125 L 467.070312 16.589844 L 447.5 16.589844 "/>
<path fill-rule="nonzero" fill="rgb(92.1875%, 0%, 0%)" fill-opacity="1" d="M 170.007812 -0.00390625 L 170.007812 56.6875 L 0 56.6875 L 0 -0.00390625 L 170.007812 -0.00390625 "/>
<path fill-rule="nonzero" fill="rgb(100%, 100%, 100%)" fill-opacity="1" d="M 103.859375 47.234375 L 114.863281 47.234375 L 100.054688 32.71875 L 118.433594 32.71875 L 118.433594 47.234375 L 127.121094 47.234375 L 127.121094 32.71875 L 145.503906 32.71875 L 130.6875 47.234375 L 141.695312 47.234375 L 160.550781 28.375 L 141.695312 9.457031 L 130.6875 9.457031 L 145.503906 24.03125 L 127.121094 24.03125 L 127.121094 9.457031 L 118.433594 9.457031 L 118.433594 24.03125 L 100.054688 24.03125 L 114.863281 9.457031 L 103.859375 9.457031 L 85.003906 28.375 L 103.859375 47.234375 "/>
</svg>
