<?xml version="1.0" encoding="UTF-8"?>
<svg xmlns="http://www.w3.org/2000/svg" xmlns:xlink="http://www.w3.org/1999/xlink" width="164.77" height="121.05" viewBox="0 0 164.77 121.05">
<path fill-rule="nonzero" fill="rgb(13.729858%, 12.159729%, 12.548828%)" fill-opacity="1" d="M 8.578125 24.917969 C 8.175781 25.160156 7.769531 25.644531 7.6875 26.132812 C 7.605469 26.742188 7.847656 27.269531 8.296875 27.628906 C 9.628906 28.601562 10.96875 29.574219 12.300781 30.546875 L 12.300781 31.152344 L 11.976562 30.949219 L 7.445312 27.875 C 6.875 27.429688 6.230469 26.859375 6.394531 26.046875 C 6.472656 25.644531 6.757812 25.28125 7.160156 25.117188 C 7.5625 24.917969 8.09375 24.839844 8.578125 24.917969 "/>
<path fill-rule="nonzero" fill="rgb(13.729858%, 12.159729%, 12.548828%)" fill-opacity="1" d="M 37.742188 0.00390625 L 37.742188 10.421875 L 33.175781 10.421875 L 33.175781 0.00390625 L 25.164062 0.00390625 L 25.164062 10.421875 L 20.605469 10.421875 L 20.605469 0.00390625 L 12.59375 0.00390625 L 12.59375 10.421875 L 8.027344 10.421875 L 8.027344 0.00390625 L 0.015625 0.00390625 L 0.015625 12.035156 L 1.742188 12.035156 L 1.742188 1.621094 L 6.300781 1.621094 L 6.300781 12.035156 L 14.316406 12.035156 L 14.316406 1.621094 L 18.878906 1.621094 L 18.878906 12.035156 L 26.886719 12.035156 L 26.886719 1.621094 L 31.449219 1.621094 L 31.449219 12.035156 L 39.464844 12.035156 L 39.464844 1.621094 L 44.027344 1.621094 L 44.027344 12.035156 L 45.753906 12.035156 L 45.753906 0.00390625 L 37.742188 0.00390625 "/>
<path fill-rule="nonzero" fill="rgb(13.729858%, 12.159729%, 12.548828%)" fill-opacity="1" d="M 16.574219 38.601562 C 16.371094 37.871094 15.964844 37.148438 15.359375 36.65625 C 13.660156 37.066406 11.917969 37.46875 10.21875 37.914062 C 9.972656 37.996094 9.773438 38.113281 9.53125 38.195312 C 10.175781 36.898438 10.09375 34.960938 9.167969 33.824219 L 5.441406 36.980469 C 6.410156 38.320312 7.34375 39.695312 8.3125 41.027344 C 8.597656 41.355469 9.003906 41.472656 9.363281 41.636719 L 15.113281 42.570312 L 16.652344 42.8125 L 16.652344 39.453125 L 16.574219 38.601562 "/>
<path fill-rule="nonzero" fill="rgb(13.729858%, 12.159729%, 12.548828%)" fill-opacity="1" d="M 7.6875 32.464844 C 7.496094 32.378906 7.0625 32.164062 7.0625 32.164062 C 7.417969 32.71875 7.777344 33.238281 8.132812 33.714844 L 8.675781 33.257812 C 8.4375 32.890625 7.839844 32.542969 7.6875 32.464844 "/>
<path fill-rule="nonzero" fill="rgb(13.729858%, 12.159729%, 12.548828%)" fill-opacity="1" d="M 6.253906 32.890625 C 6.570312 33.40625 6.964844 33.890625 7.324219 34.402344 L 7.933594 33.886719 C 7.527344 33.296875 6.8125 33.214844 6.253906 32.890625 "/>
<path fill-rule="nonzero" fill="rgb(13.729858%, 12.159729%, 12.548828%)" fill-opacity="1" d="M 7.140625 34.550781 C 6.738281 33.90625 6.050781 33.824219 5.480469 33.539062 C 5.796875 34.058594 6.160156 34.574219 6.554688 35.050781 L 7.136719 34.5625 C 7.136719 34.558594 7.140625 34.554688 7.140625 34.550781 "/>
<path fill-rule="nonzero" fill="rgb(13.729858%, 12.159729%, 12.548828%)" fill-opacity="1" d="M 4.671875 34.183594 C 4.992188 34.707031 5.386719 35.222656 5.742188 35.734375 L 6.355469 35.222656 C 5.910156 34.628906 5.234375 34.464844 4.671875 34.183594 "/>
<path fill-rule="nonzero" fill="rgb(13.729858%, 12.159729%, 12.548828%)" fill-opacity="1" d="M 3.941406 34.871094 L 4.976562 36.386719 L 5.589844 35.867188 C 5.183594 35.316406 4.542969 35.078125 3.941406 34.871094 "/>
<path fill-rule="nonzero" fill="rgb(13.729858%, 12.159729%, 12.548828%)" fill-opacity="1" d="M 21.769531 51.113281 L 23.613281 51.386719 L 23.644531 50.644531 C 22.945312 50.558594 22.355469 50.957031 21.769531 51.113281 "/>
<path fill-rule="nonzero" fill="rgb(13.729858%, 12.159729%, 12.548828%)" fill-opacity="1" d="M 23.308594 51.636719 C 22.699219 51.636719 22.296875 52.042969 21.769531 52.207031 C 22.316406 52.28125 22.941406 52.398438 23.566406 52.445312 L 23.601562 51.636719 L 23.308594 51.636719 "/>
<path fill-rule="nonzero" fill="rgb(13.729858%, 12.159729%, 12.548828%)" fill-opacity="1" d="M 22.375 52.894531 L 21.691406 53.21875 L 23.523438 53.453125 L 23.558594 52.683594 C 23.136719 52.65625 22.71875 52.703125 22.375 52.894531 "/>
<path fill-rule="nonzero" fill="rgb(13.729858%, 12.159729%, 12.548828%)" fill-opacity="1" d="M 21.609375 54.226562 L 23.484375 54.46875 L 23.515625 53.703125 C 22.804688 53.59375 22.246094 53.988281 21.609375 54.226562 "/>
<path fill-rule="nonzero" fill="rgb(13.729858%, 12.159729%, 12.548828%)" fill-opacity="1" d="M 21.609375 55.199219 C 22.195312 55.320312 22.816406 55.394531 23.445312 55.476562 L 23.472656 54.710938 C 22.761719 54.605469 22.207031 54.960938 21.609375 55.199219 "/>
<path fill-rule="nonzero" fill="rgb(13.729858%, 12.159729%, 12.548828%)" fill-opacity="1" d="M 11.691406 44.714844 C 12.308594 44.789062 12.929688 44.867188 13.546875 44.949219 L 13.570312 44.222656 C 12.871094 44.132812 12.28125 44.519531 11.691406 44.714844 "/>
<path fill-rule="nonzero" fill="rgb(13.729858%, 12.159729%, 12.548828%)" fill-opacity="1" d="M 11.652344 45.769531 L 13.511719 46.007812 L 13.535156 45.234375 C 12.832031 45.144531 12.242188 45.53125 11.652344 45.769531 "/>
<path fill-rule="nonzero" fill="rgb(13.729858%, 12.159729%, 12.548828%)" fill-opacity="1" d="M 13.148438 46.253906 C 12.582031 46.292969 12.136719 46.574219 11.609375 46.78125 C 12.246094 46.898438 12.878906 46.980469 13.472656 47.023438 L 13.5 46.253906 L 13.148438 46.253906 "/>
<path fill-rule="nonzero" fill="rgb(13.729858%, 12.159729%, 12.548828%)" fill-opacity="1" d="M 13.109375 47.261719 C 12.503906 47.261719 12.09375 47.671875 11.570312 47.792969 L 13.230469 48.035156 L 13.433594 48.070312 L 13.464844 47.261719 L 13.109375 47.261719 "/>
<path fill-rule="nonzero" fill="rgb(13.729858%, 12.159729%, 12.548828%)" fill-opacity="1" d="M 11.570312 48.804688 L 13.402344 49.042969 L 13.425781 48.3125 C 12.71875 48.171875 12.125 48.523438 11.570312 48.804688 "/>
<path fill-rule="nonzero" fill="rgb(13.729858%, 12.159729%, 12.548828%)" fill-opacity="1" d="M 30.453125 60.980469 L 31.617188 59.503906 L 31 59.097656 C 30.539062 59.585938 30.609375 60.34375 30.453125 60.980469 "/>
<path fill-rule="nonzero" fill="rgb(13.729858%, 12.159729%, 12.548828%)" fill-opacity="1" d="M 31.382812 61.542969 C 31.742188 61.070312 32.175781 60.550781 32.496094 60.070312 L 31.835938 59.644531 C 31.394531 60.132812 31.539062 60.914062 31.382812 61.542969 "/>
<path fill-rule="nonzero" fill="rgb(13.729858%, 12.159729%, 12.548828%)" fill-opacity="1" d="M 32.230469 62.074219 C 32.585938 61.632812 33.027344 61.121094 33.382812 60.644531 L 32.699219 60.199219 C 32.277344 60.71875 32.351562 61.433594 32.230469 62.074219 "/>
<path fill-rule="nonzero" fill="rgb(13.729858%, 12.159729%, 12.548828%)" fill-opacity="1" d="M 33.042969 62.679688 C 33.4375 62.167969 33.867188 61.695312 34.222656 61.1875 L 33.554688 60.753906 C 33.125 61.277344 33.199219 62 33.042969 62.679688 "/>
<path fill-rule="nonzero" fill="rgb(13.729858%, 12.159729%, 12.548828%)" fill-opacity="1" d="M 33.933594 63.167969 L 35.078125 61.738281 L 34.441406 61.324219 C 34.011719 61.8125 33.933594 62.527344 33.933594 63.167969 "/>
<path fill-rule="nonzero" fill="rgb(13.729858%, 12.159729%, 12.548828%)" fill-opacity="1" d="M 15.34375 29.53125 C 14.980469 29.53125 14.683594 29.234375 14.683594 28.867188 C 14.683594 28.503906 14.980469 28.207031 15.34375 28.207031 C 15.710938 28.207031 16.007812 28.503906 16.007812 28.867188 C 16.007812 29.234375 15.710938 29.53125 15.34375 29.53125 M 37.734375 46.332031 L 37.859375 46.414062 C 38.421875 46.574219 38.988281 46.699219 39.554688 46.734375 L 39.476562 46.574219 L 39.191406 44.308594 C 39.109375 43.011719 37.898438 42.160156 36.925781 41.472656 L 25.226562 33.535156 C 24.949219 33.375 24.699219 33.175781 24.382812 33.132812 C 24.582031 32.972656 24.699219 32.730469 24.699219 32.488281 C 24.699219 32.121094 24.460938 31.792969 24.140625 31.632812 L 20.738281 29.8125 C 20.457031 29.652344 20.132812 29.613281 19.808594 29.570312 L 20.050781 29.40625 C 20.253906 29.246094 20.339844 29.046875 20.394531 28.792969 C 20.46875 28.347656 20.414062 27.953125 20.132812 27.585938 C 19.851562 27.265625 19.558594 27.035156 18.898438 27.109375 C 18.511719 27.164062 18.171875 27.394531 17.988281 27.953125 C 17.90625 28.195312 17.945312 28.515625 17.988281 28.71875 C 17.867188 28.558594 17.867188 28.355469 17.703125 28.234375 C 16.894531 27.789062 16.125 27.34375 15.355469 26.980469 C 15.152344 26.855469 14.910156 26.816406 14.746094 26.9375 C 14.546875 27.058594 14.503906 27.300781 14.421875 27.503906 L 14.304688 27.339844 C 12.683594 26.410156 11.027344 25.523438 9.40625 24.632812 C 9.527344 24.792969 9.6875 24.953125 9.730469 25.195312 L 9.769531 27.542969 C 10.742188 28.273438 11.792969 28.882812 12.761719 29.652344 C 12.96875 29.769531 13.089844 29.972656 13.171875 30.214844 C 13.289062 30.582031 13.207031 31.027344 13.011719 31.308594 C 12.761719 31.59375 12.480469 31.835938 12.074219 31.757812 C 11.226562 31.429688 10.496094 30.824219 9.769531 30.214844 C 9.769531 30.742188 9.769531 31.308594 9.808594 31.875 L 16.203125 36.332031 C 16.972656 37.058594 17.378906 37.949219 17.5 38.960938 L 17.496094 44.832031 L 17.496094 45.925781 L 17.703125 46.9375 C 17.214844 46.128906 16.445312 45.277344 15.59375 44.828125 C 15.191406 44.667969 14.785156 44.425781 14.339844 44.386719 C 14.324219 44.945312 14.304688 45.511719 14.277344 46.074219 L 14.179688 48.757812 C 14.179688 48.917969 14.175781 49.082031 14.175781 49.242188 L 18.105469 49.847656 C 18.550781 49.890625 19.117188 50.015625 19.402344 49.648438 L 23.894531 43.617188 L 23.9375 43.617188 C 23.894531 43.78125 23.769531 43.90625 23.769531 44.066406 L 24.660156 44.183594 L 24.941406 44.023438 C 24.660156 44.425781 24.378906 44.832031 24.175781 45.28125 C 23.894531 46.046875 23.972656 47.023438 24.417969 47.710938 L 27.9375 53.414062 L 27.9375 53.496094 L 27.414062 52.765625 C 26.640625 51.714844 25.550781 51.105469 24.417969 50.746094 L 24.300781 53.425781 L 24.21875 55.351562 L 24.203125 55.644531 L 28.667969 56.25 L 29.027344 56.210938 C 29.273438 56.128906 29.433594 55.886719 29.554688 55.644531 L 31.097656 51.917969 C 30.730469 51.351562 30.410156 50.78125 30.125 50.21875 C 29.597656 49.121094 29.359375 47.710938 29.722656 46.453125 L 29.757812 46.253906 L 27.214844 44.753906 L 26.886719 44.511719 L 30.246094 45.117188 C 30.527344 45.199219 30.894531 45.15625 31.097656 44.996094 C 30.730469 45.683594 30.5 46.320312 30.378906 47.167969 C 30.21875 48.75 30.988281 49.964844 31.632812 51.21875 L 34.46875 55.832031 C 34.871094 56.476562 35.507812 56.738281 36.191406 56.980469 L 36.15625 56.980469 C 35.222656 56.695312 34.007812 56.65625 33.078125 57.019531 C 32.394531 57.300781 31.789062 57.863281 31.386719 58.503906 L 35.46875 61.140625 L 37.488281 58.597656 C 38.015625 57.828125 38.828125 57.222656 38.828125 56.210938 L 37.859375 46.816406 C 37.859375 46.617188 37.734375 46.492188 37.734375 46.332031 "/>
<path fill-rule="nonzero" fill="rgb(13.729858%, 12.159729%, 12.548828%)" fill-opacity="1" d="M 36.734375 66.847656 L 1.691406 43.191406 L 1.691406 19.039062 L 10.453125 19.039062 L 44.089844 41.449219 L 44.089844 50.832031 C 44.089844 57.226562 41.226562 62.960938 36.734375 66.847656 M 1.691406 50.832031 L 1.691406 45.191406 L 35.367188 67.929688 C 31.863281 70.496094 27.558594 72.03125 22.890625 72.03125 C 11.203125 72.03125 1.691406 62.519531 1.691406 50.832031 M 44.089844 39.457031 L 13.441406 19.039062 L 44.089844 19.039062 Z M 0 17.347656 L 0 50.832031 C 0 63.453125 10.269531 73.71875 22.890625 73.71875 C 35.511719 73.71875 45.78125 63.453125 45.78125 50.832031 L 45.78125 17.347656 L 0 17.347656 "/>
<path fill-rule="nonzero" fill="rgb(13.729858%, 12.159729%, 12.548828%)" fill-opacity="1" d="M 64.800781 56.898438 C 64.800781 57.5625 64.761719 59.582031 67.363281 59.582031 C 69.007812 59.582031 70.046875 58.796875 70.046875 57.601562 C 70.046875 56.351562 69.164062 56.136719 67.363281 55.707031 C 64 54.863281 62.160156 53.863281 62.160156 51.417969 C 62.160156 49.089844 63.824219 47.035156 67.757812 47.035156 C 69.222656 47.035156 70.964844 47.367188 72.023438 48.699219 C 72.824219 49.714844 72.824219 50.851562 72.824219 51.320312 L 69.910156 51.320312 C 69.867188 50.832031 69.714844 49.167969 67.621094 49.167969 C 66.210938 49.167969 65.289062 49.929688 65.289062 51.085938 C 65.289062 52.398438 66.328125 52.632812 68.363281 53.144531 C 70.808594 53.726562 73.214844 54.394531 73.214844 57.15625 C 73.214844 59.699219 71.101562 61.753906 67.1875 61.753906 C 61.765625 61.753906 61.730469 58.269531 61.710938 56.898438 L 64.800781 56.898438 "/>
<path fill-rule="nonzero" fill="rgb(13.729858%, 12.159729%, 12.548828%)" fill-opacity="1" d="M 81.710938 61.285156 C 80.773438 61.539062 79.925781 61.597656 79.457031 61.597656 C 76.542969 61.597656 76.542969 59.753906 76.542969 58.933594 L 76.542969 53.511719 L 74.644531 53.511719 L 74.644531 51.59375 L 76.542969 51.59375 L 76.542969 49.65625 L 79.421875 48.601562 L 79.421875 51.59375 L 81.769531 51.59375 L 81.769531 53.511719 L 79.421875 53.511719 L 79.421875 57.976562 C 79.4375 58.875 79.4375 59.441406 80.730469 59.441406 C 81.160156 59.441406 81.355469 59.421875 81.710938 59.386719 L 81.710938 61.285156 "/>
<path fill-rule="nonzero" fill="rgb(13.729858%, 12.159729%, 12.548828%)" fill-opacity="1" d="M 86.421875 58.367188 C 86.421875 59.03125 86.871094 59.777344 87.835938 59.777344 C 88.363281 59.777344 88.792969 59.523438 89.066406 59.207031 C 89.574219 58.582031 89.613281 57.820312 89.613281 56.761719 C 87.757812 56.605469 86.421875 57.195312 86.421875 58.367188 M 89.984375 61.417969 C 89.890625 60.8125 89.890625 60.363281 89.890625 60.070312 C 88.792969 61.65625 87.480469 61.65625 86.933594 61.65625 C 85.507812 61.65625 84.859375 61.242188 84.46875 60.871094 C 83.878906 60.285156 83.609375 59.484375 83.609375 58.699219 C 83.609375 57.914062 83.878906 56.46875 85.703125 55.628906 C 86.914062 55.078125 88.65625 55.078125 89.613281 55.078125 C 89.613281 54.433594 89.59375 54.117188 89.476562 53.769531 C 89.222656 53.042969 88.460938 52.949219 88.1875 52.949219 C 87.773438 52.949219 87.34375 53.121094 87.089844 53.496094 C 86.871094 53.828125 86.871094 54.140625 86.871094 54.375 L 84.035156 54.375 C 84.058594 53.847656 84.113281 52.789062 85.152344 52.046875 C 86.054688 51.402344 87.210938 51.242188 88.148438 51.242188 C 88.96875 51.242188 90.691406 51.378906 91.667969 52.515625 C 92.335938 53.316406 92.355469 54.492188 92.355469 54.945312 L 92.371094 58.914062 C 92.371094 59.753906 92.433594 60.597656 92.609375 61.417969 L 89.984375 61.417969 "/>
<path fill-rule="nonzero" fill="rgb(13.729858%, 12.159729%, 12.548828%)" fill-opacity="1" d="M 99.808594 59.738281 C 100.648438 59.738281 101.335938 59.226562 101.648438 58.621094 C 102.082031 57.800781 102.121094 56.78125 102.121094 56.292969 C 102.121094 54.355469 101.277344 53.300781 99.96875 53.300781 C 98.03125 53.300781 97.816406 55.628906 97.816406 56.625 C 97.816406 58.269531 98.359375 59.738281 99.808594 59.738281 M 102.019531 47.289062 L 104.9375 47.289062 L 104.9375 59.816406 C 104.9375 60.402344 104.976562 61.046875 105.015625 61.417969 L 102.082031 61.417969 L 102 59.992188 C 101.808594 60.34375 101.609375 60.714844 101.003906 61.105469 C 100.28125 61.578125 99.519531 61.613281 99.085938 61.613281 C 96.445312 61.613281 94.878906 59.796875 94.878906 56.703125 C 94.878906 53.433594 96.65625 51.402344 99.242188 51.402344 C 101.023438 51.402344 101.769531 52.398438 102.019531 52.753906 L 102.019531 47.289062 "/>
<path fill-rule="nonzero" fill="rgb(13.729858%, 12.159729%, 12.548828%)" fill-opacity="1" d="M 113.804688 61.285156 C 112.863281 61.539062 112.019531 61.597656 111.554688 61.597656 C 108.636719 61.597656 108.636719 59.753906 108.636719 58.933594 L 108.636719 53.511719 L 106.734375 53.511719 L 106.734375 51.59375 L 108.636719 51.59375 L 108.636719 49.65625 L 111.515625 48.601562 L 111.515625 51.59375 L 113.863281 51.59375 L 113.863281 53.511719 L 111.515625 53.511719 L 111.515625 57.976562 C 111.53125 58.875 111.53125 59.441406 112.824219 59.441406 C 113.257812 59.441406 113.449219 59.421875 113.804688 59.386719 L 113.804688 61.285156 "/>
<path fill-rule="nonzero" fill="rgb(13.729858%, 12.159729%, 12.548828%)" fill-opacity="1" d="M 125.097656 59.152344 L 127.152344 59.152344 C 128.539062 59.152344 130.101562 59.152344 130.101562 57.253906 C 130.101562 55.234375 128.285156 55.234375 126.835938 55.234375 L 125.097656 55.234375 Z M 125.097656 53.042969 L 127.207031 53.042969 C 128.066406 53.042969 129.636719 53.042969 129.636719 51.222656 C 129.636719 49.460938 128.148438 49.460938 127.152344 49.460938 L 125.097656 49.460938 Z M 122.199219 47.289062 L 127.480469 47.289062 C 128.304688 47.289062 129.890625 47.289062 130.964844 47.957031 C 132.257812 48.777344 132.550781 50.148438 132.550781 50.96875 C 132.550781 51.496094 132.453125 52.417969 131.726562 53.082031 C 131.632812 53.199219 130.949219 53.828125 130.121094 54.042969 L 130.121094 54.082031 C 132.277344 54.472656 133.117188 56.039062 133.117188 57.527344 C 133.117188 59.191406 132.140625 60.300781 131.046875 60.851562 C 129.949219 61.417969 128.03125 61.417969 127.480469 61.417969 L 122.199219 61.417969 L 122.199219 47.289062 "/>
<path fill-rule="nonzero" fill="rgb(13.729858%, 12.159729%, 12.548828%)" fill-opacity="1" d="M 141.75 55.394531 C 141.75 54.945312 141.707031 53.179688 140.027344 53.179688 C 138.753906 53.179688 138.226562 54.238281 138.164062 55.394531 Z M 138.070312 57.210938 C 138.070312 57.855469 138.070312 59.851562 140.082031 59.851562 C 140.808594 59.851562 141.53125 59.582031 141.808594 58.484375 L 144.449219 58.484375 C 144.40625 58.957031 144.3125 59.796875 143.507812 60.640625 C 142.78125 61.402344 141.492188 61.792969 140.046875 61.792969 C 139.203125 61.792969 137.597656 61.636719 136.5625 60.558594 C 135.660156 59.617188 135.289062 58.289062 135.289062 56.703125 C 135.289062 55.097656 135.683594 53.179688 137.34375 52.027344 C 138.105469 51.515625 139.050781 51.203125 140.121094 51.203125 C 141.53125 51.203125 143.21875 51.75 144.113281 53.59375 C 144.777344 54.945312 144.742188 56.390625 144.703125 57.210938 L 138.070312 57.210938 "/>
<path fill-rule="nonzero" fill="rgb(13.729858%, 12.159729%, 12.548828%)" fill-opacity="1" d="M 147.167969 53.960938 C 147.167969 53.496094 147.089844 52.066406 147.03125 51.496094 L 149.75 51.496094 L 149.808594 53.398438 C 150.179688 52.554688 150.824219 51.359375 153.175781 51.476562 L 153.175781 54.082031 C 150.238281 53.808594 150.0625 55.3125 150.0625 56.546875 L 150.0625 61.417969 L 147.167969 61.417969 L 147.167969 53.960938 "/>
<path fill-rule="nonzero" fill="rgb(13.729858%, 12.159729%, 12.548828%)" fill-opacity="1" d="M 154.582031 53.300781 C 154.582031 53.257812 154.582031 52.183594 154.523438 51.496094 L 157.304688 51.496094 L 157.378906 52.984375 C 157.652344 52.535156 158.4375 51.261719 160.59375 51.261719 C 162.527344 51.261719 163.351562 52.4375 163.601562 53.121094 C 163.820312 53.726562 163.878906 54.238281 163.878906 56.078125 L 163.878906 61.417969 L 160.921875 61.417969 L 160.921875 55.273438 C 160.921875 54.863281 160.921875 54.511719 160.769531 54.199219 C 160.550781 53.765625 160.101562 53.355469 159.355469 53.355469 C 158.730469 53.355469 158.164062 53.652344 157.851562 54.121094 C 157.679688 54.375 157.496094 54.863281 157.496094 55.628906 L 157.496094 61.417969 L 154.582031 61.417969 L 154.582031 53.300781 "/>
<path fill-rule="nonzero" fill="rgb(13.729858%, 12.159729%, 12.548828%)" fill-opacity="1" d="M 65.433594 35.480469 C 63.308594 35.480469 61.519531 33.925781 61.460938 31.730469 L 62.753906 31.730469 C 62.792969 33.78125 64.308594 34.371094 66.101562 34.371094 C 67.597656 34.371094 69.316406 33.503906 69.316406 31.800781 C 69.316406 30.472656 68.355469 29.84375 67.226562 29.472656 C 65.066406 28.753906 61.777344 28.070312 61.777344 25.1875 C 61.777344 22.859375 63.921875 21.582031 66.027344 21.582031 C 67.785156 21.582031 70.074219 22.195312 70.371094 24.761719 L 69.078125 24.761719 C 69.039062 23.117188 67.542969 22.691406 66.175781 22.691406 C 64.789062 22.691406 63.070312 23.394531 63.070312 25.019531 C 63.070312 28.808594 70.609375 27.089844 70.609375 31.691406 C 70.609375 34.59375 68.117188 35.480469 65.433594 35.480469 "/>
<path fill-rule="nonzero" fill="rgb(13.729858%, 12.159729%, 12.548828%)" fill-opacity="1" d="M 77.261719 34.464844 C 79.386719 34.464844 79.925781 32.117188 79.925781 30.398438 C 79.925781 28.625 79.203125 26.664062 77.097656 26.664062 C 74.933594 26.664062 74.101562 28.457031 74.101562 30.34375 C 74.101562 32.449219 74.84375 34.464844 77.261719 34.464844 M 74.101562 38.75 L 72.992188 38.75 L 72.992188 28.015625 C 73.011719 27.292969 72.9375 26.554688 72.902344 25.925781 L 74.046875 25.925781 L 74.101562 27.292969 L 74.140625 27.332031 C 74.785156 26.238281 76.082031 25.648438 77.320312 25.648438 C 80.074219 25.648438 81.125 28.125 81.125 30.527344 C 81.125 32.855469 80.074219 35.480469 77.375 35.480469 C 76.027344 35.480469 74.898438 34.871094 74.140625 33.761719 L 74.101562 33.761719 L 74.101562 38.75 "/>
<path fill-rule="nonzero" fill="rgb(13.729858%, 12.159729%, 12.548828%)" fill-opacity="1" d="M 87.132812 26.664062 C 84.898438 26.664062 84.011719 28.84375 84.011719 30.566406 C 84.011719 32.28125 84.898438 34.464844 87.132812 34.464844 C 89.371094 34.464844 90.257812 32.28125 90.257812 30.566406 C 90.257812 28.84375 89.371094 26.664062 87.132812 26.664062 M 91.460938 30.566406 C 91.460938 33.003906 90.09375 35.480469 87.132812 35.480469 C 84.175781 35.480469 82.808594 33.003906 82.808594 30.566406 C 82.808594 28.125 84.175781 25.648438 87.132812 25.648438 C 90.09375 25.648438 91.460938 28.125 91.460938 30.566406 "/>
<path fill-rule="nonzero" fill="rgb(13.729858%, 12.159729%, 12.548828%)" fill-opacity="1" d="M 94.878906 35.203125 L 93.773438 35.203125 L 93.773438 28.015625 C 93.785156 27.292969 93.714844 26.554688 93.675781 25.925781 L 94.824219 25.925781 L 94.878906 27.292969 L 94.914062 27.292969 C 95.246094 26.351562 96.078125 25.683594 97.003906 25.648438 C 97.371094 25.628906 97.742188 25.648438 98.109375 25.664062 L 98.109375 26.738281 C 97.890625 26.71875 97.648438 26.664062 97.425781 26.664062 C 95.78125 26.664062 94.914062 27.847656 94.878906 29.621094 L 94.878906 35.203125 "/>
<path fill-rule="nonzero" fill="rgb(13.729858%, 12.159729%, 12.548828%)" fill-opacity="1" d="M 100.738281 26.941406 L 98.886719 26.941406 L 98.886719 25.925781 L 100.738281 25.925781 L 100.738281 23.949219 L 101.84375 23.46875 L 101.84375 25.925781 L 103.953125 25.925781 L 103.953125 26.941406 L 101.84375 26.941406 L 101.84375 33.152344 C 101.824219 34.003906 102.273438 34.464844 103.121094 34.464844 C 103.453125 34.464844 103.785156 34.445312 104.082031 34.351562 L 104.082031 35.3125 C 103.730469 35.40625 103.324219 35.480469 102.957031 35.480469 C 100.605469 35.480469 100.738281 33.980469 100.738281 32.726562 L 100.738281 26.941406 "/>
</svg>
