<?xml version="1.0" encoding="UTF-8"?>
<svg xmlns="http://www.w3.org/2000/svg" xmlns:xlink="http://www.w3.org/1999/xlink" width="75.37" height="33.9" viewBox="0 0 75.37 33.9">
<defs>
<clipPath id="clip-0">
<path clip-rule="nonzero" d="M 0 7 L 22 7 L 22 33.898438 L 0 33.898438 Z M 0 7 "/>
</clipPath>
<clipPath id="clip-1">
<path clip-rule="nonzero" d="M 71 23 L 75.371094 23 L 75.371094 29 L 71 29 Z M 71 23 "/>
</clipPath>
</defs>
<path fill-rule="nonzero" fill="rgb(13.729858%, 12.159729%, 12.548828%)" fill-opacity="1" d="M 3.945312 11.457031 C 3.757812 11.566406 3.574219 11.789062 3.535156 12.015625 C 3.5 12.292969 3.609375 12.535156 3.816406 12.703125 C 4.429688 13.148438 5.042969 13.597656 5.65625 14.042969 C 5.65625 14.136719 5.65625 14.230469 5.65625 14.324219 L 5.507812 14.230469 L 3.425781 12.816406 C 3.164062 12.609375 2.863281 12.347656 2.941406 11.976562 C 2.976562 11.789062 3.109375 11.621094 3.292969 11.546875 C 3.480469 11.457031 3.722656 11.417969 3.945312 11.457031 "/>
<path fill-rule="nonzero" fill="rgb(13.729858%, 12.159729%, 12.548828%)" fill-opacity="1" d="M 17.355469 -0.00390625 L 17.355469 4.789062 L 15.257812 4.789062 L 15.257812 -0.00390625 L 11.574219 -0.00390625 L 11.574219 4.789062 L 9.476562 4.789062 L 9.476562 -0.00390625 L 5.792969 -0.00390625 L 5.792969 4.789062 L 3.691406 4.789062 L 3.691406 -0.00390625 L 0.0078125 -0.00390625 L 0.0078125 5.53125 L 0.800781 5.53125 L 0.800781 0.742188 L 2.898438 0.742188 L 2.898438 5.53125 L 6.585938 5.53125 L 6.585938 0.742188 L 8.683594 0.742188 L 8.683594 5.53125 L 12.367188 5.53125 L 12.367188 0.742188 L 14.464844 0.742188 L 14.464844 5.53125 L 18.148438 5.53125 L 18.148438 0.742188 L 20.25 0.742188 L 20.25 5.53125 L 21.042969 5.53125 L 21.042969 -0.00390625 L 17.355469 -0.00390625 "/>
<path fill-rule="nonzero" fill="rgb(13.729858%, 12.159729%, 12.548828%)" fill-opacity="1" d="M 7.621094 17.75 C 7.527344 17.414062 7.34375 17.078125 7.0625 16.855469 C 6.28125 17.042969 5.480469 17.226562 4.699219 17.433594 C 4.585938 17.46875 4.496094 17.523438 4.382812 17.5625 C 4.679688 16.964844 4.644531 16.074219 4.214844 15.550781 L 2.503906 17.003906 C 2.949219 17.617188 3.378906 18.25 3.824219 18.863281 C 3.953125 19.015625 4.140625 19.070312 4.308594 19.144531 L 6.953125 19.574219 L 7.660156 19.683594 L 7.660156 18.140625 L 7.621094 17.75 "/>
<path fill-rule="nonzero" fill="rgb(13.729858%, 12.159729%, 12.548828%)" fill-opacity="1" d="M 3.535156 14.925781 C 3.449219 14.886719 3.246094 14.789062 3.246094 14.789062 C 3.410156 15.042969 3.578125 15.28125 3.742188 15.5 L 3.992188 15.289062 C 3.878906 15.121094 3.605469 14.960938 3.535156 14.925781 "/>
<path fill-rule="nonzero" fill="rgb(13.729858%, 12.159729%, 12.548828%)" fill-opacity="1" d="M 2.875 15.121094 C 3.019531 15.359375 3.203125 15.582031 3.367188 15.816406 L 3.648438 15.578125 C 3.460938 15.308594 3.132812 15.269531 2.875 15.121094 "/>
<path fill-rule="nonzero" fill="rgb(13.729858%, 12.159729%, 12.548828%)" fill-opacity="1" d="M 3.285156 15.886719 C 3.097656 15.589844 2.78125 15.550781 2.519531 15.421875 C 2.667969 15.660156 2.832031 15.894531 3.015625 16.117188 L 3.28125 15.890625 C 3.28125 15.890625 3.285156 15.886719 3.285156 15.886719 "/>
<path fill-rule="nonzero" fill="rgb(13.729858%, 12.159729%, 12.548828%)" fill-opacity="1" d="M 2.148438 15.71875 C 2.296875 15.957031 2.476562 16.195312 2.640625 16.429688 L 2.921875 16.195312 C 2.71875 15.921875 2.40625 15.847656 2.148438 15.71875 "/>
<path fill-rule="nonzero" fill="rgb(13.729858%, 12.159729%, 12.548828%)" fill-opacity="1" d="M 1.8125 16.035156 L 2.289062 16.730469 L 2.570312 16.492188 C 2.382812 16.238281 2.089844 16.128906 1.8125 16.035156 "/>
<path fill-rule="nonzero" fill="rgb(13.729858%, 12.159729%, 12.548828%)" fill-opacity="1" d="M 10.011719 23.503906 L 10.859375 23.628906 L 10.875 23.285156 C 10.554688 23.246094 10.28125 23.429688 10.011719 23.503906 "/>
<path fill-rule="nonzero" fill="rgb(13.729858%, 12.159729%, 12.548828%)" fill-opacity="1" d="M 10.71875 23.742188 C 10.441406 23.742188 10.253906 23.929688 10.011719 24.003906 C 10.265625 24.039062 10.550781 24.09375 10.839844 24.113281 L 10.855469 23.742188 L 10.71875 23.742188 "/>
<path fill-rule="nonzero" fill="rgb(13.729858%, 12.159729%, 12.548828%)" fill-opacity="1" d="M 10.289062 24.320312 L 9.976562 24.46875 L 10.820312 24.578125 L 10.835938 24.226562 C 10.640625 24.210938 10.449219 24.234375 10.289062 24.320312 "/>
<path fill-rule="nonzero" fill="rgb(13.729858%, 12.159729%, 12.548828%)" fill-opacity="1" d="M 9.9375 24.933594 L 10.800781 25.046875 L 10.816406 24.691406 C 10.488281 24.644531 10.230469 24.824219 9.9375 24.933594 "/>
<path fill-rule="nonzero" fill="rgb(13.729858%, 12.159729%, 12.548828%)" fill-opacity="1" d="M 9.9375 25.382812 C 10.207031 25.4375 10.492188 25.472656 10.78125 25.507812 L 10.796875 25.15625 C 10.46875 25.109375 10.210938 25.273438 9.9375 25.382812 "/>
<path fill-rule="nonzero" fill="rgb(13.729858%, 12.159729%, 12.548828%)" fill-opacity="1" d="M 5.378906 20.558594 C 5.660156 20.59375 5.945312 20.628906 6.230469 20.667969 L 6.242188 20.332031 C 5.917969 20.292969 5.648438 20.46875 5.378906 20.558594 "/>
<path fill-rule="nonzero" fill="rgb(13.729858%, 12.159729%, 12.548828%)" fill-opacity="1" d="M 5.359375 21.042969 L 6.214844 21.152344 L 6.226562 20.796875 C 5.902344 20.757812 5.628906 20.933594 5.359375 21.042969 "/>
<path fill-rule="nonzero" fill="rgb(13.729858%, 12.159729%, 12.548828%)" fill-opacity="1" d="M 6.046875 21.265625 C 5.785156 21.285156 5.582031 21.414062 5.339844 21.507812 C 5.632812 21.5625 5.921875 21.601562 6.195312 21.621094 L 6.207031 21.265625 L 6.046875 21.265625 "/>
<path fill-rule="nonzero" fill="rgb(13.729858%, 12.159729%, 12.548828%)" fill-opacity="1" d="M 6.027344 21.730469 C 5.75 21.730469 5.5625 21.917969 5.320312 21.976562 L 6.085938 22.085938 L 6.179688 22.101562 L 6.191406 21.730469 C 6.128906 21.730469 6.078125 21.730469 6.027344 21.730469 "/>
<path fill-rule="nonzero" fill="rgb(13.729858%, 12.159729%, 12.548828%)" fill-opacity="1" d="M 5.320312 22.441406 L 6.164062 22.550781 L 6.175781 22.214844 C 5.851562 22.148438 5.578125 22.3125 5.320312 22.441406 "/>
<path fill-rule="nonzero" fill="rgb(13.729858%, 12.159729%, 12.548828%)" fill-opacity="1" d="M 14.003906 28.039062 L 14.539062 27.359375 L 14.257812 27.175781 C 14.042969 27.398438 14.078125 27.746094 14.003906 28.039062 "/>
<path fill-rule="nonzero" fill="rgb(13.729858%, 12.159729%, 12.548828%)" fill-opacity="1" d="M 14.433594 28.300781 C 14.597656 28.082031 14.796875 27.84375 14.945312 27.621094 L 14.640625 27.425781 C 14.4375 27.648438 14.503906 28.011719 14.433594 28.300781 "/>
<path fill-rule="nonzero" fill="rgb(13.729858%, 12.159729%, 12.548828%)" fill-opacity="1" d="M 14.824219 28.542969 C 14.988281 28.339844 15.1875 28.105469 15.351562 27.886719 L 15.039062 27.679688 C 14.84375 27.921875 14.878906 28.25 14.824219 28.542969 "/>
<path fill-rule="nonzero" fill="rgb(13.729858%, 12.159729%, 12.548828%)" fill-opacity="1" d="M 15.195312 28.820312 C 15.378906 28.585938 15.574219 28.367188 15.738281 28.136719 L 15.433594 27.9375 C 15.234375 28.175781 15.269531 28.507812 15.195312 28.820312 "/>
<path fill-rule="nonzero" fill="rgb(13.729858%, 12.159729%, 12.548828%)" fill-opacity="1" d="M 15.605469 29.046875 L 16.132812 28.390625 L 15.839844 28.199219 C 15.640625 28.421875 15.605469 28.75 15.605469 29.046875 "/>
<path fill-rule="nonzero" fill="rgb(13.729858%, 12.159729%, 12.548828%)" fill-opacity="1" d="M 7.058594 13.578125 C 6.890625 13.578125 6.753906 13.441406 6.753906 13.273438 C 6.753906 13.105469 6.890625 12.96875 7.058594 12.96875 C 7.226562 12.96875 7.363281 13.105469 7.363281 13.273438 C 7.363281 13.441406 7.226562 13.578125 7.058594 13.578125 Z M 17.355469 21.304688 L 17.410156 21.339844 C 17.671875 21.414062 17.929688 21.472656 18.191406 21.488281 L 18.15625 21.414062 L 18.023438 20.371094 C 17.988281 19.777344 17.429688 19.386719 16.980469 19.070312 L 11.601562 15.417969 C 11.472656 15.34375 11.359375 15.253906 11.210938 15.234375 C 11.304688 15.160156 11.359375 15.046875 11.359375 14.9375 C 11.359375 14.769531 11.25 14.617188 11.101562 14.542969 L 9.539062 13.707031 C 9.40625 13.632812 9.257812 13.613281 9.109375 13.59375 L 9.222656 13.519531 C 9.316406 13.445312 9.355469 13.355469 9.378906 13.238281 C 9.414062 13.03125 9.390625 12.851562 9.257812 12.683594 C 9.128906 12.535156 8.996094 12.429688 8.691406 12.464844 C 8.515625 12.488281 8.359375 12.59375 8.273438 12.851562 C 8.234375 12.960938 8.253906 13.109375 8.273438 13.203125 C 8.214844 13.128906 8.214844 13.035156 8.140625 12.980469 C 7.769531 12.777344 7.417969 12.570312 7.0625 12.402344 C 6.96875 12.347656 6.859375 12.328125 6.78125 12.382812 C 6.691406 12.441406 6.671875 12.550781 6.632812 12.644531 L 6.578125 12.570312 C 5.832031 12.140625 5.070312 11.734375 4.324219 11.324219 C 4.382812 11.398438 4.457031 11.472656 4.476562 11.582031 L 4.492188 12.664062 C 4.941406 13 5.421875 13.277344 5.871094 13.632812 C 5.964844 13.6875 6.019531 13.78125 6.058594 13.890625 C 6.113281 14.058594 6.074219 14.265625 5.984375 14.394531 C 5.871094 14.527344 5.738281 14.636719 5.554688 14.601562 C 5.164062 14.449219 4.828125 14.171875 4.492188 13.890625 C 4.492188 14.132812 4.492188 14.394531 4.511719 14.65625 L 7.453125 16.703125 C 7.804688 17.039062 7.992188 17.449219 8.046875 17.914062 L 8.046875 21.117188 L 8.140625 21.582031 C 7.917969 21.210938 7.5625 20.816406 7.171875 20.613281 C 6.988281 20.539062 6.800781 20.425781 6.59375 20.410156 C 6.589844 20.664062 6.578125 20.925781 6.566406 21.183594 L 6.523438 22.417969 C 6.523438 22.492188 6.519531 22.566406 6.519531 22.640625 L 8.328125 22.921875 C 8.53125 22.941406 8.792969 22.996094 8.921875 22.828125 L 10.988281 20.054688 L 11.007812 20.054688 C 10.988281 20.128906 10.933594 20.1875 10.933594 20.261719 L 11.339844 20.316406 L 11.472656 20.242188 C 11.339844 20.425781 11.210938 20.613281 11.121094 20.820312 C 10.988281 21.171875 11.027344 21.621094 11.230469 21.9375 L 12.847656 24.5625 L 12.847656 24.597656 L 12.605469 24.261719 C 12.253906 23.777344 11.75 23.5 11.230469 23.332031 L 11.175781 24.566406 L 11.140625 25.453125 L 11.132812 25.585938 L 13.183594 25.863281 L 13.351562 25.847656 C 13.464844 25.808594 13.539062 25.695312 13.59375 25.585938 L 14.300781 23.871094 C 14.132812 23.613281 13.984375 23.351562 13.855469 23.089844 C 13.613281 22.585938 13.5 21.9375 13.667969 21.359375 L 13.6875 21.265625 L 12.515625 20.578125 L 12.367188 20.464844 L 13.910156 20.746094 C 14.039062 20.78125 14.207031 20.761719 14.300781 20.6875 C 14.132812 21.003906 14.027344 21.296875 13.972656 21.6875 C 13.898438 22.414062 14.25 22.972656 14.546875 23.550781 L 15.851562 25.671875 C 16.039062 25.96875 16.332031 26.089844 16.644531 26.199219 L 16.628906 26.199219 C 16.199219 26.070312 15.640625 26.050781 15.214844 26.21875 C 14.898438 26.347656 14.621094 26.605469 14.433594 26.902344 L 16.3125 28.113281 L 17.242188 26.945312 C 17.484375 26.589844 17.855469 26.3125 17.855469 25.847656 L 17.410156 21.527344 C 17.410156 21.433594 17.355469 21.378906 17.355469 21.304688 "/>
<g clip-path="url(#clip-0)">
<path fill-rule="nonzero" fill="rgb(13.729858%, 12.159729%, 12.548828%)" fill-opacity="1" d="M 16.894531 30.738281 L 0.777344 19.859375 C 0.777344 15.695312 0.777344 9.25 0.777344 8.753906 C 0.988281 8.753906 2.597656 8.753906 4.804688 8.753906 L 20.277344 19.058594 C 20.277344 21.480469 20.277344 23.371094 20.277344 23.371094 C 20.277344 26.316406 18.960938 28.949219 16.894531 30.738281 Z M 0.777344 23.371094 C 0.777344 23.371094 0.777344 22.320312 0.777344 20.78125 L 16.265625 31.238281 C 14.652344 32.417969 12.675781 33.121094 10.527344 33.121094 C 5.152344 33.121094 0.777344 28.75 0.777344 23.371094 Z M 20.277344 18.140625 L 6.183594 8.753906 C 11.789062 8.753906 19.792969 8.753906 20.277344 8.753906 C 20.277344 9.183594 20.277344 14.121094 20.277344 18.140625 Z M 0 7.972656 L 0 23.371094 C 0 29.175781 4.722656 33.898438 10.527344 33.898438 C 16.332031 33.898438 21.054688 29.175781 21.054688 23.371094 L 21.054688 7.972656 L 0 7.972656 "/>
</g>
<path fill-rule="nonzero" fill="rgb(23.501587%, 22.109985%, 22.45636%)" fill-opacity="1" d="M 29.800781 26.164062 C 29.800781 26.46875 29.785156 27.398438 30.980469 27.398438 C 31.738281 27.398438 32.214844 27.035156 32.214844 26.488281 C 32.214844 25.910156 31.808594 25.8125 30.980469 25.613281 C 29.433594 25.226562 28.585938 24.769531 28.585938 23.644531 C 28.585938 22.574219 29.351562 21.628906 31.160156 21.628906 C 31.835938 21.628906 32.636719 21.78125 33.121094 22.390625 C 33.492188 22.859375 33.492188 23.382812 33.492188 23.597656 L 32.152344 23.597656 C 32.132812 23.371094 32.0625 22.609375 31.097656 22.609375 C 30.449219 22.609375 30.027344 22.960938 30.027344 23.488281 C 30.027344 24.09375 30.503906 24.203125 31.441406 24.4375 C 32.566406 24.707031 33.671875 25.011719 33.671875 26.28125 C 33.671875 27.449219 32.699219 28.394531 30.898438 28.394531 C 28.40625 28.394531 28.390625 26.792969 28.378906 26.164062 L 29.800781 26.164062 "/>
<path fill-rule="nonzero" fill="rgb(23.501587%, 22.109985%, 22.45636%)" fill-opacity="1" d="M 37.578125 28.179688 C 37.144531 28.296875 36.757812 28.324219 36.542969 28.324219 C 35.203125 28.324219 35.203125 27.476562 35.203125 27.101562 L 35.203125 24.605469 L 34.328125 24.605469 L 34.328125 23.722656 L 35.203125 23.722656 L 35.203125 22.832031 L 36.523438 22.347656 L 36.523438 23.722656 L 37.605469 23.722656 L 37.605469 24.605469 L 36.523438 24.605469 L 36.523438 26.660156 C 36.535156 27.074219 36.535156 27.332031 37.128906 27.332031 C 37.324219 27.332031 37.414062 27.324219 37.578125 27.308594 L 37.578125 28.179688 "/>
<path fill-rule="nonzero" fill="rgb(23.501587%, 22.109985%, 22.45636%)" fill-opacity="1" d="M 39.746094 26.839844 C 39.746094 27.144531 39.953125 27.488281 40.394531 27.488281 C 40.636719 27.488281 40.835938 27.371094 40.960938 27.226562 C 41.195312 26.9375 41.214844 26.585938 41.214844 26.101562 C 40.359375 26.027344 39.746094 26.300781 39.746094 26.839844 Z M 41.386719 28.242188 C 41.339844 27.964844 41.339844 27.757812 41.339844 27.621094 C 40.835938 28.351562 40.234375 28.351562 39.980469 28.351562 C 39.324219 28.351562 39.027344 28.160156 38.847656 27.992188 C 38.578125 27.722656 38.449219 27.351562 38.449219 26.992188 C 38.449219 26.632812 38.578125 25.964844 39.414062 25.578125 C 39.972656 25.328125 40.773438 25.328125 41.214844 25.328125 C 41.214844 25.03125 41.203125 24.886719 41.152344 24.722656 C 41.035156 24.390625 40.683594 24.347656 40.554688 24.347656 C 40.367188 24.347656 40.167969 24.425781 40.050781 24.597656 C 39.953125 24.75 39.953125 24.894531 39.953125 25.003906 L 38.648438 25.003906 C 38.65625 24.761719 38.683594 24.273438 39.160156 23.933594 C 39.574219 23.636719 40.105469 23.5625 40.539062 23.5625 C 40.917969 23.5625 41.710938 23.625 42.160156 24.148438 C 42.464844 24.515625 42.472656 25.058594 42.472656 25.265625 L 42.484375 27.089844 C 42.484375 27.476562 42.511719 27.863281 42.589844 28.242188 L 41.386719 28.242188 "/>
<path fill-rule="nonzero" fill="rgb(23.501587%, 22.109985%, 22.45636%)" fill-opacity="1" d="M 45.902344 27.46875 C 46.289062 27.46875 46.605469 27.234375 46.75 26.957031 C 46.945312 26.578125 46.964844 26.109375 46.964844 25.886719 C 46.964844 24.992188 46.578125 24.507812 45.972656 24.507812 C 45.082031 24.507812 44.984375 25.578125 44.984375 26.039062 C 44.984375 26.792969 45.238281 27.46875 45.902344 27.46875 Z M 46.917969 21.742188 L 48.261719 21.742188 L 48.261719 27.503906 C 48.261719 27.773438 48.277344 28.070312 48.296875 28.242188 L 46.945312 28.242188 L 46.910156 27.585938 C 46.820312 27.746094 46.730469 27.917969 46.453125 28.097656 C 46.117188 28.316406 45.769531 28.332031 45.570312 28.332031 C 44.355469 28.332031 43.636719 27.496094 43.636719 26.074219 C 43.636719 24.570312 44.453125 23.636719 45.640625 23.636719 C 46.460938 23.636719 46.800781 24.09375 46.917969 24.257812 L 46.917969 21.742188 "/>
<path fill-rule="nonzero" fill="rgb(23.501587%, 22.109985%, 22.45636%)" fill-opacity="1" d="M 52.335938 28.179688 C 51.90625 28.296875 51.519531 28.324219 51.300781 28.324219 C 49.960938 28.324219 49.960938 27.476562 49.960938 27.101562 L 49.960938 24.605469 L 49.089844 24.605469 L 49.089844 23.722656 L 49.960938 23.722656 L 49.960938 22.832031 L 51.285156 22.347656 L 51.285156 23.722656 L 52.363281 23.722656 L 52.363281 24.605469 L 51.285156 24.605469 L 51.285156 26.660156 C 51.292969 27.074219 51.292969 27.332031 51.886719 27.332031 C 52.085938 27.332031 52.175781 27.324219 52.335938 27.308594 L 52.335938 28.179688 "/>
<path fill-rule="nonzero" fill="rgb(23.501587%, 22.109985%, 22.45636%)" fill-opacity="1" d="M 57.53125 27.199219 L 58.476562 27.199219 C 59.113281 27.199219 59.835938 27.199219 59.835938 26.324219 C 59.835938 25.398438 58.996094 25.398438 58.332031 25.398438 L 57.53125 25.398438 Z M 57.53125 24.390625 L 58.503906 24.390625 C 58.898438 24.390625 59.617188 24.390625 59.617188 23.550781 C 59.617188 22.742188 58.933594 22.742188 58.476562 22.742188 L 57.53125 22.742188 Z M 56.199219 21.742188 L 58.628906 21.742188 C 59.007812 21.742188 59.734375 21.742188 60.230469 22.050781 C 60.824219 22.429688 60.960938 23.058594 60.960938 23.433594 C 60.960938 23.679688 60.914062 24.101562 60.582031 24.410156 C 60.535156 24.460938 60.222656 24.75 59.84375 24.851562 L 59.84375 24.867188 C 60.835938 25.046875 61.222656 25.769531 61.222656 26.453125 C 61.222656 27.21875 60.769531 27.730469 60.265625 27.980469 C 59.761719 28.242188 58.882812 28.242188 58.628906 28.242188 L 56.199219 28.242188 L 56.199219 21.742188 "/>
<path fill-rule="nonzero" fill="rgb(23.501587%, 22.109985%, 22.45636%)" fill-opacity="1" d="M 65.191406 25.472656 C 65.191406 25.265625 65.171875 24.453125 64.398438 24.453125 C 63.8125 24.453125 63.570312 24.941406 63.542969 25.472656 Z M 63.496094 26.308594 C 63.496094 26.605469 63.496094 27.523438 64.425781 27.523438 C 64.757812 27.523438 65.089844 27.398438 65.21875 26.894531 L 66.433594 26.894531 C 66.414062 27.109375 66.367188 27.496094 66 27.882812 C 65.667969 28.234375 65.074219 28.414062 64.40625 28.414062 C 64.019531 28.414062 63.28125 28.34375 62.804688 27.847656 C 62.390625 27.414062 62.21875 26.804688 62.21875 26.074219 C 62.21875 25.335938 62.398438 24.453125 63.164062 23.921875 C 63.515625 23.6875 63.949219 23.542969 64.441406 23.542969 C 65.089844 23.542969 65.863281 23.796875 66.277344 24.644531 C 66.585938 25.265625 66.566406 25.929688 66.550781 26.308594 L 63.496094 26.308594 "/>
<path fill-rule="nonzero" fill="rgb(23.501587%, 22.109985%, 22.45636%)" fill-opacity="1" d="M 67.683594 24.8125 C 67.683594 24.597656 67.644531 23.941406 67.621094 23.679688 L 68.871094 23.679688 L 68.898438 24.554688 C 69.066406 24.164062 69.363281 23.617188 70.445312 23.667969 L 70.445312 24.867188 C 69.09375 24.742188 69.015625 25.433594 69.015625 26 L 69.015625 28.242188 L 67.683594 28.242188 L 67.683594 24.8125 "/>
<g clip-path="url(#clip-1)">
<path fill-rule="nonzero" fill="rgb(23.501587%, 22.109985%, 22.45636%)" fill-opacity="1" d="M 71.09375 24.507812 C 71.09375 24.488281 71.09375 23.996094 71.066406 23.679688 L 72.34375 23.679688 L 72.378906 24.363281 C 72.503906 24.15625 72.867188 23.570312 73.855469 23.570312 C 74.746094 23.570312 75.125 24.113281 75.242188 24.425781 C 75.339844 24.707031 75.367188 24.941406 75.367188 25.785156 L 75.367188 28.242188 L 74.007812 28.242188 L 74.007812 25.417969 C 74.007812 25.226562 74.007812 25.066406 73.9375 24.921875 C 73.835938 24.722656 73.628906 24.535156 73.289062 24.535156 C 73 24.535156 72.738281 24.667969 72.597656 24.886719 C 72.515625 25.003906 72.433594 25.226562 72.433594 25.578125 L 72.433594 28.242188 L 71.09375 28.242188 L 71.09375 24.507812 "/>
</g>
</svg>
