<?xml version="1.0" encoding="utf-8"?>
<!-- Generator: Adobe Illustrator 24.3.0, SVG Export Plug-In . SVG Version: 6.00 Build 0)  -->
<svg version="1.1" id="Ebene_1" xmlns="http://www.w3.org/2000/svg" xmlns:xlink="http://www.w3.org/1999/xlink" x="0px" y="0px"
	 viewBox="0 0 213 99.2" style="enable-background:new 0 0 213 99.2;" xml:space="preserve">
<style type="text/css">
	.st0{fill:#CC5E2F;}
	.st1{fill:#5DA14D;}
	.st2{fill:#FFFFFF;}
</style>
<g>
	<polyline points="57.5,9.1 57.5,90.6 7.9,90.6 7.9,9.1 	"/>
	<path class="st0" d="M57,65.3c0,13.6-10.9,24.6-24.3,24.6c-13.4,0-24.3-11-24.3-24.6h24.3V40.8C46.1,40.8,57,51.8,57,65.3"/>
	<path class="st1" d="M57,40.1H32.7l-0.1,24.3c-13.4,0-24.2-10.7-24.2-24.3c0-13.6,10.9-24.6,24.3-24.6C46.1,15.5,57,26.5,57,40.1"
		/>
	<rect x="31.9" class="st2" width="1.6" height="91.3"/>
	<rect x="6.6" y="39.2" class="st2" width="52.1" height="1.6"/>
	<rect x="6.6" y="64.4" class="st2" width="52.1" height="1.6"/>
</g>
<g>
	<path d="M68,69.8c1.3-1.4,2.9-1.5,3.6-1.5c1.2,0,2.3,0.4,3.2,1.2c1,0.9,1.6,2.2,1.6,3.6c0,0.6-0.1,2-1.2,3.2
		c-1.2,1.4-2.9,1.6-3.5,1.6c-0.6,0-2-0.1-3.3-1.3c-1-0.9-1.5-2.3-1.5-3.7C66.8,72.3,67,71,68,69.8z M68.4,75.6c0.8,1,2,1.5,3.2,1.5
		c0.5,0,1.6-0.1,2.6-0.9c1-0.8,1.5-1.9,1.5-3.1c0-0.5-0.1-1.7-1-2.7c-0.8-0.9-1.9-1.4-3-1.4c-0.9,0-1.8,0.3-2.5,0.9
		c-0.9,0.7-1.5,1.8-1.5,3C67.5,73.8,67.8,74.8,68.4,75.6z"/>
	<path d="M81.8,68.5v0.7h-2.9v3.2h2.9v0.7h-2.9v4.6h-0.7v-9.2H81.8z"/>
	<path d="M87.5,68.5v0.7h-2.9v3.2h2.9v0.7h-2.9v4.6h-0.7v-9.2H87.5z"/>
	<path d="M93.4,70.2c0-0.1-0.2-0.4-0.4-0.6c-0.2-0.2-0.7-0.6-1.4-0.6c-0.2,0-0.6,0-1,0.3c-0.6,0.4-0.6,1-0.6,1.2
		c0,0.4,0.1,0.7,0.4,1c0,0,0.1,0.1,0.3,0.2c0.5,0.4,1.3,0.6,1.8,0.9c0.8,0.4,1.4,0.9,1.8,1.7c0.1,0.1,0.2,0.5,0.2,0.9
		c0,0.6-0.2,1-0.3,1.2c-0.5,0.9-1.5,1.5-2.6,1.5c-0.5,0-1.5-0.1-2.3-1.1c-0.2-0.2-0.3-0.4-0.6-0.9l0.6-0.4c0,0.1,0.3,0.4,0.5,0.7
		c0.5,0.6,1.2,0.9,1.9,0.9c0.4,0,0.6-0.1,0.7-0.1c0.7-0.2,1.3-0.9,1.3-1.7c0-0.1,0-0.3-0.1-0.6c-0.2-0.5-0.5-0.7-0.9-1
		c-0.7-0.5-1.5-0.7-2.2-1.1c-0.7-0.4-1.2-1.1-1.2-1.9c0-0.3,0.1-1,0.7-1.6c0.2-0.2,0.9-0.7,1.8-0.7c0.3,0,1.1,0.1,1.7,0.6
		c0.3,0.2,0.4,0.5,0.6,0.8L93.4,70.2z"/>
	<path d="M100.5,68.5v0.7H97v3.2h3.6v0.7h-3.6V77h3.6v0.7h-4.4v-9.2H100.5z"/>
	<path d="M107.2,69.2h-2.5v8.5H104v-8.5h-2.5v-0.7h5.7V69.2z"/>
	<path d="M113.4,77.6v-3.4h-3.4v-0.8h3.4V70h0.8v3.4h3.4v0.8h-3.4v3.4H113.4z"/>
	<path d="M121.5,68.5c1.6-0.1,1.8,0,2.8,0.1c0.2,0,0.5,0.1,0.7,0.1c0.4,0.1,1.2,0.3,1.9,1.1c0.4,0.4,1.3,1.6,1.3,3.3
		c0,0.5-0.1,1-0.1,1.1c-0.1,0.6-0.6,1.8-1.9,2.7c-1.4,0.9-3,0.8-4.7,0.8V68.5z M122.2,77c0.4,0,0.7,0,1.1,0c0.6,0,2.1-0.1,3.3-1.4
		c0.9-1,1-2,1-2.5c0-1.9-1.1-2.9-1.7-3.3c-1.1-0.7-2.3-0.7-3.6-0.6V77z"/>
	<path d="M130.9,68.5v9.2h-0.7v-9.2H130.9z"/>
	<path d="M141.3,71c-0.2-0.3-0.5-0.6-0.8-0.9c-0.4-0.4-1.2-1.1-2.7-1.1c-0.9,0-1.9,0.3-2.6,0.9c-1,0.7-1.5,2-1.5,3.2
		c0,1.3,0.7,2.2,1,2.6c1.1,1.3,2.5,1.4,3.1,1.4c0.6,0,0.9-0.1,1.1-0.2c1.3-0.4,2-1.4,2.2-1.9c0.2-0.4,0.3-0.6,0.4-1.3h-3.5v-0.7h4.2
		c0,0.5,0,1.9-1,3.1c-0.8,1-2.2,1.7-3.5,1.7c-2.6,0-4.8-2.1-4.8-4.8c0-0.6,0.1-1.9,1.1-3.1c0.9-1.1,2.3-1.7,3.7-1.7
		c1.2,0,2.3,0.4,3.1,1.2c0.3,0.3,0.5,0.5,0.9,1L141.3,71z"/>
	<path d="M145,68.5v9.2h-0.7v-9.2H145z"/>
	<path d="M152,69.2h-2.5v8.5h-0.7v-8.5h-2.5v-0.7h5.7V69.2z"/>
	<path d="M155.5,68.2l3.7,9.5h-0.8l-1.2-3.1h-3.7l-1.2,3h-0.8l3.8-9.4H155.5z M153.7,73.9h3.2l-1.6-4.1L153.7,73.9z"/>
	<path d="M161.5,68.5V77h2.6v0.7h-3.3v-9.2H161.5z"/>
	<path d="M165.6,68.5c1.6-0.1,1.8,0,2.8,0.1c0.2,0,0.5,0.1,0.7,0.1c0.4,0.1,1.2,0.3,1.9,1.1c0.4,0.4,1.3,1.6,1.3,3.3
		c0,0.5-0.1,1-0.1,1.1c-0.1,0.6-0.6,1.8-1.9,2.7c-1.4,0.9-3,0.8-4.7,0.8V68.5z M166.3,77c0.4,0,0.7,0,1.1,0c0.6,0,2.1-0.1,3.3-1.4
		c0.9-1,1-2,1-2.5c0-1.9-1.1-2.9-1.7-3.3c-1.1-0.7-2.3-0.7-3.6-0.6V77z"/>
	<path d="M179.1,77.7h-1l-3.4-4.5v4.4H174v-9.2c0.6,0,1.2-0.1,2.4,0c0.3,0.1,0.6,0.1,0.9,0.3c0.8,0.4,1.3,1.2,1.3,2.2
		c0,0.3-0.1,1.2-0.8,1.8c-0.6,0.5-1.1,0.6-1.9,0.7L179.1,77.7z M174.7,72.7c0.5,0,0.9,0,1.4,0c0.3,0,1-0.1,1.4-0.8
		c0.1-0.2,0.3-0.5,0.3-1c0-0.6-0.3-1.2-0.8-1.5c-0.5-0.3-1.1-0.3-2.3-0.2V72.7z"/>
	<path d="M181.2,74.4c0,0.3,0,1.2,0.6,1.9c0.5,0.6,1.2,0.9,1.9,0.9c0.7,0,1.5-0.3,2-0.9c0.5-0.6,0.6-1.3,0.6-2v-5.6h0.7v5.9
		c0,0.1,0,0.6-0.1,0.9c-0.2,1-0.8,1.6-1.1,1.8c-0.6,0.5-1.4,0.7-2.1,0.7c-2.1,0-2.9-1.5-3.1-2.2c-0.1-0.4-0.1-0.8-0.2-1.2v-5.9h0.7
		V74.4z"/>
	<path d="M196.6,70.7c-0.1-0.1-0.3-0.4-0.5-0.7c-0.4-0.4-1.2-1-2.6-1c-0.5,0-1.6,0.1-2.6,1c-0.9,0.7-1.4,1.9-1.4,3.1
		c0,0.3,0,0.9,0.4,1.6c0.7,1.5,2.1,2.4,3.7,2.4c0.9,0,1.9-0.3,2.6-1c0.2-0.2,0.4-0.5,0.6-0.7l0,1.3c-0.1,0.1-0.4,0.3-0.8,0.5
		c-0.4,0.2-1.2,0.6-2.4,0.6c-1.6,0-2.7-0.8-3.1-1.2c-1.5-1.3-1.6-2.9-1.6-3.6c0-0.9,0.2-1.5,0.3-1.8c0.7-1.8,2.5-2.9,4.4-2.9
		c0.8,0,1.7,0.2,2.4,0.6c0.2,0.1,0.4,0.2,0.7,0.5L196.6,70.7z"/>
	<path d="M199.4,68.5v4l4.1-4h1l-4.4,4.2l4.6,5h-1l-4.1-4.5l-0.2,0.2v4.2h-0.7v-9.2H199.4z"/>
</g>
<g>
	<path d="M79,47.3c-1-0.8-2.3-1.4-3.7-1.4c-1,0-2.4,0.6-2.4,1.8c0,1.2,1.5,1.7,2.5,2l1.4,0.4c3,0.9,5.2,2.4,5.2,5.8
		c0,2.1-0.5,4.3-2.2,5.7c-1.7,1.4-3.9,2-6,2c-2.7,0-5.3-0.9-7.5-2.4l2.4-4.5c1.4,1.2,3,2.2,4.9,2.2c1.3,0,2.7-0.6,2.7-2.1
		c0-1.6-2.2-2.1-3.4-2.4c-3.5-1-5.8-1.9-5.8-6c0-4.3,3.1-7.1,7.3-7.1c2.1,0,4.8,0.7,6.7,1.7L79,47.3z"/>
	<path d="M92.9,63.1h-5.5V46.5h-4.6v-4.7h14.7v4.7h-4.6V63.1z"/>
	<path d="M117.5,63.1h-6.9l-5.2-8.2h-0.1v8.2h-5.5V41.8h8.3c4.2,0,7.4,2,7.4,6.5c0,2.9-1.6,5.5-4.7,6L117.5,63.1z M105.4,51.3h0.5
		c1.8,0,3.8-0.3,3.8-2.7c0-2.3-2-2.7-3.8-2.7h-0.5V51.3z"/>
	<path d="M125,46.5V50h6.2v4.7H125v3.7h6.6v4.7h-12.1V41.8h12.1v4.7H125z"/>
	<path d="M140.9,63.1h-5.5V41.8h5.5V63.1z"/>
	<path d="M153.4,63.1h-5.5V46.5h-4.6v-4.7H158v4.7h-4.6V63.1z"/>
	<path d="M168.6,59.4l-1.5,3.7h-5.9l8.2-21.3h6l8,21.3h-5.9l-1.4-3.7H168.6z M172.5,48.4L172.5,48.4l-2.3,6.8h4.6L172.5,48.4z"/>
	<path d="M205.6,51.2c-0.1,3.1-0.3,5.8-2.2,8.4c-2.1,2.9-5.2,4.2-8.8,4.2c-6.7,0-11.3-4.5-11.3-11.2c0-6.9,4.7-11.4,11.5-11.4
		c4.4,0,7.8,2,9.6,5.9l-5.2,2.2c-0.8-2-2.4-3.4-4.6-3.4c-3.6,0-5.5,3.5-5.5,6.7c0,3.3,2,6.7,5.6,6.7c2.4,0,4.2-1.2,4.5-3.7h-4.5
		v-4.3H205.6z"/>
</g>
<g>
	<path d="M68.6,89.5l1.5-3.3h0.1l1.4,3.4l1.3-3.3l0.6,0c-0.2,0.4-0.4,0.8-0.5,1.2c-0.2,0.4-0.3,0.8-0.5,1.1
		c-0.2,0.4-0.3,0.7-0.5,1.1c-0.1,0.3-0.2,0.5-0.3,0.8h-0.1l-1.5-3.4l-1.5,3.4h-0.1l-1.7-4.3h0.5L68.6,89.5z"/>
	<path d="M75.4,89.5l1.5-3.3h0.1l1.4,3.4l1.3-3.3l0.6,0c-0.2,0.4-0.4,0.8-0.5,1.2c-0.2,0.4-0.3,0.8-0.5,1.1
		c-0.2,0.4-0.3,0.7-0.5,1.1c-0.1,0.3-0.2,0.5-0.3,0.8h-0.1l-1.5-3.4l-1.5,3.4h-0.1l-1.7-4.3h0.5L75.4,89.5z"/>
	<path d="M82.1,89.5l1.5-3.3h0.1l1.4,3.4l1.3-3.3l0.6,0c-0.2,0.4-0.4,0.8-0.5,1.2c-0.2,0.4-0.3,0.8-0.5,1.1
		c-0.2,0.4-0.3,0.7-0.5,1.1c-0.1,0.3-0.2,0.5-0.3,0.8h-0.1l-1.5-3.4l-1.5,3.4H82l-1.7-4.3h0.5L82.1,89.5z"/>
	<path d="M87.4,89.5c0.1,0,0.2,0,0.2,0c0.2,0.1,0.3,0.3,0.3,0.4c0,0.3-0.2,0.5-0.5,0.5c-0.3,0-0.5-0.2-0.5-0.5c0,0,0-0.1,0-0.2
		C86.9,89.7,87.1,89.5,87.4,89.5z"/>
	<path d="M91.1,87.3c0-0.1-0.1-0.1-0.1-0.2c-0.1-0.1-0.3-0.4-0.8-0.4c-0.1,0-0.4,0-0.6,0.3c0,0-0.1,0.2-0.1,0.3
		c0,0.1,0.1,0.2,0.2,0.4c0.3,0.3,0.6,0.4,0.9,0.5c0.2,0.1,0.2,0.1,0.3,0.2c0.5,0.3,0.6,0.7,0.6,1c0,0.1,0,0.3-0.1,0.5
		c-0.2,0.5-0.8,0.8-1.3,0.8c-0.2,0-0.7,0-1.1-0.4c-0.2-0.1-0.4-0.4-0.4-0.4l0.4-0.3c0.1,0.2,0.5,0.6,1.2,0.6c0.4,0,0.6-0.2,0.7-0.4
		c0.1-0.1,0.1-0.3,0.1-0.3c0-0.2-0.1-0.3-0.1-0.4c-0.2-0.3-0.5-0.4-0.8-0.5c-0.2-0.1-0.3-0.1-0.4-0.2c-0.5-0.3-0.6-0.7-0.6-1
		c0-0.1,0-0.3,0.1-0.5c0.2-0.4,0.7-0.6,1.1-0.6c0.7,0,1.1,0.5,1.3,0.7L91.1,87.3z"/>
	<path d="M92.8,86.3v-1.5h0.5v1.5l1,0v0.5h-0.9v3.6h-0.5v-3.6h-0.7v-0.5H92.8z"/>
	<path d="M95.5,86.3v0.6c0.3-0.4,0.6-0.7,1.2-0.7c0.2,0,0.3,0,0.4,0.1l-0.2,0.6c-0.1,0-0.3-0.1-0.4-0.1c-0.4,0-0.8,0.4-0.9,0.7
		c-0.1,0.2-0.1,0.5-0.1,0.5v2.4H95v-4.1H95.5z"/>
	<path d="M98,88.4c0,0.2,0,0.4,0.1,0.6c0.2,0.7,0.8,1.1,1.5,1.1c0.1,0,0.3,0,0.5-0.1c0.5-0.2,0.7-0.5,1-1l0.4,0.2
		c-0.1,0.2-0.2,0.4-0.4,0.6c-0.4,0.5-1,0.8-1.6,0.8c-0.1,0-0.4,0-0.8-0.2c-0.8-0.3-1.3-1.1-1.3-2c0-0.2,0-0.8,0.4-1.3
		c0.2-0.3,0.7-0.9,1.6-0.9c0.2,0,0.4,0,0.5,0.1c0.2,0.1,0.9,0.3,1.2,1c0.2,0.4,0.2,1,0.3,1.1L98,88.4z M101,87.9
		c-0.1-0.2-0.1-0.3-0.2-0.5c-0.3-0.5-0.7-0.7-1.3-0.7c-0.2,0-0.6,0-0.9,0.3c-0.3,0.2-0.4,0.5-0.6,0.9L101,87.9z"/>
	<path d="M102.9,84.5c0,0,0.1,0,0.2,0c0.2,0.1,0.3,0.3,0.3,0.4c0,0.2-0.2,0.4-0.5,0.4s-0.5-0.2-0.5-0.5c0,0,0-0.1,0-0.2
		C102.5,84.6,102.7,84.5,102.9,84.5z M103.1,86.3v4.1h-0.5v-4.1H103.1z"/>
	<path d="M104.7,86.3v-1.5h0.5v1.5l1,0v0.5h-0.9v3.6h-0.5v-3.6H104v-0.5H104.7z"/>
	<path d="M108.6,87.7v0.5h-2.1v-0.5H108.6z"/>
	<path d="M113,86.3h0.5v4.1H113v-0.6c-0.1,0.1-0.2,0.2-0.4,0.3c-0.2,0.2-0.6,0.4-1.2,0.4c-0.5,0-1-0.2-1.4-0.5
		c-0.6-0.5-0.7-1.4-0.7-1.7c0-0.2,0-0.9,0.5-1.4c0.2-0.2,0.7-0.7,1.6-0.7c0.7,0,1.1,0.3,1.6,0.8V86.3z M110.7,89.9
		c0.1,0.1,0.4,0.2,0.8,0.2c0.2,0,0.8,0,1.2-0.5c0.3-0.3,0.4-0.8,0.4-1.2c0-0.3,0-1-0.8-1.4c-0.1-0.1-0.4-0.2-0.8-0.2
		c-0.1,0-0.4,0-0.7,0.2c-0.7,0.4-0.9,1.2-0.9,1.4C109.8,88.6,109.9,89.5,110.7,89.9z"/>
	<path d="M118.3,86.3h0.5v4.1c0,0.3-0.1,0.7-0.2,1c-0.2,0.5-0.7,1-1.9,1c-0.6,0-1.3-0.1-1.7-0.7c-0.1-0.2-0.2-0.4-0.3-0.6h0.5
		c0,0.1,0.1,0.2,0.2,0.4c0.4,0.5,1.2,0.4,1.3,0.4c0,0,0.2,0,0.4,0c0.2,0,0.7-0.1,1-0.7c0.2-0.4,0.2-0.7,0.2-1.5c0,0-0.2,0.2-0.3,0.3
		c-0.3,0.3-0.9,0.5-1.3,0.5c-0.2,0-0.5,0-0.9-0.2c-1-0.5-1.1-1.6-1.1-1.9c0-0.4,0.1-1.4,1-1.9c0.2-0.1,0.5-0.3,1-0.3
		c0.4,0,0.9,0.1,1.2,0.4c0.1,0.1,0.2,0.2,0.4,0.4V86.3z M116.7,90c1,0,1.7-0.6,1.7-1.7c0-0.1,0-0.4-0.1-0.8
		c-0.2-0.6-0.8-0.9-1.4-0.9c-0.1,0-0.4,0-0.8,0.2c-0.4,0.2-0.9,0.5-0.9,1.5C115.1,89.3,115.7,90,116.7,90z"/>
	<path d="M120.8,89.5c0.1,0,0.2,0,0.2,0c0.2,0.1,0.3,0.3,0.3,0.4c0,0.3-0.2,0.5-0.5,0.5c-0.3,0-0.5-0.2-0.5-0.5c0,0,0-0.1,0-0.2
		C120.4,89.7,120.5,89.5,120.8,89.5z"/>
	<path d="M125.8,87.2c-0.4-0.3-0.8-0.5-1.3-0.5c-0.3,0-0.6,0.1-0.7,0.1c-0.7,0.2-1.1,0.8-1.1,1.5c0,0.1,0,0.4,0.1,0.6
		c0.4,0.9,1.3,1,1.6,1c0.5,0,0.9-0.2,1.4-0.4v0.6c-0.5,0.2-0.9,0.3-1.4,0.3c-0.2,0-0.5,0-0.9-0.2c-0.8-0.3-1.3-1.1-1.3-2
		c0-0.2,0-0.8,0.4-1.3c0.2-0.3,0.8-0.8,1.7-0.8c0.5,0,0.9,0.2,1.4,0.4V87.2z"/>
	<path d="M127.4,83.5v3.3c0.4-0.3,0.7-0.6,1.3-0.6c0.2,0,0.4,0,0.5,0.1c0.4,0.1,0.8,0.4,0.9,0.8c0.1,0.2,0.1,0.4,0.1,0.8v2.5h-0.5
		v-2.7c-0.1-0.4-0.1-0.7-0.5-0.9c-0.1-0.1-0.3-0.1-0.5-0.1c-0.3,0-0.6,0.1-0.9,0.4c-0.3,0.3-0.3,0.6-0.3,1v2.4h-0.5v-6.9H127.4z"/>
</g>
</svg>
