<?xml version="1.0" encoding="UTF-8"?>
<svg xmlns="http://www.w3.org/2000/svg" xmlns:xlink="http://www.w3.org/1999/xlink" width="147.4" height="49.68" viewBox="0 0 147.4 49.68">
<defs>
<clipPath id="clip-0">
<path clip-rule="nonzero" d="M 0 37 L 10 37 L 10 49.679688 L 0 49.679688 Z M 0 37 "/>
</clipPath>
<clipPath id="clip-1">
<path clip-rule="nonzero" d="M 10 37 L 29 37 L 29 49.679688 L 10 49.679688 Z M 10 37 "/>
</clipPath>
<clipPath id="clip-2">
<path clip-rule="nonzero" d="M 30 32 L 33 32 L 33 49.679688 L 30 49.679688 Z M 30 32 "/>
</clipPath>
<clipPath id="clip-3">
<path clip-rule="nonzero" d="M 34 37 L 44 37 L 44 49.679688 L 34 49.679688 Z M 34 37 "/>
</clipPath>
<clipPath id="clip-4">
<path clip-rule="nonzero" d="M 45 37 L 56 37 L 56 49.679688 L 45 49.679688 Z M 45 37 "/>
</clipPath>
<clipPath id="clip-5">
<path clip-rule="nonzero" d="M 59 36 L 71 36 L 71 49.679688 L 59 49.679688 Z M 59 36 "/>
</clipPath>
<clipPath id="clip-6">
<path clip-rule="nonzero" d="M 71 36 L 86 36 L 86 49.679688 L 71 49.679688 Z M 71 36 "/>
</clipPath>
<clipPath id="clip-7">
<path clip-rule="nonzero" d="M 87 36 L 99 36 L 99 49.679688 L 87 49.679688 Z M 87 36 "/>
</clipPath>
<clipPath id="clip-8">
<path clip-rule="nonzero" d="M 100 36 L 113 36 L 113 49.679688 L 100 49.679688 Z M 100 36 "/>
</clipPath>
<clipPath id="clip-9">
<path clip-rule="nonzero" d="M 113 36 L 127 36 L 127 49.679688 L 113 49.679688 Z M 113 36 "/>
</clipPath>
<clipPath id="clip-10">
<path clip-rule="nonzero" d="M 127 36 L 140 36 L 140 49.679688 L 127 49.679688 Z M 127 36 "/>
</clipPath>
<clipPath id="clip-11">
<path clip-rule="nonzero" d="M 140 33 L 147.398438 33 L 147.398438 49.679688 L 140 49.679688 Z M 140 33 "/>
</clipPath>
</defs>
<g clip-path="url(#clip-0)">
<path fill-rule="nonzero" fill="rgb(13.729858%, 12.159729%, 12.548828%)" fill-opacity="1" d="M 0.328125 48.105469 C 0.167969 47.988281 0 47.753906 0 47.449219 C 0 47.027344 0.355469 46.671875 0.796875 46.671875 C 0.964844 46.671875 1.128906 46.71875 1.246094 46.816406 C 2.488281 47.660156 3.78125 48.105469 5.097656 48.105469 C 6.554688 48.105469 7.613281 47.355469 7.613281 46.179688 L 7.613281 46.132812 C 7.613281 44.910156 6.175781 44.441406 4.582031 43.996094 C 2.675781 43.457031 0.5625 42.796875 0.5625 40.566406 L 0.5625 40.519531 C 0.5625 38.429688 2.300781 37.042969 4.699219 37.042969 C 5.988281 37.042969 7.398438 37.441406 8.574219 38.078125 C 8.808594 38.214844 9.019531 38.476562 9.019531 38.828125 C 9.019531 39.25 8.667969 39.601562 8.21875 39.601562 C 8.054688 39.601562 7.917969 39.554688 7.824219 39.507812 C 6.789062 38.921875 5.6875 38.570312 4.652344 38.570312 C 3.21875 38.570312 2.300781 39.320312 2.300781 40.332031 L 2.300781 40.378906 C 2.300781 41.527344 3.804688 41.976562 5.425781 42.46875 C 7.304688 43.03125 9.324219 43.761719 9.324219 45.945312 L 9.324219 45.992188 C 9.324219 48.292969 7.421875 49.632812 5.003906 49.632812 C 3.40625 49.632812 1.644531 49.046875 0.328125 48.105469 "/>
</g>
<g clip-path="url(#clip-1)">
<path fill-rule="nonzero" fill="rgb(13.729858%, 12.159729%, 12.548828%)" fill-opacity="1" d="M 14.558594 48.765625 L 10.871094 38.5 C 10.828125 38.359375 10.757812 38.171875 10.757812 38.003906 C 10.757812 37.558594 11.132812 37.136719 11.671875 37.136719 C 12.140625 37.136719 12.449219 37.441406 12.589844 37.890625 L 15.640625 47.003906 L 18.71875 37.863281 C 18.859375 37.441406 19.140625 37.136719 19.609375 37.136719 L 19.707031 37.136719 C 20.199219 37.136719 20.503906 37.441406 20.644531 37.863281 L 23.699219 47.003906 L 26.796875 37.839844 C 26.914062 37.464844 27.171875 37.136719 27.664062 37.136719 C 28.183594 37.136719 28.558594 37.535156 28.558594 37.984375 C 28.558594 38.148438 28.488281 38.335938 28.441406 38.476562 L 24.730469 48.765625 C 24.542969 49.304688 24.164062 49.585938 23.742188 49.585938 L 23.671875 49.585938 C 23.203125 49.585938 22.851562 49.304688 22.6875 48.765625 L 19.65625 39.90625 L 16.601562 48.765625 C 16.441406 49.304688 16.089844 49.585938 15.617188 49.585938 L 15.570312 49.585938 C 15.121094 49.585938 14.746094 49.304688 14.558594 48.765625 "/>
</g>
<g clip-path="url(#clip-2)">
<path fill-rule="nonzero" fill="rgb(13.729858%, 12.159729%, 12.548828%)" fill-opacity="1" d="M 30.765625 38.050781 C 30.765625 37.558594 31.160156 37.136719 31.65625 37.136719 C 32.171875 37.136719 32.574219 37.535156 32.574219 38.050781 L 32.574219 48.597656 C 32.574219 49.117188 32.199219 49.515625 31.679688 49.515625 C 31.160156 49.515625 30.765625 49.117188 30.765625 48.597656 Z M 30.597656 33.449219 C 30.597656 32.863281 31.070312 32.484375 31.65625 32.484375 C 32.265625 32.484375 32.734375 32.863281 32.734375 33.449219 L 32.734375 33.753906 C 32.734375 34.316406 32.265625 34.71875 31.65625 34.71875 C 31.070312 34.71875 30.597656 34.316406 30.597656 33.753906 L 30.597656 33.449219 "/>
</g>
<g clip-path="url(#clip-3)">
<path fill-rule="nonzero" fill="rgb(13.729858%, 12.159729%, 12.548828%)" fill-opacity="1" d="M 34.925781 48.105469 C 34.761719 47.988281 34.597656 47.753906 34.597656 47.449219 C 34.597656 47.027344 34.949219 46.671875 35.398438 46.671875 C 35.558594 46.671875 35.722656 46.71875 35.84375 46.816406 C 37.089844 47.660156 38.378906 48.105469 39.695312 48.105469 C 41.152344 48.105469 42.207031 47.355469 42.207031 46.179688 L 42.207031 46.132812 C 42.207031 44.910156 40.773438 44.441406 39.175781 43.996094 C 37.277344 43.457031 35.160156 42.796875 35.160156 40.566406 L 35.160156 40.519531 C 35.160156 38.429688 36.898438 37.042969 39.292969 37.042969 C 40.585938 37.042969 41.996094 37.441406 43.167969 38.078125 C 43.40625 38.214844 43.613281 38.476562 43.613281 38.828125 C 43.613281 39.25 43.265625 39.601562 42.820312 39.601562 C 42.65625 39.601562 42.511719 39.554688 42.417969 39.507812 C 41.386719 38.921875 40.28125 38.570312 39.246094 38.570312 C 37.816406 38.570312 36.898438 39.320312 36.898438 40.332031 L 36.898438 40.378906 C 36.898438 41.527344 38.402344 41.976562 40.023438 42.46875 C 41.902344 43.03125 43.921875 43.761719 43.921875 45.945312 L 43.921875 45.992188 C 43.921875 48.292969 42.019531 49.632812 39.597656 49.632812 C 38.003906 49.632812 36.242188 49.046875 34.925781 48.105469 "/>
</g>
<g clip-path="url(#clip-4)">
<path fill-rule="nonzero" fill="rgb(13.729858%, 12.159729%, 12.548828%)" fill-opacity="1" d="M 46.074219 48.105469 C 45.90625 47.988281 45.742188 47.753906 45.742188 47.449219 C 45.742188 47.027344 46.09375 46.671875 46.539062 46.671875 C 46.707031 46.671875 46.871094 46.71875 46.988281 46.816406 C 48.230469 47.660156 49.527344 48.105469 50.839844 48.105469 C 52.296875 48.105469 53.351562 47.355469 53.351562 46.179688 L 53.351562 46.132812 C 53.351562 44.910156 51.917969 44.441406 50.324219 43.996094 C 48.417969 43.457031 46.304688 42.796875 46.304688 40.566406 L 46.304688 40.519531 C 46.304688 38.429688 48.042969 37.042969 50.441406 37.042969 C 51.730469 37.042969 53.144531 37.441406 54.316406 38.078125 C 54.550781 38.214844 54.761719 38.476562 54.761719 38.828125 C 54.761719 39.25 54.410156 39.601562 53.964844 39.601562 C 53.796875 39.601562 53.65625 39.554688 53.566406 39.507812 C 52.53125 38.921875 51.425781 38.570312 50.394531 38.570312 C 48.960938 38.570312 48.042969 39.320312 48.042969 40.332031 L 48.042969 40.378906 C 48.042969 41.527344 49.546875 41.976562 51.167969 42.46875 C 53.046875 43.03125 55.070312 43.761719 55.070312 45.945312 L 55.070312 45.992188 C 55.070312 48.292969 53.164062 49.632812 50.746094 49.632812 C 49.148438 49.632812 47.386719 49.046875 46.074219 48.105469 "/>
</g>
<g clip-path="url(#clip-5)">
<path fill-rule="nonzero" fill="rgb(13.729858%, 12.159729%, 12.548828%)" fill-opacity="1" d="M 59.332031 43.171875 L 59.332031 43.125 C 59.332031 39.53125 62.078125 36.574219 65.929688 36.574219 C 67.832031 36.574219 69.171875 37.089844 70.226562 37.984375 C 70.464844 38.171875 70.792969 38.59375 70.792969 39.203125 C 70.792969 40.097656 70.066406 40.800781 69.171875 40.800781 C 68.703125 40.800781 68.347656 40.613281 68.140625 40.449219 C 67.503906 39.957031 66.84375 39.648438 65.90625 39.648438 C 64.121094 39.648438 62.851562 41.222656 62.851562 43.078125 L 62.851562 43.125 C 62.851562 45.054688 64.097656 46.601562 66.046875 46.601562 C 66.984375 46.601562 67.714844 46.273438 68.398438 45.734375 C 68.585938 45.59375 68.933594 45.40625 69.359375 45.40625 C 70.207031 45.40625 70.859375 46.085938 70.859375 46.933594 C 70.859375 47.402344 70.652344 47.777344 70.34375 48.058594 C 69.289062 49.023438 67.949219 49.679688 65.882812 49.679688 C 62.101562 49.679688 59.332031 46.765625 59.332031 43.171875 "/>
</g>
<g clip-path="url(#clip-6)">
<path fill-rule="nonzero" fill="rgb(13.729858%, 12.159729%, 12.548828%)" fill-opacity="1" d="M 81.976562 43.171875 L 81.976562 43.125 C 81.976562 41.269531 80.640625 39.648438 78.667969 39.648438 C 76.625 39.648438 75.402344 41.222656 75.402344 43.078125 L 75.402344 43.125 C 75.402344 44.980469 76.742188 46.601562 78.714844 46.601562 C 80.757812 46.601562 81.976562 45.027344 81.976562 43.171875 Z M 71.878906 43.171875 L 71.878906 43.125 C 71.878906 39.507812 74.789062 36.574219 78.714844 36.574219 C 82.613281 36.574219 85.503906 39.460938 85.503906 43.078125 L 85.503906 43.125 C 85.503906 46.742188 82.589844 49.679688 78.667969 49.679688 C 74.769531 49.679688 71.878906 46.789062 71.878906 43.171875 "/>
</g>
<g clip-path="url(#clip-7)">
<path fill-rule="nonzero" fill="rgb(13.729858%, 12.159729%, 12.548828%)" fill-opacity="1" d="M 87.136719 38.453125 C 87.136719 37.464844 87.933594 36.667969 88.917969 36.667969 C 89.90625 36.667969 90.707031 37.464844 90.707031 38.453125 L 90.707031 38.59375 C 91.527344 37.535156 92.585938 36.574219 94.394531 36.574219 C 97.09375 36.574219 98.667969 38.359375 98.667969 41.246094 L 98.667969 47.753906 C 98.667969 48.738281 97.867188 49.539062 96.882812 49.539062 C 95.898438 49.539062 95.097656 48.738281 95.097656 47.753906 L 95.097656 42.375 C 95.097656 40.683594 94.296875 39.8125 92.933594 39.8125 C 91.574219 39.8125 90.707031 40.683594 90.707031 42.375 L 90.707031 47.753906 C 90.707031 48.738281 89.90625 49.539062 88.917969 49.539062 C 87.933594 49.539062 87.136719 48.738281 87.136719 47.753906 L 87.136719 38.453125 "/>
</g>
<g clip-path="url(#clip-8)">
<path fill-rule="nonzero" fill="rgb(13.729858%, 12.159729%, 12.548828%)" fill-opacity="1" d="M 100.917969 38.453125 C 100.917969 37.464844 101.71875 36.667969 102.703125 36.667969 C 103.6875 36.667969 104.488281 37.464844 104.488281 38.453125 L 104.488281 38.59375 C 105.3125 37.535156 106.367188 36.574219 108.175781 36.574219 C 110.878906 36.574219 112.449219 38.359375 112.449219 41.246094 L 112.449219 47.753906 C 112.449219 48.738281 111.652344 49.539062 110.664062 49.539062 C 109.679688 49.539062 108.882812 48.738281 108.882812 47.753906 L 108.882812 42.375 C 108.882812 40.683594 108.082031 39.8125 106.722656 39.8125 C 105.355469 39.8125 104.488281 40.683594 104.488281 42.375 L 104.488281 47.753906 C 104.488281 48.738281 103.6875 49.539062 102.703125 49.539062 C 101.71875 49.539062 100.917969 48.738281 100.917969 47.753906 L 100.917969 38.453125 "/>
</g>
<g clip-path="url(#clip-9)">
<path fill-rule="nonzero" fill="rgb(13.729858%, 12.159729%, 12.548828%)" fill-opacity="1" d="M 122.746094 42.117188 C 122.53125 40.519531 121.59375 39.4375 120.09375 39.4375 C 118.609375 39.4375 117.648438 40.496094 117.367188 42.117188 Z M 120.441406 49.679688 C 116.660156 49.679688 113.867188 47.027344 113.867188 43.171875 L 113.867188 43.125 C 113.867188 39.53125 116.429688 36.574219 120.09375 36.574219 C 124.296875 36.574219 126.148438 40.027344 126.148438 42.632812 C 126.148438 43.667969 125.425781 44.347656 124.480469 44.347656 L 117.414062 44.347656 C 117.765625 45.96875 118.894531 46.816406 120.488281 46.816406 C 121.476562 46.816406 122.300781 46.507812 123.027344 45.96875 C 123.285156 45.78125 123.519531 45.6875 123.894531 45.6875 C 124.695312 45.6875 125.28125 46.296875 125.28125 47.097656 C 125.28125 47.566406 125.070312 47.917969 124.8125 48.152344 C 123.710938 49.09375 122.273438 49.679688 120.441406 49.679688 "/>
</g>
<g clip-path="url(#clip-10)">
<path fill-rule="nonzero" fill="rgb(13.729858%, 12.159729%, 12.548828%)" fill-opacity="1" d="M 127.492188 43.171875 L 127.492188 43.125 C 127.492188 39.53125 130.242188 36.574219 134.09375 36.574219 C 135.996094 36.574219 137.335938 37.089844 138.394531 37.984375 C 138.628906 38.171875 138.953125 38.59375 138.953125 39.203125 C 138.953125 40.097656 138.226562 40.800781 137.335938 40.800781 C 136.863281 40.800781 136.511719 40.613281 136.300781 40.449219 C 135.664062 39.957031 135.011719 39.648438 134.070312 39.648438 C 132.285156 39.648438 131.019531 41.222656 131.019531 43.078125 L 131.019531 43.125 C 131.019531 45.054688 132.261719 46.601562 134.210938 46.601562 C 135.148438 46.601562 135.878906 46.273438 136.558594 45.734375 C 136.746094 45.59375 137.101562 45.40625 137.523438 45.40625 C 138.367188 45.40625 139.023438 46.085938 139.023438 46.933594 C 139.023438 47.402344 138.8125 47.777344 138.507812 48.058594 C 137.453125 49.023438 136.113281 49.679688 134.046875 49.679688 C 130.265625 49.679688 127.492188 46.765625 127.492188 43.171875 "/>
</g>
<g clip-path="url(#clip-11)">
<path fill-rule="nonzero" fill="rgb(13.729858%, 12.159729%, 12.548828%)" fill-opacity="1" d="M 140.730469 45.828125 L 140.730469 35.234375 C 140.730469 34.246094 141.527344 33.449219 142.519531 33.449219 C 143.503906 33.449219 144.304688 34.246094 144.304688 35.234375 L 144.304688 36.808594 L 145.875 36.808594 C 146.722656 36.808594 147.402344 37.488281 147.402344 38.335938 C 147.402344 39.179688 146.722656 39.859375 145.875 39.859375 L 144.304688 39.859375 L 144.304688 45.242188 C 144.304688 46.0625 144.652344 46.460938 145.453125 46.460938 C 145.570312 46.460938 145.804688 46.4375 145.875 46.4375 C 146.675781 46.4375 147.355469 47.097656 147.355469 47.917969 C 147.355469 48.550781 146.933594 49.070312 146.4375 49.257812 C 145.78125 49.515625 145.171875 49.609375 144.394531 49.609375 C 142.210938 49.609375 140.730469 48.738281 140.730469 45.828125 "/>
</g>
<path fill-rule="nonzero" fill="rgb(65.501404%, 64.872742%, 65.028381%)" fill-opacity="1" d="M 53.289062 15.925781 C 51.265625 13.902344 51.265625 10.621094 53.289062 8.59375 C 55.316406 6.570312 58.597656 6.570312 60.621094 8.59375 L 60.882812 8.855469 C 62.90625 6.828125 62.90625 3.546875 60.882812 1.523438 C 58.855469 -0.503906 55.574219 -0.503906 53.550781 1.523438 L 46.035156 9.035156 C 44.011719 11.058594 44.011719 14.339844 46.035156 16.367188 L 53.289062 23.621094 L 57.136719 19.773438 L 53.289062 15.925781 "/>
<path fill-rule="nonzero" fill="rgb(96.257019%, 50.421143%, 7.48291%)" fill-opacity="1" d="M 68.136719 16.109375 L 60.621094 8.59375 C 58.597656 6.570312 55.316406 6.570312 53.289062 8.59375 C 51.265625 10.621094 51.265625 13.902344 53.289062 15.925781 L 57.136719 19.773438 L 53.289062 23.621094 C 51.265625 25.644531 51.265625 28.925781 53.289062 30.953125 C 55.316406 32.976562 58.597656 32.976562 60.621094 30.953125 L 68.136719 23.4375 C 70.160156 21.414062 70.160156 18.132812 68.136719 16.109375 "/>
<path fill-rule="nonzero" fill="rgb(64.326477%, 33.084106%, 4.638672%)" fill-opacity="1" d="M 60.882812 23.878906 C 62.90625 21.855469 62.90625 18.570312 60.882812 16.546875 L 57.035156 12.699219 L 60.882812 8.855469 L 60.621094 8.59375 C 58.597656 6.570312 55.316406 6.570312 53.289062 8.59375 C 51.265625 10.621094 51.265625 13.902344 53.289062 15.925781 L 57.136719 19.773438 L 53.289062 23.621094 L 53.550781 23.878906 C 55.574219 25.902344 58.855469 25.902344 60.882812 23.878906 "/>
<path fill="none" stroke-width="2" stroke-linecap="butt" stroke-linejoin="miter" stroke="rgb(65.501404%, 64.872742%, 65.028381%)" stroke-opacity="1" stroke-miterlimit="10" d="M 532.929688 260.589063 L 571.367188 299.065625 L 532.929688 337.542188 C 512.65625 357.776563 512.65625 390.589063 532.929688 410.8625 C 553.164062 431.096875 585.976562 431.096875 606.210938 410.8625 L 608.828125 408.245313 " transform="matrix(0.1, 0, 0, -0.1, 0, 49.68)"/>
<path fill="none" stroke-width="2" stroke-linecap="butt" stroke-linejoin="miter" stroke="rgb(96.257019%, 50.421143%, 7.48291%)" stroke-opacity="1" stroke-miterlimit="10" d="M 532.890625 260.70625 L 535.507812 258.089063 C 555.742188 237.854688 588.554688 237.854688 608.828125 258.089063 C 629.0625 278.3625 629.0625 311.175 608.828125 331.409375 L 570.351562 369.885938 L 608.828125 408.3625 " transform="matrix(0.1, 0, 0, -0.1, 0, 49.68)"/>
</svg>
