<?xml version="1.0" encoding="UTF-8"?>
<svg xmlns="http://www.w3.org/2000/svg" xmlns:xlink="http://www.w3.org/1999/xlink" width="405.35" height="70.64" viewBox="0 0 405.35 70.64">
<defs>
<clipPath id="clip-0">
<path clip-rule="nonzero" d="M 147 16 L 182 16 L 182 70.640625 L 147 70.640625 Z M 147 16 "/>
</clipPath>
<clipPath id="clip-1">
<path clip-rule="nonzero" d="M 355 16 L 405.351562 16 L 405.351562 55 L 355 55 Z M 355 16 "/>
</clipPath>
</defs>
<path fill-rule="nonzero" fill="rgb(13.729858%, 12.159729%, 12.548828%)" fill-opacity="1" d="M 142.359375 24.90625 C 142.210938 25.285156 141.832031 25.582031 141.753906 25.582031 C 141.527344 25.582031 137.828125 23.621094 133 23.621094 C 130.132812 23.621094 128.019531 24.679688 128.019531 27.25 C 128.019531 31.320312 134.8125 31.015625 140.171875 34.566406 C 143.117188 36.527344 145.226562 39.394531 145.226562 43.773438 C 145.226562 50.714844 140.320312 55.925781 132.324219 55.925781 C 126.734375 55.925781 118.136719 53.058594 118.136719 51.019531 C 118.136719 50.796875 118.433594 50.335938 118.507812 50.042969 L 120.171875 45.738281 C 120.320312 45.355469 120.46875 45.054688 120.769531 45.054688 C 121.074219 45.054688 126.886719 48.375 131.5625 48.375 C 134.058594 48.375 136.167969 47.320312 136.167969 44.605469 C 136.167969 40.226562 128.773438 40.226562 123.796875 36.90625 C 121.53125 35.398438 119.339844 32.753906 119.339844 28.378906 C 119.339844 21.511719 124.546875 16.074219 132.699219 16.074219 C 137.300781 16.074219 144.472656 18.039062 144.472656 19.773438 C 144.472656 20 144.246094 20.449219 144.097656 20.753906 L 142.359375 24.90625 "/>
<g clip-path="url(#clip-0)">
<path fill-rule="nonzero" fill="rgb(13.729858%, 12.159729%, 12.548828%)" fill-opacity="1" d="M 172.214844 18.261719 C 172.4375 17.433594 172.816406 16.679688 173.492188 16.679688 C 173.800781 16.679688 174.628906 16.757812 174.851562 16.757812 L 180.140625 17.433594 C 181.269531 17.585938 181.796875 17.65625 181.796875 18.191406 C 181.796875 18.488281 181.570312 18.945312 181.417969 19.546875 L 174.023438 46.789062 C 172.664062 51.699219 170.625 59.394531 168.96875 63.550781 C 166.78125 69.058594 162.097656 70.640625 157.871094 70.640625 C 153.722656 70.640625 147.609375 68.601562 147.609375 67.167969 C 147.609375 66.867188 147.757812 66.566406 147.910156 66.265625 L 150.175781 61.359375 C 150.324219 60.980469 150.628906 60.832031 150.855469 60.832031 C 151.609375 60.832031 153.949219 62.71875 157.269531 62.71875 C 160.53125 62.71875 162.027344 61.042969 162.808594 58.640625 C 163.605469 56.175781 161.378906 52.296875 159.863281 48.40625 C 159.101562 46.449219 148.628906 19.628906 148.628906 19.628906 C 148.550781 19.476562 148.324219 18.871094 148.246094 18.347656 C 148.246094 17.742188 148.777344 17.664062 149.910156 17.515625 L 155.53125 16.757812 C 155.757812 16.757812 156.59375 16.679688 156.742188 16.679688 C 157.34375 16.679688 157.570312 17.433594 157.800781 18.191406 L 166.496094 45.507812 C 166.871094 42.5625 172.214844 18.261719 172.214844 18.261719 "/>
</g>
<path fill-rule="nonzero" fill="rgb(13.729858%, 12.159729%, 12.548828%)" fill-opacity="1" d="M 217.988281 53.582031 C 217.988281 54.410156 217.835938 54.640625 216.929688 54.640625 L 209.457031 54.640625 C 208.550781 54.640625 208.402344 54.410156 208.402344 53.582031 L 208.402344 30.339844 C 208.402344 27.472656 208.023438 24 204.175781 24 C 201.003906 24 198.515625 26.1875 197.535156 27.09375 L 197.535156 53.582031 C 197.535156 54.410156 197.386719 54.640625 196.476562 54.640625 L 189.007812 54.640625 C 188.101562 54.640625 187.949219 54.410156 187.949219 53.582031 L 187.949219 30.792969 C 187.949219 20.148438 186.515625 20.753906 186.515625 19.019531 C 186.515625 18.640625 186.816406 18.339844 187.347656 18.191406 L 193.082031 16.300781 C 193.535156 16.152344 193.910156 16.074219 194.214844 16.074219 C 195.191406 16.074219 195.796875 17.734375 196.628906 21.285156 C 198.816406 19.324219 202.214844 16.074219 208.175781 16.074219 C 212.324219 16.074219 217.988281 17.960938 217.988281 27.09375 L 217.988281 53.582031 "/>
<path fill-rule="nonzero" fill="rgb(13.729858%, 12.159729%, 12.548828%)" fill-opacity="1" d="M 246.699219 25.132812 C 246.015625 24.75 244.734375 23.621094 241.566406 23.621094 C 235.90625 23.621094 234.769531 27.851562 234.769531 36.226562 C 234.769531 44.753906 236.207031 48.375 241.109375 48.375 C 244.507812 48.375 245.792969 46.71875 246.699219 45.738281 Z M 251.226562 55.621094 C 250.925781 55.699219 250.546875 55.925781 250.242188 55.925781 C 249.5625 55.925781 248.429688 53.285156 248.054688 51.398438 C 246.847656 52.53125 243.527344 55.925781 238.09375 55.925781 C 229.488281 55.925781 225.183594 48.980469 225.183594 37.511719 C 225.183594 23.246094 230.316406 16.074219 239.675781 16.074219 C 243.753906 16.074219 245.488281 17.511719 246.699219 18.339844 L 246.699219 2.867188 C 246.699219 1.730469 247.222656 1.730469 248.132812 1.507812 L 254.46875 0.226562 C 254.695312 0.226562 255.375 -0.00390625 255.527344 -0.00390625 C 256.128906 -0.00390625 256.28125 0.300781 256.28125 1.585938 L 256.28125 42.792969 C 256.28125 50.113281 257.636719 51.09375 257.636719 52.609375 C 257.636719 52.902344 257.335938 53.132812 256.960938 53.285156 L 251.226562 55.621094 "/>
<path fill-rule="nonzero" fill="rgb(13.729858%, 12.159729%, 12.548828%)" fill-opacity="1" d="M 271.160156 12.453125 C 274.554688 12.453125 277.347656 9.660156 277.347656 6.191406 C 277.347656 2.71875 274.554688 -0.00390625 271.160156 -0.00390625 C 267.683594 -0.00390625 264.894531 2.71875 264.894531 6.191406 C 264.894531 9.660156 267.683594 12.453125 271.160156 12.453125 "/>
<path fill-rule="nonzero" fill="rgb(13.729858%, 12.159729%, 12.548828%)" fill-opacity="1" d="M 275.988281 53.582031 L 275.988281 18.417969 C 275.988281 17.585938 275.839844 17.355469 274.929688 17.355469 L 266.804688 17.355469 C 266.496094 17.484375 266.425781 17.769531 266.425781 18.316406 L 266.425781 53.484375 C 266.425781 54.3125 266.574219 54.546875 267.484375 54.546875 L 275.609375 54.546875 C 275.917969 54.414062 275.988281 54.132812 275.988281 53.582031 "/>
<path fill-rule="nonzero" fill="rgb(13.729858%, 12.159729%, 12.548828%)" fill-opacity="1" d="M 311.785156 51.167969 C 311.855469 51.398438 312.007812 51.699219 312.007812 51.925781 C 312.007812 53.738281 305.894531 55.925781 301.367188 55.925781 C 290.875 55.925781 284.613281 49.507812 284.613281 36.753906 C 284.613281 24 291.027344 16.074219 302.195312 16.074219 C 306.269531 16.074219 312.914062 18.339844 312.914062 20.683594 C 312.914062 20.90625 312.761719 21.132812 312.6875 21.355469 L 309.894531 26.261719 C 309.746094 26.414062 309.59375 26.640625 309.367188 26.640625 C 308.613281 26.640625 306.121094 23.621094 302.195312 23.621094 C 297.0625 23.621094 294.800781 27.546875 294.800781 36.226562 C 294.800781 44.527344 296.765625 48.375 302.574219 48.375 C 306.425781 48.375 307.933594 45.808594 309.289062 45.808594 C 309.519531 45.808594 309.667969 45.964844 309.820312 46.1875 L 311.785156 51.167969 "/>
<path fill-rule="nonzero" fill="rgb(13.729858%, 12.159729%, 12.548828%)" fill-opacity="1" d="M 339.398438 36 C 339.398438 28.984375 338.417969 23.621094 333.214844 23.621094 C 328.003906 23.621094 327.023438 28.984375 327.023438 36 C 327.023438 43.019531 327.929688 48.375 333.214844 48.375 C 338.492188 48.375 339.398438 43.09375 339.398438 36 Z M 333.214844 55.925781 C 323.027344 55.925781 316.835938 48.152344 316.835938 36 C 316.835938 23.851562 323.027344 16.074219 333.214844 16.074219 C 343.324219 16.074219 349.589844 23.851562 349.589844 36 C 349.589844 48.152344 343.402344 55.925781 333.214844 55.925781 "/>
<g clip-path="url(#clip-1)">
<path fill-rule="nonzero" fill="rgb(13.729858%, 12.159729%, 12.548828%)" fill-opacity="1" d="M 405.351562 53.582031 C 405.351562 54.410156 405.203125 54.640625 404.292969 54.640625 L 396.824219 54.640625 C 395.921875 54.640625 395.769531 54.410156 395.769531 53.582031 L 395.769531 30.339844 C 395.769531 27.472656 395.464844 24 392.597656 24 C 389.429688 24 386.9375 26.1875 385.960938 27.09375 L 385.960938 53.582031 C 385.960938 54.410156 385.804688 54.640625 384.898438 54.640625 L 377.429688 54.640625 C 376.523438 54.640625 376.371094 54.410156 376.371094 53.582031 L 376.371094 30.339844 C 376.371094 27.472656 376.066406 24 373.203125 24 C 370.03125 24 367.542969 26.1875 366.5625 27.09375 L 366.5625 53.582031 C 366.5625 54.410156 366.410156 54.640625 365.503906 54.640625 L 358.03125 54.640625 C 357.125 54.640625 356.976562 54.410156 356.976562 53.582031 L 356.976562 30.792969 C 356.976562 20.148438 355.542969 20.753906 355.542969 19.019531 C 355.542969 18.640625 355.84375 18.339844 356.375 18.191406 L 362.105469 16.300781 C 362.5625 16.152344 362.9375 16.074219 363.238281 16.074219 C 364.21875 16.074219 364.824219 17.734375 365.65625 21.285156 C 367.917969 19.324219 371.238281 16.074219 377.203125 16.074219 C 380.445312 16.074219 383.996094 18.113281 384.898438 21.285156 C 387.167969 19.324219 390.410156 16.074219 396.597656 16.074219 C 403.695312 16.074219 405.351562 21.433594 405.351562 28 L 405.351562 53.582031 "/>
</g>
<path fill-rule="nonzero" fill="rgb(13.729858%, 12.159729%, 12.548828%)" fill-opacity="1" d="M 16.300781 15.671875 C 6.15625 15.671875 0 23.410156 0 35.515625 C 0 47.617188 6.15625 55.359375 16.300781 55.359375 C 26.441406 55.359375 32.597656 47.617188 32.597656 35.515625 C 32.597656 23.410156 26.363281 15.671875 16.300781 15.671875 "/>
<path fill-rule="nonzero" fill="rgb(100%, 100%, 100%)" fill-opacity="1" d="M 10.277344 35.246094 C 9.191406 35.765625 6.480469 37.035156 6.480469 37.035156 C 5.4375 37.527344 5 38.78125 5.496094 39.820312 C 6 40.859375 7.242188 41.300781 8.28125 40.796875 L 8.492188 40.699219 C 8.90625 41.578125 8.964844 41.789062 9.199219 42.648438 C 9.5 43.761719 9.3125 46.265625 10.875 45.886719 C 12.4375 45.507812 13.269531 44.851562 13.269531 44.851562 C 13.269531 44.851562 12.332031 43.128906 11.742188 41.125 C 11.386719 39.929688 11.429688 39.234375 12.160156 38.878906 C 17.210938 36.472656 18.90625 37.582031 22.457031 38.941406 L 16.789062 27.125 C 15.617188 30.769531 15.441406 32.75 10.277344 35.246094 "/>
<path fill-rule="nonzero" fill="rgb(100%, 100%, 100%)" fill-opacity="1" d="M 26.597656 30.652344 L 25.726562 28.839844 L 21.453125 32.058594 Z M 26.597656 30.652344 "/>
<path fill-rule="nonzero" fill="rgb(100%, 100%, 100%)" fill-opacity="1" d="M 27.136719 33.367188 L 22.816406 34.789062 L 27.308594 35.363281 Z M 27.136719 33.367188 "/>
<path fill-rule="nonzero" fill="rgb(100%, 100%, 100%)" fill-opacity="1" d="M 22.464844 25.339844 L 20.167969 29.261719 L 23.933594 26.703125 Z M 22.464844 25.339844 "/>
<path fill-rule="nonzero" fill="rgb(30.595398%, 74.308777%, 93.661499%)" fill-opacity="1" d="M 54.570312 15.671875 C 44.429688 15.671875 38.269531 23.417969 38.269531 35.515625 C 38.269531 47.617188 44.429688 55.359375 54.570312 55.359375 C 64.707031 55.359375 70.867188 47.617188 70.867188 35.515625 C 70.867188 23.417969 64.632812 15.671875 54.570312 15.671875 "/>
<path fill-rule="nonzero" fill="rgb(100%, 100%, 100%)" fill-opacity="1" d="M 60.496094 32.246094 C 57.367188 32.246094 55.089844 33.960938 55.089844 36.339844 C 55.089844 38.054688 56.285156 39.421875 58.132812 40.054688 C 58.484375 41.8125 57.941406 43.238281 57.941406 43.238281 C 58.964844 42.652344 59.710938 41.652344 60.085938 40.414062 C 60.222656 40.417969 60.355469 40.425781 60.496094 40.425781 C 63.628906 40.425781 65.90625 38.707031 65.90625 36.339844 C 65.90625 33.960938 63.628906 32.246094 60.496094 32.246094 "/>
<path fill-rule="nonzero" fill="rgb(100%, 100%, 100%)" fill-opacity="1" d="M 58.476562 31.089844 C 58.285156 27.929688 55.3125 25.421875 50.859375 25.421875 C 46.261719 25.421875 43.230469 28.101562 43.230469 31.410156 C 43.230469 34 45.105469 36.203125 48.125 37.035156 C 48.253906 38.898438 49.132812 40.449219 50.511719 41.234375 C 50.511719 41.234375 49.820312 39.433594 50.496094 37.378906 C 50.621094 37.378906 50.738281 37.394531 50.859375 37.394531 C 51.917969 37.394531 52.886719 37.242188 53.761719 36.984375 C 53.734375 36.773438 53.722656 36.554688 53.722656 36.339844 C 53.722656 33.746094 55.625 31.738281 58.476562 31.089844 "/>
<path fill-rule="nonzero" fill="rgb(91.505432%, 92.367554%, 2.664185%)" fill-opacity="1" d="M 92.835938 15.671875 C 82.695312 15.671875 76.535156 23.417969 76.535156 35.515625 C 76.535156 47.617188 82.695312 55.359375 92.835938 55.359375 C 102.976562 55.359375 109.132812 47.617188 109.132812 35.515625 C 109.132812 23.417969 102.894531 15.671875 92.835938 15.671875 "/>
<path fill-rule="nonzero" fill="rgb(100%, 100%, 100%)" fill-opacity="1" d="M 97.195312 36.472656 C 96.386719 36.574219 95.535156 36.445312 95.433594 35.632812 C 95.335938 34.816406 95.90625 34.074219 96.71875 33.96875 C 97.535156 33.867188 98.273438 34.441406 98.378906 35.257812 C 98.476562 36.074219 98.007812 36.367188 97.195312 36.472656 Z M 89.21875 27.269531 C 85.375 28.65625 83.828125 32.46875 85.789062 37.804688 C 87.75 43.140625 92.332031 43.917969 96.421875 43.917969 C 98.113281 43.917969 99.027344 42.648438 99.503906 41.128906 C 97.003906 40.867188 95.832031 39.65625 95.832031 39.65625 C 97.1875 40.082031 98.652344 40.015625 99.8125 39.816406 C 99.925781 39.132812 99.972656 38.453125 99.976562 37.847656 L 101.886719 37.160156 C 99.894531 31.949219 96.808594 24.519531 89.21875 27.269531 "/>
</svg>
