<?xml version="1.0" encoding="UTF-8"?>
<svg xmlns="http://www.w3.org/2000/svg" xmlns:xlink="http://www.w3.org/1999/xlink" width="708.661" height="476.22" viewBox="0 0 708.661 476.22">
<path fill="none" stroke-width="3.834" stroke-linecap="butt" stroke-linejoin="round" stroke="rgb(13.729858%, 12.159729%, 12.548828%)" stroke-opacity="1" stroke-miterlimit="10.216" d="M 0.00078125 0.0001375 C -17.663281 10.093887 -38.608594 14.886856 -59.046094 14.886856 C -96.389844 14.886856 -121.878125 -5.300644 -121.878125 -38.101425 C -121.878125 -103.202988 -37.092969 -99.925644 -37.092969 -132.726425 C -37.092969 -143.577988 -43.655469 -149.886581 -56.26875 -149.886581 C -75.194531 -149.886581 -93.3625 -135.503769 -117.839063 -101.691269 L -122.885938 -101.691269 L -122.885938 -162.753769 C -104.464063 -173.101425 -82.514844 -178.1483 -57.280469 -178.1483 C -15.39375 -178.1483 11.860156 -153.167831 11.60625 -118.597519 C 11.102344 -53.745956 -74.690625 -62.074081 -74.690625 -29.019394 C -74.690625 -20.691269 -68.382031 -14.132675 -58.038281 -14.132675 C -42.139844 -14.132675 -26.745313 -21.699081 -5.046094 -48.952988 L 0.00078125 -48.952988 Z M 125.910937 9.589981 L 125.910937 -62.831894 L 82.508594 -62.831894 L 82.508594 9.589981 L 32.04375 9.589981 L 32.04375 -172.847519 L 82.508594 -172.847519 L 82.508594 -91.343613 L 125.910937 -91.343613 L 125.910937 -172.847519 L 176.379687 -172.847519 L 176.379687 9.589981 Z M 282.60625 13.375137 C 226.086719 13.375137 197.067187 -25.234238 197.067187 -80.49205 C 197.067187 -137.7733 234.160937 -176.632675 286.645312 -176.632675 C 338.121875 -176.632675 371.430469 -131.968613 371.430469 -81.249863 C 371.430469 -25.234238 333.325 13.375137 282.60625 13.375137 Z M 241.98125 -39.363144 C 241.98125 -29.019394 246.524219 -20.437363 257.879687 -20.437363 C 284.879687 -20.437363 332.821094 -73.42955 332.821094 -115.062363 C 332.821094 -125.410019 328.278125 -133.988144 316.926562 -133.988144 C 288.914844 -133.988144 241.98125 -80.745956 241.98125 -39.363144 Z M 393.379687 -172.847519 L 443.848437 -172.847519 L 443.848437 -109.007675 C 450.914844 -111.277206 459.742969 -112.035019 468.575 -112.035019 C 501.633594 -112.035019 532.922656 -88.820175 532.922656 -48.699081 C 532.922656 -5.80455 504.153125 10.8517 447.633594 10.8517 C 427.696094 10.8517 413.313281 10.093887 393.379687 9.589981 Z M 443.848437 -18.421738 C 477.910937 -30.531113 489.770312 -49.7108 489.770312 -68.382675 C 489.770312 -79.484238 483.715625 -85.792831 473.371875 -85.792831 C 453.942187 -85.792831 443.848437 -62.831894 443.848437 -18.421738 Z M 443.848437 -18.421738 " transform="matrix(1, 0, 0, -1, 168.8625, 292.7892)"/>
<path fill="none" stroke-width="3.834" stroke-linecap="butt" stroke-linejoin="round" stroke="rgb(13.729858%, 12.159729%, 12.548828%)" stroke-opacity="1" stroke-miterlimit="10.216" d="M 0.00078125 0.0005625 C -17.663281 10.094313 -38.608594 14.887281 -59.046094 14.887281 C -96.389844 14.887281 -121.878125 -5.300219 -121.878125 -38.101 C -121.878125 -103.202562 -37.092969 -99.925219 -37.092969 -132.726 C -37.092969 -143.577562 -43.655469 -149.886156 -56.26875 -149.886156 C -75.194531 -149.886156 -93.3625 -135.503344 -117.839063 -101.690844 L -122.885938 -101.690844 L -122.885938 -162.753344 C -104.464063 -173.101 -82.514844 -178.147875 -57.280469 -178.147875 C -15.39375 -178.147875 11.860156 -153.167406 11.60625 -118.597094 C 11.102344 -53.745531 -74.690625 -62.073656 -74.690625 -29.018969 C -74.690625 -20.690844 -68.382031 -14.13225 -58.038281 -14.13225 C -42.139844 -14.13225 -26.745313 -21.702562 -5.046094 -48.952562 L 0.00078125 -48.952562 Z M 81.250781 -25.233812 C 81.250781 -19.933031 82.004687 -16.401781 87.555469 -16.401781 L 131.969531 -16.401781 L 131.969531 9.590406 L 30.782031 9.590406 L 30.782031 -172.847094 L 135.500781 -172.847094 L 135.500781 -146.858812 L 89.321094 -146.858812 C 82.7625 -146.858812 81.250781 -144.585375 81.250781 -137.268969 L 81.250781 -87.308031 L 123.891406 -87.308031 L 123.891406 -61.315844 L 81.250781 -61.315844 Z M 250.309375 -172.847094 L 307.082812 -172.847094 L 258.8875 -65.608812 L 299.766406 9.590406 L 267.465625 9.590406 L 236.934375 -50.214281 L 234.914844 -50.214281 L 207.410937 9.590406 L 150.6375 9.590406 L 194.54375 -88.315844 L 148.871875 -172.847094 L 181.672656 -172.847094 L 215.989062 -104.464281 L 218.766406 -104.464281 Z M 250.309375 -172.847094 " transform="matrix(1, 0, 0, -1, 168.8625, 88.399)"/>
<path fill-rule="nonzero" fill="rgb(13.729858%, 12.159729%, 12.548828%)" fill-opacity="1" d="M 46.027344 31.796875 L 37.550781 36.160156 L 51.722656 63.667969 L 61.460938 58.652344 L 55.339844 46.769531 C 54.335938 41.578125 54.210938 35.792969 56.136719 34.800781 C 57.789062 33.953125 58.628906 34.910156 60.667969 38.871094 L 68.886719 54.828125 L 78.625 49.8125 L 68.707031 30.554688 C 65.476562 24.28125 61.085938 22.785156 55.75 25.535156 C 51.457031 27.746094 49.480469 31.339844 49.167969 35.191406 L 48.066406 35.757812 Z M 46.027344 31.796875 "/>
<path fill-rule="nonzero" fill="rgb(13.729858%, 12.159729%, 12.548828%)" fill-opacity="1" d="M 157.78125 24.585938 L 149.152344 20.542969 L 136.023438 48.5625 L 145.941406 53.210938 L 151.613281 41.105469 C 155.113281 37.140625 159.351562 34.070312 161.3125 34.988281 C 162.996094 35.777344 162.75 37.027344 160.808594 41.175781 L 153.507812 56.753906 L 163.425781 61.402344 L 169.125 49.242188 C 172.597656 45.332031 176.835938 42.261719 178.796875 43.179688 C 180.480469 43.96875 180.234375 45.21875 178.289062 49.367188 L 170.992188 64.945312 L 180.910156 69.59375 L 190.101562 49.980469 C 193.015625 43.761719 191.597656 39.199219 186.160156 36.652344 C 181.789062 34.605469 177.515625 35.265625 174.382812 37.285156 L 173.375 36.8125 C 174.207031 33.582031 172.824219 30.402344 168.398438 28.328125 C 164.308594 26.414062 160.527344 26.894531 156.898438 29.09375 L 155.890625 28.621094 Z M 157.78125 24.585938 "/>
<path fill-rule="nonzero" fill="rgb(13.729858%, 12.159729%, 12.548828%)" fill-opacity="1" d="M 216.980469 74.742188 C 213.714844 75.402344 210.414062 75.371094 207.074219 73.902344 C 202.484375 71.882812 199.960938 68.546875 200.101562 64.078125 L 218.742188 72.273438 C 218.742188 72.273438 219.863281 70.332031 220.363281 69.199219 C 224.171875 60.53125 221.429688 53.238281 213.5 49.753906 C 204.039062 45.59375 195.144531 50.132812 191.410156 58.632812 C 187.746094 66.960938 189.761719 75.757812 199.675781 80.113281 C 206.191406 82.980469 212.78125 82.292969 217.75 75.757812 Z M 208.488281 54.378906 C 211.664062 55.773438 213.242188 59.105469 212.730469 63.953125 L 201.175781 58.871094 L 201.648438 57.792969 C 203.144531 54.394531 206.054688 53.308594 208.488281 54.378906 "/>
<path fill-rule="nonzero" fill="rgb(13.729858%, 12.159729%, 12.548828%)" fill-opacity="1" d="M 259.136719 90.28125 C 259.492188 94.660156 263.210938 97.648438 267.15625 97.328125 C 270.734375 97.039062 272.894531 93.824219 272.601562 90.183594 C 272.296875 86.417969 268.710938 82.796875 264.640625 83.128906 C 260.816406 83.4375 258.84375 86.703125 259.136719 90.28125 M 270.898438 51.003906 L 280.554688 94.695312 L 291.25 92.328125 L 281.59375 48.640625 Z M 294.601562 77.296875 C 298.378906 86.382812 306.273438 89.734375 315.761719 85.789062 C 324.390625 82.203125 327.914062 72.625 324.113281 63.484375 C 320.332031 54.398438 312.324219 51.09375 303.007812 54.964844 C 294.839844 58.363281 290.464844 67.355469 294.601562 77.296875 M 300.234375 66.507812 C 299.808594 65.480469 299.777344 63.953125 301.546875 63.214844 C 305.320312 61.648438 316.148438 67.0625 318.835938 73.519531 C 319.261719 74.546875 319.292969 76.078125 317.523438 76.8125 C 313.582031 78.453125 302.898438 72.910156 300.234375 66.507812 M 318.949219 49.632812 L 344.082031 70.046875 L 353.339844 63.847656 L 344.5625 32.488281 L 339.367188 35.964844 L 344.066406 53 L 343.8125 53.171875 L 330.46875 41.921875 Z M 380.574219 27.507812 C 379.847656 30.757812 378.480469 33.761719 375.777344 36.21875 C 372.066406 39.589844 367.992188 40.535156 363.964844 38.589844 L 379.03125 24.894531 C 379.03125 24.894531 377.714844 23.078125 376.882812 22.164062 C 370.515625 15.15625 362.738281 14.699219 356.328125 20.527344 C 348.679688 27.480469 349.210938 37.449219 355.457031 44.320312 C 361.578125 51.050781 370.433594 52.785156 378.445312 45.5 C 383.710938 40.714844 385.765625 34.414062 381.8125 27.21875 Z M 358.515625 26.984375 C 361.082031 24.652344 364.765625 24.566406 368.988281 27 L 359.644531 35.492188 L 358.855469 34.621094 C 356.355469 31.875 356.546875 28.773438 358.515625 26.984375 "/>
<path fill-rule="nonzero" fill="rgb(13.729858%, 12.159729%, 12.548828%)" fill-opacity="1" d="M 250.699219 50.441406 L 247.480469 64.816406 C 246.074219 63.167969 243.21875 61.765625 240.742188 61.210938 C 232.164062 59.289062 225.324219 64.351562 222.984375 74.800781 C 220.914062 84.039062 224.027344 91.652344 231.636719 93.355469 C 235.921875 94.316406 239.363281 93.121094 241.898438 90.011719 L 242.925781 90.242188 L 242.003906 94.347656 L 251.609375 96.496094 L 261.390625 52.835938 Z M 242.710938 86.957031 C 235.519531 82.808594 232.800781 75.414062 233.871094 70.644531 C 234.480469 67.925781 236.125 67.089844 238.179688 67.550781 C 242.707031 68.566406 244.679688 76.746094 243.449219 86.488281 Z M 242.710938 86.957031 "/>
<path fill-rule="nonzero" fill="rgb(13.729858%, 12.159729%, 12.548828%)" fill-opacity="1" d="M 31.136719 69.746094 C 29.644531 70.851562 28.421875 70.136719 25.773438 66.554688 L 15.070312 52.070312 L 6.261719 58.578125 L 17.371094 73.609375 C 23.328125 81.671875 27.988281 82.460938 32.964844 78.78125 C 36.449219 76.210938 37.285156 73.28125 36.554688 69.898438 L 37.550781 69.160156 L 39.832031 72.246094 L 47.746094 66.398438 L 29.355469 41.511719 L 20.546875 48.023438 L 29.667969 60.367188 C 31.375 64.03125 32.929688 68.421875 31.136719 69.746094 "/>
<path fill-rule="nonzero" fill="rgb(13.729858%, 12.159729%, 12.548828%)" fill-opacity="1" d="M 74.003906 24.355469 L 78.230469 23.75 L 80.089844 36.671875 C 81.445312 46.105469 85.410156 48.914062 93.007812 47.820312 C 95.949219 47.398438 99.265625 46.109375 101.335938 44 L 99.355469 30.214844 L 98.132812 30.390625 C 97.410156 37.996094 96.25 39.476562 94.714844 39.699219 C 93.125 39.925781 91.984375 38.527344 91.148438 32.707031 L 89.625 22.109375 L 97.648438 20.957031 L 96.769531 14.832031 L 88.746094 15.984375 L 86.933594 3.363281 L 84.605469 3.699219 C 83.941406 9.109375 81.09375 11.457031 76.683594 12.964844 L 77.351562 17.621094 L 73.125 18.230469 Z M 74.003906 24.355469 "/>
<path fill-rule="nonzero" fill="rgb(13.729858%, 12.159729%, 12.548828%)" fill-opacity="1" d="M 123.527344 13.699219 C 119.421875 13.101562 113.769531 13.273438 109.074219 14.589844 L 107.441406 25.734375 L 108.546875 25.894531 C 115.242188 20.308594 119.480469 19.113281 122.117188 19.5 C 123.890625 19.757812 124.746094 20.757812 124.53125 22.226562 C 124.261719 24.066406 122.988281 25.066406 119.390625 25.292969 C 112.003906 25.777344 105.636719 26.96875 104.417969 35.296875 C 103.710938 40.136719 105.761719 44.5 112.128906 45.433594 C 116.84375 46.121094 119.828125 44.121094 122.011719 40.75 L 123.050781 40.902344 L 122.316406 45.921875 L 131.929688 47.328125 L 134.824219 27.546875 C 136.101562 18.792969 131.792969 14.910156 123.527344 13.699219 M 123.0625 37.398438 C 117.339844 37.1875 114.074219 35.148438 114.566406 31.777344 C 114.753906 30.492188 115.867188 29.71875 117.335938 29.933594 C 119.417969 30.238281 122.011719 32.179688 123.207031 36.417969 Z M 123.0625 37.398438 "/>
</svg>
