<?xml version="1.0" encoding="utf-8"?>
<!-- Generator: Adobe Illustrator 27.2.0, SVG Export Plug-In . SVG Version: 6.00 Build 0)  -->
<svg version="1.1" id="Ebene_1" xmlns="http://www.w3.org/2000/svg" xmlns:xlink="http://www.w3.org/1999/xlink" x="0px" y="0px"
	 viewBox="0 0 730.1 308.8" style="enable-background:new 0 0 730.1 308.8;" xml:space="preserve">
<g>
	<path d="M161.1,91h11l-15,52.2H144L128.8,91h11l10.7,39.8L161.1,91z"/>
	<path d="M183.5,143.2V91h34.7v8.9h-24.6v12h20.9v8.9h-20.9v13.4H219v9L183.5,143.2L183.5,143.2z"/>
	<path d="M230.8,143.2V91h10.1v43.3h27.8v9L230.8,143.2L230.8,143.2z"/>
	<path d="M273.7,117.1c0-16,6.6-26.9,20-26.9s20,10.8,20,26.9s-6.6,26.9-20,26.9S273.7,133.2,273.7,117.1z M293.7,135
		c6.9,0,9.9-6.7,9.9-17.9s-2.9-17.9-9.9-17.9h-0.1c-6.9,0-9.9,6.7-9.9,17.9s2.9,17.9,9.9,17.9H293.7z"/>
	<path d="M354.6,143.2L341,120.4l-5.6,6.8v16h-10.1V91h10.1v22.5L354.1,91h11.5l-18.1,21.6l18.4,30.6L354.6,143.2L354.6,143.2z"/>
	<path d="M374.8,125.6V91h10.1v33.1c0,7.6,3.3,11,8.7,11h0.3c5.4,0,8.7-3.4,8.7-11V91h10.1v34.6c0,11.3-7.1,18.4-18.9,18.4
		S374.8,136.9,374.8,125.6z"/>
	<path d="M456,118.4c5.5,0,8,2.8,8,7.3v17.5h-10.1v-14.9c0-3.7-1.1-4.9-4.9-4.9h-10.9v19.8h-10.1V91h20.6c9,0,16,6,16,14.2
		c0,6.6-2.9,11-8.9,13.2L456,118.4L456,118.4z M445.7,114.7c6,0,9-2.7,9-7.5s-3-7.2-9-7.2h-7.5v14.7H445.7z"/>
	<path d="M510.4,99.2h-10.3V135h10.3v8.2h-30.6V135H490V99.2h-10.2V91h30.6V99.2z"/>
	<path d="M525.2,143.2V91h34.7v8.9h-24.6v12h20.9v8.9h-20.9v13.4h25.4v9L525.2,143.2L525.2,143.2z"/>
	<path d="M600.8,118.4c5.5,0,8,2.8,8,7.3v17.5h-10.1v-14.9c0-3.7-1.1-4.9-4.8-4.9h-10.9v19.8h-10.1V91h20.6c9,0,16,6,16,14.2
		c0,6.6-2.9,11-8.9,13.2L600.8,118.4L600.8,118.4z M590.5,114.7c6,0,9-2.7,9-7.5s-3-7.2-9-7.2h-7.5v14.7H590.5z"/>
</g>
<g>
	<path d="M129.4,205.4c0-0.5,0-0.9,0.1-1.3h9.9v0.6c0,6,4.4,8.7,11.4,8.7c5.4,0,9.1-2.5,9.1-6c0-3.1-2.2-4.5-7.2-6.7l-6.5-2.8
		c-6.9-2.9-10.4-7.2-10.4-13.4c0-9.3,7.9-16,19.4-16c13.5,0,19.3,8.6,19.3,16.5v0.7h-9.9c-0.2-5.1-4.2-8.2-10.1-8.2
		c-5,0-8.7,2.5-8.7,6c0,3,2.2,4,4.7,5.1l8.3,3.7c8.1,3.7,11.3,7.1,11.3,13.6c0,9.5-7.8,16.3-19.7,16.3
		C135.8,222.3,129.4,214.6,129.4,205.4z"/>
	<path d="M187.6,221.6l9.2-43.3h-14.3l1.9-9h38.8l-1.9,9h-14.4l-9.2,43.3H187.6z"/>
	<path d="M217.2,221.6l2.3-10.8h10.8l-2.3,10.8H217.2z"/>
	<path d="M279.8,187.3c0.3-6.3-2.5-9.7-7.4-9.7c-9.7,0-14.2,13.4-14.2,24.4c0,8.4,4.5,11.4,9,11.4c5.3,0,9-4.1,10.5-10.1h-9.7l1.9-9
		h12.2c3.4,0,5.2,1.6,5.2,4.4c0,0.6-0.1,1.3-0.2,1.9l-4.4,20.9h-8.6l0.7-3.1c-2.7,2.8-5.8,3.8-10.2,3.8c-9.6,0-16.5-7.9-16.5-19
		c0-17.8,8.3-34.7,25.3-34.7c11,0,16.6,6.6,16.5,18.6L279.8,187.3L279.8,187.3z"/>
	<path d="M326.9,221.6l-0.8-12.3h-16l-6,12.3h-10.6l26.9-52.2h12.4l4.3,52.2H326.9z M314.5,200.3h11l-1.3-19.6L314.5,200.3z"/>
	<path d="M347.7,221.6l11-52.2h10.1l-9.2,43.3h27.8l-1.9,9H347.7z"/>
	<path d="M394,221.6l11-52.2h10.1l-9.2,43.3h27.8l-1.9,9H394z"/>
	<path d="M441.3,221.6l11-52.2H487l-1.9,9h-24.6l-2.5,12h20.9l-1.9,9h-20.9l-2.8,13.4h25.4l-1.9,9L441.3,221.6L441.3,221.6z"/>
	<path d="M527.3,169.4h10.1l-11,52.2H515l-8.6-34.8l-7.3,34.8H489l11-52.2h11.6l8.4,34.1L527.3,169.4z"/>
</g>
</svg>
