<?xml version="1.0" encoding="UTF-8" standalone="no"?>
<!-- Generator: Adobe Illustrator 24.1.0, SVG Export Plug-In . SVG Version: 6.00 Build 0)  -->

<svg
   version="1.1"
   id="Ebene_1"
   x="0px"
   y="0px"
   viewBox="0 0 219 46.5"
   style="enable-background:new 0 0 219 46.5;"
   xml:space="preserve"
   sodipodi:docname="VEL_Logo_Navigation_Desktop_schwarz.svg"
   inkscape:export-filename="C:\Users\Andrin\Documents\Velokurier Winterthur\webdesign\VEL_Webdesign\Logo\SVG\VEL_Logo_Navigation_Desktop_schwarz.png"
   inkscape:export-xdpi="72"
   inkscape:export-ydpi="72"
   inkscape:version="1.1.1 (3bf5ae0d25, 2021-09-20)"
   xmlns:inkscape="http://www.inkscape.org/namespaces/inkscape"
   xmlns:sodipodi="http://sodipodi.sourceforge.net/DTD/sodipodi-0.dtd"
   xmlns="http://www.w3.org/2000/svg"
   xmlns:svg="http://www.w3.org/2000/svg"><defs
   id="defs53" /><sodipodi:namedview
   id="namedview51"
   pagecolor="#ffffff"
   bordercolor="#666666"
   borderopacity="1.0"
   inkscape:pageshadow="2"
   inkscape:pageopacity="0.0"
   inkscape:pagecheckerboard="0"
   showgrid="false"
   inkscape:zoom="5.9178082"
   inkscape:cx="109.58449"
   inkscape:cy="23.234954"
   inkscape:window-width="1920"
   inkscape:window-height="1111"
   inkscape:window-x="-9"
   inkscape:window-y="-9"
   inkscape:window-maximized="1"
   inkscape:current-layer="Ebene_1" />
<style
   type="text/css"
   id="style2">
	.st0{fill:#000000;}
</style>
<g
   id="g48">
	<path
   class="st0"
   d="M149.5,13.6"
   id="path4" />
	<g
   id="g26">
		<path
   class="st0"
   d="M103.1,39l0.7,2.5c0.1,0.6,0.3,1.1,0.4,1.6h0c0.1-0.5,0.3-1,0.4-1.6l0.8-2.5h0.8l0.8,2.5    c0.2,0.6,0.3,1.1,0.4,1.6h0c0.1-0.5,0.2-1,0.4-1.6l0.7-2.5h0.9l-1.6,5h-0.8l-0.8-2.4c-0.2-0.6-0.3-1.1-0.4-1.6h0    c-0.1,0.6-0.3,1.1-0.5,1.7l-0.8,2.4h-0.8l-1.5-5H103.1z"
   id="path6" />
		<path
   class="st0"
   d="M117.6,37.6c0,0.3-0.2,0.6-0.6,0.6c-0.3,0-0.5-0.2-0.5-0.6c0-0.3,0.2-0.6,0.6-0.6    C117.4,37,117.6,37.3,117.6,37.6z M116.6,44v-5h0.9v5H116.6z"
   id="path8" />
		<path
   class="st0"
   d="M125.3,40.4c0-0.5,0-1,0-1.4h0.8l0,0.8h0c0.3-0.5,0.8-0.9,1.7-0.9c0.7,0,1.8,0.4,1.8,2.1v3h-0.9v-2.9    c0-0.8-0.3-1.5-1.2-1.5c-0.6,0-1.1,0.4-1.2,0.9c0,0.1-0.1,0.3-0.1,0.4v3h-0.9V40.4z"
   id="path10" />
		<path
   class="st0"
   d="M138.3,37.8V39h1.3v0.7h-1.3v2.7c0,0.6,0.2,1,0.7,1c0.3,0,0.4,0,0.5-0.1l0,0.7c-0.2,0.1-0.5,0.1-0.8,0.1    c-0.4,0-0.8-0.1-1-0.4c-0.3-0.3-0.3-0.7-0.3-1.3v-2.7h-0.8V39h0.8v-0.9L138.3,37.8z"
   id="path12" />
		<path
   class="st0"
   d="M147.3,41.7c0,1.2,0.8,1.7,1.7,1.7c0.7,0,1-0.1,1.4-0.3l0.1,0.7c-0.3,0.1-0.9,0.3-1.7,0.3    c-1.5,0-2.5-1-2.5-2.5c0-1.5,0.9-2.7,2.4-2.7c1.6,0,2.1,1.4,2.1,2.4c0,0.2,0,0.3,0,0.4H147.3z M149.9,41c0-0.6-0.2-1.5-1.3-1.5    c-0.9,0-1.3,0.9-1.4,1.5H149.9z"
   id="path14" />
		<path
   class="st0"
   d="M158.2,40.6c0-0.6,0-1.1,0-1.6h0.8l0,1h0c0.2-0.7,0.8-1.1,1.4-1.1c0.1,0,0.2,0,0.3,0v0.9c-0.1,0-0.2,0-0.3,0    c-0.6,0-1.1,0.5-1.2,1.2c0,0.1,0,0.3,0,0.4V44h-0.9V40.6z"
   id="path16" />
		<path
   class="st0"
   d="M169.1,37.8V39h1.3v0.7h-1.3v2.7c0,0.6,0.2,1,0.7,1c0.2,0,0.4,0,0.5-0.1l0,0.7c-0.2,0.1-0.4,0.1-0.8,0.1    c-0.4,0-0.8-0.1-1-0.4c-0.3-0.3-0.4-0.7-0.4-1.3v-2.7h-0.8V39h0.8v-0.9L169.1,37.8z"
   id="path18" />
		<path
   class="st0"
   d="M177.6,36.7h0.9v3.1h0c0.1-0.3,0.4-0.5,0.7-0.6c0.3-0.2,0.6-0.3,0.9-0.3c0.7,0,1.7,0.4,1.7,2.1v3H181v-2.9    c0-0.8-0.3-1.5-1.2-1.5c-0.6,0-1.1,0.4-1.2,0.9c0,0.1-0.1,0.3-0.1,0.4v3h-0.9V36.7z"
   id="path20" />
		<path
   class="st0"
   d="M193.8,42.6c0,0.5,0,1,0,1.4H193l-0.1-0.8h0c-0.2,0.4-0.8,0.9-1.6,0.9c-0.8,0-1.7-0.4-1.7-2.2V39h0.9v2.8    c0,1,0.3,1.6,1.1,1.6c0.6,0,1-0.4,1.2-0.8c0-0.1,0.1-0.3,0.1-0.5V39h0.9V42.6z"
   id="path22" />
		<path
   class="st0"
   d="M201.5,40.6c0-0.6,0-1.1,0-1.6h0.8l0,1h0c0.2-0.7,0.8-1.1,1.4-1.1c0.1,0,0.2,0,0.3,0v0.9c-0.1,0-0.2,0-0.3,0    c-0.6,0-1.1,0.5-1.2,1.2c0,0.1,0,0.3,0,0.4V44h-0.9V40.6z"
   id="path24" />
	</g>
	<path
   class="st0"
   d="M53.3,32.6H42.6c-1.7,0-2.6-1.1-2.6-2.7c0-4.6,1.7-9.4,1.7-14c0-1.3-38.4-1.4-39.4-1.4L47,12.1   c1.1,0,1.8,0.9,1.8,1.9c0,3.4-1.4,12.7-1.8,16.5l4.8-18.3h7L53.3,32.6z"
   id="path28" />
	<path
   class="st0"
   d="M75.4,26.7h-9.2l-0.3,2.8H75l-0.3,3.1h-2.2h-8.7c-2.1,0-5.3,0.2-5-2.7c0.4-4.1,1.3-10.7,1.9-14.6   c0.2-1.7,1.8-3.2,3.6-3.2h9.9c1.9,0,2.8,1.5,2.8,3.2C76.4,19.1,75.9,22.9,75.4,26.7z M67.7,15.3l-1.1,8.2h2.2l1-8.2H67.7z"
   id="path30" />
	<path
   class="st0"
   d="M85,28.8c-0.1,1.2,1.8,1.4,2.7,1.4l-0.3,2.4h-7.9c-0.9,0-1.6-1.1-1.6-1.9c0-4.6,2-17.2,2.6-22.4   c0.2-1.6-1.4-1.7-2.5-1.8l0.3-2.3l7.6,0C87,4.1,88,5,87.8,6C86.9,13.6,85.9,21.5,85,28.8z"
   id="path32" />
	<path
   class="st0"
   d="M106,32.6h-2.2H95c-2.1,0-5,0.2-5-2.8c0-3.7,1.4-10.7,1.8-14.7c0.2-1.7,1.8-3.2,3.6-3.2h9.9   c1.7,0,3,1.5,2.8,3.2L106,32.6z M98.9,15.1l-1.7,14.2h2.2l0.9-7.6l0.8-6.6H98.9z"
   id="path34" />
	<path
   class="st0"
   d="M127.9,32.6h-7.6c-1.1,0-1.9-0.8-1.9-1.9c0-2.5,0.6-5.4,0.9-8h-2.2l-1.2,9.8h-7l2.7-21.9   c0.1-0.9,0.4-1.8,0.4-2.7c0-1.3-1.6-1.4-2.5-1.5l0.3-2.3h7.5c1.1,0,2.1,1,2,2.2l-0.7,5.9c3.1,0,8.8-1.5,8.8,3.2   c0,2-0.7,4.8-3.3,4.3c1.5,0.4,2.6,1.5,2.4,3.1l-0.6,5.1c0,0.3-0.1,0.6-0.1,1c0,1.2,1.6,1.4,2.5,1.4L127.9,32.6z M118.1,15.3   l-0.5,4.3h2.2l0.5-4.2L118.1,15.3z"
   id="path36" />
	<path
   class="st0"
   d="M146.6,32.6h-13.1c-1.6,0-2.8-1.2-2.8-2.8c0-4.6,1.7-9.3,1.7-13.9c0-1.2-1.6-1.4-2.5-1.5l0.3-2.4h7.6   c1.2,0,2.1,1,2,2.2l-1.9,15.1h2.2l2.1-17.3h7L146.6,32.6z"
   id="path38" />
	<path
   class="st0"
   d="M166.9,18.7h-7l0.4-3.4h-2.2l-2,17.3h-7c0,0,1.6-13.4,2.1-17.3c0.2-1.8,1.8-3.2,3.6-3.2h9.9   c1.9,0,2.8,1.5,2.8,3.2C167.4,16.4,167,17.6,166.9,18.7z"
   id="path40" />
	<path
   class="st0"
   d="M196.1,26.7h-9.2l-0.3,2.8h9.1l-0.3,3.1h-2.2h-8.7c-2.1,0-5.3,0.2-5-2.7c0.4-4.1,1.3-10.7,1.9-14.6   c0.2-1.7,1.8-3.2,3.5-3.2h9.9c1.9,0,2.8,1.5,2.8,3.2C197.1,19.1,196.5,22.9,196.1,26.7z M188.4,15.3l-1.1,8.2h2.2l1-8.2H188.4z"
   id="path42" />
	<path
   class="st0"
   d="M215.3,18.7h-7l0.4-3.4h-2.2l-2,17.3h-7c0,0,1.6-13.4,2.1-17.3c0.2-1.8,1.8-3.2,3.5-3.2h9.9   c1.9,0,2.8,1.5,2.8,3.2C215.8,16.4,215.4,17.6,215.3,18.7z"
   id="path44" />
	<path
   class="st0"
   d="M176.9,32.5H169c-0.9,0-1.6-1.1-1.6-1.9c0-3.8,1.7-14.3,2.3-18.6h7c-0.5,4.2-2.1,12.8-2.1,16.7   c0,1.2,1.7,1.5,2.6,1.4L176.9,32.5z M176.9,9.9h-7l0.2-1.7c0.2-1.6-45.8-1.7-46.9-1.8c0,0,9-0.8,11.7-0.9   c8.5-0.2,40.5-1.5,40.5-1.5c1.1,0,1.9,0.9,1.9,1.9C177.3,7.3,177.1,8.7,176.9,9.9z"
   id="path46" />
</g>
</svg>
